<?xml version="1.0" encoding="utf-8"?>
<!-- Generator: Adobe Illustrator 15.1.0, SVG Export Plug-In . SVG Version: 6.00 Build 0)  -->
<!DOCTYPE svg PUBLIC "-//W3C//DTD SVG 1.1//EN" "http://www.w3.org/Graphics/SVG/1.1/DTD/svg11.dtd">
<svg version="1.1" id="Calque_1" xmlns="http://www.w3.org/2000/svg" xmlns:xlink="http://www.w3.org/1999/xlink" x="0px" y="0px"
	 width="199.999px" height="54px" viewBox="208.463 394.445 199.999 54" enable-background="new 208.463 394.445 199.999 54"
	 xml:space="preserve">
<g>
	<path fill="#FFFFFF" d="M307.892,429.578c-0.195,0.348-0.29,0.746-0.275,1.149c0,1.414,0.76,2.418,2.039,2.418h9.804
		c2.856,0.217,2.856-4.19,0-3.971h-6.766l8.492-16.367c0.179-0.39,0.274-0.814,0.274-1.243c0.049-0.579-0.136-1.153-0.524-1.588
		c-0.384-0.435-0.93-0.691-1.51-0.714h-9.391c-2.858-0.218-2.858,4.191,0,3.97h6.763L307.892,429.578z M326.672,411.095v20.265
		c0,2.672,4.007,2.672,4.007,0v-20.288c0-2.672-4.007-2.672-4.007,0 M336.712,415.859v10.734c0.009,1.818,0.746,3.554,2.044,4.824
		c1.292,1.267,3.043,1.967,4.86,1.944h0.309c1.826,0.032,3.578-0.674,4.881-1.954c1.299-1.28,2.026-3.023,2.026-4.846v-5.11
		c-0.026-1.099-0.909-1.98-2.003-2.004h-4.408c-2.456,0.187-2.456,3.787,0,3.972h2.486v3.173c-0.014,0.764-0.328,1.488-0.881,2.017
		c-0.551,0.525-1.293,0.804-2.053,0.782h-0.312c-0.766,0.013-1.497-0.276-2.044-0.81c-0.549-0.528-0.854-1.26-0.86-2.021v-10.702
		c0.006-0.759,0.318-1.487,0.86-2.011c0.547-0.53,1.284-0.812,2.044-0.788h0.312c1.237-0.173,2.414,0.593,2.757,1.795
		c0.173,1.008,1.056,1.741,2.075,1.727c0.481,0.051,0.96-0.095,1.326-0.411c0.36-0.312,0.583-0.765,0.604-1.243v-0.207
		c-0.479-3.333-3.399-5.766-6.763-5.631h-0.312c-1.818-0.03-3.572,0.67-4.871,1.94c-1.298,1.271-2.03,3.012-2.035,4.829
		 M355.698,429.601c-0.195,0.349-0.29,0.746-0.276,1.149c0,1.414,0.76,2.418,2.039,2.418h9.803c2.859,0.217,2.859-4.191,0-3.97
		h-6.732l8.495-16.367c0.177-0.39,0.272-0.814,0.276-1.244c0.05-0.578-0.14-1.154-0.524-1.588s-0.932-0.69-1.515-0.714h-9.377
		c-2.858-0.216-2.858,4.191,0,3.975h6.764L355.698,429.601z M372.857,430.75c-0.08,0.207-0.116,0.433-0.103,0.654
		c0.018,0.534,0.248,1.035,0.636,1.397c0.389,0.362,0.905,0.557,1.435,0.538c0.873,0.013,1.646-0.57,1.868-1.415l1.274-4.177h6.836
		l1.28,4.177c0.199,0.841,0.959,1.435,1.826,1.415c0.534,0.019,1.049-0.176,1.438-0.538c0.39-0.362,0.615-0.863,0.633-1.397
		c0-0.222-0.037-0.442-0.104-0.654l-6.28-19.99c-0.176-1.058-1.144-1.795-2.21-1.691c-1.071-0.123-2.049,0.624-2.21,1.691
		L372.857,430.75L372.857,430.75z M379.209,423.777l2.176-7.285l2.175,7.285H379.209L379.209,423.777z M394.343,415.837v10.734
		c0.014,1.818,0.746,3.55,2.044,4.82c1.297,1.271,3.047,1.971,4.859,1.948h0.313c1.822,0.032,3.58-0.674,4.878-1.953
		c1.298-1.278,2.031-3.024,2.024-4.848v-5.109c-0.021-1.099-0.907-1.981-2.001-2.003h-4.499c-2.451,0.186-2.451,3.786,0,3.971h2.486
		v3.173c-0.013,0.765-0.33,1.487-0.881,2.018c-0.552,0.523-1.294,0.804-2.052,0.781h-0.312c-0.766,0.012-1.497-0.277-2.044-0.81
		c-0.549-0.533-0.855-1.261-0.855-2.021v-10.702c0-0.76,0.312-1.487,0.859-2.012c0.543-0.529,1.28-0.81,2.04-0.787h0.312
		c1.237-0.172,2.413,0.593,2.762,1.796c0.167,1.008,1.049,1.74,2.071,1.727c0.479,0.05,0.957-0.1,1.324-0.412
		c0.366-0.312,0.584-0.763,0.605-1.247v-0.203c-0.48-3.333-3.4-5.765-6.763-5.629h-0.312c-1.819-0.033-3.572,0.669-4.871,1.939
		c-1.298,1.271-2.029,3.012-2.034,4.828"/>
	<g>
		<polygon fill="#FFFFFF" points="262.518,434.193 266.689,438.227 290.145,413.931 285.973,409.901 		"/>
		<polygon fill="#FFFFFF" points="223.955,421.241 224.81,412.028 208.463,428.959 212.635,432.988 		"/>
		<polygon fill="#FFFFFF" points="234.493,425.294 236.035,408.639 231.919,404.659 229.535,430.424 		"/>
		<polygon fill="#FFFFFF" points="262.714,411.743 263.579,402.492 223.782,443.714 227.959,447.743 		"/>
		<polygon fill="#FFFFFF" points="273.247,415.777 274.791,399.122 270.674,395.147 268.29,420.912 273.247,415.777 		"/>
	</g>
</g>
</svg>
