<svg xmlns="http://www.w3.org/2000/svg" width="199.999" height="54" viewBox="208.463 394.445 199.999 54" enable-background="new 208.463 394.445 199.999 54"><title>Zigzag</title><g fill="#fff"><path d="M307.892 429.578c-.195.348-.29.746-.275 1.149 0 1.414.76 2.418 2.039 2.418h9.804c2.856.217 2.856-4.19 0-3.971h-6.766l8.492-16.367c.179-.39.274-.814.274-1.243.049-.579-.136-1.153-.524-1.588-.384-.435-.93-.691-1.51-.714h-9.391c-2.858-.218-2.858 4.191 0 3.97h6.763l-8.906 16.346zm18.78-18.483v20.265c0 2.672 4.007 2.672 4.007 0v-20.288c0-2.672-4.007-2.672-4.007 0m10.04 4.787v10.734c.009 1.818.746 3.554 2.044 4.824 1.292 1.267 3.043 1.967 4.86 1.944h.309c1.826.032 3.578-.674 4.881-1.954 1.299-1.28 2.026-3.023 2.026-4.846v-5.11c-.026-1.099-.909-1.98-2.003-2.004h-4.408c-2.456.187-2.456 3.787 0 3.972h2.486v3.173c-.014.764-.328 1.488-.881 2.017-.551.525-1.293.804-2.053.782h-.312c-.766.013-1.497-.276-2.044-.81-.549-.528-.854-1.26-.86-2.021v-10.702c.006-.759.318-1.487.86-2.011.547-.53 1.284-.812 2.044-.788h.312c1.237-.173 2.414.593 2.757 1.795.173 1.008 1.056 1.741 2.075 1.727.481.051.96-.095 1.326-.411.36-.312.583-.765.604-1.243v-.207c-.479-3.333-3.399-5.766-6.763-5.631h-.312c-1.818-.03-3.572.67-4.871 1.94-1.298 1.271-2.03 3.012-2.035 4.829m18.944 13.743c-.195.349-.29.746-.276 1.149 0 1.414.76 2.418 2.039 2.418h9.803c2.859.217 2.859-4.191 0-3.97h-6.732l8.495-16.367c.177-.39.272-.814.276-1.244.05-.578-.14-1.154-.524-1.588s-.932-.69-1.515-.714h-9.377c-2.858-.216-2.858 4.191 0 3.975h6.764l-8.953 16.341zm17.159 1.149c-.08.207-.116.433-.103.654.018.534.248 1.035.636 1.397.389.362.905.557 1.435.538.873.013 1.646-.57 1.868-1.415l1.274-4.177h6.836l1.28 4.177c.199.841.959 1.435 1.826 1.415.534.019 1.049-.176 1.438-.538.39-.362.615-.863.633-1.397 0-.222-.037-.442-.104-.654l-6.28-19.99c-.176-1.058-1.144-1.795-2.21-1.691-1.071-.123-2.049.624-2.21 1.691l-6.319 19.99zm6.352-6.973l2.176-7.285 2.175 7.285h-4.351zm15.134-7.94v10.734c.014 1.818.746 3.55 2.044 4.82 1.297 1.271 3.047 1.971 4.859 1.948h.313c1.822.032 3.58-.674 4.878-1.953 1.298-1.278 2.031-3.024 2.024-4.848v-5.109c-.021-1.099-.907-1.981-2.001-2.003h-4.499c-2.451.186-2.451 3.786 0 3.971h2.486v3.173c-.013.765-.33 1.487-.881 2.018-.552.523-1.294.804-2.052.781h-.312c-.766.012-1.497-.277-2.044-.81-.549-.533-.855-1.261-.855-2.021v-10.702c0-.76.312-1.487.859-2.012.543-.529 1.28-.81 2.04-.787h.312c1.237-.172 2.413.593 2.762 1.796.167 1.008 1.049 1.74 2.071 1.727.479.05.957-.1 1.324-.412.366-.312.584-.763.605-1.247v-.203c-.48-3.333-3.4-5.765-6.763-5.629h-.312c-1.819-.033-3.572.669-4.871 1.939-1.298 1.271-2.029 3.012-2.034 4.828"/><path d="M262.518 434.193l4.171 4.034 23.456-24.296-4.172-4.03zM223.955 421.241l.855-9.213-16.347 16.931 4.172 4.029zM234.493 425.294l1.542-16.655-4.116-3.98-2.384 25.765zM262.714 411.743l.865-9.251-39.797 41.222 4.177 4.029zM273.247 415.777l1.544-16.655-4.117-3.975-2.384 25.765 4.957-5.135z"/></g></svg>
