<svg xmlns="http://www.w3.org/2000/svg" width="640" height="480" viewBox="0 0 640 480"><style type="text/css"><![CDATA[ .filter-multiply{ mix-blend-mode: multiply; }]]></style><path fill="#D3A8B8" class="filter-multiply" d="M239.999 0v.001l-239.999 239.999 240 240 .001-.001h399.999v-479.999z"/><path fill="#554596" class="filter-multiply" d="M-.003 240.001l82.377-82.377 82.377 82.377-82.377 82.377z"/><g fill="#fff"><path d="M82.431 154.113l-84.431 84.482 1.729 1.733 82.702-82.635 77.189 77.186.005-.006.041.036 3.884-3.885v-3.45l-3.828 3.831zM82.431 322.307l-74.652-74.653-1.79 1.791 76.442 76.442 78.774-78.774-1.791-1.79zM167.693 226.836l-1.702-1.703v9.628l1.702-1.702zM188.419 231.47l-8.052 8.052-1.725-1.725 8.052-8.052zM182.072 225.112l-1.703-1.702v9.628l1.703-1.703zM165.991 241.238l11.938-11.938v-3.45l-13.662 13.662z"/></g><path fill="#fff" d="M110.93 214.925h3.46v-.574h-2.768v-2.979h2.34v-.575h-2.34v-2.746h2.768v-.574h-3.46v7.448zm-4.551-3.895v-2.979h1.064c1.064 0 1.542.587 1.542 1.491 0 .904-.478 1.491-1.542 1.491h-1.064v-.003zm-.692 3.895h.692v-3.32h.904c.853 0 1.575.32 1.597 1.382l.033 1.935h.692l-.033-1.935c-.013-.841-.532-1.458-1.011-1.639.588-.203 1.116-.765 1.116-1.808 0-1.702-1.116-2.065-2.234-2.065h-1.757v7.45h.001zm-3.384.157c.692 0 2.074-.266 2.074-2.18v-5.428h-.692v5.428c0 1.225-.744 1.605-1.382 1.605s-1.382-.384-1.382-1.605v-5.428h-.692v5.428c0 1.914 1.382 2.18 2.074 2.18m-7.438-7.033h1.787v6.873h.692v-6.873h1.787v-.574h-4.267v.574h.001zm-4.606 4.853c0 1.862 1.276 2.18 1.969 2.18 1.382 0 1.978-1.01 1.978-1.968v-.212h-.692v.212c0 .853-.541 1.394-1.288 1.394-.638 0-1.276-.436-1.276-1.606v-3.405c0-1.17.639-1.605 1.276-1.605.743 0 1.288.542 1.288 1.394v.211h.692v-.211c0-.958-.596-1.969-1.978-1.969-.692 0-1.969.321-1.969 2.18v3.405zm-4.287 2.023h3.459v-.574h-2.768v-2.979h2.341v-.575h-2.341v-2.746h2.768v-.574h-3.459v7.448zm-5.416-6.876h1.787v6.873h.692v-6.873h1.787v-.574h-4.267v.574h.001zm-1.959 6.876h.691v-7.447h-.691v7.447zm-4.83 0v-3.553h2.662v3.553h.691v-7.447h-.691v3.32h-2.662v-3.32h-.691v7.447h.691zm-5.736-2.023c0 1.862 1.276 2.18 1.968 2.18 1.383 0 1.979-1.01 1.979-1.968v-.212h-.693v.212c0 .853-.541 1.394-1.287 1.394-.639 0-1.277-.436-1.277-1.606v-3.405c0-1.17.638-1.605 1.277-1.605.743 0 1.287.542 1.287 1.394v.211h.693v-.211c0-.958-.596-1.969-1.979-1.969-.692 0-1.968.321-1.968 2.18v3.405zm-4.448-1.872v-2.979h1.064c1.064 0 1.542.587 1.542 1.491 0 .904-.478 1.491-1.542 1.491h-1.064v-.003zm-.689 3.895h.692v-3.32h.904c.853 0 1.575.32 1.596 1.382l.034 1.935h.692l-.033-1.935c-.012-.841-.532-1.458-1.01-1.639.587-.203 1.116-.765 1.116-1.808 0-1.702-1.116-2.065-2.234-2.065h-1.757v7.45zm-4.663-5.428c0-1.225.692-1.605 1.33-1.605.638 0 1.331.384 1.331 1.605v1.297h-2.661v-1.297zm1.331-2.18c-.692 0-2.023.266-2.023 2.18v5.428h.693v-3.553h2.661v3.553h.692v-5.428c-.001-1.914-1.331-2.18-2.023-2.18m-3.523-.853l-.19 1.66.617.076.19-1.66-.617-.076zm-4.318 1.585h1.382c.638 0 1.225.384 1.225 1.605v3.084c0 1.225-.587 1.605-1.225 1.605h-1.382v-6.294zm-.693 6.876h2.075c.692 0 1.914-.266 1.914-2.18v-3.084c0-1.914-1.225-2.18-1.914-2.18h-2.075v7.444zM97.667 202.004h3.351v-.575h-2.661v-6.873h-.692v7.448h.002zm-4.659-5.427c0-1.225.692-1.606 1.33-1.606s1.331.384 1.331 1.606v1.297h-2.661v-1.297zm1.33-2.181c-.692 0-2.022.266-2.022 2.18v5.428h.692v-3.553h2.661v3.553h.691v-5.428c.001-1.913-1.329-2.18-2.022-2.18m-5.948 7.69h.037c.202 0 .326-.133.404-.339l2.393-6.422.027-.164c0-.206-.151-.39-.345-.39-.161 0-.281.145-.345.287l-2.145 5.972-2.135-5.951c-.061-.175-.184-.308-.362-.308-.194 0-.354.193-.354.399l.037.185 2.383 6.392c.07.206.2.339.405.339m-4.756-.082h.692v-7.448h-.692v7.448zm-5.531-6.873h1.787v6.873h.693v-6.873h1.787v-.575h-4.268v.575h.001zm-2.799 7.034c.691 0 2.096-.321 2.096-2.074 0-2.501-3.418-1.99-3.418-3.726 0-.958.681-1.394 1.318-1.394.744 0 1.34.542 1.34 1.394v.212h.692v-.212c0-.958-.649-1.968-2.032-1.968-.691 0-2.01.32-2.01 1.968 0 2.289 3.416 1.724 3.416 3.726 0 1.064-.765 1.5-1.402 1.5-.854 0-1.403-.701-1.403-1.394v-.212h-.692v.212c-.001.903.658 1.968 2.095 1.968m-6.353-.161h3.459v-.575h-2.767v-2.979h2.341v-.574h-2.341v-2.746h2.767v-.575h-3.459v7.449zm-4.554-7.447v7.448h.692v-3.553h2.234v-.574h-2.234v-2.746h2.767v-.575h-3.459zM96.428 277.43h3.459v-.574h-2.767v-2.979h2.34v-.574h-2.34v-2.746h2.767v-.574h-3.459v7.447zm-5.041-2.023c0 1.862 1.276 2.181 1.969 2.181 1.382 0 1.978-1.01 1.978-1.969v-.212h-.692v.212c0 .853-.542 1.394-1.288 1.394-.639 0-1.276-.435-1.276-1.605v-3.405c0-1.17.638-1.605 1.276-1.605.744 0 1.288.541 1.288 1.395v.211h.692v-.211c0-.959-.596-1.969-1.978-1.969-.692 0-1.969.32-1.969 2.18v3.403zm-4.554-3.405c0-1.225.692-1.605 1.33-1.605.639 0 1.331.385 1.331 1.605v1.298h-2.661v-1.298zm1.329-2.18c-.693 0-2.023.266-2.023 2.18v5.428h.692v-3.553h2.661v3.553h.692v-5.428c0-1.914-1.331-2.18-2.022-2.18m-6.575 3.701v-2.967h1.275c1.064 0 1.543.587 1.543 1.491s-.479 1.479-1.543 1.479h-1.275v-.003zm0 3.907v-3.328h1.275c1.116 0 2.234-.352 2.234-2.054s-1.115-2.065-2.234-2.065h-1.969v7.447h.694zm-3.937.158c.693 0 2.096-.32 2.096-2.074 0-2.501-3.417-1.99-3.417-3.727 0-.958.681-1.393 1.318-1.393.744 0 1.34.541 1.34 1.393v.213h.692v-.213c0-.958-.65-1.968-2.032-1.968-.692 0-2.011.32-2.011 1.968 0 2.289 3.417 1.725 3.417 3.727 0 1.064-.765 1.5-1.403 1.5-.853 0-1.402-.702-1.402-1.395v-.212h-.693v.212c-.001.907.659 1.969 2.095 1.969m-6.353-.158h3.459v-.574h-2.766v-2.979h2.34v-.574h-2.34v-2.746h2.767v-.574h-3.459v7.447zm-1.766-8.46l-.19 1.66.617.075.19-1.66-.617-.075zm-4 8.46h3.351v-.574h-2.662v-6.873h-.692v7.447h.003zM110.268 264.51h3.459v-.574h-2.77v-2.979h2.341v-.575h-2.341v-2.745h2.767v-.574h-3.459v7.447h.003zm-4.554-6.873h1.382c.638 0 1.225.384 1.225 1.605v3.084c0 1.225-.587 1.605-1.225 1.605h-1.382v-6.294zm-.693 6.873h2.075c.692 0 1.914-.267 1.914-2.181v-3.084c0-1.914-1.225-2.181-1.914-2.181h-2.075v7.446zm-6.011.16c.692 0 2.096-.32 2.096-2.074 0-2.501-3.417-1.99-3.417-3.726 0-.958.68-1.394 1.318-1.394.744 0 1.34.541 1.34 1.394v.212h.692v-.212c0-.958-.65-1.969-2.032-1.969-.692 0-2.011.321-2.011 1.969 0 2.289 3.417 1.724 3.417 3.726 0 1.064-.766 1.5-1.403 1.5-.853 0-1.403-.702-1.403-1.395v-.211h-.691v.211c0 .904.658 1.969 2.094 1.969m-7.066-7.033h1.787v6.873h.692v-6.873h1.787v-.574h-4.267v.574h.001zm-4.128 2.978v-2.979h1.064c1.064 0 1.543.586 1.543 1.49s-.479 1.49-1.543 1.49h-1.064v-.001zm-.692 3.895h.692v-3.32h.904c.854 0 1.576.32 1.597 1.382l.033 1.935h.692l-.033-1.935c-.012-.841-.532-1.458-1.01-1.64.586-.202 1.115-.764 1.115-1.808 0-1.702-1.115-2.065-2.234-2.065h-1.757v7.451h.001zm-4.66-5.428c0-1.225.692-1.605 1.33-1.605.639 0 1.33.384 1.33 1.605v1.297h-2.66v-1.297zm1.33-2.181c-.692 0-2.023.267-2.023 2.181v5.428h.693v-3.553h2.66v3.553h.693v-5.428c.001-1.914-1.33-2.181-2.023-2.181m-7.979 7.769c.692 0 2.095-.32 2.095-2.074 0-2.501-3.416-1.99-3.416-3.726 0-.958.68-1.394 1.318-1.394.744 0 1.34.541 1.34 1.394v.212h.691v-.212c0-.958-.65-1.969-2.031-1.969-.693 0-2.012.321-2.012 1.969 0 2.289 3.418 1.724 3.418 3.726 0 1.064-.766 1.5-1.403 1.5-.853 0-1.403-.702-1.403-1.395v-.211h-.692v.211c-.001.904.658 1.969 2.095 1.969m-6.353-.16h3.459v-.574h-2.768v-2.979h2.341v-.575h-2.341v-2.745h2.768v-.574h-3.459v7.447zm-4.554-6.873h1.382c.638 0 1.225.384 1.225 1.605v3.084c0 1.225-.586 1.605-1.225 1.605h-1.382v-6.294zm-.69 6.873h2.074c.693 0 1.915-.267 1.915-2.181v-3.084c0-1.914-1.225-2.181-1.915-2.181h-2.074v7.446zm-7.97-6.873h1.787v6.873h.692v-6.873h1.787v-.574h-4.267v.574h.001zm-4.554 6.873h3.459v-.574h-2.767v-2.979h2.34v-.575h-2.34v-2.745h2.767v-.574h-3.459v7.447z"/><path fill="#F18A5D" d="M126.41 248.256h7.021v-14.296h-6.625v2.627h3.638v9.039h-4.033c-1.945 0-4.034-1.333-4.034-4.899v-10.658c0-3.602 2.089-4.935 4.034-4.935 2.23 0 4.033 1.657 4.033 4.212v.829h2.99v-.829c0-3.314-2.268-6.807-7.021-6.807-2.412 0-6.984 1.08-6.984 7.526v10.659c-.005 6.414 4.567 7.532 6.981 7.532m-23.59-18.188c0-3.783 2.054-4.935 3.998-4.935 1.908 0 3.998 1.152 3.998 4.935v3.889h-7.996v-3.889zm0 18.188v-11.668h7.996v11.668h2.953v-18.188c0-6.625-4.574-7.526-6.951-7.526s-6.951.901-6.951 7.526v18.186h2.953v.002zm-8.569 0v-2.627h-10.695c.178-8.031 10.876-10.731 10.876-20.311v-2.268h-13.612v2.628h10.622c-.218 8.067-10.841 10.804-10.841 20.311v2.268h13.65zm-26.289 0h7.021v-14.296h-6.625v2.627h3.638v9.039h-4.034c-1.944 0-4.034-1.333-4.034-4.899v-10.658c0-3.602 2.089-4.935 4.034-4.935 2.231 0 4.034 1.657 4.034 4.212v.829h2.99v-.829c0-3.314-2.268-6.807-7.021-6.807-2.413 0-6.985 1.08-6.985 7.526v10.659c-.003 6.414 4.569 7.532 6.982 7.532m-16.132 0h2.918v-25.209h-2.918v25.209zm-6.193 0v-2.627h-10.695c.181-8.031 10.876-10.731 10.876-20.311v-2.268h-13.613v2.628h10.623c-.215 8.067-10.84 10.804-10.84 20.311v2.268h13.649z"/></svg>
