<svg xmlns="http://www.w3.org/2000/svg" width="32" height="32" viewBox="0.5 0.5 32 32" enable-background="new 0.5 0.5 32 32"><title>location</title><path fill="#544595" d="M16.5 32.5l-9.641-11.369-.398-.518c-1.647-2.168-2.537-4.818-2.533-7.542 0-6.943 5.629-12.571 12.572-12.571s12.572 5.628 12.572 12.572c.006 2.723-.885 5.372-2.533 7.54l-.002.002-.391.514-9.646 11.372z"/><path fill="#FFFFFD" d="M19.397 15.576l.912.984 4.269-4.592-.914-.985-4.267 4.593zm-10.974-2.624l.915.984 2.06-2.216v-1.97l-2.975 3.202zm3.354 3.608l.913.985 6.329-6.811v-1.968l-7.242 7.794zm.912-8.201v5.492l.902-.971v-3.55l-.901-.971h-.001zm7.621-.984v5.493l.902-.972v-3.551l-.902-.97z"/></svg>
