<svg xmlns="http://www.w3.org/2000/svg" width="596" height="556" viewBox="0.14 841.445 596 556" enable-background="new 0.14 841.445 596 556"><title>Zigzag — festival d&apos;architecture et des arts de l&apos;espace — du 25 septembre au 10 octobre 2021</title><path fill="#E6F306" d="M32.896 1076.422l-5.729-5.729v32.378l5.729-5.728v-20.921zm48.067-5.73l-5.603-5.728v32.253l5.603-5.729v-20.796zm-53.797 54.045l39.976-40.097v-11.456l-45.828 45.701 5.852 5.852zm-21.293-21.169l13.075-13.075v-11.581l-18.803 18.802 5.728 5.854zm96.385-11.582l238.594-238.594 249.553 249.429 5.729-5.729-255.282-255.281-247.064 247.064-24.281 24.281 5.854 5.729 26.897-26.899zm238.594 293.513l-241.334-241.335-5.729 5.854 247.063 247.062 254.659-254.66-5.853-5.728-248.806 248.807zm-134.739-184.923c.624 0 1.122-.373 1.122-1.122v-6.476h4.234c.746 0 1.12-.624 1.12-1.122 0-.623-.374-1.12-1.12-1.12h-4.234v-4.732h6.226c.749 0 1.122-.623 1.122-1.122 0-.623-.373-1.121-1.122-1.121h-7.471c-.623 0-1.122.623-1.122 1.121v14.695c-.001.626.622.999 1.245.999zm21.296-1.245c0-.624-.375-1.122-1.122-1.122h-6.226v-5.23h4.231c.749 0 1.122-.624 1.122-1.122 0-.623-.373-1.12-1.122-1.12h-4.231v-4.732h6.226c.747 0 1.122-.623 1.122-1.122 0-.623-.375-1.121-1.122-1.121h-7.471c-.624 0-1.122.623-1.122 1.121v14.569c0 .623.623 1.121 1.122 1.121h7.471c.747-.124 1.122-.745 1.122-1.242zm7.346 1.245h.25c2.74 0 4.857-1.869 4.857-4.607 0-5.105-7.471-5.604-7.471-7.969v-.499c0-1.245 1.245-1.868 2.365-1.868h.25c1.245 0 1.993.25 2.24 1.62.125.623.498 1.12 1.245 1.12.623 0 1.122-.497 1.122-1.12v-.125c-.124-2.49-2.367-3.735-4.607-3.735h-.25c-2.24 0-4.607 1.743-4.607 4.358v.499c0 4.481 7.473 4.481 7.473 7.844 0 1.37-1.122 2.242-2.49 2.242h-.375c-1.369 0-2.49-.872-2.49-2.492 0-.747-.624-1.12-1.12-1.12-.499 0-1.122.373-1.122 1.12-.002 2.989 2.238 4.732 4.73 4.732zm16.936-15.94c0-.624-.373-1.12-1.12-1.12h-7.098c-.749 0-1.122.623-1.122 1.12 0 .623.374 1.122 1.122 1.122h2.365v13.573c0 .747.623 1.12 1.122 1.12.623 0 1.122-.373 1.122-1.12v-13.573h2.365c.871 0 1.244-.5 1.244-1.122zm4.483-1.368c-.623 0-1.121.373-1.121 1.12v14.943c0 .747.623 1.12 1.121 1.12.497 0 1.12-.373 1.12-1.12v-14.943c.126-.624-.498-1.12-1.12-1.12zm6.35 0c-.747 0-1.245.496-1.245 1.12v.375l3.612 14.693c.123.748.746.995 1.368.995s1.247-.373 1.37-.995l3.612-14.693v-.375c0-.624-.498-1.12-1.245-1.12-.498 0-.997.25-1.122.871l-2.615 11.332-2.613-11.332c-.25-.498-.747-.871-1.122-.871zm19.8 16.436c.248.624.624.872 1.12.872.749 0 1.245-.498 1.245-1.122v-.373l-4.607-14.818c-.25-.624-.746-.872-1.368-.872s-1.122.373-1.37.872l-4.607 14.818v.373c0 .624.498 1.122 1.245 1.122.499 0 .997-.25 1.122-.872l.995-3.238h5.479l.746 3.238zm-5.728-5.603l1.991-6.477 1.994 6.477h-3.985zm12.701-10.833c-.623 0-1.12.373-1.12 1.12v14.695c0 .623.497 1.121 1.12 1.121h6.601c.747 0 1.12-.623 1.12-1.121 0-.624-.373-1.122-1.12-1.122h-5.479v-13.573c.123-.624-.499-1.12-1.122-1.12zm20.548.248c-.624 0-1.122.623-1.122 1.12v14.568c0 .623.624 1.122 1.122 1.122h3.858c2.615 0 4.734-1.869 4.734-4.732v-7.348c0-2.863-2.117-4.732-4.734-4.732h-3.858v.002zm6.351 4.732v7.348c0 1.368-1.12 2.49-2.49 2.49h-2.613v-12.328h2.613c1.369 0 2.49 1.118 2.49 2.49zm6.102-3.862v.748c0 .995-.123 1.245-.497 1.869-.125.25-.25.496-.25.746 0 .624.624.995 1.12.995.997 0 1.869-1.618 1.869-3.735v-.496c0-.749-.624-1.122-1.12-1.122-.5-.123-1.122.25-1.122.995zm14.32 15.318c.248.624.623.872 1.12.872.748 0 1.245-.498 1.245-1.122v-.373l-4.607-14.818c-.25-.624-.747-.872-1.368-.872-.622 0-1.122.373-1.37.872l-4.607 14.818v.373c0 .624.498 1.122 1.247 1.122.496 0 .995-.25 1.12-.872l.995-3.238h5.479l.746 3.238zm-5.729-5.603l1.992-6.477 1.994 6.477h-3.986zm19.055 5.852c.25.496.623.623.995.623.747 0 1.245-.498 1.245-1.122 0-.123 0-.373-.123-.496l-2.74-5.853c1.868-.624 3.113-2.492 3.113-4.484v-.25c0-2.613-2.117-4.732-4.732-4.732h-3.985c-.624 0-1.122.624-1.122 1.122v14.693c0 .749.624 1.122 1.245 1.122.622 0 1.122-.373 1.122-1.122v-6.103h1.992l2.99 6.602zm-5.231-14.195h2.863c1.37 0 2.367 1.12 2.367 2.49v.25c0 1.368-.995 2.49-2.367 2.49h-2.863v-5.23zm15.939-.127h.25c1.245 0 2.24.872 2.367 2.117.123.623.496.995 1.12.995.748 0 1.245-.497 1.245-1.245v-.124c0-2.367-2.365-4.108-4.732-4.108h-.25c-2.614 0-4.732 1.992-4.732 4.732v7.844c0 2.615 2.117 4.734 4.732 4.734h.25c2.367 0 4.732-1.743 4.732-4.11v-.124c0-.746-.374-1.245-1.245-1.245-.624 0-.995.374-1.12.995-.25 1.245-1.122 2.117-2.367 2.117h-.25c-1.368 0-2.49-.995-2.49-2.367v-7.844c.124-1.369 1.244-2.367 2.49-2.367zm16.188 13.823c0 .749.624 1.122 1.12 1.122.624 0 1.122-.373 1.122-1.122v-14.941c0-.749-.623-1.122-1.122-1.122-.623 0-1.12.373-1.12 1.122v5.978h-5.105v-5.978c0-.749-.623-1.122-1.12-1.122-.623 0-1.122.373-1.122 1.122v14.941c0 .749.624 1.122 1.122 1.122.624 0 1.12-.373 1.12-1.122v-6.476h5.105v6.476zm7.223-14.941v14.941c0 .749.624 1.122 1.122 1.122.623 0 1.12-.373 1.12-1.122v-14.941c0-.749-.623-1.122-1.12-1.122-.5-.123-1.122.373-1.122 1.122zm11.582 14.941v-13.573h2.365c.748 0 1.121-.623 1.121-1.12 0-.623-.373-1.122-1.121-1.122h-6.973c-.749 0-1.122.624-1.122 1.122 0 .623.373 1.12 1.122 1.12h2.365v13.573c0 .749.623 1.122 1.122 1.122.622 0 1.121-.373 1.121-1.122zm15.314-13.696c.749 0 1.122-.624 1.122-1.122 0-.624-.373-1.12-1.122-1.12h-7.471c-.623 0-1.12.623-1.12 1.12v14.568c0 .624.624 1.122 1.12 1.122h7.471c.749 0 1.122-.624 1.122-1.122 0-.623-.373-1.12-1.122-1.12h-6.226v-5.23h4.234c.747 0 1.122-.624 1.122-1.122 0-.623-.376-1.122-1.122-1.122h-4.234v-4.732h6.226v-.12zm14.074 10.708c0-.87-.373-1.369-1.245-1.369-.624 0-.995.374-1.122.995-.25 1.245-1.12 2.117-2.365 2.117h-.25c-1.37 0-2.49-.995-2.49-2.367v-7.844c0-1.369 1.12-2.367 2.49-2.367h.25c1.245 0 2.24.871 2.365 2.117.125.623.498.994 1.122.994.747 0 1.245-.496 1.245-1.245v-.123c0-2.367-2.367-4.108-4.732-4.108h-.25c-2.615 0-4.732 1.991-4.732 4.732v7.844c0 2.615 2.115 4.734 4.732 4.734h.25c2.365 0 4.732-1.744 4.732-4.11zm11.582-11.83c0-.624-.375-1.12-1.121-1.12h-6.975c-.747 0-1.12.623-1.12 1.12 0 .623.373 1.122 1.12 1.122h2.367v13.573c0 .747.623 1.12 1.122 1.12.623 0 1.12-.373 1.12-1.12v-13.573h2.366c.746 0 1.121-.501 1.121-1.122zm12.95 11.206v-11.331c0-.749-.623-1.122-1.122-1.122-.623 0-1.121.373-1.121 1.122v11.331c0 1.37-1.12 2.492-2.491 2.492h-.25c-1.368 0-2.49-1.122-2.49-2.492v-11.331c0-.749-.623-1.122-1.12-1.122-.623 0-1.121.373-1.121 1.122v11.331c0 2.615 2.116 4.734 4.731 4.734h.251c2.616 0 4.733-2.117 4.733-4.734zm13.198 4.734c.749 0 1.245-.498 1.245-1.122 0-.123 0-.373-.123-.497l-2.74-5.852c1.868-.624 3.113-2.492 3.113-4.484v-.25c0-2.613-2.116-4.732-4.732-4.732h-3.985c-.623 0-1.122.623-1.122 1.122v14.693c0 .749.624 1.122 1.246 1.122.621 0 1.121-.373 1.121-1.122v-6.103h1.992l3.113 6.725c.127.25.499.5.872.5zm-6.099-9.715v-5.104h2.863c1.369 0 2.367 1.12 2.367 2.49v.25c0 1.368-.997 2.49-2.367 2.49h-2.863v-.126zm20.048-5.103c.746 0 1.12-.624 1.12-1.122 0-.624-.374-1.12-1.12-1.12h-7.474c-.623 0-1.119.623-1.119 1.12v14.568c0 .623.623 1.122 1.119 1.122h7.474c.746 0 1.12-.624 1.12-1.122 0-.623-.374-1.12-1.12-1.12h-6.228v-5.23h4.233c.747 0 1.122-.624 1.122-1.122 0-.623-.374-1.122-1.122-1.122h-4.233v-4.732h6.228v-.12zm-258.022 25.774c.748 0 1.121-.623 1.121-1.12 0-.623-.373-1.122-1.121-1.122h-7.472c-.623 0-1.121.624-1.121 1.122v14.568c0 .624.623 1.122 1.121 1.122h7.472c.748 0 1.121-.623 1.121-1.122 0-.623-.373-1.121-1.121-1.121h-6.227v-5.231h4.234c.747 0 1.12-.623 1.12-1.12 0-.623-.373-1.121-1.12-1.121h-4.234v-4.732h6.227v-.123zm7.847 14.696c.623 0 1.12-.373 1.12-1.122v-13.573h2.367c.746 0 1.122-.623 1.122-1.12 0-.623-.376-1.122-1.122-1.122h-6.975c-.747 0-1.12.624-1.12 1.122 0 .624.373 1.12 1.12 1.12h2.367v13.573c-.001.748.497 1.122 1.121 1.122zm14.692-.124h3.86c2.614 0 4.732-1.869 4.732-4.734v-7.348c0-2.863-2.116-4.732-4.732-4.732h-3.86c-.623 0-1.12.624-1.12 1.122v14.568c-.125.626.499 1.124 1.12 1.124zm1.122-14.572h2.613c1.37 0 2.492 1.122 2.492 2.49v7.348c0 1.37-1.122 2.49-2.492 2.49h-2.613v-12.328zm13.075 14.572h7.473c.747 0 1.12-.624 1.12-1.122 0-.623-.373-1.122-1.12-1.122h-6.228v-5.23h4.233c.749 0 1.122-.623 1.122-1.12 0-.623-.373-1.122-1.122-1.122h-4.233v-4.732h6.228c.747 0 1.12-.623 1.12-1.121 0-.624-.373-1.122-1.12-1.122h-7.473c-.624 0-1.12.623-1.12 1.122v14.568c0 .503.496 1.001 1.12 1.001zm16.314.124c2.74 0 4.857-1.868 4.857-4.607 0-5.105-7.471-5.604-7.471-7.969v-.374c0-1.245 1.245-1.868 2.365-1.868h.25c1.245 0 1.993.25 2.242 1.618.123.624.496 1.122 1.245 1.122.623 0 1.12-.498 1.12-1.122v-.123c-.123-2.49-2.365-3.735-4.607-3.735h-.25c-2.24 0-4.607 1.742-4.607 4.358v.497c0 4.484 7.473 4.484 7.473 7.846 0 1.369-1.122 2.24-2.49 2.24h-.25c-1.37 0-2.49-.871-2.49-2.49 0-.746-.624-1.121-1.122-1.121s-1.122.375-1.122 1.121c0 2.989 2.242 4.732 4.734 4.732h.123v-.125zm23.038-.748c.25.624.624.87 1.122.87.747 0 1.245-.496 1.245-1.12v-.373l-4.607-14.818c-.25-.624-.748-.872-1.37-.872s-1.12.373-1.368.872l-4.607 14.818v.373c0 .624.497 1.12 1.245 1.12.497 0 .995-.248 1.12-.87l.997-3.238h5.477l.746 3.238zm-5.729-5.603l1.993-6.476 1.992 6.476h-3.985zm19.052 5.728c.25.499.624.624.995.624.749 0 1.245-.498 1.245-1.122 0-.123 0-.373-.123-.496l-2.74-5.853c1.868-.624 3.113-2.49 3.113-4.484v-.25c0-2.613-2.116-4.732-4.731-4.732h-3.984c-.623 0-1.122.624-1.122 1.122v14.693c0 .749.624 1.122 1.245 1.122.622 0 1.122-.373 1.122-1.122v-6.101h1.992l2.988 6.599zm-5.231-14.073h2.864c1.37 0 2.366 1.122 2.366 2.49v.25c0 1.37-.995 2.49-2.366 2.49h-2.864v-5.23zm14.696 14.696c.624 0 1.12-.373 1.12-1.122v-13.573h2.367c.748 0 1.122-.623 1.122-1.12 0-.623-.374-1.122-1.122-1.122h-6.973c-.748 0-1.122.624-1.122 1.122 0 .624.374 1.12 1.122 1.12h2.365v13.573c-.124.748.499 1.122 1.121 1.122zm11.707 0h.25c2.738 0 4.855-1.868 4.855-4.607 0-5.105-7.471-5.604-7.471-7.969v-.374c0-1.245 1.245-1.868 2.366-1.868h.25c1.246 0 1.992.25 2.24 1.618.124.624.497 1.122 1.246 1.122.623 0 1.121-.498 1.121-1.122v-.123c-.125-2.49-2.367-3.735-4.607-3.735h-.125c-2.24 0-4.606 1.741-4.606 4.358v.497c0 4.484 7.471 4.484 7.471 7.846 0 1.369-1.12 2.24-2.49 2.24h-.249c-1.37 0-2.491-.871-2.491-2.49 0-.746-.624-1.122-1.12-1.122-.499 0-1.122.376-1.122 1.122-.253 2.863 1.99 4.607 4.482 4.607zm27.019-4.858v-7.348c0-2.863-2.116-4.732-4.732-4.732h-3.858c-.623 0-1.122.624-1.122 1.122v14.568c0 .624.624 1.122 1.122 1.122h3.858c2.615.002 4.732-1.867 4.732-4.732zm-7.47-9.838h2.615c1.368 0 2.488 1.122 2.488 2.49v7.348c0 1.37-1.12 2.49-2.488 2.49h-2.615v-12.328zm21.668 13.45c0-.623-.374-1.122-1.12-1.122h-6.228v-5.23h4.233c.747 0 1.122-.623 1.122-1.12 0-.623-.375-1.122-1.122-1.122h-4.358v-4.732h6.226c.748 0 1.122-.623 1.122-1.121 0-.624-.374-1.122-1.122-1.122h-7.471c-.624 0-1.122.623-1.122 1.122v14.568c0 .623.623 1.122 1.122 1.122h7.471c.872-.121 1.247-.62 1.247-1.243zm18.057 0c0-.623-.374-1.122-1.122-1.122h-5.479v-13.573c0-.747-.623-1.12-1.12-1.12-.623 0-1.121.373-1.121 1.12v14.695c0 .623.498 1.122 1.121 1.122h6.6c.747 0 1.121-.499 1.121-1.122zm5.229-14.195v-.498c0-.747-.623-1.12-1.122-1.12-.498 0-1.245.373-1.245 1.12v.748c0 .995-.123 1.245-.498 1.869-.123.25-.248.496-.248.746 0 .624.623.995 1.12.995 1.121-.125 1.993-1.87 1.993-3.86zm13.2 14.195c0-.623-.373-1.122-1.12-1.122h-6.226v-5.23h4.231c.749 0 1.122-.623 1.122-1.12 0-.623-.373-1.122-1.122-1.122h-4.231v-4.732h6.226c.747 0 1.12-.623 1.12-1.121 0-.624-.373-1.122-1.12-1.122h-7.471c-.624 0-1.122.623-1.122 1.122v14.568c0 .623.623 1.122 1.122 1.122h7.471c.747-.121 1.12-.62 1.12-1.243zm7.472 1.246h.25c2.739 0 4.855-1.868 4.855-4.607 0-5.105-7.471-5.604-7.471-7.969v-.374c0-1.245 1.245-1.868 2.367-1.868h.25c1.245 0 1.992.25 2.24 1.618.123.624.497 1.122 1.245 1.122.623 0 1.12-.498 1.12-1.122v-.123c-.123-2.49-2.365-3.735-4.607-3.735h-.248c-2.242 0-4.607 1.741-4.607 4.358v.497c0 4.484 7.471 4.484 7.471 7.846 0 1.369-1.122 2.24-2.49 2.24h-.25c-1.368 0-2.49-.871-2.49-2.49 0-.746-.624-1.122-1.122-1.122-.623 0-1.12.376-1.12 1.122-.25 2.863 1.99 4.607 4.607 4.607zm10.085 0c.623 0 1.121-.373 1.121-1.122v-6.349h2.741c2.613 0 4.606-2.117 4.606-4.734 0-2.613-1.993-4.732-4.606-4.732h-3.986c-.623 0-1.121.624-1.121 1.122v14.693c.126.748.748 1.122 1.245 1.122zm1.246-14.696h2.74c1.37 0 2.242 1.122 2.242 2.49 0 1.37-.872 2.49-2.242 2.49h-2.74v-4.98zm9.59 14.696c.497 0 .995-.25 1.12-.872l.995-3.236h5.479l.995 3.236c.25.624.623.872 1.121.872.747 0 1.246-.498 1.246-1.122v-.373l-4.607-14.818c-.25-.624-.747-.872-1.369-.872-.621 0-1.121.373-1.37.872l-4.607 14.818v.373c-.125.748.372 1.122.997 1.122zm4.856-12.827l1.994 6.476h-3.985l1.991-6.476zm14.072-1.992h.25c1.245 0 2.24.872 2.365 2.117.125.623.498.995 1.122.995.747 0 1.245-.499 1.245-1.246v-.123c0-2.367-2.367-4.11-4.732-4.11h-.25c-2.615 0-4.732 1.993-4.732 4.734v7.844c0 2.615 2.115 4.732 4.732 4.732h.25c2.365 0 4.732-1.741 4.732-4.108v-.124c0-.748-.373-1.245-1.245-1.245-.624 0-.995.374-1.122.995-.248 1.245-1.12 2.117-2.365 2.117h-.25c-1.37 0-2.49-.997-2.49-2.367v-7.844c0-1.37 1.118-2.367 2.49-2.367zm17.309.123c.747 0 1.122-.623 1.122-1.12 0-.623-.375-1.122-1.122-1.122h-7.471c-.623 0-1.122.624-1.122 1.122v14.568c0 .624.624 1.122 1.122 1.122h7.471c.747 0 1.122-.623 1.122-1.122 0-.623-.375-1.121-1.122-1.121h-6.226v-5.231h4.234c.746 0 1.12-.623 1.12-1.12 0-.623-.374-1.121-1.12-1.121h-4.234v-4.732h6.226v-.123zm-228.882-221.409c0-3.735-2.863-5.978-6.476-5.978-4.358 0-6.724 2.615-6.724 6.352h3.86c0-1.619.995-2.989 2.863-2.989 1.744 0 2.615 1.12 2.615 2.615 0 .872-.375 1.869-1.122 2.74l-8.219 9.837v2.988h13.45v-3.487h-8.468l5.853-6.973c1.248-1.37 2.368-3.113 2.368-5.105zm18.432 8.468c0-3.985-2.24-7.098-6.477-7.098-1.868 0-3.238.499-4.233 1.37l.25-4.856h9.588v-3.362h-12.825l-.499 11.955h3.735c.623-1.12 1.868-1.744 3.113-1.744 2.49 0 3.485 1.619 3.485 3.86 0 2.24-.87 4.109-3.485 4.109-1.991 0-3.485-1.12-3.612-3.237h-3.858c.25 3.985 3.114 6.601 7.348 6.601 4.852-.001 7.47-3.114 7.47-7.598zm18.303 4.109c-1.245 0-2.74-.249-3.61-1.12-.624-.624-1.122-1.619-1.122-2.615h-3.985c0 1.991.995 3.86 2.24 4.982 1.743 1.618 4.11 2.24 6.476 2.24 2.615 0 5.23-.624 6.85-2.365 1.121-1.122 1.743-2.49 1.743-4.482 0-3.737-2.74-5.728-5.978-6.228l-4.734-.499c-1.245-.248-2.24-.994-2.24-2.365 0-.746.251-1.37.749-1.868.87-.872 2.24-1.245 3.485-1.245 1.122 0 2.613.373 3.237 1.12.498.498.871 1.37.997 2.117h3.985c0-1.744-.872-3.362-2.242-4.607-1.495-1.37-3.735-2.117-5.978-2.117-2.49 0-4.857.872-6.351 2.242-1.12 1.12-1.869 2.613-1.869 4.233 0 3.61 2.49 5.479 5.479 5.978 1.368.249 3.362.249 4.732.624 1.37.248 2.615.995 2.615 2.615 0 .995-.374 1.493-.872 2.117-.617.995-2.112 1.243-3.607 1.243zm12.701 3.113h15.317v-3.61h-11.331v-5.854h9.963v-3.611h-9.963v-4.98h11.331v-3.487h-15.317v21.542zm28.146-21.542h-8.47v21.543h3.861v-7.721h4.606c4.981 0 7.595-2.74 7.595-6.975.003-4.231-2.612-6.847-7.592-6.847zm-.127 10.336h-4.358v-6.973h4.358c2.616 0 3.861 1.37 3.861 3.485.001 2.118-1.244 3.488-3.861 3.488zm8.967-6.726h6.353v17.933h3.858v-17.933h6.476v-3.61h-16.687v3.61zm19.926 17.932h15.44v-3.61h-11.457v-5.854h10.087v-3.611h-10.087v-4.98h11.457v-3.487h-15.44v21.542zm30.631-6.225l-5.602-15.317h-5.354v21.543h3.859v-15.565l5.604 15.192h2.864l5.604-15.067v15.44h3.735v-21.543h-4.98l-5.73 15.317zm32.501-9.465c0-1.868-.869-3.61-2.49-4.732-1.495-.995-3.236-1.245-4.98-1.245h-8.593v21.543h8.593c2.117 0 4.109-.125 5.729-1.495 1.495-1.245 2.24-2.863 2.24-4.855s-1.122-3.86-3.114-4.857c1.745-.624 2.615-2.615 2.615-4.359zm-12.201-2.49h4.857c1.742 0 3.36.624 3.36 2.74 0 1.992-1.493 2.615-3.237 2.615h-4.98v-5.355zm4.856 14.693h-4.857v-5.977h4.981c2.116 0 3.735.871 3.735 3.113-.122 2.118-2.115 2.864-3.859 2.864zm28.64-11.456c0-3.487-2.365-6.725-7.471-6.725h-9.09v21.543h3.985v-8.095h4.732l3.612 8.095h4.232l-3.984-8.841c2.366-.746 3.984-3.114 3.984-5.977zm-7.47 3.239h-5.231v-6.477h5.231c2.241 0 3.612 1.494 3.612 3.237-.125 2.119-1.371 3.24-3.612 3.24zm26.773-6.351v-3.487h-15.317v21.543h15.317v-3.61h-11.332v-5.854h9.964v-3.611h-9.964v-4.98h11.332zm-228.632 49.561v-21.169h-3.237l-5.107 3.735v4.233l4.609-3.361v16.562h3.735zm12.826-21.543c-2.241 0-3.86.872-4.981 1.869-2.24 2.117-2.491 5.604-2.491 9.091s.376 6.975 2.491 9.092c1.121 1.121 2.615 1.868 4.981 1.868s3.859-.872 4.981-1.868c2.24-2.117 2.49-5.604 2.49-9.092 0-3.485-.374-6.973-2.49-9.091-1.121-.997-2.614-1.869-4.981-1.869zm0 18.43c-3.86 0-3.611-4.732-3.611-7.473 0-2.739-.374-7.472 3.611-7.472 3.986 0 3.611 4.732 3.611 7.472.001 2.741.376 7.473-3.611 7.473zm26.526-18.803c-2.367 0-4.607.747-6.228 2.49-2.365 2.365-2.738 5.23-2.738 8.718 0 3.485.373 6.351 2.738 8.717 1.62 1.618 3.86 2.49 6.228 2.49 2.365 0 4.607-.747 6.227-2.49 2.365-2.365 2.74-5.231 2.74-8.717 0-3.487-.375-6.476-2.74-8.718-1.747-1.743-3.987-2.49-6.227-2.49zm3.36 17.309c-.87.872-2.115 1.37-3.36 1.37s-2.615-.498-3.361-1.37c-1.496-1.495-1.496-4.233-1.496-6.226s0-4.607 1.496-6.228c.871-.872 2.116-1.368 3.361-1.368s2.614.498 3.36 1.368c1.495 1.495 1.495 4.234 1.495 6.228 0 1.994-.001 4.731-1.495 6.226zm17.435-17.309c-2.367 0-4.484.747-6.103 2.49-2.365 2.365-2.614 5.23-2.614 8.718 0 3.485.374 6.477 2.614 8.717 1.618 1.618 3.86 2.365 6.103 2.365 2.241 0 4.606-.872 6.226-2.616 1.245-1.245 1.868-2.988 2.117-4.731h-3.986c-.123.994-.373 1.743-.995 2.365-.748.871-1.868 1.37-3.238 1.37-1.245 0-2.49-.499-3.36-1.37-1.495-1.496-1.495-4.234-1.495-6.227 0-1.991 0-4.607 1.495-6.228.87-.871 2.115-1.368 3.36-1.368 1.37 0 2.615.498 3.238 1.368.499.624.872 1.37.995 2.242h3.986c-.124-1.743-.872-3.362-2.117-4.732-1.743-1.491-3.985-2.363-6.226-2.363zm20.172 21.916v-17.933h6.353v-3.61h-16.687v3.61h6.351v17.933h3.983zm17.311-21.916c-2.367 0-4.607.747-6.228 2.49-2.365 2.365-2.741 5.23-2.741 8.718 0 3.485.376 6.351 2.741 8.717 1.62 1.618 3.86 2.49 6.228 2.49 2.365 0 4.605-.747 6.226-2.49 2.365-2.365 2.74-5.231 2.74-8.717 0-3.487-.375-6.476-2.74-8.718-1.62-1.743-3.861-2.49-6.226-2.49zm3.486 17.309c-.871.872-2.116 1.37-3.361 1.37s-2.615-.498-3.362-1.37c-1.495-1.495-1.495-4.233-1.495-6.226s0-4.607 1.495-6.228c.872-.872 2.117-1.368 3.362-1.368s2.613.498 3.361 1.368c1.496 1.495 1.496 4.234 1.496 6.228 0 1.994-.001 4.731-1.496 6.226zm18.432-16.936h-8.593v21.543h8.593c2.114 0 4.108-.125 5.727-1.495 1.495-1.245 2.24-2.863 2.24-4.855s-1.12-3.86-3.113-4.857c1.868-.872 2.615-2.738 2.615-4.607 0-1.868-.872-3.61-2.49-4.732-1.371-.748-3.238-.997-4.979-.997zm-4.609 3.363h4.855c1.743 0 3.362.624 3.362 2.74 0 1.992-1.495 2.615-3.237 2.615h-4.98v-5.355zm4.732 14.693h-4.857v-5.978h4.98c2.117 0 3.737.872 3.737 3.114 0 2.241-1.992 2.864-3.86 2.864zm12.078-18.056v21.543h3.985v-8.095h4.732l3.612 8.095h4.233l-3.985-8.841c2.365-.872 3.985-3.114 3.985-6.103 0-3.485-2.367-6.725-7.473-6.725h-9.089v.125zm12.701 6.725c0 1.992-1.245 3.237-3.485 3.237h-5.23v-6.477h5.23c2.117.003 3.485 1.497 3.485 3.24zm7.972 14.818h15.316v-3.487h-11.458v-5.978h10.088v-3.487h-10.088v-4.98h11.458v-3.61h-15.316v21.542zm39.102-15.565c0-3.735-2.865-5.978-6.476-5.978-4.359 0-6.725 2.615-6.725 6.351h3.859c0-1.618.996-2.988 2.865-2.988 1.741 0 2.613 1.12 2.613 2.615 0 .872-.373 1.869-1.12 2.74l-8.219 9.838v2.989h13.449v-3.487h-8.469l5.853-6.973c1.248-1.372 2.37-3.24 2.37-5.107zm10.958-5.978c-2.24 0-3.858.872-4.98 1.869-2.24 2.116-2.49 5.604-2.49 9.091s.373 6.975 2.49 9.092c1.122 1.121 2.615 1.868 4.98 1.868 2.367 0 3.86-.872 4.98-1.868 2.242-2.117 2.49-5.604 2.49-9.092 0-3.485-.373-6.973-2.49-9.091-1.12-.997-2.738-1.869-4.98-1.869zm0 18.43c-3.858 0-3.61-4.732-3.61-7.474 0-2.738-.375-7.471 3.61-7.471s3.612 4.732 3.612 7.471c-.002 2.742.371 7.474-3.612 7.474zm11.208.125v2.988h13.448v-3.487h-8.468l5.853-6.973c1.245-1.37 2.365-3.236 2.365-5.23 0-3.735-2.863-5.978-6.476-5.978-4.359 0-6.723 2.615-6.723 6.351h3.859c0-1.618.995-2.988 2.863-2.988 1.744 0 2.615 1.122 2.615 2.615 0 .872-.373 1.869-1.122 2.74l-8.214 9.962zm26.148 2.988v-21.169h-3.235l-5.23 3.735v4.233l4.607-3.362v16.562h3.858zm-293.26 104.604h35.241c2.863 0 4.484-2.241 4.484-4.483s-1.496-4.482-4.484-4.482h-29.514l33.249-63.759c2.117-3.985-.25-8.219-4.607-8.219h-33.372c-2.989 0-4.482 2.241-4.482 4.483 0 2.24 1.368 4.482 4.482 4.482h27.645l-33.126 63.509c-1.868 3.486 0 8.469 4.484 8.469zm70.856-3.735v-73.348c0-2.864-2.241-4.484-4.483-4.484s-4.484 1.495-4.484 4.484v73.346c0 2.864 2.242 4.482 4.484 4.482 2.242-.121 4.483-1.616 4.483-4.48zm71.853-17.807v-18.182c0-2.366-2.117-4.483-4.484-4.483h-16.688c-2.863 0-4.483 2.242-4.483 4.483 0 2.242 1.495 4.482 4.483 4.482h12.328v13.699c0 7.348-5.979 13.323-13.323 13.323h-1.121c-7.348 0-13.324-5.978-13.324-13.323v-37.858c0-7.223 5.978-13.2 13.324-13.2h1.121c7.595 0 12.078 4.982 13.323 11.456.497 2.615 2.491 3.735 4.482 3.735 2.242 0 4.484-1.493 4.484-4.358v-.747c-1.495-10.958-10.833-19.053-22.166-19.053h-1.122c-12.328 0-22.165 9.838-22.165 22.167v37.731c0 12.328 9.962 22.166 22.165 22.166h1.122c12.081.128 22.044-9.837 22.044-22.038zm58.776-59.277h-33.372c-2.989 0-4.484 2.242-4.484 4.482 0 2.241 1.37 4.481 4.484 4.481h27.644l-33.125 63.511c-1.868 3.485 0 8.468 4.484 8.468h35.241c2.863 0 4.482-2.24 4.482-4.484 0-2.24-1.495-4.482-4.482-4.482h-29.514l33.249-63.758c2.117-3.984-.248-8.218-4.607-8.218zm19.425 77.207c0 2.367 1.869 4.359 4.607 4.359 1.742 0 3.362-.995 4.109-3.113l5.23-16.812h28.891l5.104 16.812c.749 2.24 2.49 3.113 4.234 3.113 2.74 0 4.606-1.992 4.606-4.359 0-.498-.123-.994-.25-1.37l-22.913-73.221c-.748-2.117-2.863-3.237-5.355-3.237-2.365 0-4.605 1.12-5.229 3.237l-22.788 73.221c-.121.375-.246.871-.246 1.37zm28.268-62.015l11.705 37.358h-23.287l11.582-37.358zm68.615-6.974h1.122c7.595 0 12.078 4.982 13.323 11.456.497 2.615 2.49 3.735 4.482 3.735 2.242 0 4.484-1.493 4.484-4.358v-.747c-1.496-10.958-10.834-19.053-22.167-19.053h-1.122c-12.328 0-22.166 9.838-22.166 22.166v37.732c0 12.328 9.963 22.166 22.166 22.166h1.122c12.328 0 22.167-9.961 22.167-22.166v-18.181c0-2.365-2.117-4.482-4.484-4.482h-16.688c-2.863 0-4.482 2.24-4.482 4.482 0 2.241 1.494 4.483 4.482 4.483h12.328v13.697c0 7.348-5.978 13.325-13.323 13.325h-1.122c-7.348 0-13.323-5.979-13.323-13.325v-37.732c-.122-7.22 5.854-13.198 13.201-13.198zm-220.412 179.072v-1.743h-7.225v10.585h1.869v-4.234h4.857v-1.866h-4.857v-2.741h5.356zm10.212 0v-1.743h-7.475v10.585h7.475v-1.744h-5.606v-2.988h4.982v-1.742h-4.982v-2.367h5.606zm6.599 7.347c-.623 0-1.368-.125-1.743-.623-.374-.375-.497-.749-.497-1.245h-1.993c0 .995.498 1.868 1.121 2.49.872.747 1.992 1.12 3.114 1.12 1.245 0 2.49-.373 3.362-1.12.498-.498.871-1.245.871-2.242 0-1.868-1.37-2.863-2.863-3.113-.748-.124-1.62-.124-2.242-.249-.623-.125-1.12-.498-1.12-1.121 0-.374.123-.624.374-.872.373-.498 1.12-.624 1.741-.624.622 0 1.247.251 1.62.624.251.25.497.623.497.995h1.994c0-.872-.499-1.619-1.122-2.24-.747-.624-1.869-.995-2.989-.995-1.245 0-2.365.373-3.113 1.12-.497.498-.87 1.245-.87 2.117 0 1.743 1.245 2.74 2.738 2.988l2.367.25c.623.123 1.245.497 1.245 1.245 0 .497-.123.747-.373.995-.625.375-1.374.5-2.119.5zm11.083 1.494v-8.842h3.112v-1.743h-8.22v1.743h3.116v8.842h1.992zm5.602-10.585h1.994v10.585h-1.994v-10.585zm10.088 10.585l3.485-10.585h-1.991l-2.491 8.095-2.615-8.095h-1.991l3.486 10.585h2.117zm7.348-2.117h4.232l.748 1.992h1.992l-3.735-10.585h-2.117l-3.735 10.585h1.994l.621-1.992zm2.117-6.1l1.493 4.482h-2.986l1.493-4.482zm14.07 6.348h-4.98v-8.716h-1.869v10.585h6.85v-1.869zm10.088.125h-5.854l5.728-6.974v-1.867h-8.093v1.743h5.729l-5.854 6.973v1.869h8.345v-1.744zm2.863-8.841h1.994v10.585h-1.994v-10.585zm9.588 10.71c1.369 0 2.367-.749 2.614-1.37l.25 1.121h1.245v-5.852h-4.359v1.618h2.49c0 .748-.123 1.495-.746 2.117-.374.373-.872.623-1.619.623-.623 0-1.245-.25-1.743-.623-.747-.747-.872-2.117-.872-3.114s.125-2.24.872-3.113c.373-.499 1.122-.747 1.743-.747.747 0 1.369.248 1.742.623.25.249.373.497.498.995h1.992c0-.871-.497-1.618-.995-2.116-.747-.747-1.868-1.245-3.113-1.245-1.122 0-2.367.373-3.114 1.245-1.122 1.121-1.368 2.49-1.368 4.233 0 1.742.248 3.114 1.368 4.359.748.996 1.87 1.246 3.115 1.246zm14.943-1.869h-5.853l5.853-6.974v-1.867h-8.218v1.743h5.854l-5.854 6.973v1.869h8.218v-1.744zm4.36-.373h4.232l.748 1.992h1.992l-3.735-10.585h-2.117l-3.735 10.585h1.994l.621-1.992zm2.115-6.1l1.495 4.482h-2.986l1.491-4.482zm11.208 8.342c1.369 0 2.365-.749 2.614-1.37l.25 1.121h1.245v-5.852h-4.359v1.618h2.49c0 .748-.123 1.495-.746 2.117-.376.373-.872.623-1.62.623-.624 0-1.246-.25-1.742-.623-.749-.747-.872-2.117-.872-3.114s.123-2.24.872-3.113c.373-.499 1.12-.747 1.742-.747.748 0 1.37.248 1.743.623.25.249.373.497.498.995h1.992c0-.871-.498-1.618-.995-2.116-.748-.747-1.869-1.245-3.113-1.245-1.122 0-2.367.373-3.114 1.245-1.122 1.121-1.37 2.49-1.37 4.233 0 1.742.25 3.114 1.37 4.359.75.996 1.87 1.246 3.115 1.246zm7.223-2.49h2.24v2.365h-2.24v-2.365zm13.2-6.476v-1.743h-7.348v10.585h1.869v-4.234h4.857v-1.866h-4.857v-2.741h5.479zm10.71 1.495c0-1.743-1.122-3.238-3.735-3.238h-4.484v10.585h1.994v-3.984h2.365l1.743 3.984h2.117l-1.994-4.359c1.245-.497 1.994-1.619 1.994-2.988zm-3.612 1.619h-2.613v-3.114h2.49c1.12 0 1.742.747 1.742 1.619.126.871-.497 1.495-1.619 1.495z"/></svg>