<svg enable-background="new 0 0 891.2 673.1" viewBox="0 0 891.2 673.1" xmlns="http://www.w3.org/2000/svg"><title>Zigzag — festival d'architecture et des arts de l'espace — du 26 septembre au 10 octobre 2021</title><g fill="#E6F306"><path d="M124.373 396.516l-3.253-3.253v18.384l3.253-3.252zM151.666 393.263l-3.181-3.252v18.313l3.181-3.253zM121.12 423.95l22.698-22.767v-6.505l-26.021 25.949zM109.03 411.93l7.424-7.424v-6.576l-10.676 10.676zM163.757 405.354l135.474-135.474 141.696 141.626 3.253-3.253-144.949-144.949-140.283 140.283-13.787 13.787 3.324 3.253zM299.231 572.01l-137.03-137.03-3.253 3.324 140.283 140.282 144.595-144.596-3.323-3.252zM222.726 467.011c.354 0 .637-.212.637-.637v-3.677h2.404c.424 0 .636-.354.636-.637 0-.354-.212-.636-.636-.636h-2.404v-2.687h3.535c.425 0 .637-.354.637-.637 0-.354-.212-.637-.637-.637h-4.242c-.354 0-.637.354-.637.637v8.344c0 .355.353.567.707.567zM234.818 466.304c0-.354-.213-.637-.637-.637h-3.535v-2.97h2.403c.425 0 .637-.354.637-.637 0-.354-.212-.636-.637-.636h-2.403v-2.687h3.535c.424 0 .637-.354.637-.637 0-.354-.213-.637-.637-.637h-4.242c-.354 0-.637.354-.637.637v8.272c0 .354.354.637.637.637h4.242c.424-.07.637-.423.637-.705zM238.989 467.011h.142c1.556 0 2.758-1.061 2.758-2.616 0-2.899-4.242-3.182-4.242-4.525v-.283c0-.707.707-1.061 1.343-1.061h.142c.707 0 1.132.142 1.272.92.071.354.283.636.707.636.354 0 .637-.282.637-.636v-.071c-.07-1.414-1.344-2.121-2.616-2.121h-.142c-1.272 0-2.616.99-2.616 2.475v.283c0 2.545 4.243 2.545 4.243 4.454 0 .778-.637 1.273-1.414 1.273h-.213c-.777 0-1.414-.495-1.414-1.415 0-.424-.354-.636-.636-.636-.283 0-.637.212-.637.636-.001 1.697 1.271 2.687 2.686 2.687zM248.605 457.96c0-.354-.212-.636-.636-.636h-4.03c-.425 0-.637.354-.637.636 0 .354.212.637.637.637h1.343v7.707c0 .424.354.636.637.636.354 0 .637-.212.637-.636v-7.707h1.343c.494 0 .706-.284.706-.637zM251.151 457.183c-.354 0-.637.212-.637.636v8.485c0 .424.354.636.637.636.282 0 .636-.212.636-.636v-8.485c.071-.354-.283-.636-.636-.636zM254.756 457.183c-.424 0-.707.282-.707.636v.213l2.051 8.343c.07.425.424.565.777.565s.708-.212.778-.565l2.051-8.343v-.213c0-.354-.283-.636-.707-.636-.283 0-.566.142-.637.495l-1.485 6.434-1.484-6.434c-.142-.283-.424-.495-.637-.495zM265.999 466.516c.141.354.354.495.636.495.425 0 .707-.283.707-.637v-.212l-2.616-8.414c-.142-.354-.424-.495-.777-.495s-.637.212-.778.495l-2.616 8.414v.212c0 .354.283.637.707.637.283 0 .566-.142.637-.495l.565-1.839h3.111l.424 1.839zm-3.253-3.182l1.131-3.677 1.132 3.677h-2.263zM269.958 457.183c-.354 0-.636.212-.636.636v8.344c0 .354.282.637.636.637h3.748c.424 0 .636-.354.636-.637 0-.354-.212-.637-.636-.637h-3.111v-7.707c.07-.354-.283-.636-.637-.636zM281.625 457.324c-.354 0-.637.354-.637.636v8.272c0 .354.354.637.637.637h2.191c1.485 0 2.688-1.061 2.688-2.687v-4.172c0-1.626-1.202-2.687-2.688-2.687h-2.191zm3.606 2.687v4.172c0 .777-.636 1.414-1.414 1.414h-1.484v-7h1.484c.778 0 1.414.635 1.414 1.414zM288.696 457.818v.425c0 .565-.07.707-.282 1.061-.071.142-.142.282-.142.424 0 .354.354.565.636.565.566 0 1.061-.919 1.061-2.121v-.282c0-.425-.354-.637-.636-.637-.284-.07-.637.142-.637.565zM296.827 466.516c.141.354.354.495.636.495.425 0 .707-.283.707-.637v-.212l-2.616-8.414c-.142-.354-.424-.495-.777-.495s-.637.212-.778.495l-2.616 8.414v.212c0 .354.283.637.708.637.282 0 .565-.142.636-.495l.565-1.839h3.111l.424 1.839zm-3.253-3.182l1.131-3.677 1.132 3.677h-2.263zM304.393 466.657c.142.282.354.354.565.354.424 0 .707-.283.707-.637 0-.07 0-.212-.07-.282l-1.556-3.323c1.061-.354 1.768-1.415 1.768-2.546v-.142c0-1.484-1.202-2.687-2.687-2.687h-2.263c-.354 0-.637.354-.637.637v8.343c0 .425.354.637.707.637s.637-.212.637-.637v-3.465h1.131l1.698 3.748zm-2.97-8.06h1.626c.778 0 1.344.636 1.344 1.414v.142c0 .777-.565 1.414-1.344 1.414h-1.626v-2.97zM310.473 458.525h.142c.707 0 1.272.495 1.344 1.202.07.354.282.565.636.565.425 0 .707-.282.707-.707v-.07c0-1.344-1.343-2.333-2.687-2.333h-.142c-1.484 0-2.687 1.131-2.687 2.687v4.454c0 1.485 1.202 2.688 2.687 2.688h.142c1.344 0 2.687-.99 2.687-2.334v-.07c0-.424-.212-.707-.707-.707-.354 0-.565.212-.636.565-.142.707-.637 1.202-1.344 1.202h-.142c-.777 0-1.414-.565-1.414-1.344v-4.454c.071-.777.707-1.344 1.414-1.344zM319.665 466.374c0 .425.354.637.636.637.354 0 .637-.212.637-.637v-8.484c0-.425-.354-.637-.637-.637-.354 0-.636.212-.636.637v3.394h-2.899v-3.394c0-.425-.354-.637-.636-.637-.354 0-.637.212-.637.637v8.484c0 .425.354.637.637.637.354 0 .636-.212.636-.637v-3.677h2.899v3.677zM323.766 457.89v8.484c0 .425.354.637.637.637.354 0 .636-.212.636-.637v-8.484c0-.425-.354-.637-.636-.637-.284-.07-.637.212-.637.637zM330.342 466.374v-7.707h1.343c.425 0 .637-.354.637-.636 0-.354-.212-.637-.637-.637h-3.959c-.425 0-.637.354-.637.637 0 .354.212.636.637.636h1.343v7.707c0 .425.354.637.637.637.353 0 .636-.212.636-.637zM339.038 458.597c.425 0 .637-.354.637-.637 0-.354-.212-.636-.637-.636h-4.242c-.354 0-.636.354-.636.636v8.272c0 .354.354.637.636.637h4.242c.425 0 .637-.354.637-.637 0-.354-.212-.636-.637-.636h-3.535v-2.97h2.404c.424 0 .637-.354.637-.637 0-.354-.213-.637-.637-.637h-2.404v-2.687h3.535v-.068zM347.029 464.677c0-.494-.212-.777-.707-.777-.354 0-.565.212-.637.565-.142.707-.636 1.202-1.343 1.202h-.142c-.778 0-1.414-.565-1.414-1.344v-4.454c0-.777.636-1.344 1.414-1.344h.142c.707 0 1.272.495 1.343 1.202.071.354.283.565.637.565.424 0 .707-.282.707-.707v-.07c0-1.344-1.344-2.333-2.687-2.333h-.142c-1.485 0-2.687 1.131-2.687 2.687v4.454c0 1.485 1.201 2.688 2.687 2.688h.142c1.343 0 2.687-.99 2.687-2.334zM353.605 457.96c0-.354-.213-.636-.637-.636h-3.96c-.424 0-.636.354-.636.636 0 .354.212.637.636.637h1.344v7.707c0 .424.354.636.637.636.354 0 .636-.212.636-.636v-7.707h1.344c.423 0 .636-.284.636-.637zM360.958 464.323v-6.434c0-.425-.354-.637-.637-.637-.354 0-.637.212-.637.637v6.434c0 .778-.636 1.415-1.414 1.415h-.142c-.777 0-1.414-.637-1.414-1.415v-6.434c0-.425-.354-.637-.636-.637-.354 0-.637.212-.637.637v6.434c0 1.485 1.202 2.688 2.687 2.688h.142c1.486 0 2.688-1.202 2.688-2.688zM368.452 467.011c.425 0 .707-.283.707-.637 0-.07 0-.212-.07-.282l-1.556-3.323c1.061-.354 1.768-1.415 1.768-2.546v-.142c0-1.484-1.202-2.687-2.687-2.687h-2.263c-.354 0-.637.354-.637.637v8.343c0 .425.354.637.707.637s.637-.212.637-.637v-3.465h1.131l1.768 3.818c.072.142.283.284.495.284zm-3.463-5.516v-2.898h1.626c.777 0 1.344.636 1.344 1.414v.142c0 .777-.566 1.414-1.344 1.414h-1.626v-.072zM376.372 458.597c.424 0 .636-.354.636-.637 0-.354-.212-.636-.636-.636h-4.243c-.354 0-.636.354-.636.636v8.272c0 .354.354.637.636.637h4.243c.424 0 .636-.354.636-.637 0-.354-.212-.636-.636-.636h-3.536v-2.97h2.404c.424 0 .637-.354.637-.637 0-.354-.212-.637-.637-.637h-2.404v-2.687h3.536v-.068zM229.867 473.232c.425 0 .637-.354.637-.636 0-.354-.212-.637-.637-.637h-4.242c-.354 0-.637.354-.637.637v8.272c0 .354.354.637.637.637h4.242c.425 0 .637-.354.637-.637 0-.354-.212-.637-.637-.637h-3.535v-2.97h2.404c.424 0 .636-.354.636-.636 0-.354-.212-.637-.636-.637h-2.404v-2.687h3.535v-.069zM234.323 481.576c.354 0 .636-.212.636-.637v-7.707h1.344c.424 0 .637-.354.637-.636 0-.354-.213-.637-.637-.637h-3.96c-.424 0-.636.354-.636.637 0 .354.212.636.636.636h1.344v7.707c-.001.425.282.637.636.637zM242.665 481.506h2.192c1.484 0 2.687-1.061 2.687-2.688v-4.172c0-1.626-1.202-2.687-2.687-2.687h-2.192c-.354 0-.636.354-.636.637v8.272c-.071.355.283.638.636.638zm.637-8.274h1.484c.778 0 1.415.637 1.415 1.414v4.172c0 .778-.637 1.414-1.415 1.414h-1.484v-7zM250.726 481.506h4.243c.424 0 .636-.354.636-.637 0-.354-.212-.637-.636-.637h-3.536v-2.97h2.404c.425 0 .637-.354.637-.636 0-.354-.212-.637-.637-.637h-2.404v-2.687h3.536c.424 0 .636-.354.636-.637 0-.354-.212-.637-.636-.637h-4.243c-.354 0-.636.354-.636.637v8.272c0 .286.282.569.636.569zM259.989 481.576c1.556 0 2.758-1.061 2.758-2.616 0-2.899-4.242-3.182-4.242-4.525v-.212c0-.707.707-1.061 1.343-1.061h.142c.707 0 1.132.142 1.273.919.07.354.282.637.707.637.354 0 .636-.283.636-.637v-.07c-.07-1.414-1.343-2.121-2.616-2.121h-.142c-1.272 0-2.616.989-2.616 2.475v.282c0 2.546 4.243 2.546 4.243 4.455 0 .777-.637 1.272-1.414 1.272h-.142c-.778 0-1.414-.495-1.414-1.414 0-.424-.354-.637-.637-.637s-.637.213-.637.637c0 1.697 1.273 2.687 2.688 2.687h.07v-.071zM273.07 481.152c.142.354.354.494.637.494.424 0 .707-.282.707-.636v-.212l-2.616-8.414c-.142-.354-.425-.495-.778-.495s-.636.212-.777.495l-2.616 8.414v.212c0 .354.282.636.707.636.282 0 .565-.141.636-.494l.566-1.839h3.11l.424 1.839zm-3.253-3.182l1.132-3.677 1.131 3.677h-2.263zM280.635 481.223c.142.283.354.354.565.354.425 0 .707-.283.707-.637 0-.07 0-.212-.07-.282l-1.556-3.323c1.061-.354 1.768-1.414 1.768-2.546v-.142c0-1.484-1.202-2.687-2.687-2.687h-2.262c-.354 0-.637.354-.637.637v8.343c0 .425.354.637.707.637s.637-.212.637-.637v-3.464h1.131l1.697 3.747zm-2.97-7.991h1.626c.778 0 1.344.637 1.344 1.414v.142c0 .778-.565 1.414-1.344 1.414h-1.626v-2.97zM286.009 481.576c.354 0 .636-.212.636-.637v-7.707h1.344c.425 0 .637-.354.637-.636 0-.354-.212-.637-.637-.637h-3.959c-.425 0-.637.354-.637.637 0 .354.212.636.637.636h1.343v7.707c-.071.425.283.637.636.637zM292.656 481.576h.142c1.555 0 2.757-1.061 2.757-2.616 0-2.899-4.242-3.182-4.242-4.525v-.212c0-.707.707-1.061 1.344-1.061h.142c.707 0 1.131.142 1.272.919.07.354.282.637.707.637.354 0 .637-.283.637-.637v-.07c-.071-1.414-1.344-2.121-2.616-2.121h-.071c-1.272 0-2.616.989-2.616 2.475v.282c0 2.546 4.242 2.546 4.242 4.455 0 .777-.636 1.272-1.414 1.272h-.141c-.778 0-1.415-.495-1.415-1.414 0-.424-.354-.637-.636-.637-.283 0-.637.213-.637.637-.143 1.626 1.13 2.616 2.545 2.616zM307.998 478.818v-4.172c0-1.626-1.202-2.687-2.687-2.687h-2.191c-.354 0-.637.354-.637.637v8.272c0 .354.354.637.637.637h2.191c1.485.001 2.687-1.06 2.687-2.687zm-4.242-5.586h1.485c.777 0 1.413.637 1.413 1.414v4.172c0 .778-.636 1.414-1.413 1.414h-1.485v-7zM316.059 480.869c0-.354-.212-.637-.636-.637h-3.536v-2.97h2.404c.424 0 .637-.354.637-.636 0-.354-.213-.637-.637-.637h-2.475v-2.687h3.535c.425 0 .637-.354.637-.637 0-.354-.212-.637-.637-.637h-4.242c-.354 0-.637.354-.637.637v8.272c0 .354.354.637.637.637h4.242c.496-.068.708-.351.708-.705zM326.312 480.869c0-.354-.212-.637-.637-.637h-3.111v-7.707c0-.424-.354-.636-.636-.636-.354 0-.637.212-.637.636v8.344c0 .354.283.637.637.637h3.747c.425 0 .637-.283.637-.637zM329.281 472.809v-.283c0-.424-.354-.636-.637-.636s-.707.212-.707.636v.425c0 .565-.07.707-.283 1.061-.07.142-.141.282-.141.424 0 .354.354.565.636.565.637-.071 1.132-1.062 1.132-2.192zM336.776 480.869c0-.354-.212-.637-.636-.637h-3.535v-2.97h2.403c.425 0 .637-.354.637-.636 0-.354-.212-.637-.637-.637h-2.403v-2.687h3.535c.424 0 .636-.354.636-.637 0-.354-.212-.637-.636-.637h-4.242c-.354 0-.637.354-.637.637v8.272c0 .354.354.637.637.637h4.242c.424-.068.636-.351.636-.705zM341.019 481.576h.142c1.555 0 2.757-1.061 2.757-2.616 0-2.899-4.242-3.182-4.242-4.525v-.212c0-.707.707-1.061 1.344-1.061h.142c.707 0 1.131.142 1.272.919.07.354.282.637.707.637.354 0 .636-.283.636-.637v-.07c-.07-1.414-1.343-2.121-2.616-2.121h-.141c-1.273 0-2.616.989-2.616 2.475v.282c0 2.546 4.242 2.546 4.242 4.455 0 .777-.637 1.272-1.414 1.272h-.142c-.777 0-1.414-.495-1.414-1.414 0-.424-.354-.637-.637-.637-.354 0-.636.213-.636.637-.142 1.626 1.13 2.616 2.616 2.616zM346.745 481.576c.354 0 .637-.212.637-.637v-3.605h1.556c1.484 0 2.616-1.202 2.616-2.688 0-1.484-1.132-2.687-2.616-2.687h-2.263c-.354 0-.637.354-.637.637v8.343c.072.425.425.637.707.637zm.707-8.344h1.556c.778 0 1.273.637 1.273 1.414 0 .778-.495 1.414-1.273 1.414h-1.556v-2.828zM352.898 481.576c.282 0 .565-.142.636-.495l.565-1.838h3.111l.565 1.838c.142.354.354.495.637.495.424 0 .707-.283.707-.637v-.212l-2.616-8.414c-.142-.354-.424-.495-.777-.495s-.637.212-.778.495l-2.616 8.414v.212c-.071.425.211.637.566.637zm2.757-7.283l1.132 3.677h-2.263l1.131-3.677zM363.645 473.162h.142c.707 0 1.272.495 1.343 1.202.071.354.283.565.637.565.424 0 .707-.283.707-.707v-.07c0-1.344-1.344-2.334-2.687-2.334h-.142c-1.485 0-2.687 1.132-2.687 2.688v4.454c0 1.485 1.201 2.687 2.687 2.687h.142c1.343 0 2.687-.989 2.687-2.333v-.07c0-.425-.212-.707-.707-.707-.354 0-.565.212-.637.565-.141.707-.636 1.202-1.343 1.202h-.142c-.778 0-1.414-.566-1.414-1.344v-4.454c0-.778.635-1.344 1.414-1.344zM373.473 473.232c.424 0 .637-.354.637-.636 0-.354-.213-.637-.637-.637h-4.242c-.354 0-.637.354-.637.637v8.272c0 .354.354.637.637.637h4.242c.424 0 .637-.354.637-.637 0-.354-.213-.637-.637-.637h-3.535v-2.97h2.404c.424 0 .636-.354.636-.636 0-.354-.212-.637-.636-.637h-2.404v-2.687h3.535v-.069zM243.514 347.516c0-2.121-1.626-3.394-3.677-3.394-2.475 0-3.818 1.485-3.818 3.606h2.192c0-.919.565-1.697 1.626-1.697.99 0 1.485.636 1.485 1.485 0 .495-.213 1.061-.637 1.556l-4.667 5.585v1.697h7.637v-1.98h-4.808l3.323-3.959c.708-.778 1.344-1.768 1.344-2.899zM253.979 352.324c0-2.263-1.272-4.03-3.677-4.03-1.061 0-1.839.283-2.404.778l.142-2.758h5.444v-1.909h-7.282l-.283 6.788h2.121c.354-.636 1.061-.99 1.768-.99 1.414 0 1.979.919 1.979 2.192 0 1.272-.494 2.333-1.979 2.333-1.131 0-1.979-.636-2.051-1.838h-2.191c.142 2.263 1.768 3.748 4.172 3.748 2.755-.001 4.241-1.768 4.241-4.314zM264.372 354.657c-.707 0-1.556-.141-2.05-.636-.354-.354-.637-.919-.637-1.485h-2.263c0 1.131.565 2.192 1.272 2.829.99.919 2.334 1.272 3.677 1.272 1.485 0 2.97-.354 3.889-1.343.637-.637.99-1.414.99-2.545 0-2.122-1.556-3.252-3.394-3.536l-2.688-.283c-.707-.141-1.272-.565-1.272-1.343 0-.424.142-.778.425-1.061.494-.495 1.272-.707 1.979-.707.637 0 1.484.212 1.838.636.283.283.495.778.566 1.202h2.263c0-.99-.495-1.909-1.273-2.616-.849-.778-2.121-1.202-3.394-1.202-1.414 0-2.758.495-3.606 1.273-.636.636-1.061 1.484-1.061 2.404 0 2.05 1.414 3.111 3.111 3.394.777.141 1.909.141 2.687.354.778.141 1.485.565 1.485 1.485 0 .565-.212.848-.495 1.202-.351.565-1.2.706-2.049.706zM271.584 356.425h8.697v-2.05h-6.434v-3.324h5.657v-2.05h-5.657v-2.828h6.434v-1.98h-8.697zM287.565 344.193h-4.809v12.232h2.192v-4.384h2.616c2.828 0 4.312-1.556 4.312-3.96.001-2.403-1.483-3.888-4.311-3.888zm-.072 5.869h-2.475v-3.959h2.475c1.485 0 2.192.778 2.192 1.979.001 1.202-.706 1.98-2.192 1.98zM292.584 346.243h3.607v10.182h2.191v-10.182h3.677v-2.05h-9.475zM303.898 356.425h8.767v-2.05h-6.505v-3.324h5.727v-2.05h-5.727v-2.828h6.505v-1.98h-8.767zM321.291 352.89l-3.181-8.697h-3.04v12.232h2.191v-8.838l3.182 8.626h1.626l3.182-8.555v8.767h2.121v-12.232h-2.828zM339.745 347.516c0-1.061-.494-2.05-1.414-2.687-.849-.565-1.838-.707-2.828-.707h-4.879v12.232h4.879c1.202 0 2.333-.071 3.253-.849.849-.707 1.272-1.626 1.272-2.757s-.637-2.192-1.768-2.758c.991-.353 1.485-1.484 1.485-2.474zm-6.928-1.414h2.758c.989 0 1.908.354 1.908 1.556 0 1.131-.848 1.485-1.838 1.485h-2.828v-3.041zm2.757 8.343h-2.758v-3.394h2.828c1.202 0 2.121.495 2.121 1.768-.069 1.202-1.201 1.626-2.191 1.626zM351.836 347.94c0-1.98-1.343-3.818-4.242-3.818h-5.161v12.232h2.263v-4.596h2.687l2.051 4.596h2.403l-2.262-5.02c1.342-.424 2.261-1.768 2.261-3.394zm-4.242 1.839h-2.97v-3.677h2.97c1.273 0 2.051.848 2.051 1.838-.071 1.203-.778 1.839-2.051 1.839zM362.796 346.173v-1.98h-8.697v12.232h8.697v-2.05h-6.434v-3.324h5.657v-2.05h-5.657v-2.828zM232.979 374.314v-12.02h-1.838l-2.9 2.121v2.404l2.617-1.909v9.404zM240.262 362.082c-1.273 0-2.192.495-2.829 1.061-1.272 1.202-1.414 3.182-1.414 5.162s.213 3.96 1.414 5.162c.637.637 1.485 1.061 2.829 1.061 1.343 0 2.191-.495 2.828-1.061 1.272-1.202 1.414-3.182 1.414-5.162 0-1.979-.212-3.959-1.414-5.162-.637-.566-1.485-1.061-2.828-1.061zm0 10.464c-2.192 0-2.051-2.687-2.051-4.243 0-1.555-.212-4.242 2.051-4.242s2.05 2.687 2.05 4.242c0 1.556.213 4.243-2.05 4.243zM255.323 361.87c-1.344 0-2.616.424-3.536 1.414-1.343 1.343-1.555 2.97-1.555 4.95 0 1.979.212 3.606 1.555 4.949.92.919 2.192 1.414 3.536 1.414 1.343 0 2.616-.424 3.535-1.414 1.343-1.343 1.556-2.97 1.556-4.949 0-1.98-.213-3.677-1.556-4.95-.991-.99-2.263-1.414-3.535-1.414zm1.908 9.828c-.494.495-1.201.778-1.908.778s-1.485-.283-1.909-.778c-.849-.849-.849-2.404-.849-3.535s0-2.616.849-3.536c.495-.495 1.202-.777 1.909-.777s1.484.283 1.908.777c.849.849.849 2.404.849 3.536s-.001 2.686-.849 3.535zM267.13 361.87c-1.344 0-2.546.424-3.465 1.414-1.343 1.343-1.484 2.97-1.484 4.95 0 1.979.212 3.677 1.484 4.949.919.919 2.192 1.343 3.465 1.343s2.616-.495 3.535-1.485c.707-.707 1.061-1.697 1.202-2.687h-2.263c-.07.565-.212.99-.565 1.343-.425.495-1.061.778-1.839.778-.707 0-1.414-.283-1.908-.778-.849-.849-.849-2.404-.849-3.535s0-2.616.849-3.536c.494-.495 1.201-.777 1.908-.777.778 0 1.485.283 1.839.777.283.354.495.778.565 1.273h2.263c-.07-.99-.495-1.909-1.202-2.687-.989-.847-2.262-1.342-3.535-1.342zM278.584 374.314v-10.182h3.607v-2.05h-9.475v2.05h3.606v10.182zM288.413 361.87c-1.344 0-2.616.424-3.536 1.414-1.343 1.343-1.556 2.97-1.556 4.95 0 1.979.213 3.606 1.556 4.949.92.919 2.192 1.414 3.536 1.414 1.343 0 2.615-.424 3.535-1.414 1.343-1.343 1.556-2.97 1.556-4.949 0-1.98-.213-3.677-1.556-4.95-.919-.99-2.192-1.414-3.535-1.414zm1.98 9.828c-.495.495-1.202.778-1.909.778s-1.485-.283-1.909-.778c-.849-.849-.849-2.404-.849-3.535s0-2.616.849-3.536c.495-.495 1.202-.777 1.909-.777s1.484.283 1.909.777c.849.849.849 2.404.849 3.536s-.001 2.686-.849 3.535zM300.858 362.082h-4.879v12.232h4.879c1.201 0 2.333-.071 3.252-.849.849-.707 1.272-1.626 1.272-2.757s-.636-2.192-1.768-2.758c1.061-.495 1.485-1.555 1.485-2.616 0-1.061-.495-2.05-1.414-2.687-.778-.424-1.838-.565-2.827-.565zm-2.617 1.909h2.757c.99 0 1.909.354 1.909 1.556 0 1.131-.849 1.485-1.838 1.485h-2.828v-3.041zm2.687 8.343h-2.758v-3.394h2.828c1.202 0 2.122.495 2.122 1.768 0 1.272-1.131 1.626-2.192 1.626zM307.786 362.082v12.232h2.263v-4.596h2.687l2.051 4.596h2.404l-2.263-5.02c1.343-.495 2.263-1.768 2.263-3.465 0-1.979-1.344-3.818-4.243-3.818h-5.161v.071zm7.212 3.818c0 1.131-.707 1.838-1.979 1.838h-2.97v-3.677h2.97c1.202.001 1.979.849 1.979 1.839zM319.524 374.314h8.697v-1.98h-6.506v-3.394h5.728v-1.98h-5.728v-2.828h6.506v-2.05h-8.697zM341.726 365.476c0-2.121-1.627-3.394-3.677-3.394-2.475 0-3.818 1.485-3.818 3.606h2.191c0-.919.566-1.697 1.627-1.697.989 0 1.484.636 1.484 1.485 0 .495-.212 1.061-.636 1.556l-4.667 5.586v1.697h7.637v-1.98h-4.809l3.323-3.959c.708-.779 1.345-1.84 1.345-2.9zM347.948 362.082c-1.272 0-2.191.495-2.828 1.061-1.272 1.202-1.414 3.182-1.414 5.162s.212 3.96 1.414 5.162c.637.637 1.485 1.061 2.828 1.061 1.344 0 2.192-.495 2.828-1.061 1.273-1.202 1.414-3.182 1.414-5.162 0-1.979-.212-3.959-1.414-5.162-.636-.566-1.555-1.061-2.828-1.061zm0 10.464c-2.191 0-2.05-2.687-2.05-4.243 0-1.555-.213-4.242 2.05-4.242s2.051 2.687 2.051 4.242c-.001 1.556.211 4.243-2.051 4.243zM354.312 372.617v1.697h7.636v-1.98h-4.808l3.323-3.959c.707-.778 1.343-1.838 1.343-2.97 0-2.121-1.626-3.394-3.677-3.394-2.475 0-3.817 1.485-3.817 3.606h2.191c0-.919.565-1.697 1.626-1.697.99 0 1.485.637 1.485 1.485 0 .495-.212 1.061-.637 1.556l-4.665 5.656zM369.159 374.314v-12.02h-1.837l-2.97 2.121v2.404l2.616-1.909v9.404zM202.646 433.708h20.01c1.626 0 2.546-1.273 2.546-2.546s-.849-2.545-2.546-2.545h-16.758l18.879-36.202c1.202-2.263-.142-4.667-2.616-4.667h-18.949c-1.697 0-2.545 1.273-2.545 2.546 0 1.272.777 2.545 2.545 2.545h15.697l-18.809 36.06c-1.061 1.98 0 4.809 2.546 4.809zM242.878 431.587v-41.647c0-1.626-1.273-2.546-2.546-2.546s-2.546.849-2.546 2.546v41.646c0 1.626 1.273 2.545 2.546 2.545 1.273-.069 2.546-.918 2.546-2.544zM283.676 421.476v-10.323c0-1.344-1.202-2.546-2.546-2.546h-9.475c-1.626 0-2.546 1.273-2.546 2.546s.849 2.545 2.546 2.545h7v7.778c0 4.172-3.395 7.565-7.565 7.565h-.637c-4.172 0-7.565-3.394-7.565-7.565v-21.496c0-4.101 3.394-7.495 7.565-7.495h.637c4.312 0 6.858 2.829 7.565 6.505.282 1.485 1.414 2.121 2.545 2.121 1.273 0 2.546-.848 2.546-2.475v-.424c-.849-6.222-6.151-10.818-12.586-10.818h-.637c-7 0-12.585 5.586-12.585 12.586v21.424c0 7 5.656 12.586 12.585 12.586h.637c6.859.072 12.516-5.586 12.516-12.514zM317.049 387.819h-18.949c-1.697 0-2.546 1.273-2.546 2.545 0 1.273.778 2.545 2.546 2.545h15.696l-18.808 36.061c-1.061 1.979 0 4.808 2.546 4.808h20.01c1.626 0 2.545-1.272 2.545-2.546 0-1.272-.849-2.545-2.545-2.545h-16.758l18.879-36.202c1.202-2.262-.141-4.666-2.616-4.666zM328.079 431.657c0 1.344 1.061 2.475 2.616 2.475.989 0 1.909-.565 2.333-1.768l2.97-9.546h16.404l2.898 9.546c.425 1.272 1.414 1.768 2.404 1.768 1.556 0 2.616-1.131 2.616-2.475 0-.283-.07-.565-.142-.778l-13.01-41.575c-.425-1.202-1.626-1.838-3.041-1.838-1.343 0-2.615.636-2.969 1.838l-12.939 41.575c-.069.213-.14.495-.14.778zm16.05-35.212l6.646 21.212h-13.222l6.576-21.212zM383.089 392.485h.637c4.312 0 6.858 2.829 7.565 6.505.282 1.485 1.414 2.121 2.545 2.121 1.273 0 2.546-.848 2.546-2.475v-.424c-.849-6.222-6.151-10.818-12.586-10.818h-.637c-7 0-12.586 5.586-12.586 12.586v21.424c0 7 5.657 12.586 12.586 12.586h.637c7 0 12.586-5.656 12.586-12.586v-10.323c0-1.343-1.202-2.545-2.546-2.545h-9.475c-1.626 0-2.545 1.272-2.545 2.545s.848 2.546 2.545 2.546h7v7.777c0 4.172-3.394 7.566-7.565 7.566h-.637c-4.172 0-7.565-3.395-7.565-7.566v-21.424c-.07-4.101 3.323-7.495 7.495-7.495zM257.939 494.162v-.99h-4.102v6.01h1.061v-2.404h2.758v-1.06h-2.758v-1.556zM263.737 494.162v-.99h-4.244v6.01h4.244v-.99h-3.183v-1.697h2.829v-.989h-2.829v-1.344zM267.484 498.334c-.354 0-.777-.071-.99-.354-.212-.213-.282-.425-.282-.707h-1.132c0 .565.283 1.061.637 1.414.495.424 1.131.636 1.768.636.707 0 1.414-.212 1.909-.636.283-.283.495-.707.495-1.273 0-1.061-.778-1.626-1.626-1.768-.425-.07-.92-.07-1.273-.141-.354-.071-.636-.283-.636-.637 0-.212.07-.354.212-.495.212-.283.636-.354.989-.354s.708.142.92.354c.142.142.282.354.282.565h1.132c0-.495-.283-.919-.637-1.272-.424-.354-1.061-.565-1.697-.565-.707 0-1.343.212-1.768.636-.282.283-.494.707-.494 1.202 0 .99.707 1.556 1.555 1.697l1.344.142c.354.07.707.282.707.707 0 .282-.07.424-.212.565-.355.213-.78.284-1.203.284zM273.777 499.182v-5.02h1.767v-.99h-4.667v.99h1.769v5.02zM276.958 493.172h1.132v6.01h-1.132zM282.686 499.182l1.979-6.01h-1.131l-1.414 4.596-1.485-4.596h-1.131l1.98 6.01zM286.858 497.98h2.403l.425 1.131h1.131l-2.121-6.01h-1.202l-2.121 6.01h1.132l.353-1.131zm1.202-3.464l.848 2.545h-1.696l.848-2.545zM296.049 498.121h-2.828v-4.949h-1.061v6.01h3.889zM301.777 498.192h-3.324l3.252-3.96v-1.06h-4.595v.99h3.253l-3.324 3.959v1.061h4.738zM303.403 493.172h1.132v6.01h-1.132zM308.847 499.253c.777 0 1.344-.425 1.484-.778l.142.637h.707v-3.323h-2.475v.919h1.414c0 .425-.07.849-.424 1.202-.212.212-.495.354-.919.354-.354 0-.707-.142-.99-.354-.424-.424-.495-1.202-.495-1.768s.071-1.272.495-1.768c.212-.283.637-.424.99-.424.424 0 .777.141.989.354.142.141.212.282.283.565h1.131c0-.495-.282-.919-.565-1.202-.424-.424-1.061-.707-1.768-.707-.637 0-1.344.212-1.768.707-.637.637-.777 1.414-.777 2.404 0 .989.141 1.768.777 2.475.425.565 1.062.707 1.769.707zM317.331 498.192h-3.323l3.323-3.96v-1.06h-4.666v.99h3.324l-3.324 3.959v1.061h4.666zM319.807 497.98h2.403l.425 1.131h1.131l-2.121-6.01h-1.202l-2.121 6.01h1.132l.353-1.131zm1.201-3.464l.849 2.545h-1.696l.847-2.545zM327.372 499.253c.777 0 1.343-.425 1.484-.778l.142.637h.707v-3.323h-2.475v.919h1.414c0 .425-.07.849-.424 1.202-.213.212-.495.354-.92.354-.354 0-.707-.142-.989-.354-.425-.424-.495-1.202-.495-1.768s.07-1.272.495-1.768c.212-.283.636-.424.989-.424.425 0 .778.141.99.354.142.141.212.282.283.565h1.131c0-.495-.283-.919-.565-1.202-.425-.424-1.061-.707-1.768-.707-.637 0-1.344.212-1.768.707-.637.637-.778 1.414-.778 2.404 0 .989.142 1.768.778 2.475.426.565 1.062.707 1.769.707zM331.473 497.839h1.272v1.343h-1.272zM338.968 494.162v-.99h-4.172v6.01h1.061v-2.404h2.758v-1.06h-2.758v-1.556zM345.049 495.011c0-.99-.637-1.839-2.121-1.839h-2.546v6.01h1.132v-2.262h1.343l.99 2.262h1.202l-1.132-2.475c.707-.282 1.132-.919 1.132-1.696zm-2.051.919h-1.484v-1.768h1.414c.636 0 .989.424.989.919.072.495-.282.849-.919.849z"/></g></svg>
