<svg enable-background="new 0 0 891.2 673.1" viewBox="0 0 891.2 673.1" xmlns="http://www.w3.org/2000/svg"><title>Zigzag — festival d'architecture et des arts de l'espace — du 26 septembre au 10 octobre 2021</title><g fill="#e6f306"><path d="m64.3 311.8-6-6.1v34.5l6-6.1z"/><path d="m36 340.8 13.7-14v-12.3l-19.8 20.1z"/><path d="m115.1 305.6-6-6.1v34.5l6-6.1z"/><path d="m103 351.1 6.1 6.1 28.4-28.8-6.1-6.2z"/><path d="m58.3 363.4 42.1-42.8v-12.3l-48.2 48.9z"/><path d="m802 333.4-.4 1.7-.4-1.7s0-.1-.1-.1h-.8c-.1 0-.1 0-.1.1v5.5c0 .1 0 .1.1.1h.8c.1 0 .1 0 .1-.1v-2.6l.3 1.2s0 .1.1.1h.1s.1 0 .1-.1l.3-1.2v2.6c0 .1 0 .1.1.1h.8c.1 0 .1 0 .1-.1v-5.5c0-.1 0-.1-.1-.1l-1 .1c.1-.1 0-.1 0 0z"/><path d="m806.9 334.5c-.1-.1-.2-.2-.3-.2s-.2-.1-.4-.1h-.8c-.1 0-.1 0-.1.1v.8c0 .1 0 .1.1.1h.5c.1 0 .2 0 .2.1v.2.4h-.9c-.1 0-.2 0-.3.1-.1 0-.2.1-.3.2s-.2.2-.2.3c-.1.1-.1.3-.1.4v1.2c0 .1 0 .3.1.4 0 .1.1.2.2.3s.2.2.3.2c.1.1.2.1.4.1h1.8c.1 0 .1 0 .1-.1v-3.7c0-.1 0-.3-.1-.4 0-.2-.1-.3-.2-.4zm-.6 3.5h-.7c-.1 0-.2 0-.2-.1 0 0 0-.1 0-.2v-.7c0-.1 0-.1.1-.2.1 0 .1-.1.2-.1h.6z"/><path d="m810.6 338v-3.7c0-.1 0-.1-.1-.1h-1.7c-.1 0-.1 0-.1.1v.8c0 .1 0 .1.1.1h.8v2.8h-.8c-.1 0-.1 0-.1.1v.8c0 .1 0 .1.1.1h2.6c.1 0 .1 0 .1-.1v-.8c0-.1 0-.1-.1-.1z"/><path d="m810.5 333.3c.1 0 .1 0 0 0l.1-.8c0-.1 0-.1-.1-.1h-.8c-.1 0-.1 0-.1.1v.8c0 .1 0 .1.1.1h.8z"/><path d="m813.8 334.2c-.1 0-.2 0-.4.1-.1 0-.2.1-.3.2s-.2.2-.2.3c-.1.1-.1.2-.1.4v.8c0 .1 0 .2.1.3 0 .1.1.2.1.2.1.1.1.1.2.2.1 0 .2.1.2.1.2.1.3.2.5.2.1.1.3.2.5.3.1 0 .1.1.2.1s.1.1.1.2v.2.2s-.1.1-.2.1h-.4c-.1 0-.2 0-.2-.1 0 0-.1-.1-.1-.2v-.1c0-.1 0-.1-.1-.1h-.7c-.1 0-.1 0-.1.1v.4c0 .1 0 .2.1.4 0 .1.1.2.2.3s.2.2.3.2c.1.1.2.1.4.1h.6.4c.1 0 .2 0 .4-.1.1 0 .2-.1.3-.2s.2-.2.2-.3c.1-.1.1-.2.1-.4v-.8c0-.1 0-.2-.1-.3 0-.1-.1-.2-.1-.2-.1-.1-.1-.1-.2-.2-.1 0-.2-.1-.2-.1-.2-.1-.3-.2-.4-.2-.1-.1-.3-.2-.5-.3-.1 0-.1-.1-.2-.1s-.1-.1-.1-.2v-.2c0-.1 0-.2.1-.2 0 0 .1-.1.2-.1h.4c.1 0 .2 0 .2.1 0 0 .1.1.1.2v.1c0 .1 0 .1.1.1h.8c.1 0 .1 0 .1-.1v-.4c0-.1 0-.2-.1-.4-.1-.1-.1-.2-.2-.3s-.2-.2-.3-.2c-.1-.1-.2-.1-.4-.1z"/><path d="m819.6 334.5c-.1-.1-.2-.2-.3-.2-.1-.1-.2-.1-.4-.1h-.9c-.1 0-.2 0-.4.1-.1 0-.2.1-.3.2s-.2.2-.2.3c-.1.1-.1.2-.1.4v2.9c0 .1 0 .3.1.4 0 .1.1.2.2.3s.2.2.3.2.2.1.4.1h.9c.1 0 .2 0 .4-.1.1 0 .2-.1.3-.2s.1-.2.2-.3c0-.1.1-.2.1-.4v-2.9c0-.1 0-.2-.1-.4 0-.1-.1-.2-.2-.3zm-.6 3.3c0 .1 0 .2-.1.2s-.1.1-.2.1h-.3c-.1 0-.2 0-.2-.1-.1 0-.1-.1-.1-.2v-2.3c0-.1 0-.2.1-.2 0 0 .1-.1.2-.1h.4c.1 0 .2 0 .2.1 0 0 .1.1.1.2v2.3z"/><path d="m823.2 334.2h-1.8c-.1 0-.1 0-.1.1v.9 3.7c0 .1 0 .1.1.1h.8c.1 0 .1 0 .1-.1v-3.5-.3h.6c.1 0 .2 0 .2.1.1 0 .1.1.1.2v3.5c0 .1 0 .1.1.1h.8c.1 0 .1 0 .1-.1v-3.7c0-.1 0-.3-.1-.4 0-.1-.1-.2-.2-.3s-.2-.2-.3-.2-.3-.1-.4-.1z"/><path d="m832.4 333.3c-.1 0-.2 0-.3 0s-.2 0-.3 0-.1.1-.1.1v.8h-.9c-.1 0-.2 0-.3.1-.1 0-.2.1-.3.2s-.2.2-.2.3c-.1.1-.1.2-.1.4v2.9c0 .1 0 .3.1.4 0 .1.1.2.2.3s.2.2.3.2.2.1.4.1h1.8c.1 0 .1 0 .1-.1v-5.5c-.2-.2-.3-.2-.4-.2zm-.7 4.7h-.7c-.1 0-.2 0-.2-.1 0 0 0-.1 0-.2v-2.3c0-.1 0-.2.1-.2s.1-.1.2-.1h.6z"/><path d="m835 334.2c-.1 0-.2 0-.4.1-.1 0-.2.1-.3.2s-.2.2-.2.3c-.1.1-.1.2-.1.4v2.9c0 .1 0 .3.1.4s.1.2.2.3.2.1.3.2c.1 0 .2.1.3.1h1.8c.1 0 .1 0 .1-.1v-.8c0-.1 0-.1-.1-.1h-1.4c-.1 0-.2 0-.2-.1-.1 0-.1-.1-.1-.2v-.5h1.8c.1 0 .1 0 .1-.1v-2.8-.1c0-.1 0-.1-.1-.1zm.9 2.2h-.9v-1c0-.1 0-.2.1-.2 0 0 .1-.1.2-.1h.7v1.3z"/><path d="m802.9 349.3c.1 0 .1 0 0 0l.1-.9c0-.1 0-.1-.1-.1h-.8v-4.6c0-.1 0-.1-.1-.1h-1.7c-.1 0-.1 0-.1.1v.8c0 .1 0 .1.1.1h.8v3.8h-.8c-.1 0-.1 0-.1.1v.8c0 .1 0 .1.1.1h2.6z"/><path d="m805.5 345.1c0 .1-.1.3-.1.4v.2s0 .1.1.1h.3s0-.1.1-.1c0-.1.1-.1.1-.2s.1-.2.1-.3.1-.2.1-.3.1-.2.1-.2c0-.1 0-.1 0-.1v-.8s0-.1-.1-.1h-.8s-.1 0-.1.1v.8.1h.1.1.1s0 .1-.1.2c.1 0 0 .1 0 .2z"/><path d="m811.2 344.8c-.1-.1-.2-.2-.3-.2s-.2-.1-.4-.1h-.8c-.1 0-.1 0-.1.1v.8c0 .1 0 .1.1.1h.5c.1 0 .2 0 .2.1v.2.4h-.9c-.1 0-.2 0-.3.1-.1 0-.2.1-.3.2s-.2.2-.2.3c-.1.1-.1.2-.1.4v1.2c0 .1 0 .3.1.4 0 .1.1.2.2.3s.2.2.3.2.2.1.4.1h1.8c.1 0 .1 0 .1-.1v-3.7c0-.1 0-.3-.1-.4-.1-.2-.1-.3-.2-.4zm-.7 3.5h-.7c-.1 0-.2 0-.2-.1 0 0-.1-.1-.1-.2v-.7c0-.1 0-.1.1-.2.1 0 .1-.1.2-.1h.6v1.3z"/><path d="m815.6 344.8c-.1-.1-.2-.2-.3-.2-.1-.1-.2-.1-.4-.1h-1.8c-.1 0-.1 0-.1.1v4.6c0 .1 0 .1.1.1h.8c.1 0 .1 0 .1-.1v-3.5c0-.1 0-.1 0-.1v-.1h.6c.1 0 .2 0 .2.1.1 0 .1.1.1.2v.6c0 .1 0 .1.1.1h.8c.1 0 .1 0 .1-.1v-.8c0-.1 0-.3-.1-.4-.1-.2-.1-.3-.2-.4z"/><path d="m818.1 345.5s.1-.1.2-.1h1.5c.1 0 .1 0 .1-.1v-.8c0-.1 0-.1-.1-.1h-1.8c-.1 0-.2 0-.4.1-.1 0-.2.1-.3.2s-.2.2-.2.3c-.1.1-.1.2-.1.4v2.9c0 .1 0 .3.1.4s.1.2.2.3.2.1.3.2c.1 0 .2.1.3.1h1.8c.1 0 .1 0 .1-.1v-.8c0-.1 0-.1-.1-.1h-1.4c-.1 0-.2 0-.2-.1-.1 0-.1-.1-.1-.2v-2.3c0-.1.1-.1.1-.2z"/><path d="m822.3 349.2v-.9-2.6c0-.1 0-.2.1-.2s.1-.1.2-.1h.3c.1 0 .2 0 .2.1.1 0 .1.1.1.2v3.5c0 .1 0 .1.1.1h.8c.1 0 .1 0 .1-.1v-3.7c0-.1 0-.3-.1-.4 0-.1-.1-.2-.2-.3s-.2-.2-.3-.2-.2-.1-.4-.1h-.9v-.8c0-.1 0-.1-.1-.1h-.8c-.1 0-.1 0-.1.1v1.8 3.7c0 .1 0 .1.1.1l.9-.1c-.1.1 0 .1 0 0z"/><path d="m827.5 348.3v-3.7c0-.1 0-.1-.1-.1h-1.7c-.1 0-.1 0-.1.1v.8c0 .1 0 .1.1.1h.8v2.8h-.8c-.1 0-.1 0-.1.1v.8c0 .1 0 .1.1.1h2.6c.1 0 .1 0 .1-.1v-.8c0-.1 0-.1-.1-.1z"/><path d="m826.6 342.8v.8c0 .1 0 .1.1.1h.8c.1 0 .1 0 .1-.1v-.8c0-.1 0-.1-.1-.1l-.9.1c0-.1 0-.1 0 0z"/><path d="m830.6 348.4c0 .1 0 .3.1.4s.1.2.2.3.2.1.3.2c.1 0 .2.1.3.1h.9c.1 0 .1 0 .1-.1v-.8c0-.1 0-.1-.1-.1h-.5c-.1 0-.2 0-.2-.1-.1 0-.1-.1-.1-.2v-2.6h.9c.1 0 .1 0 .1-.1v-.8c0-.1 0-.1-.1-.1h-.9v-.8c0-.1 0-.1-.1-.1h-.8c-.1 0-.1 0-.1.1v.8h-.8c-.1 0-.1 0-.1.1v.8c0 .1 0 .1.1.1h.8z"/><path d="m835 344.5c-.1 0-.2 0-.4.1-.1 0-.2.1-.3.2s-.2.2-.2.3c-.1.1-.1.2-.1.4v2.9c0 .1 0 .3.1.4s.1.2.2.3.2.1.3.2c.1 0 .2.1.3.1h1.8c.1 0 .1 0 .1-.1v-.8c0-.1 0-.1-.1-.1h-1.4c-.1 0-.2 0-.2-.1-.1 0-.1-.1-.1-.2v-.5h1.8c.1 0 .1 0 .1-.1v-2.8-.1c0-.1 0-.1-.1-.1zm.9 2.2h-.9v-1c0-.1 0-.2.1-.2 0 0 .1-.1.2-.1h.7v1.3z"/><path d="m838.6 349c.1.1.2.1.3.2.1 0 .2.1.3.1h1.8c.1 0 .1 0 .1-.1v-.8c0-.1 0-.1-.1-.1h-1.4c-.1 0-.2 0-.2-.1-.1 0-.1-.1-.1-.2v-2.3c0-.1 0-.2.1-.2 0 0 .1-.1.2-.1h1.5c.1 0 .1 0 .1-.1v-.8c0-.1 0-.1-.1-.1h-1.8c-.1 0-.2 0-.4.1-.1 0-.2.1-.3.2s-.2.2-.2.3-.1.2-.1.4v2.9c0 .1 0 .3.1.4 0 .2.1.3.2.3z"/><path d="m843.3 348.4c0 .1 0 .3.1.4s.1.2.2.3.2.1.3.2c.1 0 .2.1.3.1h.9c.1 0 .1 0 .1-.1v-.8c0-.1 0-.1-.1-.1h-.5c-.1 0-.2 0-.2-.1-.1 0-.1-.1-.1-.2v-2.6h.9c.1 0 .1 0 .1-.1v-.8c0-.1 0-.1-.1-.1h-.9v-.8c0-.1 0-.1-.1-.1h-.8c-.1 0-.1 0-.1.1v.8h-.8c-.1 0-.1 0-.1.1v.8c0 .1 0 .1.1.1h.8z"/><path d="m847 349c.1.1.2.2.3.2.1.1.2.1.4.1h.9c.1 0 .2 0 .4-.1.1 0 .2-.1.3-.2s.1-.2.2-.3c0-.1.1-.2.1-.4v-3.7c0-.1 0-.1-.1-.1h-.8c-.1 0-.1 0-.1.1v3.5c0 .1 0 .2-.1.2s-.1.1-.2.1h-.3c-.1 0-.2 0-.2-.1-.1 0-.1-.1-.1-.2v-3.5c0-.1 0-.1-.1-.1h-.8c-.1 0-.1 0-.1.1v3.7c0 .1 0 .3.1.4 0 .1.1.2.2.3z"/><path d="m853.7 344.8c-.1-.1-.2-.2-.3-.2-.1-.1-.2-.1-.4-.1h-1.8c-.1 0-.1 0-.1.1v4.6c0 .1 0 .1.1.1h.8c.1 0 .1 0 .1-.1v-3.5c0-.1 0-.1 0-.1v-.1h.6c.1 0 .2 0 .2.1.1 0 .1.1.1.2v.6c0 .1 0 .1.1.1h.8c.1 0 .1 0 .1-.1v-.8c0-.1 0-.3-.1-.4-.1-.2-.2-.3-.2-.4z"/><path d="m857.9 344.5h-1.8c-.1 0-.2 0-.4.1-.1 0-.2.1-.3.2s-.2.2-.2.3c-.1.1-.1.2-.1.4v2.9c0 .1 0 .3.1.4s.1.2.2.3.2.1.3.2c.1 0 .2.1.3.1h1.8c.1 0 .1 0 .1-.1v-.8c0-.1 0-.1-.1-.1h-1.4c-.1 0-.2 0-.2-.1-.1 0-.1-.1-.1-.2v-.5h1.8c.1 0 .1 0 .1-.1v-2.8l-.1-.2c.1.1.1 0 0 0zm-.8 2.2h-.9v-1c0-.1 0-.2 0-.2s.1-.1.2-.1h.7z"/><path d="m802.8 353.9c-.1 0-.2 0-.3 0s-.2 0-.3 0-.1.1-.1.1v.8h-.9c-.1 0-.2 0-.3.1-.1 0-.2.1-.3.2s-.2.2-.2.3c-.1.1-.1.3-.1.4v2.9c0 .1 0 .3.1.4 0 .1.1.2.2.3s.2.2.3.2c.1.1.2.1.4.1h1.8c.1 0 .1 0 .1-.1v-5.6c-.2 0-.3-.1-.4-.1zm-.7 4.7h-.7c-.1 0-.2 0-.2-.1 0 0 0-.1 0-.2v-2.3c0-.1 0-.1.1-.2.1 0 .1-.1.2-.1h.6z"/><path d="m805.3 354.8c-.1 0-.2 0-.4.1-.1 0-.2.1-.3.2s-.2.2-.2.3c-.1.1-.1.2-.1.4v2.9c0 .2 0 .3.1.4s.1.2.2.3.2.1.3.2c.1 0 .2.1.3.1h1.8c.1 0 .1 0 .1-.1v-.8c0-.1 0-.1-.1-.1h-1.4c-.1 0-.2 0-.2-.1-.1 0-.1-.1-.1-.2v-.5h1.8c.1 0 .1 0 .1-.1v-2.8-.1c0-.1 0-.1-.1-.1zm1 2.2h-.9v-1c0-.1 0-.2.1-.2 0 0 .1-.1.2-.1h.7v1.3z"/><path d="m814.8 353.9s-.1.1 0 0l-.1 2.8-.9-2.7s0-.1-.1-.1h-.7c-.1 0-.1 0-.1.1v5.5c0 .1 0 .1.1.1h.8c.1 0 .1 0 .1-.1v-2.7l.9 2.8s0 .1.1.1h.8c.1 0 .1 0 .1-.1v-5.6c0-.1 0-.1-.1-.1z"/><path d="m819.6 355.1c-.1-.1-.2-.2-.3-.2-.1-.1-.2-.1-.4-.1h-.9c-.1 0-.2 0-.4.1-.1 0-.2.1-.3.2s-.2.2-.2.3c-.1.1-.1.2-.1.4v2.9c0 .1 0 .3.1.4 0 .1.1.2.2.3s.2.2.3.2.2.1.4.1h.9c.1 0 .2 0 .4-.1.1 0 .2-.1.3-.2s.1-.2.2-.3c0-.1.1-.2.1-.4v-2.9c0-.1 0-.2-.1-.4 0-.1-.1-.2-.2-.3zm-.6 3.3c0 .1 0 .2-.1.2s-.1.1-.2.1h-.3c-.1 0-.2 0-.2-.1-.1 0-.1-.1-.1-.2v-2.4c0-.1 0-.2.1-.2 0 0 .1-.1.2-.1h.4c.1 0 .2 0 .2.1 0 0 .1.1.1.2v2.4z"/><path d="m824 355.1c-.1-.1-.2-.2-.3-.2s-.2-.1-.4-.1h-1.8c-.1 0-.1 0-.1.1v4.6c0 .1 0 .1.1.1h.8c.1 0 .1 0 .1-.1v-3.5c0-.1 0-.1 0-.1v-.1h.6c.1 0 .2 0 .2.1.1 0 .1.1.1.2v.6c0 .1 0 .1.1.1h.8c.1 0 .1 0 .1-.1v-.8c0-.1 0-.3-.1-.4 0-.2-.1-.3-.2-.4z"/><path d="m827.5 354.8c-.1 0-.1.1 0 0l-.5 1.8-.4-1.7s0-.1-.1-.1h-.8c-.1 0-.1 0-.1.1v4.6c0 .1 0 .1.1.1h.8c.1 0 .1 0 .1-.1v-1.6l.3 1.2s0 .1.1.1h.1s.1 0 .1-.1l.3-1.2v1.6c0 .1 0 .1.1.1h.8c.1 0 .1 0 .1-.1v-4.6c0-.1 0-.1-.1-.1z"/><path d="m832.3 355.1c-.1-.1-.2-.2-.3-.2s-.2-.1-.4-.1h-.8c-.1 0-.1 0-.1.1v.8c0 .1 0 .1.1.1h.5c.1 0 .2 0 .2.1 0 0 .1.1.1.2v.4h-.9c-.1 0-.2 0-.3.1-.1 0-.2.1-.3.2s-.2.2-.2.3c-.1.1-.1.3-.1.4v1.2c0 .1 0 .3.1.4 0 .1.1.2.2.3s.2.2.3.2c.1.1.2.1.4.1h1.8c.1 0 .1 0 .1-.1v-3.7c0-.1 0-.3-.1-.4-.1-.2-.2-.3-.3-.4zm-.6 3.5h-.7c-.1 0-.2 0-.2-.1 0 0 0-.1 0-.2v-.7c0-.1 0-.1.1-.2.1 0 .1-.1.2-.1h.6z"/><path d="m836.6 355.1c-.1-.1-.2-.2-.3-.2s-.2-.1-.4-.1h-1.8c-.1 0-.1 0-.1.1v.9 3.7c0 .1 0 .1.1.1h.8c.1 0 .1 0 .1-.1v-3.5-.3h.6c.1 0 .2 0 .2.1.1 0 .1.1.1.2v3.5c0 .1 0 .1.1.1h.8c.1 0 .1 0 .1-.1v-3.7c0-.1 0-.3-.1-.4s-.2-.2-.2-.3z"/><path d="m840.9 353.9c-.1 0-.2 0-.3 0s-.2 0-.3 0-.1.1-.1.1v.8h-.9c-.1 0-.2 0-.3.1-.1 0-.2.1-.3.2s-.2.2-.2.3c-.1.1-.1.3-.1.4v2.9c0 .1 0 .3.1.4s.1.2.2.3.2.2.3.2c.1.1.2.1.4.1h1.8c.1 0 .1 0 .1-.1v-5.6c-.2 0-.3-.1-.4-.1zm-.8 4.7h-.7c-.1 0-.2 0-.2-.1 0 0-.1-.1-.1-.2v-2.3c0-.1 0-.1.1-.2.1 0 .1-.1.2-.1h.6v2.9z"/><path d="m844.5 358.6v-3.7c0-.1 0-.1-.1-.1h-1.7c-.1 0-.1 0-.1.1v.8c0 .1 0 .1.1.1h.8v2.8h-.8c-.1 0-.1 0-.1.1v.8c0 .1 0 .1.1.1h2.6c.1 0 .1 0 .1-.1v-.8c0-.1 0-.1-.1-.1z"/><path d="m843.5 353.1v.8c0 .1 0 .1.1.1h.8c.1 0 .1 0 .1-.1v-.8c0-.1 0-.1-.1-.1l-.9.1c0-.1 0-.1 0 0z"/><path d="m847.6 354.8c-.1 0-.2 0-.4.1-.1 0-.2.1-.3.2s-.2.2-.2.3c-.1.1-.1.2-.1.4v2.9c0 .2 0 .3.1.4s.1.2.2.3.2.1.3.2c.1 0 .2.1.3.1h1.8c.1 0 .1 0 .1-.1v-.8c0-.1 0-.1-.1-.1h-1.3c-.1 0-.2 0-.2-.1-.1 0-.1-.1-.1-.2v-.5h1.8c.1 0 .1 0 .1-.1v-2.8-.1c0-.1 0-.1-.1-.1zm1 2.2h-.9v-1c0-.1 0-.2 0-.2s.1-.1.2-.1h.7z"/><path d="m802.3 328.6v-.8c0-.1 0-.1-.1-.1h-.8v-4.6c0-.1 0-.1-.1-.1h-1.7c-.1 0-.1 0-.1.1v.8c0 .1 0 .1.1.1h.8v3.8h-.8c-.1 0-.1 0-.1.1v.8c0 .1 0 .1.1.1l2.7-.2c-.1.1 0 .1 0 0z"/><path d="m806.4 328.7c.1 0 .1 0 0 0l.1-.9c0-.1 0-.1-.1-.1h-1.4c-.1 0-.2 0-.2-.1-.1 0-.1-.1-.1-.2v-.4h1.8c.1 0 .1 0 .1-.1v-2.8-.1c0-.1 0-.1-.1-.1h-1.8c-.1 0-.2 0-.4.1-.1 0-.2.1-.3.2s-.2.2-.2.3c-.1.1-.1.2-.1.4v2.9c0 .1 0 .3.1.4s.1.2.2.3.2.1.3.2c.1 0 .2.1.3.1h1.8zm-1.8-3.5c0-.1 0-.2.1-.2 0 0 .1-.1.2-.1h.7v1.2h-.9v-.9z"/><path d="m813.1 328.6v-2.1h1.4c.1 0 .1 0 .1-.1v-.8c0-.1 0-.1-.1-.1h-1.4v-1.5h1.8c.1 0 .1 0 .1-.1v-.8c0-.1 0-.1-.1-.1h-2.6c-.1 0-.1 0-.1.1v5.5c0 .1 0 .1.1.1l.8-.1c0 .1 0 .1 0 0z"/><path d="m818.3 328.7c.1 0 .2 0 .4-.1.1 0 .2-.1.3-.2s.1-.2.2-.3c0-.1.1-.2.1-.4v-2.9c0-.1 0-.2-.1-.4-.1-.1-.1-.2-.2-.3s-.2-.2-.3-.2c-.1-.1-.2-.1-.4-.1h-.9c-.1 0-.2 0-.4.1-.1 0-.2.1-.3.2s-.2.2-.2.3c-.1.1-.1.2-.1.4v2.9c0 .1 0 .3.1.4 0 .1.1.2.2.3s.2.2.3.2.2.1.4.1zm-1-3.5c0-.1 0-.2.1-.2 0 0 .1-.1.2-.1h.4c.1 0 .2 0 .2.1 0 0 .1.1.1.2v2.3c0 .1 0 .2-.1.2s-.1.1-.2.1h-.3c-.1 0-.2 0-.2-.1-.1 0-.1-.1-.1-.2v-2.3z"/><path d="m821.7 328.6v-3.5c0-.1 0-.1 0-.1v-.1h.6c.1 0 .2 0 .2.1.1 0 .1.1.1.2v.6c0 .1 0 .1.1.1h.8c.1 0 .1 0 .1-.1v-.8c0-.1 0-.3-.1-.4s-.1-.2-.2-.3-.2-.2-.3-.2-.2-.1-.4-.1h-1.8c-.1 0-.1 0-.1.1v4.6c0 .1 0 .1.1.1l.9-.2c0 .1 0 .1 0 0z"/><path d="m826.7 328.7c.1 0 .2 0 .4-.1.1 0 .2-.1.3-.2s.2-.2.2-.3.1-.2.1-.4v-3.7c0-.1 0-.1-.1-.1h-.8c-.1 0-.1 0-.1.1v3.5c0 .1 0 .2-.1.2s-.1.1-.2.1h-.3c-.1 0-.2 0-.2-.1-.1 0-.1-.1-.1-.2v-3.5c0-.1 0-.1-.1-.1h-.8c-.1 0-.1 0-.1.1v3.7c0 .1 0 .3.1.4 0 .1.1.2.2.3s.2.2.3.2.2.1.4.1z"/><path d="m830 328.6v-1.6l.3 1.2s0 .1.1.1h.1s.1 0 .1-.1l.3-1.2v1.6c0 .1 0 .1.1.1h.8c.1 0 .1 0 .1-.1v-4.6c0-.1 0-.1-.1-.1h-.8s-.1 0-.1.1l-.4 1.7-.5-1.7s0-.1-.1-.1h-.8c-.1 0-.1 0-.1.1v4.6c0 .1 0 .1.1.1l.9-.1c0 .1 0 .1 0 0z"/><path d="m738.6 325.6c-1.8-1.9-4-4.4-9.2-4.9-3.1-.3-9.3-.2-12-.2-2.6 0-8.9-.1-12 .2-5.2.5-7.4 2.9-9.2 4.9l-.3.4c-3 3.2-3 8.1-3 9v20.6c0 2.7 2.2 5 4.9 5s4.9-2.2 4.9-5v-20.7c0-1.7 1.3-4.3 4.2-4.3h5.4v25.1c0 2.7 2.2 5 4.9 5s4.9-2.2 4.9-5v-25.1h5.8c2.9 0 4.2 2.7 4.2 4.3v20.7c0 2.7 2.2 5 4.9 5s4.9-2.2 4.9-5v-20.6c0-.9 0-5.7-3-9z"/><path d="m784.8 325.6c-1.8-1.9-4.4-4.5-9.7-5-.6-.1-1.2-.1-1.9 0-2.8 0-8.7-.1-11.7.2-5.2.5-7.4 2.9-9.2 4.9l-.3.4c-3 3.2-3 8.1-3 9v11.2c0 .9 0 5.7 3 9l.3.4c1.8 1.9 4 4.4 9.2 4.9 3.8.4 5.7.2 6.6.2 2.7-.1 4.8-2.3 4.8-5.1-.1-2.7-2.3-4.9-5-4.9-2.4.1-2.2 0-4.9 0-2.9 0-4.2-2.7-4.2-4.3v-11.4c0-1.7 1.3-4.3 4.2-4.3h10.3.7c2.9 0 4.2 2.7 4.2 4.3v20.7c0 2.7 2.2 5 4.9 5s4.9-2.2 4.9-5v-20.8c0-.9 0-5.7-3-9z"/><path d="m764.3 336.2h8.6v8.8h-8.6z"/><path d="m405.7 624.9-254-257.9-6.2 6.2 260.2 264.2 268.1-272.3-6.2-6.1z"/><path d="m145.5 307.9 6.2 6.2 254-257.9 262.6 266.6 6.2-6.1-268.8-273z"/><path d="m261.6 409c-.7 0-1.3.6-1.3 1.3v15.7c0 .8.6 1.3 1.3 1.3s1.3-.4 1.3-1.3v-7h4.6c.8 0 1.3-.6 1.3-1.3 0-.6-.4-1.2-1.3-1.2h-4.6v-5.1h6.7c.8 0 1.3-.6 1.3-1.2s-.4-1.3-1.3-1.3h-8z"/><path d="m283.1 411.5c.8 0 1.3-.6 1.3-1.2s-.4-1.3-1.3-1.3h-8c-.7 0-1.3.6-1.3 1.3v15.6c0 .7.6 1.3 1.3 1.3h8c.8 0 1.3-.6 1.3-1.2s-.4-1.3-1.3-1.3h-6.7v-5.6h4.6c.8 0 1.3-.6 1.3-1.3 0-.6-.4-1.2-1.3-1.2h-4.6v-5.1z"/><path d="m292.5 424.8h-.3c-1.5 0-2.6-1-2.6-2.6 0-.8-.6-1.3-1.3-1.3s-1.3.4-1.3 1.3c0 3.2 2.4 5.1 5.1 5.1h.3c2.9 0 5.2-1.9 5.2-4.9 0-5.4-7.9-6-7.9-8.5v-.5c0-1.3 1.3-2 2.5-2h.2c1.4 0 2.2.3 2.4 1.7.2.7.6 1.2 1.3 1.2s1.2-.5 1.2-1.2c0-.1 0-.1 0-.2-.2-2.7-2.5-4-5-4h-.2c-2.4 0-5 1.8-5 4.6v.5c0 4.8 7.9 4.8 7.9 8.5.2 1.4-.9 2.3-2.5 2.3z"/><path d="m300.3 410.3c0 .6.4 1.2 1.3 1.2h2.5v14.5c0 .8.6 1.3 1.3 1.3s1.3-.4 1.3-1.3v-14.5h2.5c.8 0 1.3-.6 1.3-1.2s-.4-1.3-1.3-1.3h-7.5c-1 0-1.4.6-1.4 1.3z"/><path d="m316.4 426v-15.9c0-.8-.6-1.3-1.3-1.3s-1.3.4-1.3 1.3v15.9c0 .8.6 1.3 1.3 1.3s1.3-.4 1.3-1.3z"/><path d="m325.8 427.3c.7 0 1.3-.4 1.5-1.1l3.8-15.8c0-.1 0-.2 0-.3 0-.7-.6-1.2-1.3-1.2-.5 0-1 .3-1.2 1l-2.8 12.1-2.8-12.1c-.2-.7-.7-1-1.2-1-.8 0-1.3.6-1.3 1.2v.3l3.8 15.8c.3.7.9 1.1 1.5 1.1z"/><path d="m343.1 426.4c.2.6.7.9 1.2.9.8 0 1.3-.5 1.3-1.2 0-.1 0-.3-.1-.4l-5-15.9c-.2-.7-.8-1-1.4-1s-1.2.3-1.4 1l-5 15.9c0 .1-.1.3-.1.4 0 .7.5 1.2 1.3 1.2.5 0 1-.3 1.2-.9l1-3.5h5.8zm-6.1-6 2.1-7 2.1 7z"/><path d="m350.5 408.9c-.6 0-1.3.4-1.3 1.3v15.8c0 .7.6 1.3 1.3 1.3h7c.8 0 1.3-.6 1.3-1.2s-.4-1.3-1.3-1.3h-5.8v-14.5c.1-1-.5-1.4-1.2-1.4z"/><path d="m376.6 427.1c2.8 0 5.1-2 5.1-5.1v-7.9c0-3.1-2.3-5.1-5.1-5.1h-4.1c-.7 0-1.3.6-1.3 1.3v15.6c0 .7.6 1.3 1.3 1.3h4.1zm-2.8-15.6h2.9c1.4 0 2.6 1.2 2.6 2.6v7.9c0 1.4-1.2 2.6-2.6 2.6h-2.9z"/><path d="m386.2 414.7c1.1 0 2-1.8 2-4v-.6c0-.8-.6-1.2-1.2-1.2s-1.3.4-1.3 1.2v.7c0 1.1-.2 1.3-.6 2-.2.3-.2.5-.2.8.1.6.7 1.1 1.3 1.1z"/><path d="m401 426.4c.2.6.7.9 1.2.9.8 0 1.3-.5 1.3-1.2 0-.1 0-.3-.1-.4l-5-15.9c-.2-.7-.8-1-1.4-1s-1.2.3-1.4 1l-5 15.9c0 .1-.1.3-.1.4 0 .7.5 1.2 1.3 1.2.5 0 1-.3 1.2-.9l1-3.5h5.8zm-6.1-6 2.1-7 2.1 7z"/><path d="m415.3 426.6c.2.5.7.7 1.1.7.8 0 1.3-.6 1.3-1.3 0-.2-.1-.4-.1-.6l-3-6.3c2-.7 3.3-2.6 3.3-4.9v-.2c0-2.8-2.3-5.1-5.1-5.1h-4.3c-.7 0-1.3.6-1.3 1.3v15.8c0 .8.6 1.3 1.3 1.3.6 0 1.2-.4 1.2-1.3v-6.6h2.1zm-5.6-15.1h3.1c1.4 0 2.5 1.2 2.5 2.6v.2c0 1.4-1.1 2.6-2.5 2.6h-3.1z"/><path d="m426.8 411.3h.2c1.4 0 2.3 1 2.6 2.3.2.7.6 1.1 1.2 1.1.8 0 1.3-.6 1.3-1.4v-.1c0-2.5-2.5-4.4-5.1-4.4h-.2c-2.8 0-5.1 2.2-5.1 5v8.4c0 2.8 2.3 5 5.1 5h.2c2.5 0 5.1-1.8 5.1-4.4v-.1c0-.8-.4-1.4-1.3-1.4-.7 0-1.1.4-1.2 1.1-.2 1.3-1.2 2.3-2.6 2.3h-.2c-1.4 0-2.6-1.1-2.6-2.5v-8.5c0-1.3 1.2-2.4 2.6-2.4z"/><path d="m444 426c0 .8.6 1.3 1.3 1.3.6 0 1.3-.4 1.3-1.3v-15.9c0-.8-.6-1.3-1.3-1.3s-1.3.4-1.3 1.3v6.5h-5.5v-6.5c0-.8-.6-1.3-1.3-1.3s-1.3.4-1.3 1.3v15.9c0 .8.6 1.3 1.3 1.3s1.3-.4 1.3-1.3v-7h5.5z"/><path d="m454.3 426v-15.9c0-.8-.6-1.3-1.3-1.3s-1.3.4-1.3 1.3v15.9c0 .8.6 1.3 1.3 1.3s1.3-.4 1.3-1.3z"/><path d="m457.9 410.3c0 .6.4 1.2 1.3 1.2h2.5v14.5c0 .8.6 1.3 1.3 1.3s1.3-.4 1.3-1.3v-14.5h2.5c.8 0 1.3-.6 1.3-1.2s-.4-1.3-1.3-1.3h-7.5c-1 0-1.4.6-1.4 1.3z"/><path d="m480.5 411.5c.8 0 1.3-.6 1.3-1.2s-.4-1.3-1.3-1.3h-8c-.7 0-1.3.6-1.3 1.3v15.6c0 .7.6 1.3 1.3 1.3h8c.8 0 1.3-.6 1.3-1.2s-.4-1.3-1.3-1.3h-6.7v-5.6h4.6c.8 0 1.3-.6 1.3-1.3 0-.6-.4-1.2-1.3-1.2h-4.6v-5.1z"/><path d="m495.6 422.9c0-.9-.4-1.4-1.3-1.4-.7 0-1.1.4-1.2 1.1-.2 1.3-1.2 2.3-2.6 2.3h-.2c-1.4 0-2.6-1.1-2.6-2.5v-8.5c0-1.4 1.2-2.5 2.6-2.5h.2c1.4 0 2.3 1 2.6 2.3.2.7.6 1.1 1.2 1.1.8 0 1.3-.6 1.3-1.4v-.1c0-2.5-2.5-4.4-5.1-4.4h-.2c-2.8 0-5.1 2.2-5.1 5v8.4c0 2.8 2.3 5 5.1 5h.2c2.6 0 5.1-1.8 5.1-4.4z"/><path d="m507.9 410.3c0-.6-.4-1.3-1.3-1.3h-7.5c-.8 0-1.3.6-1.3 1.3 0 .6.4 1.2 1.3 1.2h2.5v14.5c0 .8.6 1.3 1.3 1.3s1.3-.4 1.3-1.3v-14.5h2.5c.8 0 1.2-.6 1.2-1.2z"/><path d="m521.8 422.2v-12.1c0-.8-.6-1.3-1.3-1.3s-1.3.4-1.3 1.3v12.1c0 1.4-1.2 2.6-2.6 2.6h-.2c-1.4 0-2.6-1.2-2.6-2.6v-12.1c0-.8-.6-1.3-1.3-1.3s-1.3.4-1.3 1.3v12.1c0 2.8 2.3 5.1 5.1 5.1h.3c2.9 0 5.2-2.3 5.2-5.1z"/><path d="m526.8 410.3v15.7c0 .8.6 1.3 1.3 1.3.6 0 1.2-.4 1.2-1.3v-6.6h2.1l3.4 7.1c.2.5.7.7 1.1.7.8 0 1.3-.6 1.3-1.3 0-.2-.1-.4-.1-.6l-3-6.3c2-.7 3.3-2.6 3.3-4.9v-.2c0-2.8-2.3-5.1-5.1-5.1h-4.3c-.6.2-1.2.8-1.2 1.5zm2.5 1.2h3.1c1.4 0 2.5 1.2 2.5 2.6v.2c0 1.4-1.1 2.6-2.5 2.6h-3.1z"/><path d="m550.9 411.5c.8 0 1.3-.6 1.3-1.2s-.4-1.3-1.3-1.3h-8c-.7 0-1.3.6-1.3 1.3v15.6c0 .7.6 1.3 1.3 1.3h8c.8 0 1.3-.6 1.3-1.2s-.4-1.3-1.3-1.3h-6.7v-5.6h4.6c.8 0 1.3-.6 1.3-1.3 0-.6-.4-1.2-1.3-1.2h-4.6v-5.1z"/><path d="m275.1 439c.8 0 1.3-.6 1.3-1.2s-.4-1.3-1.3-1.3h-8c-.7 0-1.3.6-1.3 1.3v15.6c0 .7.6 1.3 1.3 1.3h8c.8 0 1.3-.6 1.3-1.2s-.4-1.3-1.3-1.3h-6.7v-5.6h4.6c.8 0 1.3-.6 1.3-1.3 0-.6-.4-1.2-1.3-1.2h-4.6v-5.1z"/><path d="m278.4 437.8c0 .6.4 1.2 1.3 1.2h2.5v14.5c0 .8.6 1.3 1.3 1.3s1.3-.4 1.3-1.3v-14.5h2.5c.8 0 1.3-.6 1.3-1.2s-.4-1.3-1.3-1.3h-7.5c-.9 0-1.4.7-1.4 1.3z"/><path d="m299.1 454.7h4.1c2.8 0 5.1-2 5.1-5.1v-7.9c0-3.1-2.3-5.1-5.1-5.1h-4.1c-.7 0-1.3.6-1.3 1.3v15.6c0 .6.6 1.2 1.3 1.2zm1.3-15.7h2.9c1.4 0 2.6 1.2 2.6 2.6v7.9c0 1.4-1.2 2.6-2.6 2.6h-2.9z"/><path d="m313 437.8v15.6c0 .7.6 1.3 1.3 1.3h8c.8 0 1.3-.6 1.3-1.2s-.4-1.3-1.3-1.3h-6.7v-5.6h4.6c.8 0 1.3-.6 1.3-1.3 0-.6-.4-1.2-1.3-1.2h-4.6v-5.1h6.7c.8 0 1.3-.6 1.3-1.2s-.4-1.3-1.3-1.3h-8c-.7 0-1.3.6-1.3 1.3z"/><path d="m331.8 454.8c2.9 0 5.2-1.9 5.2-4.9 0-5.4-7.9-6-7.9-8.5v-.5c0-1.3 1.3-2 2.5-2h.2c1.4 0 2.2.3 2.4 1.7.2.7.6 1.2 1.3 1.2s1.2-.5 1.2-1.2c0-.1 0-.1 0-.2-.2-2.7-2.5-4-5-4h-.2c-2.4 0-5 1.8-5 4.6v.5c0 4.8 7.9 4.8 7.9 8.5 0 1.5-1.2 2.4-2.7 2.4h-.3c-1.5 0-2.6-1-2.6-2.6 0-.8-.6-1.3-1.3-1.3s-1.3.4-1.3 1.3c0 3.2 2.4 5.1 5.1 5.1h.5z"/><path d="m356.3 453.9c.2.6.7.9 1.2.9.8 0 1.3-.5 1.3-1.2 0-.1 0-.3-.1-.4l-5-15.9c-.2-.7-.8-1-1.4-1s-1.2.3-1.4 1l-5 15.9c0 .1-.1.3-.1.4 0 .7.5 1.2 1.3 1.2.5 0 1-.3 1.2-.9l1-3.5h5.8zm-6.1-6 2.1-7 2.1 7z"/><path d="m370.5 454.1c.2.5.7.7 1.1.7.8 0 1.3-.6 1.3-1.3 0-.2-.1-.4-.1-.6l-3-6.3c2-.7 3.3-2.6 3.3-4.9v-.2c0-2.8-2.3-5.1-5.1-5.1h-4.3c-.7 0-1.3.6-1.3 1.3v15.8c0 .8.6 1.3 1.3 1.3.6 0 1.2-.4 1.2-1.3v-6.5h2.1zm-5.5-15.1h3.1c1.4 0 2.5 1.2 2.5 2.6v.2c0 1.4-1.1 2.6-2.5 2.6h-3.1z"/><path d="m380.7 454.8c.6 0 1.3-.4 1.3-1.3v-14.5h2.5c.8 0 1.3-.6 1.3-1.2s-.4-1.3-1.3-1.3h-7.5c-.8 0-1.3.6-1.3 1.3 0 .6.4 1.2 1.3 1.2h2.5v14.5c-.1.9.5 1.3 1.2 1.3z"/><path d="m393.5 454.8c2.9 0 5.2-1.9 5.2-4.9 0-5.4-7.9-6-7.9-8.5v-.5c0-1.3 1.3-2 2.5-2h.2c1.4 0 2.2.3 2.4 1.7.2.7.6 1.2 1.3 1.2s1.2-.5 1.2-1.2c0-.1 0-.1 0-.2-.2-2.7-2.5-4-5-4h-.2c-2.4 0-5 1.8-5 4.6v.5c0 4.8 7.9 4.8 7.9 8.5 0 1.5-1.2 2.4-2.7 2.4h-.3c-1.5 0-2.6-1-2.6-2.6 0-.8-.6-1.3-1.3-1.3s-1.3.4-1.3 1.3c0 3.2 2.4 5.1 5.1 5.1h.5z"/><path d="m422 449.5v-7.9c0-3.1-2.3-5.1-5.1-5.1h-4.1c-.7 0-1.3.6-1.3 1.3v15.6c0 .7.6 1.3 1.3 1.3h4.1c2.8 0 5.1-2.1 5.1-5.2zm-8-10.5h2.9c1.4 0 2.6 1.2 2.6 2.6v7.9c0 1.4-1.2 2.6-2.6 2.6h-2.9z"/><path d="m437.2 453.4c0-.6-.4-1.3-1.3-1.3h-6.7v-5.6h4.6c.8 0 1.3-.6 1.3-1.3 0-.6-.4-1.2-1.3-1.2h-4.6v-5h6.7c.8 0 1.3-.6 1.3-1.2s-.4-1.3-1.3-1.3h-8c-.7 0-1.3.6-1.3 1.3v15.6c0 .7.6 1.3 1.3 1.3h8c.9 0 1.3-.7 1.3-1.3z"/><path d="m456.5 453.4c0-.6-.4-1.3-1.3-1.3h-5.8v-14.5c0-.8-.6-1.3-1.2-1.3s-1.3.4-1.3 1.3v15.8c0 .7.6 1.3 1.3 1.3h7c.9 0 1.3-.7 1.3-1.3z"/><path d="m462.1 438.2v-.6c0-.8-.6-1.2-1.2-1.2s-1.3.4-1.3 1.2v.7c0 1.1-.2 1.3-.6 2-.2.3-.2.5-.2.8 0 .7.6 1.1 1.3 1.1 1.1 0 2-1.8 2-4z"/><path d="m476.2 453.4c0-.6-.4-1.3-1.3-1.3h-6.7v-5.6h4.6c.8 0 1.3-.6 1.3-1.3 0-.6-.4-1.2-1.3-1.2h-4.6v-5h6.7c.8 0 1.3-.6 1.3-1.2s-.4-1.3-1.3-1.3h-8c-.7 0-1.3.6-1.3 1.3v15.6c0 .7.6 1.3 1.3 1.3h8c.9 0 1.3-.7 1.3-1.3z"/><path d="m484.2 454.8h.3c2.9 0 5.2-1.9 5.2-4.9 0-5.4-7.9-6-7.9-8.5v-.5c0-1.3 1.3-2 2.5-2h.2c1.4 0 2.2.3 2.4 1.7.2.7.6 1.2 1.3 1.2s1.2-.5 1.2-1.2c0-.1 0-.1 0-.2-.2-2.7-2.5-4-5-4h-.2c-2.4 0-5 1.8-5 4.6v.5c0 4.8 7.9 4.8 7.9 8.5 0 1.5-1.2 2.4-2.7 2.4h-.3c-1.5 0-2.6-1-2.6-2.6 0-.8-.6-1.3-1.3-1.3s-1.3.4-1.3 1.3c.1 3.1 2.5 5 5.3 5z"/><path d="m495.1 454.8c.6 0 1.3-.4 1.3-1.3v-6.8h3c2.8 0 4.9-2.3 4.9-5.1s-2.1-5.1-4.9-5.1h-4.3c-.7 0-1.3.6-1.3 1.3v15.8c0 .8.6 1.2 1.3 1.2zm1.2-15.8h3c1.4 0 2.4 1.2 2.4 2.6s-1 2.6-2.4 2.6h-3z"/><path d="m506.7 454.8c.5 0 1-.3 1.2-.9l1-3.5h5.8l1.1 3.5c.2.6.7.9 1.2.9.8 0 1.3-.5 1.3-1.2 0-.1 0-.3-.1-.4l-5-15.9c-.2-.7-.8-1-1.4-1s-1.2.3-1.4 1l-5 15.9c0 .1-.1.3-.1.4.1.7.6 1.2 1.4 1.2zm5.2-13.8 2.1 7h-4.3z"/><path d="m521.7 441.4v8.4c0 2.8 2.3 5 5.1 5h.2c2.5 0 5.1-1.8 5.1-4.4v-.1c0-.8-.4-1.4-1.3-1.4-.7 0-1.1.4-1.2 1.1-.2 1.3-1.2 2.3-2.6 2.3h-.2c-1.4 0-2.6-1.1-2.6-2.5v-8.5c0-1.4 1.2-2.5 2.6-2.5h.2c1.4 0 2.3 1 2.6 2.3.2.7.6 1.1 1.2 1.1.8 0 1.3-.6 1.3-1.4v-.1c0-2.5-2.5-4.4-5.1-4.4h-.2c-2.8.1-5.1 2.2-5.1 5.1z"/><path d="m536.1 437.8v15.6c0 .7.6 1.3 1.3 1.3h8c.8 0 1.3-.6 1.3-1.2s-.4-1.3-1.3-1.3h-6.7v-5.6h4.6c.8 0 1.3-.6 1.3-1.3 0-.6-.4-1.2-1.3-1.2h-4.6v-5.1h6.7c.8 0 1.3-.6 1.3-1.2s-.4-1.3-1.3-1.3h-8c-.7 0-1.3.6-1.3 1.3z"/><path d="m300.4 220.8c0-4-3.1-6.4-7-6.4-4.6 0-7.2 2.9-7.2 6.8h4.2c0-1.8 1.1-3.2 3-3.2s2.9 1.2 2.9 2.8c0 .9-.4 2-1.2 2.9l-8.8 10.5v3.2h14.4v-3.7h-9l6.2-7.5c1.3-1.4 2.5-3.4 2.5-5.4z"/><path d="m312.9 217.9c1.1 0 1.9.3 2.4.8.4.4.7 1 .8 1.7h4.1c0-1.3-.7-3-1.9-4.2-1.2-1.1-2.9-1.9-5.2-1.9-2.7 0-4.3 1-5.5 2.3-2.3 2.5-2.5 6.5-2.5 9.8 0 1.4.1 2.8.4 4.2.7 4.1 3.3 7.1 7.6 7.1 5.1 0 7.8-3.4 7.8-7.9 0-4.6-2.6-7.7-7.4-7.7-1.4 0-3.3.5-4.3 1.7 0-2 .3-4 1.6-5.2.4-.3 1-.7 2.1-.7zm.1 7.7c2.5 0 3.7 1.9 3.7 4.2 0 2.6-1.2 4.4-3.6 4.4s-3.6-1.9-3.6-4.4c0-2.3 1.3-4.2 3.5-4.2z"/><path d="m340.4 234.2c-1.3 0-2.9-.3-3.9-1.2-.7-.7-1.2-1.7-1.2-2.8h-4.3c0 2.2 1 4.1 2.4 5.4 1.9 1.7 4.5 2.4 6.9 2.4 2.8 0 5.5-.7 7.3-2.5 1.1-1.1 1.9-2.7 1.9-4.8 0-3.9-2.9-6.2-6.3-6.7-1.5-.2-3.5-.4-5-.6-1.4-.2-2.3-1-2.3-2.5 0-.8.3-1.4.8-2 .9-1 2.4-1.3 3.7-1.3 1.2 0 2.8.5 3.5 1.2.6.6 1 1.5 1 2.3h4.3c0-1.9-1-3.6-2.3-4.9-1.6-1.5-4-2.2-6.4-2.2-2.7 0-5.2.9-6.8 2.4-1.2 1.2-2 2.7-2 4.5 0 3.8 2.7 5.9 5.9 6.4 1.5.3 3.5.3 5.1.6 1.4.3 2.7 1 2.7 2.7 0 1.1-.4 1.7-.9 2.2-1 1.1-2.5 1.4-4.1 1.4z"/><path d="m353.9 237.4h16.5v-3.8h-12.3v-6.3h10.8v-3.7h-10.8v-5.4h12.3v-3.8h-16.5z"/><path d="m384 214.4h-9v23h4.2v-8.3h4.9c5.3 0 8.1-3 8.1-7.4s-2.9-7.3-8.2-7.3zm-.1 11.1h-4.7v-7.4h4.7c2.8 0 4.1 1.5 4.1 3.7s-1.3 3.7-4.1 3.7z"/><path d="m393.4 218.3h6.8v19.1h4.2v-19.1h6.9v-3.9h-17.9z"/><path d="m414.8 237.4h16.4v-3.8h-12.2v-6.3h10.8v-3.7h-10.8v-5.4h12.2v-3.8h-16.4z"/><path d="m447.6 230.8-6.1-16.4h-5.6v23h4v-16.6l6 16.3h3.1l5.9-16.1v16.4h4.1v-23h-5.4z"/><path d="m482.2 220.7c0-2-1-3.9-2.7-5-1.6-1-3.5-1.3-5.3-1.3h-9.2v23.1h9.2c2.2 0 4.4-.2 6.1-1.6 1.7-1.3 2.3-3.1 2.3-5.2s-1.1-4.2-3.3-5.2c2-.8 2.9-3 2.9-4.8zm-13-2.7h5.2c1.9 0 3.6.7 3.6 2.9s-1.6 2.9-3.5 2.9h-5.3zm5.2 15.7h-5.2v-6.4h5.3c2.2 0 3.9.9 3.9 3.3s-2.1 3.1-4 3.1z"/><path d="m505 221.5c0-3.7-2.5-7.1-8-7.1h-9.7v23h4.2v-8.7h5.1l3.8 8.7h4.6l-4.2-9.4c2.5-.9 4.2-3.4 4.2-6.5zm-7.9 3.5h-5.6v-6.9h5.5c2.4 0 3.8 1.6 3.8 3.5 0 2.1-1.4 3.4-3.7 3.4z"/><path d="m509.3 237.4h16.4v-3.8h-12.2v-6.3h10.8v-3.7h-10.8v-5.4h12.2v-3.8h-16.4z"/><path d="m269.7 252.6v4.4l4.9-3.6v17.8h4.1v-22.6h-3.5z"/><path d="m294.3 248.1c-2.4 0-4.1.9-5.3 2-2.3 2.2-2.7 6-2.7 9.7s.4 7.5 2.7 9.7c1.2 1.1 2.8 2 5.3 2s4.1-.9 5.3-2c2.3-2.2 2.7-6 2.7-9.7s-.4-7.5-2.7-9.7c-1.2-1.1-2.8-2-5.3-2zm0 19.7c-4.2 0-3.8-5-3.8-8s-.4-8 3.8-8 3.8 5 3.8 8 .4 8-3.8 8z"/><path d="m322.6 247.7c-2.5 0-4.9.8-6.6 2.6-2.5 2.5-2.9 5.6-2.9 9.4s.4 6.8 2.9 9.3c1.8 1.8 4.2 2.6 6.6 2.6s4.9-.8 6.6-2.6c2.5-2.5 2.9-5.6 2.9-9.3 0-3.8-.4-6.9-2.9-9.4-1.7-1.8-4.1-2.6-6.6-2.6zm3.6 18.6c-.9 1-2.3 1.5-3.6 1.5s-2.7-.6-3.6-1.5c-1.6-1.7-1.7-4.5-1.7-6.6s.1-5 1.7-6.6c.9-1 2.3-1.5 3.6-1.5s2.7.6 3.6 1.5c1.6 1.7 1.7 4.5 1.7 6.6s-.1 4.9-1.7 6.6z"/><path d="m344.8 251.5c1.4 0 2.7.5 3.5 1.4.6.7.9 1.4 1 2.4h4.3c-.2-1.8-.9-3.6-2.2-5-1.7-1.8-4.1-2.7-6.6-2.7s-4.8.8-6.5 2.6c-2.5 2.5-2.9 5.6-2.9 9.4s.4 6.9 2.9 9.4c1.8 1.8 4.1 2.6 6.5 2.6s4.9-1 6.6-2.7c1.3-1.4 2-3.2 2.2-5h-4.3c-.1 1-.5 1.8-1 2.5-.7.9-2 1.5-3.5 1.5-1.3 0-2.6-.6-3.5-1.5-1.6-1.7-1.6-4.5-1.6-6.6s0-5 1.6-6.6c.9-1.1 2.2-1.7 3.5-1.7z"/><path d="m366.4 271.2v-19.2h6.8v-3.9h-17.8v3.9h6.8v19.2z"/><path d="m385 247.7c-2.5 0-4.9.8-6.6 2.6-2.5 2.5-2.9 5.6-2.9 9.4s.4 6.8 2.9 9.3c1.8 1.8 4.2 2.6 6.6 2.6s4.9-.8 6.6-2.6c2.5-2.5 2.9-5.6 2.9-9.3 0-3.8-.4-6.9-2.9-9.4-1.7-1.8-4.1-2.6-6.6-2.6zm3.6 18.6c-.9 1-2.3 1.5-3.6 1.5s-2.7-.6-3.6-1.5c-1.6-1.7-1.7-4.5-1.7-6.6s.1-5 1.7-6.6c.9-1 2.3-1.5 3.6-1.5s2.7.6 3.6 1.5c1.6 1.7 1.7 4.5 1.7 6.6s-.1 4.9-1.7 6.6z"/><path d="m408.4 248.1h-9.2v23.1h9.2c2.2 0 4.4-.2 6.1-1.6 1.7-1.3 2.3-3.1 2.3-5.2s-1.1-4.2-3.3-5.2c1.9-.9 2.8-3 2.8-4.9 0-2-1-3.9-2.7-5-1.4-.9-3.3-1.2-5.2-1.2zm-5 3.6h5.2c1.9 0 3.6.7 3.6 2.9s-1.6 2.9-3.5 2.9h-5.3zm5.2 15.7h-5.2v-6.4h5.3c2.2 0 3.9.9 3.9 3.3s-2.1 3.1-4 3.1z"/><path d="m421.5 248.1v23h4.2v-8.7h5.1l3.8 8.7h4.6l-4.2-9.4c2.5-.9 4.2-3.4 4.2-6.5 0-3.7-2.5-7.1-8-7.1zm13.5 7.2c0 2.2-1.4 3.4-3.7 3.4h-5.6v-6.9h5.5c2.4 0 3.8 1.6 3.8 3.5z"/><path d="m443.5 271.2h16.4v-3.8h-12.2v-6.3h10.8v-3.8h-10.8v-5.4h12.2v-3.8h-16.4z"/><path d="m485.4 254.5c0-4-3.1-6.4-7-6.4-4.6 0-7.2 2.9-7.2 6.8h4.2c0-1.8 1.1-3.2 3-3.2s2.9 1.2 2.9 2.8c0 .9-.4 2-1.2 2.9l-8.8 10.5v3.2h14.4v-3.7h-9l6.2-7.5c1.3-1.4 2.5-3.4 2.5-5.4z"/><path d="m497.7 248.1c-2.4 0-4.1.9-5.3 2-2.3 2.2-2.7 6-2.7 9.7s.4 7.5 2.7 9.7c1.2 1.1 2.8 2 5.3 2s4.1-.9 5.3-2c2.3-2.2 2.7-6 2.7-9.7s-.4-7.5-2.7-9.7c-1.2-1.1-2.8-2-5.3-2zm0 19.7c-4.2 0-3.8-5-3.8-8s-.4-8 3.8-8 3.8 5 3.8 8 .4 8-3.8 8z"/><path d="m509.6 267.9v3.2h14.4v-3.7h-9l6.2-7.5c1.3-1.5 2.5-3.5 2.5-5.5 0-4-3.1-6.4-7-6.4-4.6 0-7.2 2.9-7.2 6.8h4.2c0-1.8 1.1-3.2 3-3.2s2.9 1.2 2.9 2.8c0 .9-.4 2-1.2 2.9z"/><path d="m530.6 252.6v4.4l4.9-3.6v17.8h4.1v-22.6h-3.5z"/><path d="m223.7 383h37.6c3.1 0 4.8-2.4 4.8-4.8s-1.6-4.8-4.8-4.8h-31.5l35.5-68.1c2.2-4.2-.2-8.8-4.9-8.8h-35.8c-3.2 0-4.8 2.4-4.8 4.8s1.5 4.8 4.8 4.8h29.6l-35.2 67.9c-2 3.7 0 9 4.7 9z"/><path d="m299.5 379v-78.4c0-3.1-2.4-4.8-4.8-4.8s-4.8 1.6-4.8 4.8v78.4c0 3.1 2.4 4.8 4.8 4.8s4.8-1.7 4.8-4.8z"/><path d="m351.3 295.8c-13.1 0-23.8 10.5-23.8 23.8v40.4c0 13.1 10.6 23.8 23.8 23.8h1.2c13.1 0 23.8-10.6 23.8-23.8v-19.4c0-2.5-2.2-4.8-4.8-4.8h-17.9c-3.1 0-4.8 2.4-4.8 4.8s1.6 4.8 4.8 4.8h13.1v14.6c0 7.9-6.4 14.2-14.2 14.2h-1.2c-7.9 0-14.2-6.4-14.2-14.2v-40.5c0-7.8 6.4-14.1 14.2-14.1h1.2c8.1 0 12.9 5.4 14.2 12.2.5 2.8 2.6 4 4.8 4 2.4 0 4.8-1.6 4.8-4.6 0-.2 0-.5 0-.8-1.6-11.8-11.6-20.4-23.8-20.4z"/><path d="m402.5 383h37.6c3.1 0 4.8-2.4 4.8-4.8s-1.6-4.8-4.8-4.8h-31.5l35.5-68.1c2.2-4.2-.2-8.8-4.9-8.8h-35.8c-3.2 0-4.8 2.4-4.8 4.8s1.5 4.8 4.8 4.8h29.6l-35.3 67.9c-2 3.7 0 9 4.8 9z"/><path d="m460 379.1c0 2.5 2 4.6 4.9 4.6 1.9 0 3.6-1 4.4-3.4l5.6-18h30.9l5.5 18c.8 2.4 2.6 3.4 4.5 3.4 2.9 0 4.9-2.1 4.9-4.6 0-.5-.1-1-.2-1.5l-24.5-78.3c-.8-2.2-3.1-3.5-5.8-3.5-2.5 0-4.9 1.2-5.6 3.5l-24.4 78.2c-.1.6-.2 1.1-.2 1.6zm30.2-66.3 12.5 40h-24.9z"/><path d="m563.6 305.3h1.2c8.1 0 12.9 5.4 14.2 12.2.5 2.8 2.6 4 4.8 4 2.4 0 4.8-1.6 4.8-4.6 0-.2 0-.5 0-.8-1.6-11.8-11.6-20.4-23.8-20.4h-1.2c-13.1 0-23.8 10.5-23.8 23.8v40.5c0 13.1 10.6 23.8 23.8 23.8h1.2c13.1 0 23.8-10.6 23.8-23.8v-19.4c0-2.5-2.2-4.8-4.8-4.8h-17.8c-3.1 0-4.8 2.4-4.8 4.8s1.6 4.8 4.8 4.8h13.1v14.6c0 7.9-6.4 14.2-14.2 14.2h-1.2c-7.9 0-14.2-6.4-14.2-14.2v-40.5c-.2-7.8 6.2-14.2 14.1-14.2z"/><path d="m328 478.4v-1.9h-7.9v11.4h2.1v-4.6h5.1v-1.9h-5.1v-3z"/><path d="m338.9 478.4v-1.9h-8.1v11.4h8.1v-1.9h-6v-3.1h5.3v-1.9h-5.3v-2.6z"/><path d="m345.9 486.3c-.7 0-1.4-.1-1.9-.6-.3-.3-.6-.8-.6-1.4h-2.1c0 1.1.5 2 1.2 2.6.9.8 2.2 1.2 3.4 1.2 1.4 0 2.7-.4 3.6-1.2.6-.6.9-1.3.9-2.4 0-1.9-1.4-3-3.1-3.3-.7-.1-1.7-.2-2.5-.3-.7-.1-1.2-.5-1.2-1.2 0-.4.1-.7.4-1 .5-.5 1.2-.6 1.8-.6s1.4.2 1.7.6c.3.3.5.7.5 1.1h2.1c0-.9-.5-1.8-1.2-2.4-.8-.7-2-1.1-3.2-1.1-1.3 0-2.6.5-3.3 1.2-.6.6-1 1.3-1 2.2 0 1.9 1.3 2.9 2.9 3.2.8.1 1.7.2 2.5.3.7.1 1.3.5 1.3 1.3 0 .5-.2.8-.4 1.1-.3.5-1 .7-1.8.7z"/><path d="m357.7 487.9v-9.5h3.4v-1.9h-8.8v1.9h3.3v9.5z"/><path d="m363.8 476.5h2.1v11.3h-2.1z"/><path d="m374.5 487.9 3.7-11.4h-2.1l-2.7 8.7-2.8-8.7h-2.1l3.7 11.4z"/><path d="m382.3 485.7h4.5l.7 2.2h2.2l-4-11.3h-2.3l-4 11.3h2.1zm2.3-6.7 1.6 4.8h-3.2z"/><path d="m399.7 485.9h-5.3v-9.4h-2.1v11.4h7.4z"/><path d="m410.4 486h-6.3l6.2-7.5v-2h-8.7v1.9h6.2l-6.3 7.4v2.1h8.9z"/><path d="m413.5 476.5h2.1v11.3h-2.1z"/><path d="m423.7 488.1c1.4 0 2.5-.8 2.8-1.5l.2 1.2h1.3v-6.2h-4.7v1.7h2.7c0 .9-.1 1.6-.7 2.2-.4.4-1 .7-1.7.7s-1.4-.2-1.8-.7c-.8-.8-.9-2.3-.9-3.3s.1-2.4.9-3.3c.4-.5 1.2-.8 1.9-.8.8 0 1.4.2 1.8.7.2.3.5.6.5 1h2.1c-.1-1-.5-1.7-1-2.3-.8-.8-2-1.3-3.4-1.3-1.2 0-2.5.5-3.4 1.3-1.2 1.2-1.5 2.7-1.5 4.6s.3 3.4 1.5 4.6c1 1.1 2.1 1.4 3.4 1.4z"/><path d="m439.8 486h-6.3l6.2-7.5v-2h-8.7v1.9h6.2l-6.3 7.4v2.1h8.9z"/><path d="m444.4 485.7h4.5l.7 2.2h2.2l-4-11.3h-2.3l-4 11.3h2.1zm2.2-6.7 1.6 4.8h-3.2z"/><path d="m458.6 488.1c1.4 0 2.5-.8 2.8-1.5l.2 1.2h1.3v-6.2h-4.7v1.7h2.7c0 .9-.1 1.6-.7 2.2-.4.4-1 .7-1.7.7s-1.4-.2-1.8-.7c-.8-.8-.9-2.3-.9-3.3s.1-2.4.9-3.3c.4-.5 1.2-.8 1.9-.8.8 0 1.4.2 1.8.7.2.3.5.6.5 1h2.1c-.1-1-.5-1.7-1-2.3-.8-.8-2-1.3-3.4-1.3-1.2 0-2.5.5-3.4 1.3-1.2 1.2-1.5 2.7-1.5 4.6s.3 3.4 1.5 4.6c.9 1.1 2.1 1.4 3.4 1.4z"/><path d="m466.4 485.4h2.4v2.5h-2.4z"/><path d="m480.4 478.4v-1.9h-7.8v11.4h2v-4.6h5.2v-1.9h-5.2v-3z"/><path d="m492 480c0-1.8-1.2-3.5-3.9-3.5h-4.8v11.3h2.1v-4.3h2.5l1.9 4.3h2.2l-2.1-4.6c1.2-.4 2.1-1.6 2.1-3.2zm-3.9 1.7h-2.8v-3.4h2.7c1.2 0 1.9.8 1.9 1.7 0 1.1-.7 1.7-1.8 1.7z"/></g></svg>
