<?xml version="1.0" encoding="utf-8"?>
<!-- Generator: Adobe Illustrator 24.1.0, SVG Export Plug-In . SVG Version: 6.00 Build 0)  -->
<svg version="1.1" id="Calque_1" xmlns="http://www.w3.org/2000/svg" xmlns:xlink="http://www.w3.org/1999/xlink" x="0px" y="0px"
	 viewBox="0 0 481.9 453.5" style="enable-background:new 0 0 481.9 453.5;" xml:space="preserve">
<style type="text/css">
	.st0{fill:#312783;}
</style>
<g>
	<path class="st0" d="M81.6,246.6l-4.6,4.6l198.2,198.2l204.2-204.2l-4.6-4.6L275.2,440.1L81.6,246.6z M405.2,230.3v11
		c0,5.9-4.8,10.7-10.7,10.7h-0.9c-5.9,0-10.7-4.8-10.7-10.7v-30.4c0-5.8,4.8-10.6,10.7-10.6h0.9c6.1,0,9.7,4,10.7,9.2
		c0.4,2.1,2,3,3.6,3c1.8,0,3.6-1.2,3.6-3.5v-0.6c-1.2-8.8-8.7-15.3-17.8-15.3h-0.9c-9.8,0-17.8,7.9-17.8,17.8v30.3
		c0,9.8,8,17.8,17.8,17.8h0.9c9.8,0,17.8-8,17.8-17.8v-14.5c0-1.9-1.7-3.6-3.6-3.6h-13.4c-2.3,0-3.6,1.8-3.6,3.6
		c0,1.8,1.2,3.6,3.6,3.6H405.2z M346.8,172H340l4.7-5.6c0.9-1.1,1.9-2.6,1.9-4.1c0-3-2.3-4.8-5.2-4.8c-3.5,0-5.4,2.1-5.4,5.1h3.1
		c0-1.3,0.8-2.4,2.3-2.4c1.4,0,2.1,0.9,2.1,2.1c0,0.7-0.3,1.5-0.9,2.2l-6.6,7.9v2.4h10.8V172z M334.3,144.5c0,1.6-1.1,2.6-2.8,2.6
		c-1.7,0-2.8-1-2.8-2.6c0-1.4,1-2.5,2.8-2.5C333.4,141.9,334.3,143.1,334.3,144.5 M334,137c0,1.2-0.8,2.3-2.4,2.3s-2.4-1-2.4-2.3
		c0-1.2,0.8-2.2,2.4-2.2C333.2,134.8,334,135.8,334,137 M334.9,140.6c1.2-0.7,2.1-2.2,2.1-3.7c0-3.2-2.6-4.8-5.5-4.8
		s-5.5,1.6-5.5,4.8c0,1.4,0.9,3,2.1,3.7c-1.6,0.8-2.5,2.4-2.5,4c0,3.3,2.8,5.1,5.8,5.1s5.8-1.8,5.8-5.1
		C337.4,143,336.6,141.4,334.9,140.6 M327,160.3c3.1,0,2.9,3.8,2.9,6s0.3,6-2.9,6c-3.1,0-2.9-3.8-2.9-6
		C324.2,164,323.9,160.3,327,160.3 M327,157.4c-1.8,0-3.1,0.7-3.9,1.5c-1.8,1.7-2,4.5-2,7.3s0.3,5.6,2,7.3c0.9,0.9,2.1,1.5,3.9,1.5
		s3.1-0.7,3.9-1.5c1.8-1.7,2-4.5,2-7.3s-0.3-5.6-2-7.3C330.1,158.1,328.9,157.4,327,157.4 M348,236h-18.7l9.3-30L348,236z
		 M361.2,254.5l-18.3-58.7c-0.6-1.7-2.3-2.6-4.3-2.6c-1.9,0-3.7,0.9-4.2,2.6l-18.3,58.7c-0.1,0.4-0.2,0.8-0.2,1.1
		c0,1.9,1.5,3.5,3.7,3.5c1.4,0,2.7-0.8,3.3-2.5l4.2-13.5h23.2l4.1,13.5c0.6,1.8,2,2.5,3.4,2.5c2.2,0,3.7-1.6,3.7-3.5
		C361.4,255.3,361.3,254.9,361.2,254.5 M299.5,132.1v10.6c0,2.5-1.1,4.1-3.6,4.1s-3.6-1.7-3.6-4.1v-10.6h-3.1v10.6
		c0,4.1,2.3,6.9,6.8,6.9s6.8-2.8,6.8-6.9v-10.6H299.5z M273,165.4v-5.2h4.1c1.8,0,2.9,1.2,2.9,2.6c0,1.6-1,2.6-2.8,2.6L273,165.4
		L273,165.4z M273,174.7v-6.5h3.8l2.9,6.5h3.4l-3.2-7.1c1.9-0.7,3.2-2.5,3.2-4.9c0-2.8-1.9-5.4-6-5.4h-7.3v17.3L273,174.7L273,174.7
		z M276.8,143.3l2.5-7.3l2.5,7.3H276.8z M277.6,132.1l-6.1,17.3h3.2l1.1-3.3h6.9l1.1,3.3h3.3l-6.1-17.3H277.6z M298.7,157.4h-12.3
		v17.3h12.3v-2.9h-9.2v-4.7h8.1v-2.8h-8.1v-4h9.2V157.4z M300.3,193.8h-26.8c-2.4,0-3.6,1.8-3.6,3.6s1.1,3.6,3.6,3.6h22.2
		l-26.5,50.9c-1.5,2.8,0,6.8,3.6,6.8H301c2.3,0,3.6-1.8,3.6-3.6c0-1.8-1.2-3.6-3.6-3.6h-23.6l26.6-51.1
		C305.7,197.2,303.8,193.8,300.3,193.8 M263.2,169.6c0,1.8-1.6,2.3-3,2.3h-3.9v-4.8h4C261.9,167.1,263.2,167.8,263.2,169.6
		 M262.9,162.3c0,1.6-1.2,2.1-2.6,2.1h-4v-4.3h3.9C261.6,160.1,262.9,160.7,262.9,162.3 M263.9,165.8c1.5-0.7,2.1-2.2,2.1-3.7
		s-0.7-2.9-2-3.8c-1.2-0.8-2.6-1-4-1h-6.9v17.3h6.9c1.7,0,3.3-0.1,4.6-1.2c1.2-1,1.8-2.3,1.8-3.9
		C266.4,168.1,265.6,166.6,263.9,165.8 M261.4,140.6c1.5-0.5,2.4-2.1,2.4-3.6c0-2.9-2.3-4.8-5.4-4.8c-3.1,0-5.6,1.8-5.7,5h3.1
		c0-1.5,1.1-2.3,2.6-2.3c1.3,0,2.3,1,2.3,2.2c0,1.6-0.9,2.3-2.6,2.3h-1.3v2.7h1.3c1.6,0,3,0.8,3,2.6c0,1.6-1.2,2.5-2.7,2.5
		s-2.6-0.9-2.7-2.5h-3c0.1,3.2,2.6,5.2,5.8,5.2c3.2,0,5.8-1.8,5.8-5.2C264.1,142.8,263.1,141.1,261.4,140.6 M240.8,132.1v10.6
		c0,2.5-1.1,4.1-3.6,4.1s-3.6-1.7-3.6-4.1v-10.6h-3.1v10.6c0,4.1,2.3,6.9,6.8,6.9s6.8-2.8,6.8-6.9v-10.6H240.8z M212.5,337.2v-3.4
		h3.9v-1.4h-3.9v-2.3h4.3v-1.4h-5.9v8.5H212.5z M239.2,337.2v-7.1h2.5v-1.4h-6.6v1.4h2.5v7.1H239.2z M233.6,307.3l1.6-5.2l1.6,5.2
		H233.6z M233,309.1h4.4l0.8,2.6c0.2,0.5,0.5,0.7,0.9,0.7c0.6,0,1-0.4,1-0.9c0-0.1,0-0.2,0-0.3l-3.7-11.9c-0.2-0.5-0.6-0.7-1.1-0.7
		s-0.9,0.3-1.1,0.7l-3.7,11.9c0,0.1,0,0.2,0,0.3c0,0.5,0.4,0.9,1,0.9c0.4,0,0.8-0.2,0.9-0.7L233,309.1z M240.1,290.8
		c0-0.5-0.3-0.9-0.9-0.9h-4.4V279c0-0.6-0.5-0.9-0.9-0.9c-0.5,0-0.9,0.3-0.9,0.9v11.8c0,0.5,0.4,0.9,0.9,0.9h5.3
		C239.7,291.7,240.1,291.2,240.1,290.8 M228.6,331.1c0-0.3,0.1-0.5,0.3-0.7c0.3-0.4,0.9-0.5,1.4-0.5s1,0.2,1.3,0.5
		c0.2,0.2,0.4,0.5,0.4,0.8h1.6c0-0.7-0.4-1.3-0.9-1.8c-0.6-0.5-1.5-0.8-2.4-0.8c-1,0-1.9,0.3-2.5,0.9c-0.4,0.4-0.7,1-0.7,1.7
		c0,1.4,1,2.2,2.2,2.4c0.6,0.1,1.3,0.1,1.9,0.2c0.5,0.1,1,0.4,1,1c0,0.4-0.1,0.6-0.3,0.8c-0.3,0.3-0.9,0.5-1.5,0.5
		c-0.5,0-1.1-0.1-1.4-0.5c-0.3-0.3-0.4-0.6-0.4-1H227c0,0.8,0.4,1.5,0.9,2c0.7,0.6,1.6,0.9,2.5,0.9c1,0,2-0.3,2.7-0.9
		c0.4-0.4,0.7-1,0.7-1.8c0-1.5-1.1-2.3-2.3-2.5c-0.6-0.1-1.3-0.1-1.8-0.2C229,331.9,228.6,331.7,228.6,331.1 M223.7,286.7l1.6-5.2
		l1.6,5.2H223.7z M223.1,288.5h4.4l0.8,2.6c0.2,0.5,0.5,0.7,0.9,0.7c0.6,0,1-0.4,1-0.9c0-0.1,0-0.2,0-0.3l-3.7-11.9
		c-0.2-0.5-0.6-0.7-1.1-0.7s-0.9,0.3-1.1,0.7l-3.7,11.9c0,0.1,0,0.2,0,0.3c0,0.5,0.4,0.9,1,0.9c0.4,0,0.8-0.2,0.9-0.7L223.1,288.5z
		 M219,337.2h6.1v-1.4h-4.5v-2.3h4v-1.4h-4v-2h4.5v-1.4H219V337.2z M219.5,312.4h0.2c2.2,0,3.9-1.5,3.9-3.7c0-4.1-5.9-4.5-5.9-6.4
		v-0.4c0-1,1-1.5,1.9-1.5h0.2c1,0,1.6,0.2,1.8,1.3c0.1,0.5,0.4,0.9,1,0.9c0.5,0,0.9-0.4,0.9-0.9v-0.1c-0.1-2-1.9-3-3.7-3h-0.2
		c-1.8,0-3.7,1.4-3.7,3.5v0.4c0,3.6,5.9,3.6,5.9,6.3c0,1.1-0.9,1.8-2,1.8h-0.2c-1.1,0-1.9-0.7-1.9-2c0-0.6-0.5-0.9-0.9-0.9
		c-0.5,0-0.9,0.3-0.9,0.9C215.7,311,217.5,312.4,219.5,312.4 M216.4,291l2.9-11.8c0-0.1,0-0.2,0-0.3c0-0.5-0.4-0.9-1-0.9
		c-0.4,0-0.8,0.2-0.9,0.7l-2.1,9.1l-2.1-9.1c-0.1-0.5-0.5-0.7-0.9-0.7c-0.6,0-1,0.4-1,0.9c0,0.1,0,0.2,0,0.3l2.9,11.8
		c0.1,0.6,0.6,0.8,1.1,0.8S216.3,291.5,216.4,291 M206.6,312.3h6c0.6,0,0.9-0.5,0.9-0.9c0-0.5-0.3-0.9-0.9-0.9h-5v-4.2h3.4
		c0.6,0,0.9-0.5,0.9-0.9c0-0.5-0.3-0.9-0.9-0.9h-3.4v-3.8h5c0.6,0,0.9-0.5,0.9-0.9c0-0.5-0.3-0.9-0.9-0.9h-6c-0.5,0-0.9,0.5-0.9,0.9
		v11.7C205.7,311.9,206.2,312.3,206.6,312.3 M207.3,291.8c0.5,0,0.9-0.3,0.9-0.9V279c0-0.6-0.5-0.9-0.9-0.9c-0.5,0-0.9,0.3-0.9,0.9
		v11.9C206.3,291.5,206.8,291.8,207.3,291.8 M205.3,166.1c0,2.8,0.3,5.1,2.1,7c1.3,1.3,3,1.9,4.9,1.9s3.7-0.7,4.9-2
		c1-1,1.5-2.4,1.7-3.8h-3.2c-0.1,0.8-0.3,1.4-0.8,1.9c-0.6,0.7-1.5,1.1-2.6,1.1c-1,0-2-0.4-2.7-1.1c-1.2-1.2-1.2-3.4-1.2-5
		s0-3.7,1.2-5c0.7-0.7,1.7-1.1,2.7-1.1c1.1,0,2,0.4,2.6,1.1c0.4,0.5,0.7,1.1,0.8,1.8h3.2c-0.1-1.4-0.7-2.7-1.7-3.8
		c-1.3-1.3-3.1-2-4.9-2c-1.9,0-3.6,0.6-4.9,2C205.6,160.9,205.3,163.3,205.3,166.1 M216.9,135h3.6c1,0,1.9,0.4,2.4,1
		c1.2,1.2,1.2,3.2,1.2,4.8s0,3.6-1.2,4.8c-0.6,0.6-1.4,1-2.4,1h-3.6V135z M220.5,132.1h-6.7v17.3h6.7c2,0,3.7-0.7,4.8-1.9
		c1.8-1.8,2-4.4,2-6.8s-0.2-4.9-2-6.8C224.2,132.8,222.5,132.1,220.5,132.1 M233.7,157.4h-13.4v2.9h5.1v14.4h3.1v-14.4h5.1
		L233.7,157.4L233.7,157.4z M246.5,166.1c0,1.6,0,3.7-1.2,4.9c-0.7,0.7-1.7,1.1-2.7,1.1s-2-0.4-2.7-1.1c-1.2-1.2-1.2-3.4-1.2-4.9
		c0-1.6,0-3.7,1.2-5c0.7-0.7,1.7-1.1,2.7-1.1s2,0.4,2.7,1.1C246.4,162.4,246.5,164.5,246.5,166.1 M247.5,159.1c-1.3-1.3-3.1-2-5-2
		s-3.7,0.6-5,2c-1.9,1.9-2.2,4.2-2.2,7s0.3,5.1,2.2,7c1.3,1.3,3.1,2,5,2s3.7-0.6,5-2c1.9-1.9,2.2-4.2,2.2-7
		C249.7,163.3,249.4,160.9,247.5,159.1 M253.2,208.5c-1.2-8.8-8.7-15.3-17.8-15.3h-0.9c-9.8,0-17.8,7.9-17.8,17.8v30.3
		c0,9.8,8,17.8,17.8,17.8h0.9c9.8,0,17.8-8,17.8-17.8v-14.5c0-1.9-1.7-3.6-3.6-3.6h-13.4c-2.3,0-3.6,1.8-3.6,3.6
		c0,1.8,1.2,3.6,3.6,3.6h9.8v11c0,5.9-4.8,10.7-10.7,10.7h-0.9c-5.9,0-10.7-4.8-10.7-10.7V211c0-5.8,4.8-10.6,10.7-10.6h0.9
		c6.1,0,9.7,4,10.7,9.2c0.4,2.1,2,3,3.6,3c1.8,0,3.6-1.2,3.6-3.5V208.5z M244.7,300.6h2.3c1.1,0,1.9,0.9,1.9,2v0.2
		c0,1.1-0.8,1.9-1.9,1.9h-2.3V300.6z M243.8,312.4c0.5,0,0.9-0.3,0.9-0.9v-4.9h1.6l2.5,5.4c0.2,0.4,0.5,0.5,0.8,0.5
		c0.6,0,1-0.4,1-0.9c0-0.1,0-0.3-0.1-0.4l-2.2-4.7c1.5-0.5,2.5-1.9,2.5-3.6v-0.2c0-2.1-1.7-3.8-3.8-3.8h-3.2c-0.5,0-0.9,0.5-0.9,0.9
		v11.8C242.8,312.1,243.3,312.4,243.8,312.4 M245.3,328.7h-1.6v8.5h1.6V328.7z M265.9,312.4h0.2c2.2,0,3.9-1.5,3.9-3.7
		c0-4.1-5.9-4.5-5.9-6.4v-0.4c0-1,1-1.5,1.9-1.5h0.2c1,0,1.6,0.2,1.8,1.3c0.1,0.5,0.4,0.9,1,0.9c0.5,0,0.9-0.4,0.9-0.9v-0.1
		c-0.1-2-1.8-3-3.7-3H266c-1.8,0-3.7,1.4-3.7,3.5v0.4c0,3.6,5.9,3.6,5.9,6.3c0,1.1-0.9,1.8-2,1.8H266c-1.1,0-1.9-0.7-1.9-2
		c0-0.6-0.5-0.9-0.9-0.9c-0.5,0-0.9,0.3-0.9,0.9C262,311,263.8,312.4,265.9,312.4 M266.7,328.7h-1.5v8.5h5.5v-1.5h-3.9v-7H266.7z
		 M260.3,278.9v0.6c0,0.8-0.1,1-0.4,1.5c-0.1,0.2-0.2,0.4-0.2,0.6c0,0.5,0.5,0.8,0.9,0.8c0.8,0,1.5-1.3,1.5-3V279
		c0-0.6-0.5-0.9-0.9-0.9C260.8,278,260.3,278.3,260.3,278.9 M260.6,334.2h-2.4l1.2-3.6L260.6,334.2z M261.6,337.2h1.6l-3-8.5h-1.7
		l-3,8.5h1.6l0.6-1.6h3.4L261.6,337.2z M255.5,311.5c0,0.6,0.5,0.9,0.9,0.9c0.5,0,0.9-0.3,0.9-0.9v-10.9h1.9c0.6,0,0.9-0.5,0.9-0.9
		c0-0.5-0.3-0.9-0.9-0.9h-5.6c-0.6,0-0.9,0.5-0.9,0.9c0,0.5,0.3,0.9,0.9,0.9h1.9L255.5,311.5L255.5,311.5z M253.4,289.8h-2.1v-9.9
		h2.1c1.1,0,1.9,0.9,1.9,2v5.9C255.3,288.9,254.4,289.8,253.4,289.8 M253.4,291.7c2.1,0,3.8-1.5,3.8-3.8V282c0-2.3-1.7-3.8-3.8-3.8
		h-3.1c-0.5,0-0.9,0.5-0.9,0.9v11.7c0,0.5,0.5,0.9,0.9,0.9L253.4,291.7L253.4,291.7z M251.8,337.2l2.8-8.5H253l-2.1,6.5l-2.1-6.5
		h-1.5l2.8,8.5H251.8z M267.1,286.7l1.6-5.2l1.6,5.2H267.1z M267.6,278.7l-3.7,11.9c0,0.1,0,0.2,0,0.3c0,0.5,0.4,0.9,1,0.9
		c0.4,0,0.8-0.2,0.9-0.7l0.8-2.6h4.4l0.8,2.6c0.2,0.5,0.5,0.7,0.9,0.7c0.6,0,1-0.4,1-0.9c0-0.1,0-0.2,0-0.3l-3.7-11.9
		c-0.2-0.5-0.6-0.7-1.1-0.7C268.2,278,267.8,278.2,267.6,278.7 M281.5,300.6h2.1c1.1,0,1.9,0.9,1.9,2v5.9c0,1.1-0.9,2-1.9,2h-2.1
		V300.6z M280.5,312.3h3.1c2.1,0,3.8-1.5,3.8-3.8v-5.9c0-2.3-1.7-3.8-3.8-3.8h-3.1c-0.5,0-0.9,0.5-0.9,0.9v11.7
		C279.6,311.9,280,312.3,280.5,312.3 M282.6,328.7H281v8.5h1.6V328.7z M300.8,335.8h-4.7l4.7-5.6v-1.5h-6.5v1.4h4.6l-4.7,5.6v1.5
		h6.7v-1.4H300.8z M291.9,312.3h6c0.6,0,0.9-0.5,0.9-0.9c0-0.5-0.3-0.9-0.9-0.9h-5v-4.2h3.4c0.6,0,0.9-0.5,0.9-0.9
		c0-0.5-0.3-0.9-0.9-0.9h-3.4v-3.8h5c0.6,0,0.9-0.5,0.9-0.9c0-0.5-0.3-0.9-0.9-0.9h-6c-0.5,0-0.9,0.5-0.9,0.9v11.7
		C291,311.9,291.4,312.3,291.9,312.3 M289.1,288v-6.3c0-1.1,0.9-1.9,1.9-1.9h0.2c1,0,1.8,0.7,1.9,1.7c0.1,0.5,0.4,0.8,0.9,0.8
		c0.6,0,1-0.4,1-1v-0.1c0-1.9-1.9-3.3-3.8-3.3H291c-2.1,0-3.8,1.6-3.8,3.8v6.3c0,2.1,1.7,3.8,3.8,3.8h0.2c1.9,0,3.8-1.4,3.8-3.3
		v-0.1c0-0.6-0.3-1-1-1c-0.5,0-0.8,0.3-0.9,0.8c-0.2,1-0.9,1.7-1.9,1.7H291C289.9,289.9,289.1,289.1,289.1,288 M291,337.2h1v-4.7
		h-3.5v1.3h2c0,0.6-0.1,1.2-0.6,1.7c-0.3,0.3-0.7,0.5-1.3,0.5c-0.5,0-1-0.2-1.4-0.5c-0.6-0.6-0.7-1.7-0.7-2.5s0.1-1.8,0.7-2.4
		c0.3-0.4,0.9-0.6,1.4-0.6c0.6,0,1.1,0.2,1.4,0.5c0.2,0.2,0.3,0.4,0.4,0.8h1.6c0-0.7-0.4-1.3-0.8-1.7c-0.6-0.6-1.5-1-2.5-1
		c-0.9,0-1.9,0.3-2.5,1c-0.9,0.9-1.1,2-1.1,3.4s0.2,2.5,1.1,3.5c0.7,0.7,1.5,1,2.5,0.9c1.1,0,1.9-0.6,2.1-1.1L291,337.2z
		 M278.2,284.1V280h2.3c1.1,0,1.9,0.9,1.9,2v0.2c0,1.1-0.8,1.9-1.9,1.9H278.2z M278.2,285.9h1.6l2.5,5.4c0.2,0.4,0.5,0.5,0.8,0.5
		c0.6,0,1-0.4,1-0.9c0-0.1,0-0.3-0.1-0.4l-2.2-4.7c1.5-0.5,2.5-1.9,2.5-3.6V282c0-2.1-1.7-3.8-3.8-3.8h-3.2c-0.5,0-0.9,0.5-0.9,0.9
		v11.8c0,0.6,0.5,0.9,1,0.9s0.9-0.3,0.9-0.9v-5H278.2z M272.1,337.2h6.7v-1.4h-4.7l4.7-5.6v-1.5h-6.5v1.4h4.6l-4.7,5.6v1.5H272.1z
		 M304.9,278c-0.5,0-0.9,0.3-0.9,0.9v4.8h-4.1v-4.8c0-0.6-0.5-0.9-0.9-0.9c-0.5,0-0.9,0.3-0.9,0.9v11.9c0,0.6,0.5,0.9,0.9,0.9
		c0.5,0,0.9-0.3,0.9-0.9v-5.2h4.1v5.2c0,0.6,0.5,0.9,0.9,0.9c0.5,0,0.9-0.3,0.9-0.9v-11.9C305.8,278.3,305.3,278,304.9,278
		 M305.9,330.6l1.2,3.6h-2.4L305.9,330.6z M306.8,328.7h-1.7l-3,8.5h1.6l0.6-1.6h3.4l0.6,1.6h1.6L306.8,328.7z M306.2,299.5v11.8
		c0,0.5,0.4,0.9,0.9,0.9h5.3c0.6,0,0.9-0.5,0.9-0.9c0-0.5-0.3-0.9-0.9-0.9H308v-10.9c0-0.6-0.5-0.9-0.9-0.9S306.2,298.9,306.2,299.5
		 M319,290.9V280h1.9c0.6,0,0.9-0.5,0.9-0.9c0-0.5-0.3-0.9-0.9-0.9h-5.6c-0.6,0-0.9,0.5-0.9,0.9c0,0.5,0.3,0.9,0.9,0.9h1.9v10.9
		c0,0.6,0.5,0.9,0.9,0.9C318.6,291.8,319,291.5,319,290.9 M321.2,312.3h6c0.6,0,0.9-0.5,0.9-0.9c0-0.5-0.3-0.9-0.9-0.9h-5v-4.2h3.4
		c0.6,0,0.9-0.5,0.9-0.9c0-0.5-0.3-0.9-0.9-0.9h-3.4v-3.8h5c0.6,0,0.9-0.5,0.9-0.9c0-0.5-0.3-0.9-0.9-0.9h-6c-0.5,0-0.9,0.5-0.9,0.9
		v11.7C320.2,311.9,320.7,312.3,321.2,312.3 M322.6,335.4h-1.8v1.9h1.8V335.4z M326.9,337.2v-3.4h3.9v-1.4h-3.9v-2.3h4.3v-1.4h-5.9
		v8.5H326.9z M334.9,332.6v-2.5h2c0.9,0,1.4,0.6,1.4,1.3c0,0.8-0.5,1.3-1.4,1.3L334.9,332.6L334.9,332.6z M334.9,337.2V334h1.9
		l1.4,3.2h1.7l-1.6-3.5c0.9-0.3,1.6-1.2,1.6-2.4c0-1.4-0.9-2.6-3-2.6h-3.6v8.5H334.9z M343.2,304.5v-3.9h2.2c1.1,0,1.8,0.9,1.8,1.9
		c0,1.1-0.7,2-1.8,2H343.2z M343.2,311.5v-5.1h2.2c2.1,0,3.7-1.7,3.7-3.8c0-2.1-1.6-3.8-3.7-3.8h-3.2c-0.5,0-0.9,0.5-0.9,0.9v11.8
		c0,0.6,0.5,0.9,0.9,0.9C342.7,312.4,343.2,312.1,343.2,311.5 M349,280h1.9c0.6,0,0.9-0.5,0.9-0.9c0-0.5-0.3-0.9-0.9-0.9h-5.6
		c-0.6,0-0.9,0.5-0.9,0.9c0,0.5,0.3,0.9,0.9,0.9h1.9v10.9c0,0.6,0.5,0.9,0.9,0.9c0.5,0,0.9-0.3,0.9-0.9L349,280L349,280z
		 M353.2,307.3l1.6-5.2l1.6,5.2H353.2z M353.7,299.3l-3.7,11.9c0,0.1,0,0.2,0,0.3c0,0.5,0.4,0.9,1,0.9c0.4,0,0.8-0.2,0.9-0.7
		l0.8-2.6h4.4l0.8,2.6c0.2,0.5,0.5,0.7,0.9,0.7c0.6,0,1-0.4,1-0.9c0-0.1,0-0.2,0-0.3l-3.7-11.9c-0.2-0.5-0.6-0.7-1.1-0.7
		C354.4,298.6,353.9,298.9,353.7,299.3 M338.8,291.8c1.9,0,3.8-1.4,3.8-3.3v-0.1c0-0.6-0.3-1-1-1c-0.5,0-0.8,0.3-0.9,0.8
		c-0.2,1-0.9,1.7-1.9,1.7h-0.2c-1.1,0-1.9-0.8-1.9-1.9v-6.3c0-1.1,0.9-1.9,1.9-1.9h0.2c1,0,1.8,0.7,1.9,1.7c0.1,0.5,0.4,0.8,0.9,0.8
		c0.6,0,1-0.4,1-1v-0.1c0-1.9-1.9-3.3-3.8-3.3h-0.2c-2.1,0-3.8,1.6-3.8,3.8v6.3c0,2.1,1.7,3.8,3.8,3.8H338.8z M334.1,312.4h0.2
		c2.2,0,3.9-1.5,3.9-3.7c0-4.1-5.9-4.5-5.9-6.4v-0.4c0-1,1-1.5,1.9-1.5h0.2c1,0,1.6,0.2,1.8,1.3c0.1,0.5,0.4,0.9,1,0.9
		c0.5,0,0.9-0.4,0.9-0.9v-0.1c-0.1-2-1.9-3-3.7-3h-0.2c-1.8,0-3.7,1.4-3.7,3.5v0.4c0,3.6,5.9,3.6,5.9,6.3c0,1.1-0.9,1.8-2,1.8h-0.2
		c-1.1,0-1.9-0.7-1.9-2c0-0.6-0.5-0.9-0.9-0.9c-0.5,0-0.9,0.3-0.9,0.9C330.2,311,332,312.4,334.1,312.4 M326.3,289.8v-4.2h3.4
		c0.6,0,0.9-0.5,0.9-0.9c0-0.5-0.3-0.9-0.9-0.9h-3.4V280h5c0.6,0,0.9-0.5,0.9-0.9c0-0.5-0.3-0.9-0.9-0.9h-6c-0.5,0-0.9,0.5-0.9,0.9
		v11.7c0,0.5,0.5,0.9,0.9,0.9h6c0.6,0,0.9-0.5,0.9-0.9c0-0.5-0.3-0.9-0.9-0.9h-5V289.8z M315.7,299.5v0.6c0,0.8-0.1,1-0.4,1.5
		c-0.1,0.2-0.2,0.4-0.2,0.6c0,0.5,0.5,0.8,0.9,0.8c0.8,0,1.5-1.3,1.5-3v-0.4c0-0.6-0.5-0.9-0.9-0.9
		C316.2,298.6,315.7,298.9,315.7,299.5 M317.2,337.2h1v-4.7h-3.5v1.3h2c0,0.6-0.1,1.2-0.6,1.7c-0.3,0.3-0.7,0.5-1.3,0.5
		c-0.5,0-1-0.2-1.4-0.5c-0.6-0.6-0.7-1.7-0.7-2.5s0.1-1.8,0.7-2.4c0.3-0.4,0.9-0.6,1.4-0.6c0.6,0,1.1,0.2,1.4,0.5
		c0.2,0.2,0.3,0.4,0.4,0.8h1.6c0-0.7-0.4-1.3-0.8-1.7c-0.6-0.6-1.5-1-2.5-1c-0.9,0-1.9,0.3-2.5,1c-0.9,0.9-1.1,2-1.1,3.4
		s0.2,2.5,1.1,3.5c0.7,0.7,1.5,1,2.5,0.9c1.1,0,1.9-0.6,2.1-1.1L317.2,337.2z M310.7,291.8c0.5,0,0.9-0.3,0.9-0.9V279
		c0-0.6-0.5-0.9-0.9-0.9c-0.5,0-0.9,0.3-0.9,0.9v11.9C309.8,291.5,310.2,291.8,310.7,291.8 M314.7,162.2c0,0.7-0.3,1.5-0.9,2.2
		l-6.6,7.9v2.4H318v-2.8h-6.7l4.7-5.6c1-1.1,1.9-2.6,1.9-4.1c0-3-2.3-4.8-5.2-4.8c-3.5,0-5.4,2.1-5.4,5.1h3.1c0-1.3,0.8-2.4,2.3-2.4
		C313.9,160.1,314.7,161,314.7,162.2 M317.2,132.5l-4.2,3v3.3l3.7-2.7v13.3h3v-16.9L317.2,132.5L317.2,132.5z M352.9,166.2
		c0-2.2-0.3-6,2.9-6c3.1,0,2.9,3.8,2.9,6s0.3,6-2.9,6C352.7,172.2,352.9,168.4,352.9,166.2 M351.8,158.9c-1.8,1.7-2,4.5-2,7.3
		s0.3,5.6,2,7.3c0.9,0.9,2.1,1.5,3.9,1.5s3.1-0.7,3.9-1.5c1.8-1.7,2-4.5,2-7.3s-0.3-5.6-2-7.3c-0.9-0.9-2.1-1.5-3.9-1.5
		C354,157.4,352.7,158.1,351.8,158.9 M361.3,278c-0.5,0-0.9,0.3-0.9,0.9v9.1c0,1.1-0.9,1.9-1.9,1.9h-0.2c-1.1,0-2-0.9-2-1.9v-9.1
		c0-0.6-0.5-0.9-0.9-0.9c-0.5,0-0.9,0.3-0.9,0.9v9.1c0,2.1,1.7,3.8,3.8,3.8h0.2c2.1,0,3.8-1.7,3.8-3.8v-9.1
		C362.2,278.3,361.7,278,361.3,278 M362.2,302.4v6.3c0,2.1,1.7,3.8,3.8,3.8h0.2c1.9,0,3.8-1.4,3.8-3.3v-0.1c0-0.6-0.3-1-1-1
		c-0.5,0-0.8,0.3-0.9,0.8c-0.2,1-0.9,1.7-1.9,1.7H366c-1.1,0-1.9-0.8-1.9-1.9v-6.3c0-1.1,0.9-1.9,1.9-1.9h0.2c1,0,1.8,0.7,1.9,1.7
		c0.1,0.5,0.4,0.8,0.9,0.8c0.6,0,1-0.4,1-1v-0.1c0-1.9-1.9-3.3-3.8-3.3H366C363.9,298.6,362.2,300.2,362.2,302.4 M367.9,280h2.3
		c1.1,0,1.9,0.9,1.9,2v0.2c0,1.1-0.8,1.9-1.9,1.9h-2.3V280z M366,279v11.8c0,0.6,0.5,0.9,1,0.9s0.9-0.3,0.9-0.9v-4.9h1.6l2.5,5.4
		c0.2,0.4,0.5,0.5,0.8,0.5c0.6,0,1-0.4,1-0.9c0-0.1,0-0.3-0.1-0.4l-2.2-4.7c1.5-0.5,2.5-1.9,2.5-3.6V282c0-2.1-1.7-3.8-3.8-3.8H367
		C366.5,278.1,366,278.5,366,279 M379.9,298.7h-6c-0.5,0-0.9,0.5-0.9,0.9v11.7c0,0.5,0.5,0.9,0.9,0.9h6c0.6,0,0.9-0.5,0.9-0.9
		c0-0.5-0.3-0.9-0.9-0.9h-5v-4.2h3.4c0.6,0,0.9-0.5,0.9-0.9c0-0.5-0.3-0.9-0.9-0.9h-3.4v-3.8h5c0.6,0,0.9-0.5,0.9-0.9
		C380.9,299.2,380.5,298.7,379.9,298.7 M379,289.8v-4.2h3.4c0.6,0,0.9-0.5,0.9-0.9c0-0.5-0.3-0.9-0.9-0.9H379V280h5
		c0.6,0,0.9-0.5,0.9-0.9c0-0.5-0.3-0.9-0.9-0.9h-6c-0.5,0-0.9,0.5-0.9,0.9v11.7c0,0.5,0.5,0.9,0.9,0.9h6c0.6,0,0.9-0.5,0.9-0.9
		c0-0.5-0.3-0.9-0.9-0.9h-5V289.8z M192.3,288.1c0,1.1-0.9,1.8-2,1.8h-0.2c-1.1,0-1.9-0.7-1.9-2c0-0.6-0.5-0.9-0.9-0.9
		c-0.5,0-0.9,0.3-0.9,0.9c0,2.4,1.8,3.8,3.8,3.8h0.2c2.2,0,3.9-1.5,3.9-3.7c0-4.1-5.9-4.5-5.9-6.4v-0.4c0-1,1-1.5,1.9-1.5h0.2
		c1,0,1.6,0.2,1.8,1.3c0.1,0.5,0.4,0.9,1,0.9c0.5,0,0.9-0.4,0.9-0.9v-0.1c-0.1-2-1.8-3-3.7-3h-0.2c-1.8,0-3.7,1.4-3.7,3.5v0.4
		C186.4,285.4,192.3,285.4,192.3,288.1 M178.2,289.8v-4.2h3.4c0.6,0,0.9-0.5,0.9-0.9c0-0.5-0.3-0.9-0.9-0.9h-3.4V280h5
		c0.6,0,0.9-0.5,0.9-0.9c0-0.5-0.3-0.9-0.9-0.9h-6c-0.5,0-0.9,0.5-0.9,0.9v11.7c0,0.5,0.5,0.9,0.9,0.9h6c0.6,0,0.9-0.5,0.9-0.9
		c0-0.5-0.3-0.9-0.9-0.9h-5V289.8z M139.5,200.9h22.2l-26.5,50.9c-1.5,2.8,0,6.8,3.6,6.8H167c2.3,0,3.6-1.8,3.6-3.6
		c0-1.8-1.2-3.6-3.6-3.6h-23.7l26.6-51.1c1.7-3.2-0.2-6.6-3.7-6.6h-26.8c-2.4,0-3.6,1.8-3.6,3.6S137,200.9,139.5,200.9 M173.1,278.1
		h-6c-0.5,0-0.9,0.5-0.9,0.9v11.8c0,0.6,0.5,0.9,0.9,0.9c0.5,0,0.9-0.3,0.9-0.9v-5.2h3.4c0.6,0,0.9-0.5,0.9-0.9
		c0-0.5-0.3-0.9-0.9-0.9H168V280h5c0.6,0,0.9-0.5,0.9-0.9C174,278.6,173.7,278.1,173.1,278.1 M177.2,298.7h-6
		c-0.5,0-0.9,0.5-0.9,0.9v11.7c0,0.5,0.5,0.9,0.9,0.9h6c0.6,0,0.9-0.5,0.9-0.9c0-0.5-0.3-0.9-0.9-0.9h-5v-4.2h3.4
		c0.6,0,0.9-0.5,0.9-0.9c0-0.5-0.3-0.9-0.9-0.9h-3.4v-3.8h5c0.6,0,0.9-0.5,0.9-0.9C178.2,299.2,177.9,298.7,177.2,298.7
		 M186.3,298.7h-5.6c-0.6,0-0.9,0.5-0.9,0.9c0,0.5,0.3,0.9,0.9,0.9h1.9v10.9c0,0.6,0.5,0.9,0.9,0.9c0.5,0,0.9-0.3,0.9-0.9v-10.9h1.9
		c0.6,0,0.9-0.5,0.9-0.9C187.2,299.2,186.9,298.7,186.3,298.7 M188.4,196.8v58.8c0,2.3,1.8,3.6,3.6,3.6c1.8,0,3.6-1.2,3.6-3.6v-58.8
		c0-2.3-1.8-3.6-3.6-3.6S188.4,194.4,188.4,196.8 M196.2,300.6h2.1c1.1,0,1.9,0.9,1.9,2v5.9c0,1.1-0.9,2-1.9,2h-2.1V300.6z
		 M194.3,299.7v11.7c0,0.5,0.5,0.9,0.9,0.9h3.1c2.1,0,3.8-1.5,3.8-3.8v-5.9c0-2.3-1.7-3.8-3.8-3.8h-3.1
		C194.7,298.7,194.3,299.2,194.3,299.7 M191.7,166.1c0-1.6,0-3.7,1.2-5c0.7-0.7,1.7-1.1,2.7-1.1s2,0.4,2.7,1.1
		c1.2,1.2,1.2,3.4,1.2,5s0,3.7-1.2,4.9c-0.7,0.7-1.7,1.1-2.7,1.1s-2-0.4-2.7-1.1C191.8,169.8,191.7,167.7,191.7,166.1 M190.7,159.1
		c-1.9,1.9-2.2,4.2-2.2,7s0.3,5.1,2.2,7c1.3,1.3,3.1,2,5,2s3.7-0.6,5-2c1.9-1.9,2.2-4.2,2.2-7s-0.3-5.1-2.2-7c-1.3-1.3-3.1-2-5-2
		S192,157.8,190.7,159.1 M202.7,278.1h-5.6c-0.6,0-0.9,0.5-0.9,0.9c0,0.5,0.3,0.9,0.9,0.9h1.9v10.9c0,0.6,0.5,0.9,0.9,0.9
		c0.5,0,0.9-0.3,0.9-0.9v-10.9h1.9c0.6,0,0.9-0.5,0.9-0.9C203.6,278.6,203.3,278.1,202.7,278.1 M6.6,214L17,203.6v-9.3L1.9,209.4
		L6.6,214z M23.6,213.6l4.6-4.6v-16.7l-4.6-4.6l0,0V213.6z M23.6,231l32.1-32.1v-9.3L19,226.3L23.6,231z M62.2,208.9l4.6-4.6v-16.7
		l-4.6-4.6l0,0V208.9z M479.9,208.8L275.2,4.1L77,202.3l0,0l-19.4,19.4l4.6,4.6l21.6-21.6l0,0L275.2,13.4l200.1,200.1L479.9,208.8z"
		/>
</g>
</svg>
