<?xml version="1.0" encoding="utf-8"?>
<!-- Generator: Adobe Illustrator 15.1.0, SVG Export Plug-In . SVG Version: 6.00 Build 0)  -->
<!DOCTYPE svg PUBLIC "-//W3C//DTD SVG 1.1//EN" "http://www.w3.org/Graphics/SVG/1.1/DTD/svg11.dtd">
<svg version="1.1" xmlns="http://www.w3.org/2000/svg" xmlns:xlink="http://www.w3.org/1999/xlink" x="0px" y="0px"
	 width="952.123px" height="952.123px" viewBox="0.14 841.445 952.123 952.123"
	 enable-background="new 0.14 841.445 952.123 952.123" xml:space="preserve">
<g id="Calque_2">
	
		<rect x="139.574" y="980.881" transform="matrix(0.7071 0.7071 -0.7071 0.7071 1071.0966 49.1655)" opacity="0.8" fill="#E6007E" width="673.253" height="673.251"/>
</g>
<g id="Calque_1_-_copie">
	<g>
		<path fill="#FFFFFF" d="M237.135,1339.525l-5.683,5.684l244.832,244.832l252.242-252.244l-5.682-5.682l-246.561,246.438
			L237.135,1339.525z M636.87,1319.391v13.588c0,7.289-5.93,13.219-13.219,13.219h-1.111c-7.287,0-13.217-5.93-13.217-13.219
			v-37.551c0-7.166,5.93-13.095,13.217-13.095h1.111c7.535,0,11.982,4.94,13.219,11.364c0.494,2.594,2.471,3.707,4.447,3.707
			c2.223,0,4.445-1.482,4.445-4.324v-0.742c-1.482-10.869-10.746-18.898-21.986-18.898h-1.113c-12.105,0-21.986,9.758-21.986,21.988
			v37.428c0,12.105,9.881,21.988,21.986,21.988h1.113c12.105,0,21.986-9.883,21.986-21.988v-17.912c0-2.346-2.1-4.445-4.445-4.445
			h-16.553c-2.842,0-4.447,2.223-4.447,4.445c0,2.225,1.482,4.447,4.447,4.447H636.87z M564.73,1247.375h-8.4l5.807-6.918
			c1.111-1.359,2.346-3.212,2.346-5.064c0-3.706-2.84-5.93-6.422-5.93c-4.324,0-6.672,2.594-6.672,6.301h3.83
			c0-1.606,0.988-2.965,2.842-2.965c1.729,0,2.594,1.111,2.594,2.594c0,0.865-0.371,1.854-1.111,2.717l-8.154,9.76v2.965h13.342
			V1247.375z M549.288,1213.404c0,1.977-1.359,3.212-3.459,3.212s-3.459-1.235-3.459-3.212c0-1.729,1.236-3.088,3.459-3.088
			C548.177,1210.193,549.288,1211.676,549.288,1213.404 M548.917,1204.141c0,1.481-0.988,2.84-2.965,2.84
			c-1.975,0-2.963-1.234-2.963-2.84c0-1.482,0.988-2.719,2.963-2.719C547.929,1201.422,548.917,1202.658,548.917,1204.141
			 M550.031,1208.587c1.482-0.864,2.594-2.718,2.594-4.57c0-3.953-3.213-5.93-6.795-5.93s-6.793,1.977-6.793,5.93
			c0,1.729,1.111,3.706,2.594,4.57c-1.977,0.988-3.088,2.965-3.088,4.94c0,4.077,3.459,6.301,7.164,6.301s7.164-2.224,7.164-6.301
			C553.118,1211.552,552.13,1209.575,550.031,1208.587 M540.271,1232.922c3.83,0,3.582,4.693,3.582,7.412
			c0,2.717,0.371,7.411-3.582,7.411c-3.83,0-3.582-4.694-3.582-7.411C536.812,1237.492,536.441,1232.922,540.271,1232.922
			 M540.271,1229.34c-2.223,0-3.83,0.864-4.816,1.853c-2.225,2.101-2.471,5.56-2.471,9.018c0,3.459,0.369,6.917,2.471,9.018
			c1.111,1.112,2.594,1.853,4.816,1.853c2.225,0,3.83-0.864,4.818-1.853c2.223-2.101,2.471-5.559,2.471-9.018
			c0-3.458-0.371-6.917-2.471-9.018C544.101,1230.204,542.618,1229.34,540.271,1229.34 M566.212,1326.432h-23.1l11.488-37.058
			L566.212,1326.432z M582.517,1349.285l-22.605-72.511c-0.74-2.101-2.84-3.212-5.311-3.212c-2.348,0-4.57,1.111-5.189,3.212
			l-22.605,72.511c-0.123,0.494-0.246,0.988-0.246,1.359c0,2.346,1.852,4.322,4.57,4.322c1.729,0,3.336-0.988,4.076-3.088
			l5.188-16.676h28.66l5.064,16.676c0.74,2.225,2.471,3.088,4.199,3.088c2.717,0,4.57-1.977,4.57-4.322
			C582.765,1350.273,582.642,1349.779,582.517,1349.285 M506.3,1198.087v13.095c0,3.088-1.357,5.064-4.445,5.064
			c-3.09,0-4.447-2.101-4.447-5.064v-13.095h-3.83v13.095c0,5.064,2.842,8.523,8.4,8.523s8.4-3.459,8.4-8.523v-13.095H506.3z
			 M473.566,1239.222v-6.423h5.064c2.225,0,3.582,1.482,3.582,3.211c0,1.977-1.234,3.212-3.457,3.212H473.566L473.566,1239.222z
			 M473.566,1250.71v-8.029h4.695l3.582,8.029h4.199l-3.953-8.771c2.348-0.865,3.953-3.088,3.953-6.053
			c0-3.459-2.348-6.671-7.412-6.671h-9.018v21.37L473.566,1250.71L473.566,1250.71z M478.261,1211.922l3.088-9.018l3.088,9.018
			H478.261z M479.247,1198.087l-7.535,21.37h3.953l1.359-4.076h8.523l1.359,4.076h4.076l-7.535-21.37H479.247z M505.312,1229.34
			h-15.193v21.37h15.193v-3.583h-11.363v-5.805h10.006v-3.459h-10.006v-4.941h11.363V1229.34z M507.288,1274.304h-33.105
			c-2.965,0-4.445,2.224-4.445,4.446c0,2.225,1.357,4.447,4.445,4.447h27.424l-32.734,62.877c-1.854,3.457,0,8.398,4.447,8.398
			h34.834c2.842,0,4.447-2.223,4.447-4.447c0-2.223-1.482-4.445-4.447-4.445h-29.152l32.857-63.123
			C513.96,1278.504,511.613,1274.304,507.288,1274.304 M461.46,1244.41c0,2.223-1.977,2.841-3.705,2.841h-4.818v-5.929h4.941
			C459.855,1241.322,461.46,1242.187,461.46,1244.41 M461.089,1235.393c0,1.977-1.482,2.594-3.211,2.594h-4.941v-5.312h4.818
			C459.484,1232.675,461.089,1233.416,461.089,1235.393 M462.325,1239.716c1.852-0.864,2.594-2.718,2.594-4.57
			s-0.865-3.583-2.471-4.694c-1.482-0.988-3.211-1.235-4.941-1.235h-8.523v21.37h8.523c2.1,0,4.076-0.123,5.682-1.482
			c1.482-1.234,2.225-2.841,2.225-4.816C465.413,1242.557,464.425,1240.704,462.325,1239.716 M459.238,1208.587
			c1.852-0.618,2.965-2.595,2.965-4.446c0-3.583-2.842-5.93-6.672-5.93c-3.828,0-6.918,2.223-7.041,6.176h3.83
			c0-1.853,1.359-2.841,3.211-2.841c1.605,0,2.842,1.235,2.842,2.718c0,1.977-1.111,2.841-3.213,2.841h-1.605v3.335h1.605
			c1.977,0,3.707,0.988,3.707,3.212c0,1.977-1.482,3.089-3.336,3.089s-3.211-1.112-3.334-3.089h-3.707
			c0.123,3.953,3.213,6.423,7.164,6.423c3.953,0,7.166-2.223,7.166-6.423C462.572,1211.305,461.337,1209.205,459.238,1208.587
			 M433.79,1198.087v13.095c0,3.088-1.359,5.064-4.447,5.064s-4.447-2.101-4.447-5.064v-13.095h-3.828v13.095
			c0,5.064,2.84,8.523,8.398,8.523s8.4-3.459,8.4-8.523v-13.095H433.79z M398.831,1451.443v-4.201h4.818v-1.729h-4.818v-2.842h5.312
			v-1.729h-7.289v10.5H398.831L398.831,1451.443z M431.814,1451.443v-8.771h3.088v-1.729h-8.152v1.729h3.088v8.771H431.814z
			 M424.896,1414.508l1.977-6.424l1.977,6.424H424.896z M424.156,1416.73h5.436l0.988,3.213c0.246,0.617,0.617,0.863,1.111,0.863
			c0.74,0,1.234-0.492,1.234-1.111c0-0.123,0-0.246,0-0.369l-4.57-14.701c-0.246-0.617-0.74-0.863-1.359-0.863
			c-0.617,0-1.111,0.369-1.357,0.863l-4.57,14.701c0,0.123,0,0.246,0,0.369c0,0.619,0.494,1.111,1.234,1.111
			c0.494,0,0.988-0.246,1.111-0.863L424.156,1416.73z M432.925,1394.125c0-0.617-0.369-1.111-1.111-1.111h-5.436v-13.465
			c0-0.74-0.617-1.111-1.111-1.111c-0.617,0-1.111,0.371-1.111,1.111v14.576c0,0.619,0.494,1.113,1.111,1.113h6.547
			C432.431,1395.238,432.925,1394.619,432.925,1394.125 M418.72,1443.908c0-0.371,0.123-0.619,0.371-0.865
			c0.369-0.494,1.111-0.617,1.729-0.617s1.236,0.246,1.605,0.617c0.248,0.246,0.494,0.617,0.494,0.988h1.977
			c0-0.865-0.494-1.605-1.111-2.225c-0.74-0.617-1.854-0.988-2.965-0.988c-1.234,0-2.348,0.371-3.088,1.113
			c-0.494,0.494-0.865,1.234-0.865,2.1c0,1.729,1.236,2.717,2.719,2.965c0.74,0.123,1.605,0.123,2.346,0.246
			c0.619,0.123,1.236,0.494,1.236,1.236c0,0.494-0.123,0.74-0.371,0.988c-0.371,0.369-1.111,0.617-1.854,0.617
			c-0.617,0-1.357-0.123-1.729-0.617c-0.371-0.371-0.494-0.742-0.494-1.236h-1.977c0,0.988,0.494,1.854,1.111,2.471
			c0.865,0.742,1.977,1.111,3.088,1.111c1.236,0,2.471-0.369,3.336-1.111c0.494-0.494,0.865-1.234,0.865-2.223
			c0-1.854-1.359-2.842-2.842-3.09c-0.74-0.123-1.605-0.123-2.223-0.246C419.214,1444.895,418.72,1444.648,418.72,1443.908
			 M412.667,1389.061l1.977-6.424l1.977,6.424H412.667z M411.925,1391.285h5.436l0.988,3.211c0.248,0.617,0.617,0.865,1.111,0.865
			c0.742,0,1.236-0.494,1.236-1.111c0-0.125,0-0.248,0-0.371l-4.57-14.699c-0.248-0.619-0.742-0.865-1.359-0.865
			s-1.111,0.371-1.359,0.865l-4.57,14.699c0,0.123,0,0.246,0,0.371c0,0.617,0.494,1.111,1.236,1.111
			c0.494,0,0.988-0.248,1.111-0.865L411.925,1391.285z M406.861,1451.443h7.535v-1.73h-5.559v-2.842h4.941v-1.729h-4.941v-2.471
			h5.559v-1.729h-7.535V1451.443z M407.48,1420.807h0.246c2.717,0,4.818-1.852,4.818-4.57c0-5.064-7.289-5.559-7.289-7.904v-0.494
			c0-1.236,1.236-1.854,2.348-1.854h0.246c1.236,0,1.977,0.246,2.225,1.605c0.123,0.617,0.494,1.111,1.234,1.111
			c0.617,0,1.111-0.494,1.111-1.111v-0.123c-0.123-2.471-2.346-3.707-4.57-3.707h-0.246c-2.225,0-4.57,1.73-4.57,4.324v0.494
			c0,4.447,7.287,4.447,7.287,7.783c0,1.357-1.111,2.223-2.471,2.223h-0.246c-1.359,0-2.348-0.865-2.348-2.471
			c0-0.74-0.617-1.111-1.111-1.111c-0.617,0-1.111,0.371-1.111,1.111C402.784,1419.078,405.009,1420.807,407.48,1420.807
			 M403.65,1394.373l3.582-14.576c0-0.125,0-0.248,0-0.371c0-0.617-0.494-1.111-1.234-1.111c-0.494,0-0.988,0.246-1.113,0.865
			l-2.594,11.24l-2.594-11.24c-0.123-0.619-0.617-0.865-1.111-0.865c-0.742,0-1.236,0.494-1.236,1.111c0,0.123,0,0.248,0,0.371
			l3.582,14.576c0.125,0.74,0.742,0.988,1.359,0.988S403.527,1394.99,403.65,1394.373 M391.544,1420.684h7.412
			c0.74,0,1.111-0.617,1.111-1.111c0-0.617-0.371-1.111-1.111-1.111h-6.178v-5.189h4.201c0.74,0,1.111-0.617,1.111-1.111
			c0-0.617-0.371-1.111-1.111-1.111h-4.201v-4.693h6.178c0.74,0,1.111-0.619,1.111-1.113c0-0.617-0.371-1.111-1.111-1.111h-7.412
			c-0.617,0-1.111,0.617-1.111,1.111v14.453C390.433,1420.189,391.05,1420.684,391.544,1420.684 M392.409,1395.361
			c0.617,0,1.111-0.371,1.111-1.111v-14.701c0-0.74-0.617-1.111-1.111-1.111c-0.619,0-1.113,0.371-1.113,1.111v14.701
			C391.173,1394.99,391.79,1395.361,392.409,1395.361 M389.939,1240.086c0,3.459,0.369,6.301,2.594,8.647
			c1.605,1.606,3.705,2.347,6.053,2.347s4.57-0.864,6.053-2.471c1.234-1.234,1.854-2.965,2.1-4.693h-3.953
			c-0.123,0.988-0.371,1.729-0.988,2.347c-0.74,0.864-1.852,1.358-3.211,1.358c-1.236,0-2.471-0.494-3.336-1.358
			c-1.482-1.481-1.482-4.2-1.482-6.177s0-4.57,1.482-6.176c0.865-0.865,2.1-1.359,3.336-1.359c1.359,0,2.471,0.494,3.211,1.359
			c0.494,0.617,0.865,1.359,0.988,2.224h3.953c-0.123-1.729-0.865-3.335-2.1-4.694c-1.605-1.605-3.83-2.471-6.053-2.471
			c-2.348,0-4.447,0.741-6.053,2.471C390.308,1233.663,389.939,1236.627,389.939,1240.086 M404.267,1201.67h4.447
			c1.234,0,2.348,0.494,2.965,1.234c1.482,1.482,1.482,3.953,1.482,5.93s0,4.447-1.482,5.93c-0.742,0.74-1.73,1.234-2.965,1.234
			h-4.447V1201.67z M408.714,1198.087h-8.275v21.37h8.275c2.471,0,4.57-0.864,5.93-2.347c2.223-2.224,2.471-5.435,2.471-8.399
			s-0.248-6.053-2.471-8.4C413.284,1198.951,411.185,1198.087,408.714,1198.087 M425.021,1229.34h-16.553v3.582h6.299v17.788h3.83
			v-17.788h6.299L425.021,1229.34L425.021,1229.34z M440.831,1240.086c0,1.977,0,4.571-1.482,6.053
			c-0.865,0.865-2.1,1.359-3.336,1.359c-1.234,0-2.469-0.494-3.334-1.359c-1.482-1.481-1.482-4.199-1.482-6.053
			c0-1.977,0-4.57,1.482-6.176c0.865-0.865,2.1-1.359,3.334-1.359c1.236,0,2.471,0.494,3.336,1.359
			C440.708,1235.516,440.831,1238.109,440.831,1240.086 M442.068,1231.439c-1.607-1.605-3.83-2.471-6.178-2.471
			c-2.346,0-4.57,0.741-6.176,2.471c-2.348,2.348-2.719,5.188-2.719,8.646s0.371,6.301,2.719,8.647
			c1.605,1.606,3.83,2.471,6.176,2.471c2.348,0,4.57-0.741,6.178-2.471c2.346-2.347,2.717-5.188,2.717-8.647
			S444.413,1233.663,442.068,1231.439 M449.107,1292.463c-1.482-10.871-10.746-18.9-21.986-18.9h-1.113
			c-12.105,0-21.986,9.759-21.986,21.988v37.428c0,12.107,9.881,21.988,21.986,21.988h1.113c12.105,0,21.986-9.881,21.986-21.988
			v-17.91c0-2.348-2.1-4.447-4.445-4.447h-16.553c-2.842,0-4.447,2.223-4.447,4.447c0,2.223,1.482,4.447,4.447,4.447h12.105v13.588
			c0,7.287-5.93,13.217-13.219,13.217h-1.111c-7.287,0-13.217-5.93-13.217-13.217v-37.553c0-7.165,5.93-13.094,13.217-13.094h1.111
			c7.535,0,11.982,4.94,13.219,11.363c0.494,2.596,2.471,3.707,4.447,3.707c2.223,0,4.445-1.482,4.445-4.324V1292.463z
			 M438.609,1406.23h2.84c1.359,0,2.348,1.113,2.348,2.471v0.248c0,1.359-0.988,2.348-2.348,2.348h-2.84V1406.23z M437.495,1420.807
			c0.619,0,1.113-0.369,1.113-1.111v-6.053h1.977l3.088,6.67c0.246,0.494,0.617,0.619,0.988,0.619c0.74,0,1.234-0.494,1.234-1.111
			c0-0.125,0-0.371-0.123-0.494l-2.719-5.807c1.854-0.617,3.09-2.348,3.09-4.447v-0.246c0-2.596-2.102-4.695-4.695-4.695h-3.953
			c-0.617,0-1.111,0.617-1.111,1.111v14.576C436.261,1420.438,436.878,1420.807,437.495,1420.807 M439.349,1440.943h-1.977v10.5
			h1.977V1440.943z M464.796,1420.807h0.246c2.719,0,4.818-1.852,4.818-4.57c0-5.064-7.289-5.559-7.289-7.904v-0.494
			c0-1.236,1.236-1.854,2.348-1.854h0.246c1.236,0,1.977,0.246,2.225,1.605c0.123,0.617,0.494,1.111,1.234,1.111
			c0.619,0,1.113-0.494,1.113-1.111v-0.123c-0.125-2.471-2.225-3.707-4.572-3.707h-0.246c-2.223,0-4.57,1.73-4.57,4.324v0.494
			c0,4.447,7.287,4.447,7.287,7.783c0,1.357-1.111,2.223-2.471,2.223h-0.246c-1.359,0-2.348-0.865-2.348-2.471
			c0-0.74-0.617-1.111-1.111-1.111c-0.617,0-1.111,0.371-1.111,1.111C459.978,1419.078,462.202,1420.807,464.796,1420.807
			 M465.784,1440.943h-1.854v10.5h6.795v-1.854h-4.818v-8.646H465.784z M457.878,1379.426v0.74c0,0.988-0.123,1.236-0.494,1.854
			c-0.123,0.248-0.248,0.494-0.248,0.742c0,0.617,0.619,0.988,1.113,0.988c0.988,0,1.852-1.607,1.852-3.707v-0.494
			c0-0.74-0.617-1.111-1.111-1.111C458.495,1378.314,457.878,1378.686,457.878,1379.426 M458.249,1447.736h-2.965l1.482-4.447
			L458.249,1447.736z M459.484,1451.443h1.977l-3.705-10.5h-2.102l-3.705,10.5h1.977l0.74-1.977h4.201L459.484,1451.443z
			 M451.948,1419.695c0,0.742,0.617,1.111,1.111,1.111c0.619,0,1.111-0.369,1.111-1.111v-13.465h2.348
			c0.742,0,1.111-0.617,1.111-1.111c0-0.617-0.369-1.111-1.111-1.111h-6.918c-0.74,0-1.111,0.617-1.111,1.111
			c0,0.617,0.371,1.111,1.111,1.111h2.348V1419.695L451.948,1419.695z M449.355,1392.891h-2.594v-12.23h2.594
			c1.359,0,2.348,1.113,2.348,2.471v7.289C451.702,1391.779,450.589,1392.891,449.355,1392.891 M449.355,1395.238
			c2.594,0,4.693-1.854,4.693-4.695v-7.287c0-2.842-2.1-4.695-4.693-4.695h-3.83c-0.617,0-1.111,0.619-1.111,1.111v14.453
			c0,0.619,0.617,1.113,1.111,1.113H449.355L449.355,1395.238z M447.378,1451.443l3.459-10.5h-1.977l-2.594,8.029l-2.594-8.029
			h-1.854l3.459,10.5H447.378z M466.279,1389.061l1.977-6.424l1.977,6.424H466.279z M466.896,1379.18l-4.57,14.699
			c0,0.123,0,0.246,0,0.371c0,0.617,0.494,1.111,1.234,1.111c0.494,0,0.988-0.248,1.111-0.865l0.988-3.211h5.436l0.988,3.211
			c0.248,0.617,0.617,0.865,1.111,0.865c0.742,0,1.236-0.494,1.236-1.111c0-0.125,0-0.248,0-0.371l-4.57-14.699
			c-0.248-0.619-0.742-0.865-1.359-0.865C467.636,1378.314,467.142,1378.561,466.896,1379.18 M484.066,1406.23h2.594
			c1.359,0,2.348,1.113,2.348,2.471v7.289c0,1.359-1.111,2.471-2.348,2.471h-2.594V1406.23z M482.831,1420.684h3.828
			c2.594,0,4.695-1.852,4.695-4.693v-7.289c0-2.84-2.102-4.693-4.695-4.693h-3.828c-0.619,0-1.113,0.617-1.113,1.111v14.453
			C481.718,1420.189,482.212,1420.684,482.831,1420.684 M485.425,1440.943h-1.977v10.5h1.977V1440.943z M507.907,1449.713h-5.807
			l5.807-6.918v-1.852h-8.029v1.729h5.682l-5.807,6.918v1.854h8.277v-1.73H507.907z M496.913,1420.684h7.41
			c0.742,0,1.113-0.617,1.113-1.111c0-0.617-0.371-1.111-1.113-1.111h-6.176v-5.189h4.201c0.74,0,1.111-0.617,1.111-1.111
			c0-0.617-0.371-1.111-1.111-1.111h-4.201v-4.693h6.176c0.742,0,1.113-0.619,1.113-1.113c0-0.617-0.371-1.111-1.113-1.111h-7.41
			c-0.619,0-1.113,0.617-1.113,1.111v14.453C495.8,1420.189,496.294,1420.684,496.913,1420.684 M493.454,1390.666v-7.781
			c0-1.359,1.111-2.348,2.346-2.348h0.248c1.234,0,2.223,0.865,2.348,2.1c0.123,0.619,0.494,0.988,1.111,0.988
			c0.74,0,1.234-0.494,1.234-1.234v-0.123c0-2.348-2.346-4.076-4.693-4.076H495.8c-2.594,0-4.693,1.975-4.693,4.693v7.781
			c0,2.596,2.1,4.695,4.693,4.695h0.248c2.348,0,4.693-1.73,4.693-4.076v-0.125c0-0.74-0.369-1.234-1.234-1.234
			c-0.617,0-0.988,0.371-1.111,0.988c-0.248,1.234-1.113,2.1-2.348,2.1H495.8C494.443,1393.014,493.454,1392.025,493.454,1390.666
			 M495.8,1451.443h1.236v-5.807h-4.324v1.605h2.471c0,0.742-0.123,1.482-0.74,2.1c-0.371,0.371-0.865,0.619-1.605,0.619
			c-0.619,0-1.236-0.248-1.73-0.619c-0.74-0.74-0.865-2.1-0.865-3.088s0.125-2.223,0.865-2.965c0.371-0.494,1.111-0.74,1.73-0.74
			c0.74,0,1.357,0.246,1.729,0.617c0.248,0.248,0.371,0.494,0.494,0.988h1.977c0-0.865-0.494-1.605-0.988-2.1
			c-0.742-0.742-1.854-1.236-3.088-1.236c-1.111,0-2.348,0.371-3.088,1.236c-1.113,1.111-1.359,2.471-1.359,4.199
			c0,1.73,0.246,3.088,1.359,4.324c0.863,0.865,1.852,1.234,3.088,1.111c1.359,0,2.346-0.74,2.594-1.359L495.8,1451.443z
			 M479.99,1385.85v-5.064h2.842c1.357,0,2.346,1.111,2.346,2.471v0.246c0,1.359-0.988,2.348-2.346,2.348H479.99z M479.99,1388.072
			h1.977l3.088,6.672c0.248,0.494,0.617,0.617,0.988,0.617c0.742,0,1.234-0.494,1.234-1.111c0-0.125,0-0.371-0.123-0.494
			l-2.717-5.807c1.854-0.617,3.088-2.348,3.088-4.447v-0.246c0-2.596-2.1-4.695-4.693-4.695h-3.953
			c-0.617,0-1.111,0.619-1.111,1.111v14.578c0,0.74,0.617,1.111,1.234,1.111s1.111-0.371,1.111-1.111v-6.178H479.99z
			 M472.454,1451.443h8.275v-1.73h-5.805l5.805-6.918v-1.852H472.7v1.729h5.684l-5.807,6.918v1.854H472.454z M512.972,1378.314
			c-0.619,0-1.113,0.371-1.113,1.111v5.93h-5.064v-5.93c0-0.74-0.617-1.111-1.111-1.111c-0.617,0-1.111,0.371-1.111,1.111v14.699
			c0,0.742,0.617,1.113,1.111,1.113c0.617,0,1.111-0.371,1.111-1.113v-6.424h5.064v6.424c0,0.742,0.619,1.113,1.113,1.113
			c0.617,0,1.111-0.371,1.111-1.113v-14.699C514.083,1378.686,513.466,1378.314,512.972,1378.314 M514.206,1443.289l1.482,4.447
			h-2.965L514.206,1443.289z M515.318,1440.943h-2.1l-3.705,10.5h1.977l0.74-1.977h4.201l0.74,1.977h1.977L515.318,1440.943z
			 M514.577,1404.873v14.576c0,0.617,0.494,1.111,1.111,1.111h6.547c0.742,0,1.111-0.617,1.111-1.111
			c0-0.617-0.369-1.111-1.111-1.111H516.8v-13.465c0-0.742-0.617-1.111-1.111-1.111S514.577,1404.131,514.577,1404.873
			 M530.388,1394.25v-13.465h2.348c0.742,0,1.111-0.619,1.111-1.113c0-0.617-0.369-1.111-1.111-1.111h-6.918
			c-0.74,0-1.111,0.619-1.111,1.111c0,0.619,0.371,1.113,1.111,1.113h2.348v13.465c0,0.74,0.617,1.111,1.111,1.111
			C529.894,1395.361,530.388,1394.99,530.388,1394.25 M533.107,1420.684h7.412c0.74,0,1.111-0.617,1.111-1.111
			c0-0.617-0.371-1.111-1.111-1.111h-6.178v-5.189h4.201c0.74,0,1.111-0.617,1.111-1.111c0-0.617-0.371-1.111-1.111-1.111h-4.201
			v-4.693h6.178c0.74,0,1.111-0.619,1.111-1.113c0-0.617-0.371-1.111-1.111-1.111h-7.412c-0.617,0-1.111,0.617-1.111,1.111v14.453
			C531.87,1420.189,532.49,1420.684,533.107,1420.684 M534.835,1449.219h-2.223v2.348h2.223V1449.219z M540.148,1451.443v-4.201
			h4.816v-1.729h-4.816v-2.842h5.311v-1.729h-7.287v10.5H540.148L540.148,1451.443z M550.031,1445.76v-3.088h2.469
			c1.113,0,1.73,0.742,1.73,1.605c0,0.988-0.617,1.605-1.73,1.605L550.031,1445.76L550.031,1445.76z M550.031,1451.443v-3.953h2.346
			l1.73,3.953h2.1l-1.977-4.324c1.111-0.371,1.977-1.482,1.977-2.965c0-1.729-1.111-3.211-3.707-3.211h-4.445v10.5H550.031z
			 M560.282,1411.049v-4.818h2.717c1.359,0,2.225,1.113,2.225,2.348c0,1.359-0.865,2.471-2.225,2.471H560.282z M560.282,1419.695
			v-6.299h2.717c2.596,0,4.572-2.1,4.572-4.695c0-2.594-1.977-4.693-4.572-4.693h-3.951c-0.619,0-1.113,0.617-1.113,1.111v14.576
			c0,0.742,0.619,1.111,1.113,1.111C559.665,1420.807,560.282,1420.438,560.282,1419.695 M567.447,1380.785h2.348
			c0.74,0,1.111-0.619,1.111-1.113c0-0.617-0.371-1.111-1.111-1.111h-6.918c-0.74,0-1.111,0.619-1.111,1.111
			c0,0.619,0.371,1.113,1.111,1.113h2.348v13.465c0,0.74,0.617,1.111,1.111,1.111c0.617,0,1.111-0.371,1.111-1.111V1380.785
			L567.447,1380.785z M572.636,1414.508l1.977-6.424l1.977,6.424H572.636z M573.253,1404.625l-4.57,14.701c0,0.123,0,0.246,0,0.369
			c0,0.617,0.494,1.111,1.234,1.111c0.494,0,0.988-0.246,1.111-0.863l0.988-3.213h5.436l0.988,3.213
			c0.248,0.617,0.617,0.863,1.111,0.863c0.742,0,1.236-0.494,1.236-1.111c0-0.123,0-0.246,0-0.369l-4.57-14.701
			c-0.248-0.617-0.742-0.865-1.359-0.865C574.118,1403.762,573.499,1404.131,573.253,1404.625 M554.847,1395.361
			c2.348,0,4.695-1.73,4.695-4.076v-0.125c0-0.74-0.371-1.234-1.236-1.234c-0.617,0-0.988,0.371-1.111,0.988
			c-0.248,1.234-1.111,2.1-2.348,2.1h-0.246c-1.359,0-2.348-0.988-2.348-2.348v-7.781c0-1.359,1.111-2.348,2.348-2.348h0.246
			c1.236,0,2.225,0.865,2.348,2.1c0.123,0.619,0.494,0.988,1.111,0.988c0.742,0,1.236-0.494,1.236-1.234v-0.123
			c0-2.348-2.348-4.076-4.695-4.076h-0.246c-2.596,0-4.695,1.975-4.695,4.693v7.781c0,2.596,2.102,4.695,4.695,4.695H554.847z
			 M549.042,1420.807h0.246c2.719,0,4.818-1.852,4.818-4.57c0-5.064-7.289-5.559-7.289-7.904v-0.494
			c0-1.236,1.236-1.854,2.348-1.854h0.246c1.236,0,1.977,0.246,2.225,1.605c0.123,0.617,0.494,1.111,1.234,1.111
			c0.617,0,1.111-0.494,1.111-1.111v-0.123c-0.123-2.471-2.346-3.707-4.57-3.707h-0.246c-2.225,0-4.57,1.73-4.57,4.324v0.494
			c0,4.447,7.287,4.447,7.287,7.783c0,1.357-1.111,2.223-2.471,2.223h-0.246c-1.359,0-2.348-0.865-2.348-2.471
			c0-0.74-0.617-1.111-1.111-1.111c-0.617,0-1.111,0.371-1.111,1.111C544.224,1419.078,546.447,1420.807,549.042,1420.807
			 M539.406,1392.891v-5.189h4.201c0.74,0,1.111-0.617,1.111-1.111c0-0.617-0.371-1.111-1.111-1.111h-4.201v-4.693h6.178
			c0.74,0,1.111-0.619,1.111-1.113c0-0.617-0.371-1.111-1.111-1.111h-7.412c-0.617,0-1.111,0.619-1.111,1.111v14.453
			c0,0.619,0.617,1.113,1.111,1.113h7.412c0.74,0,1.111-0.619,1.111-1.113c0-0.617-0.371-1.111-1.111-1.111h-6.178V1392.891z
			 M526.312,1404.873v0.74c0,0.988-0.123,1.236-0.494,1.854c-0.123,0.246-0.246,0.494-0.246,0.74c0,0.619,0.617,0.988,1.111,0.988
			c0.988,0,1.854-1.605,1.854-3.705v-0.494c0-0.742-0.619-1.111-1.111-1.111C526.931,1403.762,526.312,1404.131,526.312,1404.873
			 M528.165,1451.443h1.234v-5.807h-4.322v1.605h2.471c0,0.742-0.123,1.482-0.742,2.1c-0.369,0.371-0.863,0.619-1.605,0.619
			c-0.617,0-1.234-0.248-1.729-0.619c-0.742-0.74-0.865-2.1-0.865-3.088s0.123-2.223,0.865-2.965c0.369-0.494,1.111-0.74,1.729-0.74
			c0.742,0,1.359,0.246,1.73,0.617c0.246,0.248,0.369,0.494,0.494,0.988h1.975c0-0.865-0.494-1.605-0.988-2.1
			c-0.74-0.742-1.852-1.236-3.088-1.236c-1.111,0-2.346,0.371-3.088,1.236c-1.111,1.111-1.359,2.471-1.359,4.199
			c0,1.73,0.248,3.088,1.359,4.324c0.865,0.865,1.854,1.234,3.088,1.111c1.359,0,2.348-0.74,2.596-1.359L528.165,1451.443z
			 M520.136,1395.361c0.617,0,1.111-0.371,1.111-1.111v-14.701c0-0.74-0.617-1.111-1.111-1.111c-0.617,0-1.111,0.371-1.111,1.111
			v14.701C519.025,1394.99,519.519,1395.361,520.136,1395.361 M525.077,1235.27c0,0.864-0.371,1.852-1.111,2.717l-8.154,9.759v2.965
			h13.342v-3.459h-8.277l5.807-6.917c1.234-1.359,2.348-3.213,2.348-5.064c0-3.707-2.842-5.93-6.424-5.93
			c-4.324,0-6.67,2.594-6.67,6.3h3.828c0-1.606,0.988-2.965,2.842-2.965C524.089,1232.675,525.077,1233.787,525.077,1235.27
			 M528.165,1198.581l-5.188,3.706v4.076l4.57-3.335v16.429h3.705v-20.876H528.165L528.165,1198.581z M572.265,1240.21
			c0-2.718-0.371-7.411,3.582-7.411c3.83,0,3.582,4.693,3.582,7.411s0.371,7.411-3.582,7.411
			C572.017,1247.621,572.265,1242.928,572.265,1240.21 M570.906,1231.192c-2.223,2.101-2.471,5.56-2.471,9.018
			c0,3.459,0.371,6.917,2.471,9.018c1.111,1.112,2.594,1.853,4.818,1.853c2.223,0,3.828-0.864,4.816-1.853
			c2.225-2.101,2.471-5.559,2.471-9.018c0-3.458-0.369-6.917-2.471-9.018c-1.111-1.112-2.594-1.853-4.816-1.853
			C573.624,1229.34,572.017,1230.204,570.906,1231.192 M582.642,1378.314c-0.619,0-1.113,0.371-1.113,1.111v11.24
			c0,1.359-1.111,2.348-2.346,2.348h-0.248c-1.359,0-2.471-1.111-2.471-2.348v-11.24c0-0.74-0.617-1.111-1.111-1.111
			c-0.617,0-1.111,0.371-1.111,1.111v11.24c0,2.596,2.1,4.695,4.693,4.695h0.248c2.594,0,4.693-2.1,4.693-4.695v-11.24
			C583.753,1378.686,583.136,1378.314,582.642,1378.314 M583.753,1408.455v7.781c0,2.596,2.1,4.695,4.693,4.695h0.248
			c2.346,0,4.693-1.73,4.693-4.076v-0.125c0-0.74-0.371-1.234-1.234-1.234c-0.619,0-0.988,0.371-1.113,0.988
			c-0.246,1.234-1.111,2.1-2.346,2.1h-0.248c-1.359,0-2.348-0.988-2.348-2.348v-7.781c0-1.359,1.113-2.348,2.348-2.348h0.248
			c1.234,0,2.223,0.865,2.346,2.1c0.125,0.619,0.494,0.988,1.113,0.988c0.74,0,1.234-0.494,1.234-1.234v-0.123
			c0-2.348-2.348-4.076-4.693-4.076h-0.248C585.853,1403.762,583.753,1405.736,583.753,1408.455 M590.794,1380.785h2.84
			c1.359,0,2.348,1.111,2.348,2.471v0.246c0,1.359-0.988,2.348-2.348,2.348h-2.84V1380.785z M588.447,1379.549v14.576
			c0,0.742,0.617,1.113,1.236,1.113c0.617,0,1.111-0.371,1.111-1.113v-6.053h1.977l3.088,6.672c0.246,0.494,0.617,0.617,0.988,0.617
			c0.74,0,1.234-0.494,1.234-1.111c0-0.125,0-0.371-0.123-0.494l-2.717-5.807c1.852-0.617,3.088-2.348,3.088-4.447v-0.246
			c0-2.596-2.1-4.695-4.695-4.695h-3.951C589.064,1378.438,588.447,1378.932,588.447,1379.549 M605.616,1403.885h-7.41
			c-0.619,0-1.113,0.617-1.113,1.111v14.453c0,0.617,0.619,1.111,1.113,1.111h7.41c0.742,0,1.113-0.617,1.113-1.111
			c0-0.617-0.371-1.111-1.113-1.111h-6.176v-5.189h4.199c0.742,0,1.113-0.617,1.113-1.111c0-0.617-0.371-1.111-1.113-1.111h-4.199
			v-4.695h6.176c0.742,0,1.113-0.617,1.113-1.111C606.853,1404.502,606.359,1403.885,605.616,1403.885 M604.505,1392.891v-5.189
			h4.201c0.74,0,1.111-0.617,1.111-1.111c0-0.617-0.371-1.111-1.111-1.111h-4.201v-4.693h6.176c0.742,0,1.113-0.619,1.113-1.113
			c0-0.617-0.371-1.111-1.113-1.111h-7.41c-0.619,0-1.113,0.619-1.113,1.111v14.453c0,0.619,0.619,1.113,1.113,1.113h7.41
			c0.742,0,1.113-0.619,1.113-1.113c0-0.617-0.371-1.111-1.113-1.111h-6.176V1392.891z M373.88,1390.791
			c0,1.357-1.113,2.223-2.471,2.223h-0.248c-1.359,0-2.346-0.865-2.346-2.471c0-0.74-0.619-1.111-1.113-1.111
			c-0.617,0-1.111,0.371-1.111,1.111c0,2.965,2.225,4.695,4.693,4.695h0.248c2.717,0,4.818-1.854,4.818-4.572
			c0-5.064-7.289-5.559-7.289-7.904v-0.494c0-1.236,1.234-1.854,2.348-1.854h0.246c1.236,0,1.977,0.246,2.225,1.605
			c0.123,0.617,0.494,1.111,1.234,1.111c0.617,0,1.111-0.494,1.111-1.111v-0.123c-0.123-2.471-2.223-3.705-4.57-3.705h-0.246
			c-2.225,0-4.57,1.729-4.57,4.322v0.494C366.591,1387.455,373.88,1387.455,373.88,1390.791 M356.462,1392.891v-5.189h4.199
			c0.742,0,1.111-0.617,1.111-1.111c0-0.617-0.369-1.111-1.111-1.111h-4.199v-4.693h6.176c0.742,0,1.111-0.619,1.111-1.113
			c0-0.617-0.369-1.111-1.111-1.111h-7.412c-0.617,0-1.111,0.619-1.111,1.111v14.453c0,0.619,0.617,1.113,1.111,1.113h7.412
			c0.742,0,1.111-0.619,1.111-1.113c0-0.617-0.369-1.111-1.111-1.111h-6.176V1392.891z M308.657,1283.074h27.423l-32.734,62.875
			c-1.854,3.459,0,8.4,4.446,8.4h34.834c2.842,0,4.447-2.223,4.447-4.447c0-2.223-1.482-4.447-4.447-4.447h-29.275l32.857-63.122
			c2.102-3.953-0.246-8.153-4.57-8.153h-33.104c-2.965,0-4.447,2.225-4.447,4.447
			C304.086,1280.851,305.569,1283.074,308.657,1283.074 M350.161,1378.438h-7.41c-0.619,0-1.113,0.617-1.113,1.111v14.576
			c0,0.742,0.619,1.113,1.113,1.113c0.617,0,1.111-0.371,1.111-1.113v-6.424h4.199c0.742,0,1.111-0.617,1.111-1.111
			c0-0.617-0.369-1.111-1.111-1.111h-4.199v-4.693h6.176c0.742,0,1.111-0.619,1.111-1.113
			C351.275,1379.055,350.904,1378.438,350.161,1378.438 M355.226,1403.885h-7.41c-0.619,0-1.113,0.617-1.113,1.111v14.453
			c0,0.617,0.619,1.111,1.113,1.111h7.41c0.742,0,1.113-0.617,1.113-1.111c0-0.617-0.371-1.111-1.113-1.111h-6.176v-5.189h4.199
			c0.742,0,1.113-0.617,1.113-1.111c0-0.617-0.371-1.111-1.113-1.111h-4.199v-4.695h6.176c0.742,0,1.113-0.617,1.113-1.111
			C356.462,1404.502,356.091,1403.885,355.226,1403.885 M366.468,1403.885h-6.918c-0.74,0-1.111,0.617-1.111,1.111
			c0,0.617,0.371,1.111,1.111,1.111h2.348v13.465c0,0.74,0.617,1.111,1.111,1.111c0.617,0,1.111-0.371,1.111-1.111v-13.465h2.348
			c0.74,0,1.111-0.617,1.111-1.111S367.208,1403.885,366.468,1403.885 M369.062,1278.01v72.635c0,2.84,2.223,4.447,4.447,4.447
			c2.223,0,4.447-1.482,4.447-4.447v-72.635c0-2.842-2.225-4.447-4.447-4.447C371.284,1273.562,369.062,1275.045,369.062,1278.01
			 M378.697,1406.23h2.594c1.359,0,2.348,1.113,2.348,2.471v7.289c0,1.359-1.111,2.471-2.348,2.471h-2.594V1406.23z
			 M376.351,1405.119v14.453c0,0.617,0.617,1.111,1.111,1.111h3.828c2.596,0,4.695-1.852,4.695-4.693v-7.289
			c0-2.84-2.1-4.693-4.695-4.693h-3.828C376.845,1403.885,376.351,1404.502,376.351,1405.119 M373.138,1240.086
			c0-1.977,0-4.57,1.482-6.176c0.865-0.865,2.1-1.359,3.336-1.359c1.234,0,2.471,0.494,3.334,1.359
			c1.482,1.482,1.482,4.199,1.482,6.176s0,4.571-1.482,6.053c-0.863,0.865-2.1,1.359-3.334,1.359c-1.236,0-2.471-0.494-3.336-1.359
			C373.261,1244.657,373.138,1242.062,373.138,1240.086 M371.904,1231.439c-2.348,2.348-2.719,5.188-2.719,8.646
			s0.371,6.301,2.719,8.647c1.605,1.606,3.828,2.471,6.176,2.471s4.57-0.741,6.176-2.471c2.348-2.347,2.719-5.188,2.719-8.647
			s-0.371-6.299-2.719-8.646c-1.605-1.605-3.828-2.471-6.176-2.471S373.509,1229.834,371.904,1231.439 M386.726,1378.438h-6.918
			c-0.74,0-1.111,0.617-1.111,1.111c0,0.617,0.371,1.111,1.111,1.111h2.348v13.465c0,0.742,0.617,1.113,1.111,1.113
			c0.619,0,1.113-0.371,1.113-1.113v-13.465h2.346c0.742,0,1.111-0.617,1.111-1.111S387.468,1378.438,386.726,1378.438
			 M144.489,1299.256l12.847-12.847v-11.487l-18.652,18.652L144.489,1299.256z M165.489,1298.762l5.683-5.682v-20.629l-5.683-5.683
			l0,0V1298.762z M165.489,1320.256l39.652-39.652v-11.488l-45.335,45.334L165.489,1320.256z M213.17,1292.957l5.683-5.684v-20.629
			l-5.683-5.682l0,0V1292.957z M729.146,1292.832l-252.861-252.86l-244.832,244.832l0,0l-23.965,23.964l5.683,5.682l26.682-26.682
			l0,0l236.433-236.309l247.178,247.18L729.146,1292.832z"/>
	</g>
</g>
</svg>
