<svg xmlns="http://www.w3.org/2000/svg" viewBox="0 0 1190.55 841.89" enable-background="new 0 0 1190.55 841.89"><path fill="currentcolor" d="M518.59 366.11h-44.87v8.66h35.02c-.71 26.59-35.73 35.61-35.73 66.95v7.48h44.99v-8.67h-35.25c.59-26.47 35.85-35.37 35.85-66.95v-7.47zM538.41 366.11h9.61v83.09h-9.61zM807.37 389.61v-2.73c0-10.92-7.48-22.43-23.15-22.43-7.95 0-23.03 3.56-23.03 24.81v35.13c0 21.13 15.07 24.81 23.03 24.81h23.15v-47.12h-21.84v8.67h11.99v29.79h-13.29c-6.41 0-13.29-4.39-13.29-16.14v-35.13c0-11.87 6.89-16.26 13.29-16.26 7.36 0 13.29 5.46 13.29 13.89v2.73h9.85zM614.73 402.07h-21.84v8.67h11.99v29.79h-13.29c-6.41 0-13.29-4.39-13.29-16.14v-35.13c0-11.87 6.89-16.26 13.29-16.26 7.36 0 13.29 5.46 13.29 13.89v2.73h9.85v-2.73c0-10.92-7.48-22.43-23.15-22.43-7.95 0-23.03 3.56-23.03 24.81v35.13c0 21.13 15.08 24.81 23.03 24.81h23.15v-47.14zM678.83 366.11h-44.87v8.66h35.02c-.71 26.59-35.73 35.61-35.73 66.95v7.48h44.99v-8.67h-35.25c.59-26.47 35.85-35.37 35.85-66.95v-7.47zM732.83 449.2h9.73v-59.94c0-21.84-15.08-24.81-22.91-24.81s-22.91 2.97-22.91 24.81v59.94h9.73v-38.46h26.35v38.46zm-26.35-47.13v-12.82c0-12.46 6.77-16.26 13.18-16.26 6.29 0 13.18 3.8 13.18 16.26v12.82h-26.36zM296.43 406.76l12.9-12.9v-11.46l-18.63 18.63zM370.81 374.22l-5.65-5.64v31.96l5.65-5.66zM323.08 379.95l-5.65-5.65v31.96l5.65-5.65zM317.43 427.76l39.63-39.63v-11.45l-45.35 45.35zM638.66 148.75l255.27 255.26 5.92-5.92-261.19-261.18-279.22 279.39 5.72 5.73zM638.66 693.14l-246.88-246.88-5.92 5.92 252.8 252.8 260.51-260.51-5.92-5.92zM569.41 506.58c3.58 0 8.53-2.12 8.53-8.66v-3.14c0-6.54-4.95-8.66-8.53-8.66-1.41 0-3.27.44-4.64 1.41v-4.46c0-2.96 1.68-5.17 4.64-5.17 2.56 0 4.42 1.9 4.42 4.9v1.06h3.89v-1.06c0-4.15-2.52-8.39-8.31-8.39-3.58 0-8.53 2.12-8.53 8.66v14.84c0 6.55 4.95 8.67 8.53 8.67zm-4.64-11.8c0-2.96 1.68-5.17 4.64-5.17s4.64 2.21 4.64 5.17v3.14c0 2.96-1.68 5.17-4.64 5.17s-4.64-2.21-4.64-5.17v-3.14zM554.52 505.96v-30.93h-7.82v3.5h3.93v27.43zM656.18 475.03h-18.2v3.63h7.11v27.3h4.02v-27.3h7.07zM528.81 499.64l7.77-9.27-7.77-9.28-2.7 2.25 5.92 7.03-5.92 7.02zM634.49 498.1v-1.06h-4.02v1.06c0 2.96-1.9 4.86-4.46 4.86-2.25 0-4.42-1.55-4.42-5.7v-13.52c0-4.15 2.16-5.7 4.42-5.7 2.56 0 4.46 1.9 4.46 4.86v1.06h4.02v-1.06c0-4.15-2.56-8.48-8.48-8.48-2.96 0-8.44 1.33-8.44 9.32v13.52c0 8 5.48 9.32 8.44 9.32 5.92 0 8.48-4.33 8.48-8.48zM744.5 478.66v-3.63h-14.98v30.93h14.98v-3.62h-10.96v-10.47h9.28v-3.67h-9.28v-9.54zM767.01 484.84v9.24c0 4.07 3.14 5.39 5.36 5.39 2.23 0 5.36-1.32 5.36-5.39v-9.24c0-4.07-3.14-5.39-5.36-5.39-2.23 0-5.36 1.32-5.36 5.39zm8.3 0v9.24c0 1.7-1.1 3.22-2.94 3.22-1.84 0-2.94-1.51-2.94-3.22v-9.24c0-1.7 1.1-3.22 2.94-3.22 1.84 0 2.94 1.52 2.94 3.22zM723.65 483.91c0-7.33-4.77-8.88-9.5-8.88h-7.6v30.93h4.02v-13.16h2.92c3 0 5.61 1.19 5.7 4.82l.13 8.35h4.02l-.13-8.35c-.09-2.87-1.46-5.21-3.14-6.45 2.07-1.16 3.58-3.41 3.58-7.26zm-9.5 5.22h-3.58v-10.47h3.58c3.8 0 5.48 2.08 5.48 5.26 0 3.18-1.68 5.21-5.48 5.21zM612.13 483.74c0-8-6.01-9.32-8.97-9.32-2.96 0-8.97 1.33-8.97 9.32v13.52c0 8 6.01 9.32 8.97 9.32 2.96 0 8.97-1.33 8.97-9.32v-13.52zm-4.02 13.52c0 4.37-2.74 5.7-4.95 5.7-2.25 0-4.95-1.33-4.95-5.7v-13.52c0-4.37 2.69-5.7 4.95-5.7 2.21 0 4.95 1.33 4.95 5.7v13.52zM791.48 484.9v-.3c0-4.1-3.38-5.14-5.2-5.14-3.6 0-5.03 2.59-5.03 5.14v.74h2.42v-.74c0-1.87 1.02-2.97 2.61-2.97 1.48 0 2.78 1.15 2.78 2.97v.3c0 4.62-7.7 5.86-7.7 11.69v2.5h9.84v-2.17h-7.42v-.33c0-4.41 7.7-5.86 7.7-11.69zM763.9 484.9v-.3c0-4.1-3.38-5.14-5.2-5.14-3.6 0-5.03 2.59-5.03 5.14v.74h2.42v-.74c0-1.87 1.02-2.97 2.61-2.97 1.48 0 2.78 1.15 2.78 2.97v.3c0 4.62-7.7 5.86-7.7 11.69v2.5h9.84v-2.17h-7.42v-.33c0-4.41 7.7-5.86 7.7-11.69zM804.96 484.9v-.3c0-4.1-3.38-5.14-5.2-5.14-3.6 0-5.03 2.59-5.03 5.14v.74h2.42v-.74c0-1.87 1.02-2.97 2.61-2.97 1.48 0 2.78 1.15 2.78 2.97v.3c0 4.62-7.7 5.86-7.7 11.69v2.5h9.84v-2.17h-7.43v-.33c.01-4.41 7.71-5.86 7.71-11.69zM484.11 505.96v-30.93h-7.82v3.5h3.93v27.43zM499.25 477.97v-2.26h-9.32v19.25h9.32v-2.25h-6.82v-6.52h5.78v-2.28h-5.78v-5.94zM513.42 481.24c0-4.57-2.97-5.53-5.91-5.53h-4.73v19.25h2.5v-8.2h1.81c1.87 0 3.49.74 3.55 3l.08 5.2h2.5l-.08-5.2c-.06-1.79-.91-3.25-1.95-4.01 1.29-.72 2.23-2.12 2.23-4.51zm-5.92 3.24h-2.23v-6.52h2.23c2.37 0 3.41 1.29 3.41 3.27 0 1.99-1.04 3.25-3.41 3.25zM677.92 483.74c0-8-6.01-9.32-8.97-9.32-2.96 0-8.97 1.33-8.97 9.32v13.52c0 8 6.01 9.32 8.97 9.32 2.96 0 8.97-1.33 8.97-9.32v-13.52zm-4.02 13.52c0 4.37-2.74 5.7-4.95 5.7-2.25 0-4.95-1.33-4.95-5.7v-13.52c0-4.37 2.69-5.7 4.95-5.7 2.21 0 4.95 1.33 4.95 5.7v13.52zM697.62 489.84c1.81-1.1 3.05-3.4 3.05-6.45 0-6.89-5.17-8.35-9.5-8.35h-7.38v30.93h8c4.73 0 9.54-1.55 9.54-8.88.01-3.76-1.54-6.33-3.71-7.25zm-9.85-11.18h3.4c3.05 0 5.48 1.06 5.48 4.73 0 3.71-2.43 4.82-5.48 4.82h-3.4v-9.55zm4.02 23.68h-4.02v-10.47h4.02c3.8 0 5.52 2.03 5.52 5.21s-1.72 5.26-5.52 5.26zM698.07 553.31h1.08v-1.78h-1.08c-2.12 0-3.34 1.6-3.34 3.36v.7h-1.44v1.78h1.44v9.94h1.98v-9.94h2.23v-1.78h-2.23v-.7c.01-.52.24-1.58 1.36-1.58zM610.76 567.31v-11.72h-6.56v-4.06h-1.98v4.06h-1.44v1.78h1.44v6.58c0 2.03 1.22 3.36 3.34 3.36h1.08v-1.78h-1.08c-1.13 0-1.35-1.04-1.35-1.58v-6.58h4.58v9.94h1.97zM670.23 559.57v3.74c0 3.13 2.32 3.99 3.72 3.99h3.83v-11.72h-3.83c-1.4 0-3.72.86-3.72 3.99zm5.57 5.96h-1.85c-1.08 0-1.74-.92-1.74-2.21v-3.74c0-1.29.65-2.21 1.74-2.21h1.85v8.16zM647.05 551.71h2.16v2.16h-2.16zM668.29 557.03v-1.44h-6.85v1.78h4.87c-.29 3.63-5.1 3.56-5.1 8.5v1.44h6.85v-1.78h-4.89c.3-3.63 5.12-3.59 5.12-8.5zM608.68 551.71h2.16v2.16h-2.16zM644.82 557.03v-1.44h-6.85v1.78h4.87c-.29 3.63-5.1 3.56-5.1 8.5v1.44h6.85v-1.78h-4.89c.3-3.63 5.12-3.59 5.12-8.5zM655.67 569.56h-2.32v1.78h2.32c2.1 0 3.38-1.33 3.38-3.36v-12.4h-3.83c-1.4 0-3.72.86-3.72 3.99v3.74c0 3.13 2.32 3.99 3.72 3.99h1.85v.68c-.01.54-.28 1.58-1.4 1.58zm-.45-4.03c-1.08 0-1.74-.92-1.74-2.21v-3.74c0-1.29.65-2.21 1.74-2.21h1.85v8.16h-1.85zM623.02 559.57v3.74c0 3.13 2.32 3.99 3.72 3.99h3.83v-11.72h-3.83c-1.4 0-3.72.86-3.72 3.99zm1.99 0c0-1.29.65-2.21 1.74-2.21h1.85v8.16h-1.85c-1.08 0-1.74-.92-1.74-2.21v-3.74zM684.16 569.56h-2.32v1.78h2.32c2.1 0 3.38-1.33 3.38-3.36v-12.4h-3.83c-1.4 0-3.72.86-3.72 3.99v3.74c0 3.13 2.32 3.99 3.72 3.99h1.85v.68c0 .54-.27 1.58-1.4 1.58zm-.45-4.03c-1.08 0-1.74-.92-1.74-2.21v-3.74c0-1.29.65-2.21 1.74-2.21h1.85v8.16h-1.85zM689.87 565.14h2.16v2.16h-2.16zM647.23 555.58h1.98v11.72h-1.98zM591.93 563.61v.5c0 1.76 1.56 3.36 3.7 3.36s3.7-1.6 3.7-3.36c0-4.28-5.3-3.02-5.3-5.41 0-.52.45-1.49 1.6-1.49 1.15 0 1.6.97 1.6 1.49v.59h1.98v-.59c0-1.8-1.56-3.27-3.58-3.27-2.03 0-3.58 1.47-3.58 3.27 0 4.08 5.3 2.8 5.3 5.41 0 .52-.45 1.58-1.71 1.58s-1.71-1.06-1.71-1.58v-.5h-2zM702.45 558.94c0-.7.47-1.58 1.4-1.58h1.29v-1.78h-1.29c-1.98 0-3.38 1.13-3.38 3.36v8.36h1.98v-8.36zM633.3 551.52h1.98v15.78h-1.98zM620.74 563.95l.23-8.36h-1.98l-.23 8.36c-.02.54-.41 1.58-1.6 1.58h-1.92v-9.94h-1.98v11.72h3.9c2.1 0 3.54-1.6 3.58-3.36zM589.99 562.26v-2.82c0-3.16-2.55-4.01-3.92-4.01-1.38 0-3.83.86-3.83 4.01v4.01c0 3.16 2.46 4.01 3.83 4.01 2.07 0 3.81-1.6 3.81-3.36v-.5h-1.98v.5c0 .52-.65 1.58-1.83 1.58-1.08 0-1.85-.92-1.85-2.23v-1.19h5.77zm-5.77-2.82c0-1.31.77-2.23 1.85-2.23 1.1 0 1.94.92 1.94 2.23v1.04h-3.79v-1.04zM580.03 553.31h1.08v-1.78h-1.08c-2.12 0-3.34 1.6-3.34 3.36v.7h-1.44v1.78h1.44v9.94h1.98v-9.94h2.23v-1.78h-2.23v-.7c0-.52.23-1.58 1.36-1.58zM713.5 324.46c0 5.98 8.46 4.66 8.46 9.23 0 2.34-1.68 3.28-3.09 3.28-1.87 0-3.09-1.52-3.09-3.03v-.66h-2.51v.66c0 2.42 1.76 5.29 5.59 5.29 1.85 0 5.59-.83 5.59-5.54 0-6.48-8.46-5.43-8.46-9.23 0-2.09 1.46-3.03 2.87-3.03 1.63 0 2.92 1.18 2.92 3.03v.66h2.51v-.66c0-2.59-1.74-5.29-5.43-5.29-1.83-.01-5.36.85-5.36 5.29zM697.16 322.47l.58-4.88-2.29-.27-.58 4.88zM767.4 325.12v-.66c0-2.59-1.6-5.29-5.29-5.29-1.85 0-5.26.83-5.26 5.81v8.43c0 4.99 3.42 5.81 5.26 5.81 3.69 0 5.29-2.7 5.29-5.29v-.66h-2.51v.66c0 1.85-1.18 3.03-2.78 3.03-1.41 0-2.76-.96-2.76-3.55v-8.43c0-2.59 1.35-3.55 2.76-3.55 1.6 0 2.78 1.18 2.78 3.03v.66h2.51zM626.04 333.27v.66c0 2.42 1.76 5.29 5.59 5.29 1.85 0 5.59-.83 5.59-5.54 0-6.48-8.46-5.43-8.46-9.23 0-2.09 1.46-3.03 2.87-3.03 1.63 0 2.92 1.18 2.92 3.03v.66h2.51v-.66c0-2.59-1.74-5.29-5.43-5.29-1.85 0-5.37.85-5.37 5.29 0 5.98 8.46 4.66 8.46 9.23 0 2.34-1.68 3.28-3.09 3.28-1.87 0-3.09-1.52-3.09-3.03v-.66h-2.5zM612.26 321.81h4.44v17.03h2.51v-17.03h4.4v-2.26h-11.35zM780.13 321.81v-2.26h-9.34v19.29h9.34v-2.26h-6.84v-6.53h5.79v-2.29h-5.79v-5.95zM753.18 338.84v-13.86c0-5.13-3.53-5.81-5.37-5.81s-5.37.69-5.37 5.81v13.86h2.51v-8.79h5.73v8.79h2.5zm-8.24-11.08v-2.78c0-2.73 1.46-3.55 2.87-3.55 1.38 0 2.87.83 2.87 3.55v2.78h-5.74zM648.61 338.84h5.51c1.85 0 5.15-.72 5.15-5.81v-7.66c0-5.1-3.31-5.81-5.15-5.81h-5.51v19.28zm2.51-17.03h3c1.38 0 2.65.85 2.65 3.55v7.66c0 2.7-1.27 3.55-2.65 3.55h-3v-14.76zM683.93 319.55v19.29h9.1v-2.26h-6.59v-17.03zM672.42 321.81v-2.26h-9.35v19.29h9.35v-2.26h-6.84v-6.53h5.79v-2.29h-5.79v-5.95zM727.99 338.84h2.51v-8.24h2.76c2.95 0 5.92-.96 5.92-5.51 0-4.57-2.98-5.54-5.92-5.54h-5.26v19.29zm2.51-17.03h2.76c2.37 0 3.42 1.3 3.42 3.28 0 1.98-1.05 3.22-3.42 3.22h-2.76v-6.5zM509.59 321.81v-2.26h-9.34v19.29h9.34v-2.26h-6.83v-6.53h5.78v-2.29h-5.78v-5.95zM545.91 333.03v-7.66c0-5.1-3.31-5.81-5.15-5.81h-5.51v19.29h5.51c1.84-.01 5.15-.73 5.15-5.82zm-8.16-11.22h3c1.38 0 2.65.85 2.65 3.55v7.66c0 2.7-1.27 3.55-2.65 3.55h-3v-14.76zM519.95 321.81h4.41v-2.26h-11.35v2.26h4.43v17.03h2.51zM598.84 338.84h2.51v-8.21h1.82c1.87 0 3.5.74 3.55 3l.08 5.21h2.51l-.08-5.21c-.06-1.79-.91-3.25-1.96-4.02 1.3-.72 2.23-2.12 2.23-4.52 0-4.57-2.98-5.54-5.92-5.54h-4.74v19.29zm2.51-17.03h2.23c2.37 0 3.42 1.3 3.42 3.28 0 1.98-1.05 3.25-3.42 3.25h-2.23v-6.53zM561.95 324.46c0 5.98 8.46 4.66 8.46 9.23 0 2.34-1.68 3.28-3.09 3.28-1.87 0-3.09-1.52-3.09-3.03v-.66h-2.51v.66c0 2.42 1.76 5.29 5.59 5.29 1.85 0 5.59-.83 5.59-5.54 0-6.48-8.46-5.43-8.46-9.23 0-2.09 1.46-3.03 2.87-3.03 1.63 0 2.92 1.18 2.92 3.03v.66h2.51v-.66c0-2.59-1.74-5.29-5.43-5.29-1.84-.01-5.36.85-5.36 5.29zM584.16 338.84h2.51v-8.79h5.73v8.79h2.51v-13.86c0-5.13-3.53-5.81-5.37-5.81-1.85 0-5.37.69-5.37 5.81v13.86zm2.5-13.86c0-2.73 1.46-3.55 2.87-3.55 1.38 0 2.87.83 2.87 3.55v2.78h-5.73v-2.78zM701.27 338.84h9.34v-2.26h-6.84v-6.53h5.79v-2.29h-5.79v-5.95h6.84v-2.26h-9.34zM559.05 321.81v-2.26h-9.34v19.29h9.34v-2.26h-6.83v-6.53h5.79v-2.29h-5.79v-5.95zM568.02 287.53l-2.29-.27-.57 4.87 2.28.28zM581.66 308.78v-13.86c0-5.13-3.53-5.81-5.37-5.81-1.85 0-5.37.69-5.37 5.81v13.86h2.51v-8.79h5.73v8.79h2.5zm-8.24-11.08v-2.78c0-2.73 1.46-3.55 2.87-3.55 1.38 0 2.87.83 2.87 3.55v2.78h-5.74zM719.3 308.78h9.34v-2.26h-6.83v-6.53h5.78v-2.29h-5.78v-5.95h6.83v-2.26h-9.34zM562.4 302.96v-7.66c0-5.1-3.31-5.81-5.15-5.81h-5.51v19.29h5.51c1.84 0 5.15-.72 5.15-5.82zm-2.51 0c0 2.7-1.27 3.55-2.65 3.55h-3v-14.77h3c1.38 0 2.65.85 2.65 3.55v7.67zM689.82 289.49v13.86c0 5.13 3.69 5.81 5.54 5.81s5.54-.69 5.54-5.81v-13.86h-2.51v13.86c0 2.73-1.63 3.55-3.03 3.55-1.41 0-3.03-.83-3.03-3.55v-13.86h-2.51zM635.23 291.75h4.44v17.03h2.5v-17.03h4.41v-2.26h-11.35zM715.5 295.03c0-4.57-2.98-5.54-5.92-5.54h-4.74v19.29h2.51v-8.21h1.82c1.87 0 3.5.74 3.55 3l.08 5.21h2.51l-.08-5.21c-.06-1.79-.91-3.25-1.96-4.02 1.29-.72 2.23-2.12 2.23-4.52zm-5.93 3.25h-2.23v-6.53h2.23c2.37 0 3.42 1.3 3.42 3.28s-1.05 3.25-3.42 3.25zM613.74 308.78h2.5v-8.79h5.79v8.79h2.51v-19.29h-2.51v8.21h-5.79v-8.21h-2.5zM682.02 308.78v-17.03h4.41v-2.26h-11.36v2.26h4.44v17.03zM585.6 308.78h2.51v-8.21h1.82c1.87 0 3.5.74 3.55 3l.08 5.21h2.51l-.08-5.21c-.06-1.79-.91-3.25-1.96-4.02 1.3-.72 2.23-2.12 2.23-4.52 0-4.57-2.98-5.54-5.92-5.54h-4.74v19.29zm2.51-17.03h2.23c2.37 0 3.42 1.3 3.42 3.28s-1.05 3.25-3.42 3.25h-2.23v-6.53zM599.79 294.92v8.43c0 4.99 3.42 5.81 5.26 5.81 3.69 0 5.29-2.7 5.29-5.29v-.66h-2.51v.66c0 1.85-1.18 3.03-2.78 3.03-1.41 0-2.76-.96-2.76-3.55v-8.43c0-2.59 1.35-3.55 2.76-3.55 1.6 0 2.78 1.18 2.78 3.03v.66h2.51v-.66c0-2.59-1.6-5.29-5.29-5.29-1.84-.01-5.26.82-5.26 5.81zM628.92 289.49h2.48v19.29h-2.48zM659.45 291.75v-2.26h-9.34v19.29h9.34v-2.26h-6.83v-6.53h5.78v-2.29h-5.78v-5.95zM662.21 294.92v8.43c0 4.99 3.42 5.81 5.26 5.81 3.69 0 5.29-2.7 5.29-5.29v-.66h-2.51v.66c0 1.85-1.18 3.03-2.78 3.03-1.41 0-2.76-.96-2.76-3.55v-8.43c0-2.59 1.35-3.55 2.76-3.55 1.6 0 2.78 1.18 2.78 3.03v.66h2.51v-.66c0-2.59-1.6-5.29-5.29-5.29-1.85-.01-5.26.82-5.26 5.81zM677.91 278.72v-13.86c0-5.13-3.53-5.81-5.37-5.81s-5.37.69-5.37 5.81v13.86h2.51v-8.79h5.73v8.79h2.5zm-8.24-11.08v-2.78c0-2.73 1.46-3.55 2.87-3.55 1.38 0 2.87.83 2.87 3.55v2.78h-5.74zM681.85 259.43v19.29h9.1v-2.26h-6.59v-17.03zM589.71 278.72h2.51v-8.79h5.53v-2.29h-5.53v-5.95h6.83v-2.26h-9.34zM611.78 261.69v-2.26h-9.34v19.29h9.34v-2.26h-6.83v-6.53h5.78v-2.29h-5.78v-5.95zM614.45 273.15v.66c0 2.42 1.76 5.29 5.59 5.29 1.85 0 5.59-.83 5.59-5.54 0-6.48-8.46-5.43-8.46-9.23 0-2.09 1.46-3.03 2.87-3.03 1.63 0 2.92 1.18 2.92 3.03v.67h2.51v-.66c0-2.59-1.74-5.29-5.43-5.29-1.85 0-5.37.85-5.37 5.29 0 5.98 8.46 4.66 8.46 9.23 0 2.34-1.68 3.28-3.09 3.28-1.87 0-3.09-1.52-3.09-3.03v-.66h-2.5zM628.07 261.69h4.43v17.03h2.51v-17.03h4.41v-2.26h-11.35zM643.25 259.43h2.48v19.29h-2.48zM656.8 274.67l-4.75-15.12h-2.73l6.33 19.18h2.2l6.33-19.18h-2.66z"/></svg>
