<svg xmlns="http://www.w3.org/2000/svg" width="49.21" height="16.812" viewBox="0 0 13.02 4.448"><path d="M13.013 3.271v-.024c0-.152-.052-.244-.152-.244-.095 0-.157.09-.157.247 0 .169.07.247.155.247.057 0 .1-.025.142-.07l-.038-.04c-.034.037-.062.053-.1.053-.06 0-.093-.067-.097-.169zm-.06-.055h-.186c.005-.107.042-.156.093-.156.06 0 .089.065.093.156m.056-.916a.48.48 0 00.001-.038c0-.2-.087-.298-.203-.298-.121 0-.204.101-.204.302 0 .181.074.298.211.298a.227.227 0 00.17-.077l-.064-.067a.13.13 0 01-.104.043c-.061 0-.102-.05-.108-.163zm-.106-.091h-.194c.009-.1.043-.146.096-.146.06 0 .095.06.098.146m-.29.804a.141.141 0 00-.06-.01.116.116 0 00-.093.05v-.04h-.063v.474h.063v-.371c.017-.03.046-.053.077-.053.025 0 .04.004.058.014zm-.206-.461h.105V2.19c0-.152-.029-.227-.144-.227a.165.165 0 00-.135.062c-.024-.042-.059-.062-.116-.062a.13.13 0 00-.107.052v-.04h-.105v.576h.105v-.435a.101.101 0 01.085-.053c.053 0 .06.038.06.134v.354h.106v-.435a.101.101 0 01.085-.053c.053 0 .06.038.06.134zm-.469 1.403c-.092 0-.152.09-.152.247 0 .168.068.246.15.246.055 0 .095-.024.136-.07l-.037-.04c-.032.038-.059.053-.096.053-.058 0-.088-.066-.093-.168h.237l.001-.025c0-.151-.05-.243-.146-.243m-.002.057c.058 0 .086.065.09.156h-.179c.005-.108.04-.156.089-.156m-.187-.525h.063v-.35c0-.101-.051-.133-.134-.133a.217.217 0 00-.133.047l.029.047a.165.165 0 01.1-.039c.05 0 .075.026.075.084v.066a.173.173 0 00-.087-.022c-.083 0-.145.048-.145.154 0 .109.052.156.122.156a.152.152 0 00.11-.05zm0-.093a.13.13 0 01-.099.049c-.046 0-.07-.04-.07-.104 0-.061.025-.097.08-.097.043 0 .065.008.089.02zm-.168-1.28c0-.028.018-.05.057-.05.036 0 .08.016.117.043l.042-.09a.26.26 0 00-.156-.053c-.104 0-.165.06-.165.16 0 .091.048.129.12.17.08.046.11.067.11.107 0 .038-.028.063-.075.063a.262.262 0 01-.134-.05l-.04.088c.05.038.114.062.176.062.112 0 .179-.06.179-.17 0-.094-.05-.132-.136-.182-.078-.045-.095-.062-.095-.097m.072 2.187c0 .052-.033.088-.086.088-.046 0-.075-.032-.099-.093l-.057.026c.027.078.075.125.154.125.093 0 .15-.064.15-.153 0-.087-.036-.149-.13-.214-.082-.058-.098-.094-.098-.145 0-.04.023-.08.073-.08.046 0 .07.028.095.077l.053-.03c-.03-.065-.069-.106-.145-.106-.084 0-.138.062-.138.144 0 .082.032.129.12.192.082.058.108.108.108.17m-.271-2.481a.066.066 0 00-.065-.066.066.066 0 00-.066.066c0 .035.03.065.066.065.035 0 .065-.03.065-.065m-.339.73h.105V2.18c0-.144-.04-.216-.15-.216a.14.14 0 00-.112.052v-.04h-.105v.576h.105v-.435a.102.102 0 01.086-.053c.053 0 .071.038.071.134zm-.324 1.886h.06v-.657l-.06.036zm-.156-1.886h.105v-.416c0-.128-.048-.172-.172-.172a.31.31 0 00-.165.055l.045.08a.206.206 0 01.113-.036c.055 0 .074.026.074.082v.056a.204.204 0 00-.087-.019c-.11 0-.188.064-.188.189 0 .13.072.193.157.193a.146.146 0 00.118-.052zm0-.137a.106.106 0 01-.097.053c-.045 0-.073-.031-.073-.1 0-.062.034-.09.084-.09.039 0 .061.007.086.022zm-.34-.145c0-.229-.07-.306-.174-.306a.134.134 0 00-.107.05v-.261l-.105.055v.744h.105V2.52c.028.03.059.043.1.043.113 0 .18-.102.18-.294m-.106.005c0 .136-.028.19-.083.19a.11.11 0 01-.091-.052v-.298a.103.103 0 01.085-.052c.06 0 .09.062.09.212m-.213 1.68c-.088 0-.138.088-.138.25 0 .159.046.243.132.243a.139.139 0 00.102-.05v.04h.06V3.78l-.06.036V4a.128.128 0 00-.096-.046m.005.056a.12.12 0 01.092.048v.286c-.025.028-.055.047-.089.047-.057 0-.085-.06-.085-.188 0-.118.023-.193.082-.193M9.74 2.089l.025-.105a.145.145 0 00-.08-.02.13.13 0 00-.101.051v-.04H9.48v.576h.105v-.435a.093.093 0 01.082-.045c.033 0 .053.006.074.018m-.355-.84h.182V.005h-.182v.503h-.56V.005h-.182V1.25h.183V.69h.559zm-.818 2.706a.203.203 0 00-.128.048l.028.046a.153.153 0 01.095-.038c.05 0 .072.026.072.083v.066a.16.16 0 00-.083-.021c-.08 0-.14.047-.14.154 0 .108.051.155.118.155a.14.14 0 00.105-.05v.04h.061v-.35c0-.1-.049-.133-.128-.133m.067.39a.123.123 0 01-.094.049c-.045 0-.068-.04-.068-.104 0-.061.024-.097.078-.097.04 0 .062.008.084.02zm-.093-1.332H8.48v.474h.063zm.013-.134a.044.044 0 00-.043-.045.046.046 0 00-.045.045c0 .024.02.045.045.045.023 0 .043-.021.043-.045M8.44 2.55h.105v-.799l-.105.055v.2a.13.13 0 00-.1-.043c-.114 0-.18.102-.18.294 0 .229.068.305.172.305.052 0 .08-.02.108-.05zm0-.139a.103.103 0 01-.085.053c-.06 0-.09-.063-.09-.213 0-.136.03-.19.084-.19.033 0 .068.017.09.052zM8.389.376c0-.255-.178-.37-.39-.37h-.533v1.243h.18V.757h.273l.241.492h.21L8.122.74c.165-.043.267-.166.267-.365M8.206.38c0 .136-.085.2-.207.2h-.354v-.4H8c.123 0 .207.071.207.2m-.758 1.885c0 .181.075.297.212.297a.227.227 0 00.17-.076l-.064-.067a.13.13 0 01-.104.042c-.062 0-.102-.049-.109-.163h.302a.48.48 0 000-.037c0-.2-.087-.298-.202-.298-.122 0-.205.1-.205.302m.106-.058c.01-.099.043-.146.097-.146.059 0 .094.06.097.146zM7.43 3.486l-.101-.302c.06-.024.1-.077.1-.16 0-.115-.073-.169-.166-.169h-.156v.631h.065v-.285l.09-.001.097.286zm-.174-.342H7.17v-.23h.089c.066 0 .104.04.104.113 0 .076-.037.117-.108.117m-.127-.88c0-.126.028-.2.095-.2.037 0 .06.02.09.066l.076-.065c-.033-.057-.08-.101-.162-.101-.129 0-.205.1-.205.302 0 .202.08.297.2.297.084 0 .13-.042.168-.102L7.314 2.4c-.028.045-.052.063-.087.063-.07 0-.1-.076-.1-.198M7.186.73V.005h-.182v.729c0 .227-.09.348-.281.348-.183 0-.278-.127-.278-.361V.005h-.182v.721c0 .343.156.542.456.542.302 0 .467-.19.467-.538m-.918 1.234c-.122 0-.205.1-.205.302 0 .181.074.297.21.297a.227.227 0 00.172-.076L6.38 2.42a.132.132 0 01-.104.042c-.061 0-.102-.049-.108-.163h.301a.48.48 0 00.001-.037c0-.2-.088-.298-.203-.298m-.002.099c.06 0 .095.06.098.145h-.194c.009-.098.043-.145.097-.145m-.36-.814H6.1L5.658.005h-.193L5.028 1.25h.189l.1-.295h.486zM5.749.787h-.375l.098-.284c.03-.093.074-.235.088-.288.014.053.063.197.092.286zm-3.395 3.65L4.59 2.23C3.836 1.5 3.107.733 2.353.001v1.343c.507.044.863.417.837.923-.025.492-.375.78-.837.852zm2.02-2.745l.059.06V.06L4.372 0zM2.41 1.46h-.086v.072h.086zm.556.823h-.043a.042.042 0 00.043 0m-.21-.62c-.01.049.009.068.058.057v-.06zm.094.576h.058V2.18c-.04-.044-.102.019-.058.058m.022.073v-.058c-.018-.02-.068-.02-.087 0v.058c.043.012.045.012.087 0m-.13-.102c.052.004.076-.02.072-.072-.05-.05-.122.023-.072.072m-.086-.187a.094.094 0 00.014.072h.058c.017-.017.016-.05.014-.087-.035 0-.07-.002-.086.015m-.087-.404c-.014.052.057.02.087.029.012-.055-.065-.052-.087-.03m-.058-.13c.006.036-.026.032-.014.073.019.02.068.02.087 0 .016-.064-.045-.052-.073-.072m-.029.1c-.01-.002-.016-.011-.014-.028-.036-.002-.07-.002-.086.014-.004.047.016.07.057.073.021-.013.046-.022.043-.058m.03.087c-.046-.007-.065.012-.058.057.04.002.036-.04.057-.057m.375.158v-.058H2.83c-.011.05.008.07.057.058m.008.058c-.038-.043-.097.013-.062.053a.081.081 0 00-.046-.01c-.02.018-.02.068 0 .087.046.012.044-.023.072-.03a.062.062 0 00-.018-.043c.042.005.06-.014.054-.058m.005.16c-.045-.004-.067.017-.07.057.027.006.026.041.072.029.018-.017.019-.057.005-.08.007.007.017.01.031.008.023-.022.021-.083-.029-.072a.052.052 0 00-.008.057m-.706-.447c.062.004.116 0 .115-.058-.012-.021-.021-.046-.057-.043-.05.004-.03.076-.073.086-.002-.017-.022-.015-.043-.014a.196.196 0 010-.101c-.1.024-.199.051-.26.115-.18.075-.336.284-.36.534-.076.779.883 1.152 1.342.592-.01-.01-.03-.012-.047-.017.031-.01.031-.051.054-.07-.047-.003-.07.018-.071.061-.007-.006-.012-.015-.008-.032.016-.002.015-.023.014-.043.055.008.068.02.101-.015v-.057l-.006-.003c.033-.01.04-.044.042-.084-.068-.021-.103.029-.08.073-.01-.001-.017-.002-.028 0-.038.014-.022.083-.1.057-.018-.015-.006-.066.013-.087.034.005.06.029.087 0a.188.188 0 00-.005-.071c.023 0 .044-.003.055-.015.004-.047-.017-.07-.057-.072-.003.01-.012.016-.029.014v.057c-.074.003-.05.103-.137.058v-.072c.027-.016.12.023.115-.057-.013-.026-.027-.05-.072-.044-.04.008-.022.074-.072.072-.002-.027-.048-.01-.043-.043.026-.002.009-.049.029-.058.018.02.068.02.086 0 .002-.035.002-.07-.014-.086-.075-.017-.076.04-.101.072-.02-.035-.054.016-.058-.015.013-.025.005-.072.029-.086.018.02.068.02.087 0v-.058a.096.096 0 00-.073-.014c-.029.009-.004.073-.058.057-.008-.02-.055-.002-.057-.029.012-.016.019-.038.014-.071.02.02.082.02.101 0 .012-.041-.02-.038-.014-.073h-.058c-.027.026-.028.078-.101.058v-.087c.052-.012.07.033.101 0-.013-.035-.013-.083-.058-.086-.043 0-.014.073-.057.072-.01-.02-.056-.002-.058-.029-.015-.091.126-.028.115-.115 0-.019-.018-.02-.014-.044-.105-.033-.066.08-.145.073-.052-.011.002-.046-.014-.102.038.03.123.017.116-.043-.014-.025-.027-.05-.073-.043-.045.002-.018.078-.072.072-.038-.005-.052-.035-.043-.087m.49 1.155c0-.034.026-.042.015-.087.021.008.037.022.058.03.006.034-.027.031-.015.071-.012-.01-.032-.015-.057-.014m-.058-.188c.041.002.068.019.058.073h-.058zm-.058-.115c.013.011.033.015.058.014.006.035-.026.032-.014.073-.013-.012-.033-.016-.058-.015-.012-.04.02-.037.014-.072m-.087-.043c.015-.02.015-.054.03-.072.02.007.036.021.057.028-.011.013-.015.033-.014.058-.035.006-.032-.026-.073-.014m-.057-.174h.072v.073h-.072zm-.058-.115c.058-.01.082.014.072.072h-.072zm-.058-.116c.013.012.033.016.058.015.014.027-.043.048 0 .058.003.03-.051.007-.072.014-.002-.036-.002-.07.014-.087m-.086-.029c-.006-.034.026-.03.014-.072h.072a.095.095 0 00-.014.072zm-.13-.331H2.02c-.002-.036-.002-.07.014-.087.013.011.033.015.058.014zm.072.029c-.01.038-.007.089-.072.072v-.072zm.072.115c.006.035-.026.031-.014.072H2.15c-.006-.035.026-.031.014-.072zm0-.332c-.038 0-.085-.008-.086.029.03.03.078.005.086-.029m-.014-.115c-.01-.438 0-1.343 0-1.343S.707 1.46 0 2.23l2.223 2.206V3.118c-1.143-.047-1.058-1.748 0-1.775m2.209 1.42l-.06.058v1.62l.06-.054zM5.03 4.2c0 .168.068.246.149.246.055 0 .096-.025.137-.07l-.037-.04c-.032.038-.059.053-.097.053-.058 0-.088-.067-.093-.169h.238v-.024c0-.151-.05-.243-.146-.243-.092 0-.151.09-.151.247m.06-.035c.005-.107.04-.156.09-.156.058 0 .085.065.089.156zm.186-.68h.063v-.658l-.063.036v.184a.137.137 0 00-.1-.046c-.092 0-.145.089-.145.25 0 .16.049.243.138.243a.15.15 0 00.107-.05zm0-.093a.127.127 0 01-.092.046c-.06 0-.09-.06-.09-.187 0-.118.025-.194.086-.194.039 0 .071.02.096.049zm-.071-1.046h.166l.045.203h.118l-.188-.767h-.11l-.19.767h.115zm.022-.102l.028-.129.033-.167c.005.028.022.117.033.167l.028.13zm.2 1.719H5.38v.052h.048v.331c0 .067.024.1.077.1a.16.16 0 00.07-.014l.005-.056a.128.128 0 01-.057.012c-.024 0-.036-.014-.036-.048v-.325h.09v-.053h-.09V3.78l-.06.036zm.215-.469c.058 0 .1-.024.142-.07l-.038-.04c-.033.038-.061.054-.1.054-.06 0-.092-.067-.097-.17h.247l.001-.023c0-.152-.053-.244-.152-.244-.096 0-.158.09-.158.247 0 .169.07.246.155.246m-.092-.28c.005-.107.042-.156.093-.156.06 0 .09.065.093.156zm.312-1.24v.03a.128.128 0 00-.1-.042c-.114 0-.18.102-.18.294 0 .229.069.305.173.305a.13.13 0 00.107-.051v.005c0 .108-.032.146-.159.162l.03.084c.174-.018.234-.097.234-.262v-.525zm0 .138v.298a.103.103 0 01-.085.053c-.06 0-.089-.063-.089-.213 0-.136.028-.19.083-.19a.11.11 0 01.091.052m-.038 2.091c0 .159.046.243.132.243a.14.14 0 00.103-.05v.04h.06V3.78l-.06.036V4a.129.129 0 00-.096-.046c-.088 0-.139.088-.139.25m.06 0c0-.119.024-.194.083-.194.038 0 .069.02.092.049v.285c-.025.028-.054.047-.089.047-.057 0-.085-.06-.085-.187m.368-1.376l-.063.036v.622h.063zM6.21 4.201c0 .168.068.246.149.246.055 0 .096-.024.136-.07l-.036-.04c-.032.038-.059.053-.097.053-.058 0-.088-.067-.092-.168h.237v-.025c0-.151-.05-.243-.145-.243-.093 0-.152.09-.152.247m.06-.034c.006-.108.04-.156.09-.156.058 0 .085.065.089.156zm.257-.671a.152.152 0 00.11-.05v.04H6.7v-.351c0-.1-.051-.133-.134-.133a.217.217 0 00-.133.048l.03.047a.164.164 0 01.098-.039c.052 0 .076.026.076.083v.067a.173.173 0 00-.088-.022c-.082 0-.145.048-.145.154 0 .109.053.156.123.156m-.06-.158c0-.062.026-.098.081-.098.043 0 .066.008.089.021v.132a.129.129 0 01-.099.049c-.046 0-.07-.041-.07-.104m.287-1.275c.053 0 .071.038.071.134v.353h.106v-.37c0-.145-.04-.216-.15-.216a.14.14 0 00-.112.052v-.04h-.105v.575h.105v-.434a.101.101 0 01.085-.053m.084 1.717l-.06.036v.621h.06zm.111.026l-.01.17h.038l.046-.17zm.433 0h-.267v.631h.278v-.059h-.215V4.13h.128v-.06h-.128v-.205h.204zm.11.524l-.043.04c.03.044.073.077.132.077.072 0 .132-.046.132-.124 0-.075-.037-.112-.11-.157-.067-.043-.084-.063-.084-.1 0-.034.022-.056.059-.056.036 0 .06.021.08.051l.046-.039a.14.14 0 00-.123-.068c-.071 0-.121.05-.121.117 0 .07.034.104.107.148.07.044.087.069.087.11 0 .038-.026.062-.071.062-.035 0-.06-.022-.09-.061m.232-1.38l.12-.145h-.088l-.08.144zm-.011.546c.057 0 .1-.025.142-.07l-.038-.04c-.034.037-.062.053-.1.053-.061 0-.093-.067-.097-.169h.247v-.024c0-.152-.052-.244-.151-.244-.096 0-.159.09-.159.247 0 .17.071.247.156.247m-.092-.28c.006-.108.042-.157.093-.157.06 0 .089.065.092.156zm.188.748h-.048v.052h.048v.331c0 .067.024.1.077.1a.16.16 0 00.07-.013l.005-.057a.128.128 0 01-.057.013c-.024 0-.036-.015-.036-.05v-.324h.09v-.052h-.09V3.78l-.06.036zM8 3.254c0 .159.048.243.137.243.045 0 .08-.024.107-.05v.019c0 .09-.03.13-.153.146l.02.049c.148-.02.196-.083.196-.218v-.43h-.063v.036a.137.137 0 00-.1-.046c-.091 0-.144.089-.144.25m.063 0c0-.118.024-.194.085-.194.04 0 .072.02.096.05v.285c-.026.028-.057.047-.092.047-.06 0-.089-.06-.089-.188m.042.712h-.061v.324c0 .106.043.16.122.16.047 0 .08-.024.1-.05v.04h.062v-.474h-.061v.372c-.02.03-.048.055-.086.055-.052 0-.076-.032-.076-.11zm.633-1.919l.073-.261h-.13l-.014.261zM8.695 3.25c0 .162.065.247.165.247s.168-.087.168-.248c0-.16-.066-.246-.166-.246s-.167.086-.167.247m.064 0c0-.128.038-.19.101-.19.065 0 .103.062.103.19s-.038.19-.101.19c-.065 0-.103-.062-.103-.19m.036.58c0 .025.019.046.043.046.022 0 .041-.021.041-.046 0-.024-.019-.044-.04-.044a.044.044 0 00-.044.044m.072.135h-.06v.473h.06zm.173 0h-.061v.473h.06v-.37c.018-.03.045-.053.075-.053.024 0 .04.005.056.014l.017-.064a.132.132 0 00-.057-.01.111.111 0 00-.09.05zm.303-.962a.132.132 0 00-.105.05v-.04h-.063v.474h.063v-.373c.02-.029.05-.055.09-.055.054 0 .079.033.079.11v.318h.063V3.16c0-.105-.044-.158-.127-.158m-.094-1.22v.543c0 .06-.024.128-.109.128-.08 0-.107-.066-.107-.13v-.54h-.108v.545c0 .14.088.234.215.234.132 0 .215-.091.215-.24v-.54zm-.029 2.42c0 .169.068.246.149.246.055 0 .096-.024.136-.07l-.036-.04c-.032.038-.06.053-.097.053-.057 0-.088-.066-.092-.168h.237v-.025c0-.15-.05-.243-.145-.243-.092 0-.152.09-.152.247m.06-.034c.006-.107.04-.156.09-.156.058 0 .085.065.089.156zm.71-.671a.15.15 0 00.107-.05v.04h.063V2.83l-.063.036v.183a.135.135 0 00-.1-.045c-.091 0-.144.088-.144.25 0 .159.048.243.138.243m.014-.056c-.06 0-.089-.06-.089-.188 0-.118.024-.194.085-.194.04 0 .072.02.096.05v.285c-.026.028-.056.047-.092.047m.145.76c0 .17.068.247.149.247.055 0 .096-.024.136-.07l-.036-.04c-.032.038-.06.053-.097.053-.058 0-.088-.066-.092-.168h.237v-.025c0-.15-.05-.243-.146-.243-.091 0-.151.09-.151.247m.06-.034c.006-.107.04-.156.09-.156.058 0 .085.065.089.156zm.243-.671a.132.132 0 00.105-.05v.04h.063v-.474h-.063v.373c-.02.029-.05.055-.09.055-.054 0-.078-.033-.078-.11v-.318h-.064v.325c0 .106.044.159.127.159m.417.796c0 .108.05.155.118.155a.14.14 0 00.105-.05v.04h.06v-.35c0-.1-.048-.133-.128-.133a.203.203 0 00-.127.048l.027.047a.153.153 0 01.096-.039c.05 0 .072.026.072.083v.067a.16.16 0 00-.084-.022c-.08 0-.139.048-.139.154m.06-.003c0-.06.025-.097.078-.097.041 0 .063.008.085.02v.132a.123.123 0 01-.094.05c-.045 0-.068-.041-.068-.105m.333-1.738h.105v-.576h-.105zm-.17.63h.21v.305h.064v-.631h-.065v.267h-.208v-.267h-.065v.63h.065zm.977.305h.057l.135-.474h-.065l-.08.322c-.005.023-.015.063-.018.083a.721.721 0 00-.017-.083l-.08-.322h-.065zm.096.343c0 .025.02.046.044.046.022 0 .04-.021.04-.046 0-.024-.018-.044-.04-.044a.044.044 0 00-.044.044m.072.135h-.06v.473h.06zm.173 0h-.06v.473h.06v-.372c.02-.029.048-.055.086-.055.052 0 .076.033.076.11v.317h.061v-.324c0-.106-.043-.16-.122-.16a.126.126 0 00-.1.05zm.31.237c0 .169.067.246.148.246.055 0 .096-.024.137-.07l-.037-.04c-.032.038-.059.053-.096.053-.058 0-.089-.066-.093-.168h.237l.001-.025c0-.15-.05-.243-.146-.243-.092 0-.152.09-.152.247m.06-.034c.006-.107.04-.156.09-.156.058 0 .086.065.09.156z" fill="#2e3192"/></svg>