<svg xmlns="http://www.w3.org/2000/svg" width="476.787" height="221.387"><path d="M74.932 169.872h-3.457v-97.66h3.457v97.66M48.119 138.248c1.006 1.677 1.844 3.628 2.516 5.85.67 2.222 1.006 4.843 1.006 7.863-3.355 1.342-6.5 2.202-9.435 2.579a72.013 72.013 0 01-9.185.566c-5.453 0-10.19-.86-14.217-2.58-4.026-1.718-7.36-4.089-10.002-7.109-2.643-3.018-4.635-6.604-5.976-10.756-1.343-4.151-2.014-8.66-2.014-13.525 0-4.78.65-9.225 1.951-13.336 1.3-4.109 3.27-7.716 5.913-10.82 2.642-3.102 5.933-5.536 9.877-7.297 3.941-1.762 8.512-2.642 13.713-2.642 1.844 0 3.542.043 5.095.126 1.552.084 3.04.25 4.467.502 1.425.252 2.85.588 4.278 1.007 1.425.421 3.02.966 4.78 1.636 0 1.93-.251 4.089-.755 6.48a28.376 28.376 0 01-2.39 6.856c-2.516-.837-4.718-1.403-6.605-1.698-1.888-.293-4.047-.44-6.48-.44-5.2 0-9.12 1.697-11.763 5.095-2.642 3.397-3.963 8.24-3.963 14.531 0 6.794 1.425 11.744 4.278 14.845 2.85 3.104 6.709 4.656 11.574 4.656 1.259 0 2.41-.019 3.46-.062a24.328 24.328 0 003.083-.315 22.026 22.026 0 003.082-.755 141.86 141.86 0 003.712-1.257M129.507 123.778a58.176 58.176 0 00-3.27-.44 29.952 29.952 0 00-3.146-.189c-4.111 0-7.36.736-9.75 2.202-2.391 1.468-3.586 3.837-3.586 7.109 0 2.181.459 3.858 1.384 5.032.921 1.176 2.032 2.035 3.334 2.58 1.3.546 2.683.88 4.152 1.007 1.466.124 2.745.188 3.836.188 1.259 0 2.517-.104 3.775-.315 1.258-.208 2.347-.397 3.271-.567zm0-12.959c0-2.013-.336-3.648-1.006-4.906-.673-1.258-1.595-2.243-2.768-2.957-1.176-.711-2.623-1.195-4.341-1.447-1.72-.252-3.629-.377-5.724-.377-4.53 0-9.353.88-14.47 2.642-1.175-2.18-2.055-4.234-2.64-6.165-.589-1.928-.881-4.234-.881-6.92a66.774 66.774 0 0111.07-2.768c3.69-.585 7.129-.88 10.318-.88 8.722 0 15.538 2.098 20.444 6.29 4.907 4.196 7.36 10.905 7.36 20.13v37.744c-2.937.925-6.501 1.806-10.694 2.643-4.194.837-8.932 1.258-14.217 1.258-4.277 0-8.2-.377-11.763-1.133-3.566-.755-6.627-2.012-9.185-3.774a17.765 17.765 0 01-5.913-6.794c-1.384-2.768-2.076-6.164-2.076-10.19 0-4.027.86-7.402 2.58-10.128 1.717-2.725 3.94-4.908 6.667-6.542 2.725-1.636 5.766-2.81 9.122-3.523a48.382 48.382 0 0110.065-1.07c2.431 0 5.115.125 8.052.377v-1.51M154.004 153.596a40.876 40.876 0 01-.54-6.56c0-2.157.18-4.372.54-6.65a40.873 40.873 0 016.56-.54c2.157 0 4.372.18 6.65.54.36 2.278.54 4.465.54 6.56 0 2.217-.18 4.434-.54 6.65a42.05 42.05 0 01-6.56.54c-2.217 0-4.434-.18-6.65-.54M176.775 88.55a54.316 54.316 0 018.933-.754c2.935 0 5.912.252 8.932.755v34.472c0 3.44.27 6.272.817 8.494.544 2.223 1.384 3.984 2.516 5.284 1.134 1.3 2.536 2.223 4.215 2.767 1.677.547 3.65.817 5.915.817 3.101 0 5.702-.293 7.8-.88V88.551c3.02-.503 5.954-.755 8.806-.755 2.935 0 5.914.252 8.934.755v62.529c-2.687.924-6.228 1.825-10.632 2.705-4.403.88-8.996 1.321-13.778 1.321-4.277 0-8.388-.337-12.329-1.006-3.943-.67-7.404-2.096-10.379-4.278-2.978-2.18-5.348-5.366-7.109-9.562-1.76-4.193-2.641-9.77-2.641-16.733V88.55M241.155 153.596a40.876 40.876 0 01-.54-6.56c0-2.157.18-4.372.54-6.65a40.877 40.877 0 016.561-.54c2.156 0 4.372.18 6.65.54.358 2.278.538 4.465.538 6.56 0 2.217-.18 4.434-.539 6.65-2.277.36-4.464.54-6.56.54-2.217 0-4.434-.18-6.65-.54M304.815 114.09c-.17-4.026-1.28-7.275-3.334-9.75-2.057-2.473-4.928-3.711-8.618-3.711-4.196 0-7.382 1.175-9.563 3.523-2.181 2.349-3.48 5.661-3.9 9.938zm-25.54 12.456c.334 5.033 2.096 8.682 5.284 10.946 3.186 2.264 7.38 3.397 12.581 3.397 2.85 0 5.765-.27 8.745-.817a49.824 49.824 0 008.492-2.328c.922 1.679 1.718 3.692 2.391 6.039.67 2.349 1.047 4.865 1.13 7.549-6.54 2.516-13.922 3.774-22.142 3.774-6.039 0-11.219-.84-15.537-2.517-4.322-1.676-7.844-4.004-10.568-6.983-2.727-2.974-4.74-6.52-6.04-10.631-1.302-4.108-1.95-8.596-1.95-13.461 0-4.78.671-9.267 2.012-13.463 1.342-4.192 3.334-7.84 5.978-10.945 2.641-3.102 5.912-5.555 9.812-7.36 3.901-1.802 8.449-2.705 13.65-2.705 4.531 0 8.556.798 12.079 2.39 3.524 1.594 6.521 3.775 8.996 6.542 2.473 2.768 4.34 6.062 5.599 9.877 1.258 3.818 1.886 7.906 1.886 12.266a58.55 58.55 0 01-.188 4.719c-.126 1.553-.273 2.79-.44 3.711h-41.77" fill="#231f20"/><path d="M0 47.41h54.868v14.338H0V47.411M17.62 5.97H4.78a13.051 13.051 0 01-.256-2.56c0-.909.085-1.791.256-2.645H25.77l.256.512-12.545 30.464a18.968 18.968 0 01-2.922-.896 12.018 12.018 0 01-2.709-1.534l9.77-23.34M40.49 26.493c1.308 0 2.404-.44 3.285-1.322.882-.882 1.323-2.219 1.323-4.011 0-1.877-.42-3.221-1.258-4.032-.84-.81-1.9-1.216-3.18-1.216-1.422 0-2.553.42-3.391 1.259-.84.84-1.259 2.098-1.259 3.776 0 1.792.405 3.165 1.217 4.117.81.953 1.898 1.43 3.263 1.43zM46.55-.003c.142.456.263.911.362 1.366.1.456.15.925.15 1.408 0 .712-.128 1.465-.384 2.261-1.594.057-3.002.341-4.224.853-1.223.512-2.269 1.188-3.136 2.027-.868.84-1.579 1.8-2.133 2.88a11.615 11.615 0 00-1.131 3.413c.255-.369.561-.732.917-1.088a6.641 6.641 0 011.28-.981 7.094 7.094 0 011.729-.725c.653-.184 1.407-.278 2.26-.278 1.224 0 2.39.207 3.499.619a8.362 8.362 0 012.923 1.835c.838.81 1.507 1.842 2.005 3.093.498 1.252.747 2.703.747 4.352 0 1.707-.306 3.207-.918 4.501-.612 1.295-1.415 2.383-2.41 3.264a9.917 9.917 0 01-3.456 1.984 12.47 12.47 0 01-4.01.662c-3.556 0-6.273-1.038-8.15-3.115-1.877-2.076-2.816-5.19-2.816-9.344 0-2.588.341-5.013 1.024-7.275.682-2.261 1.72-4.238 3.115-5.929 1.393-1.693 3.15-3.044 5.27-4.055C41.18.716 43.674.14 46.548-.003" fill="#3d9fb3"/><path d="M107.982 189.78c.352.688.577 1.352.672 1.99-.672.29-1.36.498-2.063.626a12.75 12.75 0 01-2.28.19c-1.248 0-2.373-.202-3.371-.611a6.84 6.84 0 01-2.533-1.75c-.689-.761-1.216-1.685-1.585-2.773-.367-1.09-.552-2.313-.552-3.672 0-1.376.185-2.62.552-3.733.369-1.11.896-2.06 1.585-2.844a6.897 6.897 0 012.52-1.811c.992-.424 2.104-.637 3.336-.637.912 0 1.696.063 2.352.193.655.128 1.24.28 1.752.456-.033.368-.1.708-.203 1.019-.106.313-.23.645-.373.995-.24-.078-.473-.15-.697-.215a7.952 7.952 0 00-.72-.168 8.189 8.189 0 00-.851-.108 14.717 14.717 0 00-1.068-.035c-1.745 0-3.1.59-4.068 1.776-.968 1.184-1.453 2.888-1.453 5.112 0 1.135.137 2.12.41 2.952.271.832.654 1.519 1.151 2.064a4.687 4.687 0 001.788 1.224c.696.272 1.475.407 2.34.407.672 0 1.28-.056 1.824-.168a7.893 7.893 0 001.535-.48M116.24 190.692c1.103 0 1.92-.4 2.447-1.201.529-.8.793-1.911.793-3.336 0-1.423-.264-2.53-.793-3.323-.528-.793-1.344-1.19-2.448-1.19-1.103 0-1.916.397-2.435 1.19-.52.792-.78 1.9-.78 3.323 0 1.425.26 2.537.78 3.336.52.8 1.332 1.2 2.435 1.2zm0 1.895c-.96 0-1.8-.164-2.52-.492a4.992 4.992 0 01-1.8-1.355 5.647 5.647 0 01-1.069-2.041 8.932 8.932 0 01-.348-2.544c0-.911.116-1.759.348-2.543a5.626 5.626 0 011.069-2.04 5.122 5.122 0 011.8-1.37c.72-.335 1.56-.503 2.52-.503s1.8.168 2.52.504a5.12 5.12 0 011.8 1.37c.48.574.835 1.255 1.067 2.04.232.783.349 1.631.349 2.542 0 .913-.117 1.76-.349 2.544a5.644 5.644 0 01-1.068 2.04 4.99 4.99 0 01-1.8 1.356c-.72.328-1.559.492-2.52.492M125.096 179.987c.175-.031.347-.057.515-.072.168-.015.34-.023.516-.023s.34.008.492.023c.152.015.315.041.492.072.048.24.097.565.144.973.048.407.073.746.073 1.019a4.81 4.81 0 01.612-.815 4.38 4.38 0 011.956-1.26 4.38 4.38 0 011.368-.205c1.407 0 2.448.405 3.12 1.213.672.808 1.007 2.003 1.007 3.588v7.8a8.507 8.507 0 01-1.2.096 7.972 7.972 0 01-1.176-.096v-7.153c0-1.135-.176-1.97-.528-2.508-.352-.535-.912-.803-1.68-.803-.448 0-.873.079-1.273.24-.4.16-.75.407-1.055.742-.304.337-.549.773-.732 1.31-.184.536-.276 1.178-.276 1.932v6.24a8.023 8.023 0 01-1.176.096 8.52 8.52 0 01-1.2-.096v-12.313M138.75 190.068c.431.176.909.316 1.427.419a7.887 7.887 0 001.548.155c.37 0 .72-.038 1.056-.118.336-.08.628-.2.878-.36a2.04 2.04 0 00.6-.588c.15-.232.228-.493.228-.78 0-.321-.06-.584-.18-.792a1.7 1.7 0 00-.48-.53 3.358 3.358 0 00-.696-.371c-.264-.103-.55-.203-.854-.3l-.838-.312c-1.024-.383-1.77-.815-2.232-1.296-.466-.48-.698-1.127-.698-1.944 0-1.087.388-1.95 1.164-2.592.776-.639 1.918-.96 3.422-.96.624 0 1.236.06 1.836.18.6.121 1.124.26 1.57.421a5.885 5.885 0 01-.502 1.847c-.352-.127-.774-.251-1.262-.371a6.524 6.524 0 00-1.57-.181c-.594 0-1.116.104-1.572.313-.456.208-.684.575-.684 1.104 0 .272.054.504.168.694.11.194.262.358.456.493.19.137.41.253.66.348.248.095.516.193.804.29l1.056.358c.384.13.746.28 1.092.456.344.177.638.396.888.66.246.265.448.585.6.96.15.376.228.828.228 1.357 0 .592-.12 1.13-.362 1.62a3.56 3.56 0 01-1.018 1.248c-.44.344-.974.612-1.596.804a7.051 7.051 0 01-2.064.287c-.768 0-1.44-.052-2.016-.157a10.12 10.12 0 01-1.608-.418c.03-.32.098-.645.202-.973.104-.327.22-.65.35-.971M157.757 184.956c0-.448-.06-.876-.18-1.284a3.31 3.31 0 00-.526-1.07 2.628 2.628 0 00-.888-.731c-.362-.183-.79-.276-1.286-.276-.976 0-1.724.297-2.244.888-.52.593-.836 1.417-.948 2.473zm-6.094 1.776c.03 1.344.378 2.328 1.042 2.952.664.622 1.644.936 2.94.936a8.87 8.87 0 003.242-.6c.126.239.23.532.31.876.08.344.128.684.144 1.019a8.032 8.032 0 01-1.74.503c-.632.112-1.332.169-2.1.169-1.12 0-2.08-.157-2.88-.467-.8-.314-1.46-.753-1.98-1.32-.52-.568-.9-1.24-1.14-2.016-.24-.776-.36-1.628-.36-2.556 0-.913.116-1.764.348-2.556a5.744 5.744 0 011.068-2.064 5.18 5.18 0 011.812-1.393c.728-.344 1.588-.516 2.58-.516.848 0 1.592.145 2.232.433.64.286 1.176.683 1.608 1.186.434.505.76 1.105.986 1.802.222.695.336 1.452.336 2.268 0 .224-.01.46-.026.707-.016.249-.032.461-.048.637h-8.374M163.421 177.276a4.879 4.879 0 01-.06-.625 16.927 16.927 0 01-.012-.6c0-.176.004-.375.012-.6a4.21 4.21 0 01.06-.6 9.528 9.528 0 011.296-.097 9.563 9.563 0 011.272.098c.032.175.052.376.06.6.007.224.012.423.012.6 0 .176-.005.375-.012.599a4.879 4.879 0 01-.06.625c-.192.03-.404.056-.636.072a9.975 9.975 0 01-.612.023c-.192 0-.408-.008-.648-.023a8.511 8.511 0 01-.672-.072zm.528 4.583h-1.56a3 3 0 01-.072-.444 5.173 5.173 0 010-.985 3.06 3.06 0 01.072-.443h3.888V192.3a8.007 8.007 0 01-1.176.096 7.776 7.776 0 01-1.152-.096V181.86M170.093 174.706a7.983 7.983 0 011.176-.094 7.915 7.915 0 011.175.094v13.874c0 .447.041.8.12 1.056.081.256.188.45.325.588a.94.94 0 00.48.263c.184.04.379.06.587.06.145 0 .31-.008.492-.023.184-.016.34-.04.47-.072.142.56.214 1.168.214 1.824-.224.08-.496.132-.815.154-.32.026-.616.038-.888.038-.465 0-.897-.056-1.297-.168-.4-.112-.75-.296-1.056-.552-.303-.256-.543-.601-.72-1.033-.176-.431-.263-.967-.263-1.607v-14.402M190.877 182.076a5.114 5.114 0 00-1.033-.288 6.995 6.995 0 00-1.199-.096c-.656 0-1.225.119-1.704.36a3.32 3.32 0 00-1.189.983c-.31.417-.543.909-.696 1.477a7.169 7.169 0 00-.227 1.859c.015 1.52.375 2.608 1.079 3.265.704.656 1.664.984 2.88.984.416 0 .8-.021 1.153-.06.351-.04.664-.1.936-.181zm0-7.37a8.181 8.181 0 011.176-.094 7.915 7.915 0 011.175.094v17.258c-.608.175-1.287.324-2.04.444-.75.119-1.592.179-2.52.179a9.12 9.12 0 01-2.459-.324 5.198 5.198 0 01-2.029-1.068c-.575-.496-1.03-1.135-1.367-1.92-.337-.783-.505-1.75-.505-2.904 0-.991.148-1.896.444-2.712.297-.815.716-1.517 1.26-2.099a5.63 5.63 0 011.956-1.357c.76-.319 1.604-.479 2.532-.479.416 0 .836.03 1.261.094a8.41 8.41 0 011.116.242v-5.354M197.74 175.042c.193-.03.388-.055.59-.071a7.756 7.756 0 011.786.071l-1.488 5.354a3.31 3.31 0 01-.612.083c-.2.01-.388.012-.564.012-.192 0-.38-.003-.563-.012a2.817 2.817 0 01-.564-.083l1.415-5.354M209.74 186.516c-.24-.033-.544-.064-.912-.098-.37-.03-.68-.047-.937-.047-.992 0-1.747.185-2.267.552-.52.369-.78.929-.78 1.68 0 .48.088.857.264 1.129.175.272.395.479.66.624.264.144.556.23.876.264.32.032.624.048.912.048.368 0 .748-.021 1.14-.06.392-.04.74-.1 1.044-.181zm0-2.328c0-.944-.24-1.601-.72-1.968-.48-.368-1.176-.552-2.088-.552-.56 0-1.085.044-1.572.132-.488.088-.965.204-1.428.347-.304-.527-.456-1.16-.456-1.896.543-.175 1.143-.311 1.8-.407a13.106 13.106 0 011.895-.145c1.601 0 2.817.365 3.649 1.093.832.728 1.248 1.892 1.248 3.492v7.703c-.561.129-1.24.261-2.04.397-.801.136-1.616.203-2.448.203-.784 0-1.492-.071-2.124-.216-.632-.143-1.17-.375-1.608-.695a3.216 3.216 0 01-1.02-1.224c-.24-.496-.36-1.096-.36-1.801 0-.687.14-1.292.42-1.811.279-.52.66-.952 1.14-1.298a5.065 5.065 0 011.656-.766 7.55 7.55 0 011.968-.252c.512 0 .932.01 1.26.036.327.023.603.052.828.082v-.454M215.644 179.987c.176-.031.344-.057.504-.072a5.52 5.52 0 011.03 0c.177.015.337.041.482.072.048.24.096.555.143.948.048.393.073.725.073.995a4.973 4.973 0 011.332-1.414c.552-.4 1.259-.601 2.124-.601.127 0 .26.003.395.012.136.01.253.021.348.037.033.144.056.295.073.454a5.127 5.127 0 01-.013 1.106c-.024.208-.052.406-.083.6a1.579 1.579 0 00-.396-.048h-.324c-.433 0-.844.06-1.236.179-.393.12-.745.332-1.056.637-.313.303-.561.72-.745 1.247-.184.529-.276 1.21-.276 2.04v6.121a8.04 8.04 0 01-1.176.096c-.176 0-.372-.01-.587-.025a6.877 6.877 0 01-.612-.07v-12.314M232.419 190.164c.129.224.241.504.336.84.096.336.152.68.168 1.03-.944.37-2.024.553-3.24.553-2.048 0-3.592-.579-4.631-1.739-1.041-1.16-1.56-2.724-1.56-4.693 0-.911.127-1.759.384-2.543a5.743 5.743 0 011.139-2.04 5.38 5.38 0 011.884-1.37c.752-.335 1.624-.503 2.616-.503a11.8 11.8 0 011.776.12c.512.081 1 .208 1.464.384a4.8 4.8 0 01-.108.948 4.086 4.086 0 01-.3.948c-.784-.271-1.68-.407-2.687-.407-1.233 0-2.153.407-2.761 1.223-.608.817-.911 1.896-.911 3.24 0 1.537.344 2.66 1.03 3.372.689.713 1.633 1.068 2.833 1.068.481 0 .925-.031 1.332-.095a6.04 6.04 0 001.236-.336M235.659 174.706a7.943 7.943 0 011.175-.094c.175 0 .377.008.6.024.225.015.425.04.6.07v7.153c.143-.223.325-.463.54-.72.217-.255.48-.492.793-.709.31-.215.672-.391 1.078-.526.41-.136.862-.205 1.358-.205 1.408 0 2.452.405 3.132 1.213.678.808 1.018 2.003 1.018 3.588v7.8a8.04 8.04 0 01-1.176.096 8.003 8.003 0 01-1.174-.096v-7.153c0-1.135-.188-1.97-.564-2.508-.376-.535-.948-.803-1.716-.803-.434 0-.848.076-1.248.228a2.759 2.759 0 00-1.056.72c-.304.328-.544.755-.72 1.284-.178.527-.264 1.168-.264 1.919v6.313a8.542 8.542 0 01-1.201.096 8.246 8.246 0 01-1.175-.096v-17.594M249.745 177.276a4.879 4.879 0 01-.06-.625 16.927 16.927 0 01-.012-.6c0-.176.004-.375.012-.6a4.21 4.21 0 01.06-.6 9.528 9.528 0 011.296-.097 9.6 9.6 0 01.626.026c.238.016.454.038.646.072.032.175.052.376.06.6.008.224.014.423.014.6 0 .176-.006.375-.014.599a4.879 4.879 0 01-.06.625c-.192.03-.404.056-.636.072a9.975 9.975 0 01-.612.023c-.192 0-.408-.008-.648-.023a8.511 8.511 0 01-.672-.072zm.53 4.583h-1.562a3 3 0 01-.072-.444 5.173 5.173 0 010-.985 3.06 3.06 0 01.072-.443h3.888V192.3a8.007 8.007 0 01-1.176.096 7.776 7.776 0 01-1.15-.096V181.86M256.921 181.884h-1.872l-.097-.337 4.13-4.607h.191v3.047h3.119c.064.272.097.577.097.913a4.975 4.975 0 01-.097.984h-3.119v5.616c0 .672.027 1.208.084 1.608.056.4.151.707.288.922a.967.967 0 00.552.434c.232.07.524.108.876.108.271 0 .528-.02.767-.06.241-.041.457-.085.65-.133.111.32.178.648.203.984.024.336.035.633.035.888-.32.08-.656.14-1.007.18-.352.04-.728.06-1.128.06-1.152 0-2.052-.279-2.701-.84-.647-.56-.97-1.487-.97-2.784v-6.983M272.928 184.956c0-.448-.06-.876-.18-1.284a3.31 3.31 0 00-.527-1.07 2.628 2.628 0 00-.888-.731c-.361-.183-.789-.276-1.285-.276-.976 0-1.724.297-2.244.888-.52.593-.836 1.417-.948 2.473zm-6.095 1.776c.031 1.344.379 2.328 1.043 2.952.664.622 1.644.936 2.94.936a8.858 8.858 0 003.24-.6c.128.239.232.532.312.876.08.344.128.684.144 1.019a8.032 8.032 0 01-1.74.503c-.632.112-1.332.169-2.1.169-1.12 0-2.08-.157-2.88-.467-.8-.314-1.46-.753-1.98-1.32-.52-.568-.9-1.24-1.14-2.016-.24-.776-.36-1.628-.36-2.556 0-.913.116-1.764.348-2.556.23-.793.588-1.48 1.068-2.064a5.18 5.18 0 011.812-1.393c.728-.344 1.588-.516 2.58-.516.848 0 1.592.145 2.232.433.64.286 1.176.683 1.608 1.186.432.505.76 1.105.984 1.802.223.695.336 1.452.336 2.268 0 .224-.008.46-.024.707-.016.249-.033.461-.048.637h-8.375M286.608 190.164c.128.224.24.504.336.84.096.336.152.68.167 1.03-.944.37-2.023.553-3.239.553-2.048 0-3.593-.579-4.632-1.739-1.04-1.16-1.56-2.724-1.56-4.693 0-.911.128-1.759.384-2.543a5.767 5.767 0 011.14-2.04 5.367 5.367 0 011.884-1.37c.75-.335 1.624-.503 2.616-.503a11.8 11.8 0 011.776.12c.512.081 1 .208 1.464.384 0 .272-.036.589-.11.948-.07.361-.17.677-.298.948-.784-.271-1.68-.407-2.688-.407-1.233 0-2.152.407-2.76 1.223-.608.817-.912 1.896-.912 3.24 0 1.537.344 2.66 1.032 3.372.687.713 1.63 1.068 2.832 1.068.48 0 .924-.031 1.332-.095.407-.064.82-.176 1.236-.336M290.328 181.884h-1.873l-.096-.337 4.129-4.607h.19v3.047h3.12a4 4 0 01.097.913c0 .176-.007.344-.023.504-.017.16-.04.32-.073.48h-3.12v5.616c0 .672.028 1.208.085 1.608.056.4.15.707.288.922a.967.967 0 00.552.434c.23.07.523.108.876.108.27 0 .527-.02.767-.06a8.83 8.83 0 00.648-.133c.112.32.18.648.205.984.023.336.035.633.035.888-.32.08-.656.14-1.008.18-.351.04-.728.06-1.127.06-1.153 0-2.053-.279-2.701-.84-.647-.56-.971-1.487-.971-2.784v-6.983M298.319 179.987c.176-.031.376-.057.6-.072.224-.015.414-.023.576-.023.174 0 .376.008.6.023.224.015.422.041.6.072v6.745c0 .768.072 1.404.216 1.907.144.503.36.9.646 1.189.288.288.642.487 1.056.599.418.112.896.168 1.442.168.816 0 1.51-.087 2.088-.263v-10.345c.176-.031.37-.057.586-.072a8.92 8.92 0 01.59-.023c.176 0 .372.008.588.023.214.015.412.041.588.072v11.928a21.15 21.15 0 01-2.004.456 13.09 13.09 0 01-2.412.216c-.786 0-1.524-.067-2.22-.203a4.245 4.245 0 01-1.836-.828c-.528-.417-.946-1-1.248-1.753-.304-.751-.456-1.743-.456-2.975v-6.841M312.239 179.987c.176-.031.344-.057.504-.072a5.52 5.52 0 011.032 0c.174.015.336.041.48.072.048.24.096.555.142.948.048.393.074.725.074.995a4.973 4.973 0 011.332-1.414c.552-.4 1.258-.601 2.124-.601.128 0 .26.003.396.012.134.01.252.021.346.037.034.144.056.295.074.454a5.118 5.118 0 01-.014 1.106c-.022.208-.052.406-.082.6a1.571 1.571 0 00-.396-.048h-.324c-.432 0-.844.06-1.236.179-.394.12-.746.332-1.056.637-.312.303-.562.72-.746 1.247-.182.529-.276 1.21-.276 2.04v6.121a8.037 8.037 0 01-1.175.096c-.175 0-.373-.01-.587-.025a6.935 6.935 0 01-.612-.07v-12.314M328.679 184.956c0-.448-.06-.876-.179-1.284a3.285 3.285 0 00-.528-1.07 2.615 2.615 0 00-.888-.731c-.361-.183-.79-.276-1.285-.276-.975 0-1.724.297-2.243.888-.52.593-.836 1.417-.948 2.473zm-6.095 1.776c.03 1.344.379 2.328 1.043 2.952.664.622 1.645.936 2.94.936a8.865 8.865 0 003.241-.6c.128.239.232.532.31.876.082.344.129.684.146 1.019a8.044 8.044 0 01-1.741.503 12.07 12.07 0 01-2.099.169c-1.121 0-2.081-.157-2.88-.467-.801-.314-1.461-.753-1.981-1.32a5.246 5.246 0 01-1.139-2.016c-.241-.776-.361-1.628-.361-2.556 0-.913.116-1.764.348-2.556.232-.793.589-1.48 1.069-2.064a5.163 5.163 0 011.81-1.393c.729-.344 1.59-.516 2.582-.516.848 0 1.59.145 2.232.433a4.541 4.541 0 011.608 1.186c.432.505.759 1.105.984 1.802.223.695.336 1.452.336 2.268 0 .224-.01.46-.025.707-.015.249-.032.461-.048.637h-8.375M334.007 189.659c.193-.031.388-.06.589-.083.199-.024.388-.037.564-.037.367 0 .776.04 1.224.12l-1.512 5.353c-.193.03-.388.052-.59.06a14.518 14.518 0 01-1.138 0 4.355 4.355 0 01-.552-.06l1.415-5.353M352.727 182.076a5.101 5.101 0 00-1.032-.288 6.995 6.995 0 00-1.199-.096c-.657 0-1.225.119-1.705.36-.48.24-.876.568-1.188.983-.312.417-.544.909-.696 1.477a7.167 7.167 0 00-.228 1.859c.016 1.52.376 2.608 1.08 3.265.704.656 1.664.984 2.88.984.416 0 .8-.021 1.152-.06.352-.04.664-.1.936-.181zm0-7.37a8.178 8.178 0 011.176-.094 7.92 7.92 0 011.176.094v17.258c-.608.175-1.288.324-2.04.444-.752.119-1.594.179-2.52.179a9.13 9.13 0 01-2.46-.324 5.193 5.193 0 01-2.028-1.068c-.576-.496-1.031-1.135-1.367-1.92-.337-.783-.505-1.75-.505-2.904 0-.991.148-1.896.444-2.712a6.071 6.071 0 011.26-2.099 5.618 5.618 0 011.956-1.357c.76-.319 1.604-.479 2.532-.479a8.5 8.5 0 011.26.094c.424.066.796.146 1.116.242v-5.354M359.59 175.042a7.8 7.8 0 01.589-.071 7.791 7.791 0 011.788.071l-1.488 5.354a3.326 3.326 0 01-.612.083c-.2.01-.388.012-.564.012-.192 0-.38-.003-.564-.012a2.845 2.845 0 01-.564-.083l1.416-5.354M364.943 179.987c.174-.031.376-.057.6-.072.224-.015.414-.023.574-.023.176 0 .378.008.602.023.224.015.422.041.6.072v6.745c0 .768.07 1.404.216 1.907.142.503.358.9.646 1.189.288.288.642.487 1.056.599a5.57 5.57 0 001.44.168c.818 0 1.512-.087 2.09-.263v-10.345c.176-.031.37-.057.586-.072a8.92 8.92 0 01.59-.023c.174 0 .372.008.588.023.214.015.412.041.586.072v11.928a21.15 21.15 0 01-2.004.456c-.776.145-1.58.216-2.41.216-.786 0-1.526-.067-2.22-.203a4.23 4.23 0 01-1.836-.828c-.53-.417-.946-1-1.25-1.753-.302-.751-.454-1.743-.454-2.975v-6.841M378.863 179.987c.176-.031.344-.057.504-.072a5.52 5.52 0 011.03 0c.176.015.336.041.482.072.048.24.096.555.142.948.048.393.074.725.074.995a4.973 4.973 0 011.332-1.414c.552-.4 1.258-.601 2.124-.601.126 0 .26.003.394.012.136.01.254.021.348.037.034.144.056.295.074.454a5.127 5.127 0 01-.014 1.106c-.022.208-.052.406-.082.6a1.579 1.579 0 00-.396-.048h-.324c-.434 0-.844.06-1.236.179-.394.12-.746.332-1.056.637-.314.303-.562.72-.746 1.247-.182.529-.276 1.21-.276 2.04v6.121a8.04 8.04 0 01-1.176.096c-.174 0-.372-.01-.586-.025a6.935 6.935 0 01-.612-.07v-12.314M390.143 190.306c.288.098.596.165.924.206.326.04.666.06 1.02.06.59 0 1.138-.093 1.642-.276.506-.184.94-.464 1.31-.84.368-.376.66-.856.876-1.44.216-.586.324-1.276.324-2.076 0-1.328-.234-2.36-.696-3.096-.464-.736-1.232-1.104-2.304-1.104-.368 0-.734.06-1.092.178-.362.12-.694.314-.996.578-.306.263-.548.616-.732 1.056-.186.44-.276.972-.276 1.595zm-2.376-15.6a7.949 7.949 0 011.176-.094c.174 0 .376.008.6.024.224.015.424.04.6.07v6.769c.288-.479.736-.895 1.344-1.247.608-.352 1.344-.53 2.208-.53a5.6 5.6 0 012.04.362 4.08 4.08 0 011.606 1.116c.448.504.798 1.142 1.046 1.919.248.776.372 1.693.372 2.749 0 2.112-.596 3.764-1.788 4.956-1.194 1.192-2.91 1.787-5.148 1.787-.706 0-1.43-.067-2.172-.203a13.106 13.106 0 01-1.884-.47v-17.208M408.455 186.516c-.24-.033-.544-.064-.912-.098-.37-.03-.68-.047-.936-.047-.994 0-1.748.185-2.268.552-.52.369-.78.929-.78 1.68 0 .48.088.857.264 1.129.176.272.396.479.66.624.264.144.556.23.876.264.32.032.624.048.912.048.368 0 .748-.021 1.14-.06.392-.04.74-.1 1.044-.181zm0-2.328c0-.944-.24-1.601-.72-1.968-.48-.368-1.176-.552-2.088-.552-.56 0-1.086.044-1.572.132-.488.088-.964.204-1.428.347-.304-.527-.456-1.16-.456-1.896.542-.175 1.142-.311 1.8-.407a13.11 13.11 0 011.896-.145c1.6 0 2.816.365 3.648 1.093.832.728 1.248 1.892 1.248 3.492v7.703c-.56.129-1.24.261-2.04.397s-1.616.203-2.448.203c-.784 0-1.492-.071-2.124-.216-.632-.143-1.17-.375-1.608-.695a3.216 3.216 0 01-1.02-1.224c-.24-.496-.36-1.096-.36-1.801 0-.687.14-1.292.42-1.811.28-.52.66-.952 1.14-1.298a5.09 5.09 0 011.656-.766 7.55 7.55 0 011.968-.252c.512 0 .932.01 1.26.036.326.023.602.052.828.082v-.454M414.359 179.987c.176-.031.348-.057.516-.072.168-.015.34-.023.514-.023.176 0 .34.008.494.023.152.015.314.041.492.072.048.24.096.565.142.973.048.407.074.746.074 1.019.158-.273.362-.543.612-.815.246-.272.53-.517.852-.734.32-.215.686-.391 1.104-.526a4.375 4.375 0 011.368-.205c1.408 0 2.448.405 3.12 1.213.672.808 1.008 2.003 1.008 3.588v7.8a8.542 8.542 0 01-1.201.096 7.972 7.972 0 01-1.177-.096v-7.153c0-1.135-.174-1.97-.526-2.508-.354-.535-.914-.803-1.682-.803-.448 0-.872.079-1.272.24-.4.16-.75.407-1.056.742-.302.337-.548.773-.732 1.31-.182.536-.276 1.178-.276 1.932v6.24a8.04 8.04 0 01-1.176.096 8.54 8.54 0 01-1.198-.096v-12.313M428.421 177.276a4.879 4.879 0 01-.06-.625 16.927 16.927 0 01-.012-.6c0-.176.004-.375.012-.6a4.21 4.21 0 01.06-.6 9.528 9.528 0 011.296-.097 9.563 9.563 0 011.272.098c.032.175.052.376.06.6.007.224.012.423.012.6 0 .176-.005.375-.012.599a4.879 4.879 0 01-.06.625c-.192.03-.404.056-.636.072a9.975 9.975 0 01-.612.023c-.192 0-.408-.008-.648-.023a8.511 8.511 0 01-.672-.072zm.528 4.583h-1.56a3 3 0 01-.072-.444 5.173 5.173 0 010-.985 3.06 3.06 0 01.072-.443h3.888V192.3a8.007 8.007 0 01-1.176.096 7.776 7.776 0 01-1.152-.096V181.86M434.925 190.068c.431.176.908.316 1.427.419a7.887 7.887 0 001.548.155c.37 0 .72-.038 1.056-.118.336-.08.628-.2.877-.36.247-.16.447-.358.6-.588.151-.232.228-.493.228-.78 0-.321-.06-.584-.18-.792a1.687 1.687 0 00-.481-.53 3.313 3.313 0 00-.695-.371c-.264-.103-.549-.203-.853-.3l-.84-.312c-1.023-.383-1.768-.815-2.23-1.296-.466-.48-.698-1.127-.698-1.944 0-1.087.388-1.95 1.164-2.592.776-.639 1.917-.96 3.421-.96.623 0 1.235.06 1.836.18.6.121 1.123.26 1.571.421-.032.32-.092.64-.179.959-.089.32-.197.616-.325.888-.35-.127-.772-.251-1.26-.371a6.527 6.527 0 00-1.572-.181c-.592 0-1.116.104-1.57.313-.457.208-.685.575-.685 1.104 0 .272.055.504.168.694.111.194.263.358.456.493.191.137.411.253.66.348.247.095.516.193.803.29l1.056.358c.384.13.748.28 1.093.456.344.177.639.396.888.66.247.265.448.585.6.96.151.376.228.828.228 1.357 0 .592-.12 1.13-.361 1.62a3.56 3.56 0 01-1.019 1.248c-.44.344-.973.612-1.597.804a7.036 7.036 0 01-2.063.287c-.769 0-1.441-.052-2.016-.157a10.12 10.12 0 01-1.608-.418c.031-.32.099-.645.203-.973.104-.327.22-.65.35-.971M446.06 179.987c.176-.031.348-.057.516-.072a5.98 5.98 0 01.516-.023c.176 0 .34.008.492.023.152.015.315.041.492.072.048.24.096.555.144.948.048.393.072.725.072.995.144-.288.324-.563.54-.827a3.848 3.848 0 011.788-1.211 3.97 3.97 0 011.272-.193c.96 0 1.7.197 2.219.59.521.39.917.939 1.189 1.641.16-.27.356-.542.588-.814.23-.272.492-.512.78-.72.288-.208.615-.376.984-.504.368-.13.784-.193 1.248-.193 1.424 0 2.46.4 3.108 1.201.648.799.972 1.984.972 3.552v7.848a8.507 8.507 0 01-1.2.096 8.007 8.007 0 01-1.176-.096v-7.153c0-1.105-.168-1.932-.504-2.483-.336-.552-.888-.828-1.656-.828-.816 0-1.476.296-1.98.888-.504.59-.756 1.464-.756 2.616v6.96a8.007 8.007 0 01-1.176.096 8.007 8.007 0 01-1.176-.096v-7.321c0-1.071-.16-1.875-.48-2.411-.32-.538-.832-.805-1.536-.805-.4 0-.777.089-1.128.264-.352.176-.66.44-.924.791-.264.354-.472.798-.624 1.333-.152.537-.228 1.155-.228 1.861v6.288a8.007 8.007 0 01-1.176.096 8.507 8.507 0 01-1.2-.096v-12.313M474.428 184.956c0-.448-.06-.876-.18-1.284a3.31 3.31 0 00-.527-1.07 2.628 2.628 0 00-.888-.731c-.361-.183-.789-.276-1.285-.276-.976 0-1.724.297-2.244.888-.52.593-.836 1.417-.948 2.473zm-6.095 1.776c.031 1.344.379 2.328 1.043 2.952.664.622 1.644.936 2.94.936a8.858 8.858 0 003.24-.6c.128.239.232.532.312.876.08.344.128.684.144 1.019a8.032 8.032 0 01-1.74.503c-.632.112-1.332.169-2.1.169-1.12 0-2.08-.157-2.88-.467-.8-.314-1.46-.753-1.98-1.32-.52-.568-.9-1.24-1.14-2.016-.24-.776-.36-1.628-.36-2.556 0-.913.116-1.764.348-2.556.23-.793.588-1.48 1.068-2.064a5.18 5.18 0 011.812-1.393c.728-.344 1.588-.516 2.58-.516.848 0 1.592.145 2.232.433.64.286 1.176.683 1.608 1.186.432.505.76 1.105.984 1.802.223.695.336 1.452.336 2.268 0 .224-.008.46-.024.707-.016.249-.033.461-.048.637h-8.375M104.646 213.755c0-.449-.06-.876-.18-1.284a3.282 3.282 0 00-.526-1.068 2.602 2.602 0 00-.888-.732c-.361-.184-.79-.277-1.286-.277-.975 0-1.724.298-2.243.888-.52.593-.836 1.417-.948 2.473zm-6.094 1.775c.03 1.345.378 2.329 1.042 2.952.664.624 1.645.936 2.94.936a8.83 8.83 0 003.241-.6c.128.24.232.534.311.876.081.345.128.685.145 1.02a8.039 8.039 0 01-1.74.504c-.632.112-1.333.169-2.1.169-1.12 0-2.08-.157-2.88-.469-.8-.312-1.461-.751-1.98-1.32-.52-.568-.9-1.24-1.14-2.016-.24-.776-.36-1.626-.36-2.555 0-.912.115-1.764.347-2.556a5.73 5.73 0 011.07-2.063 5.136 5.136 0 011.81-1.393c.728-.344 1.589-.516 2.581-.516.848 0 1.591.143 2.232.431.64.288 1.176.685 1.608 1.188.432.505.759 1.105.985 1.8a7.42 7.42 0 01.335 2.27c0 .224-.009.459-.024.706-.016.248-.033.462-.048.636h-8.375M110.575 210.684h-1.872l-.097-.337 4.129-4.607h.192v3.047h3.12c.063.272.096.576.096.912 0 .176-.008.343-.024.504-.017.16-.04.321-.073.481h-3.12v5.616c0 .67.028 1.208.085 1.608.056.398.151.707.288.922a.97.97 0 00.552.433c.232.072.524.108.876.108.27 0 .528-.02.767-.06.24-.04.457-.084.649-.132.112.32.18.648.204.984.023.336.035.633.035.888-.32.08-.656.14-1.007.18-.352.04-.729.06-1.128.06-1.153 0-2.052-.279-2.7-.84-.648-.56-.972-1.487-.972-2.784v-6.983M132.294 210.875a5.243 5.243 0 00-1.033-.288 7.17 7.17 0 00-1.199-.096c-.656 0-1.226.12-1.705.36-.48.24-.876.567-1.188.984-.312.416-.544.909-.696 1.476a7.153 7.153 0 00-.228 1.86c.016 1.52.375 2.608 1.08 3.264.704.656 1.664.983 2.88.983.415 0 .8-.02 1.152-.06.352-.04.664-.1.937-.18zm0-7.369c.175-.031.375-.055.599-.071a7.828 7.828 0 011.163 0c.217.016.413.04.59.071v17.257c-.609.176-1.289.324-2.041.443-.751.12-1.592.18-2.52.18a9.126 9.126 0 01-2.46-.323 5.206 5.206 0 01-2.028-1.069c-.576-.495-1.031-1.135-1.367-1.918-.337-.784-.505-1.753-.505-2.905 0-.991.148-1.896.444-2.712a6.087 6.087 0 011.26-2.1 5.621 5.621 0 011.956-1.356c.76-.319 1.604-.479 2.532-.479.416 0 .836.03 1.26.094.424.066.796.145 1.117.24v-5.352M146.333 213.755c0-.449-.06-.876-.18-1.284a3.278 3.278 0 00-.528-1.068 2.596 2.596 0 00-.888-.732c-.36-.184-.789-.277-1.285-.277-.975 0-1.724.298-2.243.888-.52.593-.836 1.417-.948 2.473zm-6.096 1.775c.032 1.345.379 2.329 1.043 2.952.664.624 1.645.936 2.941.936 1.136 0 2.216-.2 3.24-.6.128.24.232.534.312.876.08.345.127.685.144 1.02a8.023 8.023 0 01-1.741.504c-.63.112-1.332.169-2.099.169-1.121 0-2.08-.157-2.88-.469-.801-.312-1.461-.751-1.98-1.32-.52-.568-.9-1.24-1.14-2.016-.241-.776-.36-1.626-.36-2.555 0-.912.116-1.764.347-2.556.232-.792.59-1.48 1.07-2.063a5.139 5.139 0 011.81-1.393c.728-.344 1.59-.516 2.581-.516.848 0 1.591.143 2.232.431a4.552 4.552 0 011.608 1.188c.432.505.759 1.105.984 1.8.223.697.336 1.453.336 2.27 0 .224-.009.459-.024.706a23.7 23.7 0 01-.049.636h-8.375M157.444 203.506c.176-.031.372-.055.588-.071a7.887 7.887 0 011.176 0c.216.016.412.04.588.071v13.873c0 .448.04.8.12 1.056.081.257.188.452.324.59a.95.95 0 00.481.262c.183.04.379.06.587.06.144 0 .308-.008.492-.024a2.96 2.96 0 00.47-.072c.142.56.214 1.167.214 1.825-.224.079-.496.13-.816.154-.32.025-.615.037-.888.037-.464 0-.896-.056-1.296-.168a2.778 2.778 0 01-1.056-.552c-.304-.255-.543-.6-.72-1.032-.176-.433-.264-.968-.264-1.607v-14.402M165.34 203.843a6.92 6.92 0 011.153-.095c.191 0 .396.007.612.023.216.016.419.04.612.072l-1.489 5.351a3.2 3.2 0 01-.612.085c-.2.01-.388.012-.563.012-.193 0-.381-.003-.564-.012a2.723 2.723 0 01-.564-.085l1.415-5.351M178.708 213.755c0-.449-.06-.876-.18-1.284a3.278 3.278 0 00-.528-1.068 2.584 2.584 0 00-.888-.732c-.36-.184-.788-.277-1.284-.277-.976 0-1.724.298-2.244.888-.52.593-.836 1.417-.948 2.473zm-6.096 1.775c.032 1.345.38 2.329 1.044 2.952.664.624 1.644.936 2.94.936 1.136 0 2.216-.2 3.24-.6.128.24.232.534.312.876a5.7 5.7 0 01.144 1.02 8.033 8.033 0 01-1.74.504c-.632.112-1.332.169-2.1.169-1.12 0-2.08-.157-2.88-.469-.8-.312-1.461-.751-1.98-1.32-.52-.568-.9-1.24-1.14-2.016-.24-.776-.36-1.626-.36-2.555 0-.912.116-1.764.348-2.556.23-.792.588-1.48 1.068-2.063a5.144 5.144 0 011.812-1.393c.728-.344 1.588-.516 2.58-.516.848 0 1.592.143 2.232.431a4.54 4.54 0 011.608 1.188 5.16 5.16 0 01.984 1.8c.223.697.336 1.453.336 2.27 0 .224-.008.459-.024.706-.016.248-.033.462-.048.636h-8.376M184.18 208.787a5.397 5.397 0 012.016 0c.048.24.096.565.143.972.049.408.073.747.073 1.02.159-.273.364-.543.612-.815.248-.272.532-.517.852-.734a4.4 4.4 0 012.472-.731c1.408 0 2.448.405 3.12 1.212.672.809 1.008 2.004 1.008 3.59v7.798a5.585 5.585 0 01-.6.072 8.455 8.455 0 01-.6.023 7.94 7.94 0 01-.588-.023 5.593 5.593 0 01-.588-.072v-7.152c0-1.136-.176-1.972-.528-2.508-.352-.535-.912-.803-1.681-.803-.447 0-.872.079-1.272.239a2.85 2.85 0 00-1.056.743c-.303.337-.548.773-.731 1.309-.184.537-.276 1.18-.276 1.932v6.24a5.593 5.593 0 01-.588.072 7.94 7.94 0 01-.588.023 8.46 8.46 0 01-.601-.023 5.6 5.6 0 01-.599-.072v-12.312M196.299 208.787a9.617 9.617 0 012.03-.072c.246.015.458.04.634.072l3.361 10.152 3.384-10.152c.176-.032.375-.057.599-.072a9 9 0 011.249 0c.223.015.447.04.67.072l-4.798 12.312a8.237 8.237 0 01-1.201.095 6.992 6.992 0 01-1.152-.095l-4.776-12.312M210.747 206.076a4.887 4.887 0 01-.06-.625 16.975 16.975 0 01-.012-.6c0-.176.004-.376.012-.6.008-.224.028-.424.06-.6.208-.033.432-.056.672-.071.24-.016.448-.025.624-.025a9.528 9.528 0 011.272.096c.032.176.052.376.06.6.008.224.013.424.013.6s-.005.376-.013.6a4.887 4.887 0 01-.06.625 8.938 8.938 0 01-1.248.094 9.742 9.742 0 01-1.32-.094zm.529 4.583h-1.561a3.037 3.037 0 01-.072-.444 5.199 5.199 0 010-.985c.016-.167.04-.315.072-.443h3.888v12.312a5.593 5.593 0 01-.588.072 7.94 7.94 0 01-.588.023 7.682 7.682 0 01-1.151-.095v-10.44M217.467 208.787c.176-.032.344-.057.504-.072a5.725 5.725 0 011.03 0c.176.015.336.04.482.072.048.24.096.556.142.948.048.393.074.725.074.995a4.99 4.99 0 011.332-1.415c.552-.4 1.258-.6 2.124-.6.126 0 .26.003.396.012.134.01.252.021.346.036.034.145.056.296.074.455a5.078 5.078 0 01-.014 1.105c-.022.207-.052.407-.082.6a1.654 1.654 0 00-.396-.048h-.324c-.432 0-.844.06-1.236.18-.394.12-.746.332-1.056.637-.312.302-.562.72-.746 1.247-.182.529-.276 1.208-.276 2.04v6.12c-.174.031-.37.056-.586.072a7.97 7.97 0 01-.588.023 7.913 7.913 0 01-1.2-.095v-12.312M231.025 219.49c1.104 0 1.92-.4 2.448-1.2.528-.8.794-1.911.794-3.335 0-1.425-.266-2.532-.794-3.323-.528-.793-1.344-1.19-2.448-1.19-1.102 0-1.914.397-2.434 1.19-.522.79-.78 1.898-.78 3.323 0 1.424.258 2.536.78 3.336.52.8 1.332 1.2 2.434 1.2zm0 1.897c-.96 0-1.8-.164-2.52-.493a4.973 4.973 0 01-1.798-1.355 5.622 5.622 0 01-1.07-2.04 8.927 8.927 0 01-.348-2.544c0-.913.116-1.76.348-2.543a5.633 5.633 0 011.07-2.041 5.128 5.128 0 011.798-1.368c.72-.336 1.56-.504 2.52-.504.962 0 1.802.168 2.522.504.72.336 1.32.793 1.798 1.368a5.63 5.63 0 011.068 2.041c.232.782.35 1.63.35 2.543 0 .912-.118 1.76-.35 2.544a5.62 5.62 0 01-1.068 2.04 4.973 4.973 0 01-1.798 1.355c-.72.329-1.56.493-2.522.493M239.883 208.787a5.397 5.397 0 012.015 0c.047.24.097.565.143.972.048.408.072.747.072 1.02a4.927 4.927 0 011.464-1.549 4.423 4.423 0 012.473-.732c1.407 0 2.449.406 3.12 1.213.671.809 1.007 2.004 1.007 3.59v7.798a5.585 5.585 0 01-.6.072 8.425 8.425 0 01-.6.023 7.97 7.97 0 01-.588-.023 5.593 5.593 0 01-.588-.072v-7.152c0-1.136-.176-1.972-.526-2.508-.354-.535-.914-.803-1.682-.803-.448 0-.872.079-1.272.239-.4.16-.752.407-1.056.743-.304.337-.548.773-.732 1.309-.184.537-.276 1.18-.276 1.932v6.24a5.55 5.55 0 01-.588.072 7.94 7.94 0 01-.588.023c-.176 0-.376-.007-.6-.023a5.516 5.516 0 01-.598-.072v-12.312M253.753 208.787a5.388 5.388 0 012.016 0c.048.24.096.565.143.972.048.408.073.747.073 1.02.159-.273.363-.543.612-.815.247-.272.531-.517.851-.734a4.408 4.408 0 012.473-.732c1.408 0 2.448.406 3.12 1.213.672.809 1.008 2.004 1.008 3.59v7.798a5.613 5.613 0 01-.601.072 8.425 8.425 0 01-.6.023c-.176 0-.37-.007-.587-.023a5.621 5.621 0 01-.589-.072v-7.152c0-1.136-.175-1.972-.527-2.508-.353-.535-.913-.803-1.681-.803-.448 0-.872.079-1.272.239-.4.16-.75.407-1.056.743-.303.337-.548.773-.732 1.309-.183.537-.276 1.18-.276 1.932v6.24c-.176.031-.37.056-.587.072a7.975 7.975 0 01-.589.023c-.175 0-.376-.007-.6-.023a5.557 5.557 0 01-.599-.072v-12.312M275.496 213.755c0-.449-.06-.876-.18-1.284a3.278 3.278 0 00-.528-1.068 2.584 2.584 0 00-.888-.732c-.36-.184-.79-.277-1.285-.277-.975 0-1.724.298-2.243.888-.52.593-.836 1.417-.948 2.473zm-6.096 1.775c.032 1.345.379 2.329 1.044 2.952.664.624 1.644.936 2.94.936 1.136 0 2.216-.2 3.24-.6.128.24.232.534.312.876.08.345.127.685.144 1.02a8.023 8.023 0 01-1.741.504c-.631.112-1.332.169-2.099.169-1.121 0-2.08-.157-2.88-.469-.801-.312-1.461-.751-1.98-1.32-.52-.568-.9-1.24-1.14-2.016-.24-.776-.36-1.626-.36-2.555 0-.912.116-1.764.347-2.556.232-.792.589-1.48 1.069-2.063a5.144 5.144 0 011.812-1.393c.727-.344 1.588-.516 2.58-.516.848 0 1.59.143 2.232.431a4.552 4.552 0 011.608 1.188c.432.505.759 1.105.984 1.8.223.697.336 1.453.336 2.27 0 .224-.01.459-.024.706-.016.248-.033.462-.048.636H269.4M280.968 208.787a5.397 5.397 0 012.016 0c.048.24.096.556.143.948.048.393.073.725.073.995a4.44 4.44 0 01.539-.827c.216-.264.473-.5.768-.709a3.965 3.965 0 012.293-.696c.96 0 1.7.196 2.219.589.521.392.917.94 1.189 1.643.16-.27.355-.542.587-.815.232-.273.492-.511.781-.72.288-.208.615-.377.983-.503.369-.13.784-.193 1.249-.193 1.423 0 2.46.4 3.108 1.2.647.8.972 1.985.972 3.552v7.848a5.613 5.613 0 01-.601.072 8.39 8.39 0 01-.599.023c-.177 0-.372-.007-.588-.023a5.621 5.621 0 01-.59-.072v-7.152c0-1.104-.167-1.932-.503-2.483-.336-.552-.888-.828-1.656-.828-.815 0-1.475.294-1.979.888-.504.59-.757 1.463-.757 2.615v6.96c-.175.031-.371.056-.587.072a7.97 7.97 0 01-.588.023c-.176 0-.373-.007-.59-.023a5.61 5.61 0 01-.586-.072v-7.32c0-1.073-.16-1.875-.481-2.412-.32-.537-.832-.804-1.535-.804-.401 0-.777.088-1.13.264-.35.176-.66.44-.922.791-.264.353-.473.797-.625 1.333-.151.536-.228 1.155-.228 1.86v6.288c-.176.031-.371.056-.587.072a7.975 7.975 0 01-.59.023c-.174 0-.375-.007-.6-.023a5.557 5.557 0 01-.598-.072v-12.312M309.335 213.755c0-.449-.059-.876-.179-1.284a3.278 3.278 0 00-.528-1.068 2.596 2.596 0 00-.888-.732c-.36-.184-.79-.277-1.285-.277-.975 0-1.724.298-2.243.888-.52.593-.836 1.417-.948 2.473zm-6.095 1.775c.032 1.345.379 2.329 1.043 2.952.664.624 1.645.936 2.94.936 1.137 0 2.217-.2 3.241-.6.128.24.232.534.312.876.08.345.127.685.144 1.02a8.045 8.045 0 01-1.741.504c-.631.112-1.332.169-2.099.169-1.121 0-2.08-.157-2.88-.469-.801-.312-1.461-.751-1.98-1.32-.52-.568-.9-1.24-1.14-2.016-.241-.776-.36-1.626-.36-2.555 0-.912.115-1.764.347-2.556.232-.792.589-1.48 1.069-2.063a5.139 5.139 0 011.81-1.393c.729-.344 1.59-.516 2.582-.516.848 0 1.59.143 2.232.431a4.552 4.552 0 011.608 1.188c.432.505.759 1.105.984 1.8.223.697.336 1.453.336 2.27 0 .224-.01.459-.024.706a23.7 23.7 0 01-.05.636h-8.374M314.808 208.787a5.388 5.388 0 012.016 0c.048.24.096.565.143.972.048.408.073.747.073 1.02.159-.273.363-.543.612-.815.247-.272.53-.517.85-.734a4.408 4.408 0 012.473-.732c1.409 0 2.449.406 3.121 1.213.672.809 1.008 2.004 1.008 3.59v7.798a5.613 5.613 0 01-.601.072 8.425 8.425 0 01-.6.023c-.176 0-.371-.007-.587-.023a5.621 5.621 0 01-.59-.072v-7.152c0-1.136-.174-1.972-.526-2.508-.353-.535-.913-.803-1.681-.803-.448 0-.872.079-1.272.239-.4.16-.751.407-1.056.743-.303.337-.548.773-.732 1.309-.183.537-.276 1.18-.276 1.932v6.24c-.176.031-.371.056-.587.072a7.975 7.975 0 01-.59.023c-.174 0-.375-.007-.6-.023a5.557 5.557 0 01-.598-.072v-12.312M329.135 210.684h-1.872l-.096-.337 4.128-4.607h.192v3.047h3.12c.062.272.096.576.096.912a5.078 5.078 0 01-.096.985h-3.12v5.616c0 .67.026 1.208.084 1.608.056.398.152.707.288.922a.972.972 0 00.552.433c.232.072.524.108.876.108.27 0 .528-.02.768-.06.24-.04.456-.084.648-.132.112.32.18.648.204.984.024.336.036.633.036.888a7.66 7.66 0 01-1.008.18 9.98 9.98 0 01-1.128.06c-1.152 0-2.052-.279-2.7-.84-.648-.56-.972-1.487-.972-2.784v-6.983" fill="#231f20"/><path d="M102.09 50.552a15.36 15.36 0 01-2.197-1.027 6.478 6.478 0 01-1.656-1.33 5.515 5.515 0 01-1.062-1.855c-.251-.72-.378-1.584-.378-2.592 0-1.224.21-2.304.63-3.24a6.43 6.43 0 011.782-2.357c.768-.636 1.693-1.116 2.773-1.44 1.08-.324 2.291-.486 3.636-.486 1.224 0 2.37.107 3.437.323 1.068.216 2.19.53 3.366.936a12.862 12.862 0 01-1.152 4.105c-.36-.145-.725-.289-1.098-.433a8.632 8.632 0 00-1.187-.36c-.42-.096-.895-.173-1.423-.233-.528-.06-1.128-.091-1.799-.091-.41 0-.822.036-1.243.108-.42.072-.798.204-1.134.397a2.23 2.23 0 00-.828.846c-.215.372-.323.858-.323 1.457 0 .48.083.883.252 1.207.167.324.395.6.683.828.289.228.612.42.972.576.36.156.72.305 1.08.449l2.16.828c.913.36 1.74.733 2.484 1.116a6.688 6.688 0 011.89 1.423c.516.564.919 1.248 1.206 2.052.288.804.432 1.794.432 2.969 0 1.224-.222 2.34-.666 3.348a7.191 7.191 0 01-1.925 2.592c-.841.721-1.879 1.284-3.115 1.692-1.236.408-2.658.612-4.266.612-.791 0-1.5-.024-2.124-.072a16.01 16.01 0 01-1.781-.233 16.16 16.16 0 01-1.674-.415 20.933 20.933 0 01-1.728-.612c.071-.696.203-1.423.396-2.177.191-.756.42-1.519.683-2.287 1.01.408 1.956.715 2.844.919a12.68 12.68 0 002.844.305c1.512 0 2.7-.281 3.564-.845.864-.564 1.297-1.423 1.297-2.575 0-.576-.102-1.056-.307-1.44a3.148 3.148 0 00-.792-.972 4.831 4.831 0 00-1.097-.665 30.97 30.97 0 00-1.26-.523l-2.197-.828M128.549 51.236c-.048-1.152-.366-2.081-.954-2.79-.588-.707-1.41-1.062-2.466-1.062-1.2 0-2.112.336-2.736 1.008-.624.672-.997 1.62-1.116 2.844zM121.24 54.8c.095 1.44.6 2.484 1.512 3.132.912.648 2.112.972 3.6.972.816 0 1.65-.077 2.502-.233a14.206 14.206 0 002.43-.667c.264.481.492 1.056.684 1.728.192.672.3 1.392.324 2.16-1.872.721-3.985 1.08-6.336 1.08-1.728 0-3.21-.24-4.446-.72-1.236-.48-2.244-1.145-3.024-1.997-.78-.852-1.356-1.866-1.728-3.043-.373-1.176-.558-2.46-.558-3.852 0-1.368.192-2.65.576-3.852.384-1.2.954-2.244 1.71-3.132a8.126 8.126 0 012.808-2.107c1.116-.514 2.418-.773 3.906-.773 1.296 0 2.448.23 3.456.684a7.624 7.624 0 012.574 1.872c.708.792 1.242 1.735 1.602 2.827.36 1.092.54 2.261.54 3.51 0 .455-.018.906-.054 1.35-.036.444-.078.797-.126 1.061H121.24M137.657 40.796a13.86 13.86 0 01-.216-2.412c0-.768.072-1.572.216-2.412a16.798 16.798 0 012.592-.216c.408 0 .851.019 1.332.055.479.036.923.089 1.332.161.072.41.119.81.143 1.207a19.944 19.944 0 010 2.393c-.024.408-.07.817-.143 1.224-.409.072-.846.121-1.314.144-.468.025-.906.037-1.315.037-.384 0-.815-.012-1.295-.037a10.479 10.479 0 01-1.332-.144zm.756 7.02H136a8.375 8.375 0 01-.161-.99 9.66 9.66 0 01-.055-.99c0-.648.073-1.283.216-1.908h7.417V62.54c-.864.144-1.705.216-2.521.216-.79 0-1.619-.072-2.483-.216V47.816M148.456 43.928a9.43 9.43 0 011.008-.161c.336-.036.708-.055 1.116-.055.408 0 .768.019 1.08.055.312.034.636.089.972.161.072.12.139.295.199.523.058.228.113.468.161.72.048.252.09.497.127.737.036.24.065.445.089.612.24-.36.528-.72.864-1.08.336-.36.725-.684 1.17-.972a6.339 6.339 0 011.494-.701 5.899 5.899 0 011.836-.271c2.112 0 3.703.576 4.77 1.73 1.067 1.15 1.602 2.963 1.602 5.434v11.88c-.864.144-1.716.216-2.556.216-.84 0-1.692-.072-2.556-.216V52.028c0-1.296-.197-2.292-.593-2.988-.396-.696-1.087-1.044-2.071-1.044-.408 0-.828.06-1.26.18-.432.12-.823.355-1.17.703-.349.348-.63.833-.846 1.457-.216.625-.324 1.44-.324 2.448v9.756c-.864.144-1.716.216-2.556.216-.84 0-1.692-.072-2.556-.216V43.928M180.963 51.236c-.047-1.152-.364-2.081-.954-2.79-.588-.707-1.409-1.062-2.465-1.062-1.201 0-2.112.336-2.736 1.008-.624.672-.996 1.62-1.116 2.844zm-7.307 3.564c.096 1.44.599 2.484 1.512 3.132.912.648 2.11.972 3.6.972.815 0 1.65-.077 2.503-.233.85-.156 1.661-.379 2.429-.667.263.481.492 1.056.684 1.728.19.672.3 1.392.324 2.16-1.873.721-3.985 1.08-6.336 1.08-1.728 0-3.21-.24-4.445-.72-1.238-.48-2.246-1.145-3.026-1.997-.78-.852-1.356-1.866-1.728-3.043-.372-1.176-.557-2.46-.557-3.852 0-1.368.19-2.65.576-3.852.384-1.2.953-2.244 1.71-3.132a8.13 8.13 0 012.809-2.107c1.114-.514 2.416-.773 3.905-.773 1.295 0 2.448.23 3.456.684a7.615 7.615 0 012.573 1.872c.708.792 1.243 1.735 1.602 2.827.361 1.092.541 2.261.541 3.51a16.116 16.116 0 01-.18 2.411h-11.952M198.567 50.444c.145.72.216 1.452.216 2.196 0 .768-.071 1.512-.216 2.232h-9.179a11.355 11.355 0 010-4.428h9.179M203.895 36.656a18.68 18.68 0 012.772-.216c.937 0 1.86.072 2.773.216l5.94 14.832 6.12-14.832c.743-.144 1.57-.216 2.484-.216.91 0 1.787.072 2.627.216l1.224 25.884c-.912.144-1.776.216-2.592.216-.816 0-1.62-.072-2.412-.216l-.648-17.568-5.256 12.168c-.336.05-.684.09-1.044.127a11.242 11.242 0 01-2.016.017 7.325 7.325 0 01-.972-.144L208 44.72l-.505 17.82c-.77.144-1.511.216-2.232.216-.768 0-1.56-.072-2.375-.216l1.007-25.884M241.875 54.008c-.288-.048-.6-.09-.936-.127a8.922 8.922 0 00-.9-.053c-1.178 0-2.107.21-2.79.63-.685.42-1.026 1.098-1.026 2.034 0 .624.13 1.104.396 1.44.264.337.581.583.953.739.372.156.768.252 1.188.288.42.034.787.053 1.099.053.36 0 .718-.03 1.08-.09.36-.06.672-.114.936-.162zm0-3.708c0-.575-.098-1.044-.288-1.404a2.165 2.165 0 00-.794-.845c-.336-.204-.749-.343-1.241-.415a11.37 11.37 0 00-1.637-.108c-1.296 0-2.676.252-4.14.756a9.845 9.845 0 01-.758-1.764c-.166-.552-.25-1.212-.25-1.98a19.249 19.249 0 013.168-.792 18.848 18.848 0 012.953-.252c2.495 0 4.445.6 5.848 1.8 1.404 1.2 2.107 3.121 2.107 5.76v10.8a30.08 30.08 0 01-3.06.757c-1.2.239-2.558.359-4.068.359-1.224 0-2.346-.108-3.367-.324-1.02-.216-1.896-.576-2.627-1.08a5.08 5.08 0 01-1.693-1.944c-.396-.792-.593-1.764-.593-2.916s.245-2.117.737-2.897a5.679 5.679 0 011.908-1.872c.78-.47 1.65-.804 2.61-1.008a13.84 13.84 0 012.88-.307c.697 0 1.463.036 2.305.108V50.3M251.379 43.928c.36-.072.701-.127 1.025-.161a9.652 9.652 0 011.061-.055c.362 0 .714.024 1.063.072.348.048.69.108 1.027.18.072.12.137.295.197.523.06.228.115.468.161.72.048.252.091.504.128.756.035.252.066.461.088.629a9.341 9.341 0 011.946-1.997c.766-.588 1.726-.883 2.878-.883.242 0 .518.013.828.036.312.024.542.06.684.108.048.24.086.517.11.828.024.312.036.636.036.972 0 .408-.019.852-.055 1.332-.036.48-.103.936-.197 1.368a4.968 4.968 0 00-.883-.072h-.593c-.41 0-.866.043-1.368.127-.506.084-.984.305-1.44.665-.458.36-.836.901-1.135 1.62-.3.721-.45 1.728-.45 3.024v8.856c-.433.072-.863.12-1.295.144a21.723 21.723 0 01-2.503 0 13.288 13.288 0 01-1.313-.144V43.928M266.103 40.796a13.732 13.732 0 01-.216-2.412c0-.768.07-1.572.216-2.412a13.45 13.45 0 011.313-.161c.47-.036.893-.055 1.279-.055.408 0 .852.019 1.33.055.48.036.924.089 1.334.161.072.41.12.81.142 1.207.024.396.038.798.038 1.205 0 .384-.014.781-.038 1.188-.022.408-.07.817-.142 1.224-.41.072-.847.121-1.315.144-.468.025-.907.037-1.315.037-.384 0-.816-.012-1.294-.037a10.479 10.479 0 01-1.332-.144zm.756 7.02h-2.414a8.654 8.654 0 01-.162-.99 10.037 10.037 0 01-.054-.99c0-.648.072-1.283.216-1.908h7.416V62.54c-.862.144-1.702.216-2.52.216-.79 0-1.618-.072-2.482-.216V47.816M277.405 47.816h-2.34l-.18-.72 6.731-8.604h.828v5.436h4.357c.074.36.12.685.143.972.027.288.037.59.037.9 0 .336-.01.661-.037.972-.023.312-.07.661-.143 1.044h-4.357v7.308c0 .744.06 1.344.181 1.8.12.457.294.816.523 1.08a1.7 1.7 0 00.847.54c.336.096.73.144 1.186.144.36 0 .714-.03 1.063-.09.347-.06.653-.113.917-.162.17.456.288.93.362 1.423a9.37 9.37 0 01.088 1.98 5.836 5.836 0 01-.055.521 14.643 14.643 0 01-3.419.396c-2.185 0-3.852-.51-5.004-1.53-1.152-1.02-1.728-2.682-1.728-4.986v-8.424M290.943 40.796a13.609 13.609 0 01-.218-2.412c0-.768.071-1.572.218-2.412.405-.072.845-.125 1.312-.161.468-.036.893-.055 1.278-.055.41 0 .852.019 1.334.055.478.036.921.089 1.33.161.074.41.12.81.143 1.207.024.396.037.798.037 1.205 0 .384-.013.781-.037 1.188-.023.408-.07.817-.143 1.224-.409.072-.846.121-1.314.144-.467.025-.907.037-1.314.037-.385 0-.817-.012-1.296-.037-.48-.023-.925-.072-1.33-.144zm.754 7.02h-2.412a7.859 7.859 0 01-.161-.99 9.66 9.66 0 01-.055-.99c0-.648.071-1.283.216-1.908h7.418V62.54c-.866.144-1.706.216-2.522.216-.792 0-1.62-.072-2.484-.216V47.816M301.741 43.928a9.43 9.43 0 011.008-.161c.336-.036.708-.055 1.118-.055.406 0 .765.019 1.077.055.313.034.636.089.975.161.07.12.136.295.197.523a13.898 13.898 0 01.287 1.457c.037.24.065.445.092.612a5.764 5.764 0 011.872-2.052c.429-.288.916-.521 1.456-.701a5.736 5.736 0 011.82-.271c2.904 0 4.762 1.104 5.578 3.312.479-.888 1.159-1.661 2.034-2.321.877-.66 1.986-.991 3.33-.991 2.112 0 3.667.583 4.662 1.745.997 1.166 1.494 2.984 1.494 5.455V62.54c-.864.144-1.716.216-2.557.216-.839 0-1.69-.072-2.555-.216V52.028c0-1.296-.161-2.292-.486-2.988-.323-.696-.976-1.044-1.962-1.044-.408 0-.809.06-1.205.18s-.757.341-1.081.667c-.323.324-.588.78-.791 1.368-.204.588-.308 1.349-.308 2.285V62.54a15.5 15.5 0 01-2.555.216c-.841 0-1.692-.072-2.557-.216V52.028c0-1.296-.161-2.292-.484-2.988-.325-.696-.979-1.044-1.964-1.044-.405 0-.815.06-1.224.18a2.43 2.43 0 00-1.096.703c-.325.348-.583.833-.773 1.457-.194.625-.29 1.44-.29 2.448v9.756c-.864.144-1.716.216-2.557.216-.839 0-1.69-.072-2.555-.216V43.928M344.763 51.236c-.05-1.152-.368-2.081-.956-2.79-.586-.707-1.41-1.062-2.464-1.062-1.2 0-2.115.336-2.736 1.008-.626.672-.998 1.62-1.118 2.844zm-7.308 3.564c.094 1.44.6 2.484 1.51 3.132.912.648 2.112.972 3.602.972.816 0 1.649-.077 2.5-.233a14.221 14.221 0 002.43-.667c.266.481.492 1.056.684 1.728.194.672.3 1.392.326 2.16-1.872.721-3.984 1.08-6.339 1.08-1.725 0-3.208-.24-4.445-.72-1.236-.48-2.244-1.145-3.023-1.997-.781-.852-1.357-1.866-1.73-3.043-.371-1.176-.557-2.46-.557-3.852 0-1.368.194-2.65.576-3.852.386-1.2.955-2.244 1.711-3.132.755-.887 1.692-1.59 2.807-2.107 1.117-.514 2.42-.773 3.906-.773 1.298 0 2.448.23 3.456.684a7.62 7.62 0 012.575 1.872c.707.792 1.243 1.735 1.603 2.827a11.18 11.18 0 01.538 3.51c0 .455-.018.906-.054 1.35-.034.444-.079.797-.126 1.061h-11.95" fill="#3d9fb3"/><path d="M22.885 153.529c-9.44-2.468-16.393-9.17-19.83-19.117-1.211-3.507-1.38-5.132-1.38-13.258s.169-9.75 1.38-13.258c4.012-11.61 12.898-18.87 24.747-20.216 5.998-.681 14.254.003 19.327 1.602l3.388 1.068-.347 3.602c-.308 3.204-1.956 9.278-2.517 9.278-.117 0-1.762-.404-3.654-.896-1.893-.493-5.756-.897-8.586-.897-4.427 0-5.596.23-8.388 1.643-5.912 2.995-8.728 9.932-8.184 20.165.5 9.392 4.498 15.417 11.317 17.053 3.731.895 11.726.448 15.32-.856l2.58-.936 1.191 2.695c1.405 3.176 2.585 9.796 1.873 10.508-.274.274-2.615 1.039-5.202 1.7-6.076 1.555-17.324 1.613-23.035.12zM.18 54.535v-6.87H54.552v13.741H.181zM110.349 153.724c-7.096-1.544-12.765-5.717-15.247-11.224-1.175-2.607-1.408-4.11-1.412-9.098-.004-5.09.199-6.354 1.366-8.54 2.18-4.085 5.363-7.168 9.309-9.02 5.58-2.618 9.428-3.337 17.912-3.344l7.679-.007-.277-2.883c-.535-5.574-3.796-8.047-11.297-8.567-4.541-.315-10.742.44-15.876 1.935-1.16.338-1.503.005-2.597-2.517-.693-1.598-1.403-4.422-1.578-6.276l-.318-3.37 3.213-.921c9.1-2.607 21.044-3.192 27.995-1.373 9.308 2.437 14.987 8.433 16.74 17.674.332 1.751.601 12.506.601 23.988v20.814l-3.136.897c-9.325 2.668-25.193 3.547-33.077 1.832zm17.244-12.64l2.24-.37v-17.097l-2.75-.412c-3.99-.599-9.947.023-12.578 1.312-1.255.615-2.89 2.032-3.634 3.148-2.228 3.346-1.588 8.986 1.291 11.376 2.522 2.093 9.524 3.02 15.43 2.044zM196.68 153.749c-9.263-1.93-14.834-7.067-18.042-16.634-1.153-3.437-1.262-5.349-1.47-25.756-.183-17.851-.075-22.138.567-22.545.982-.623 14.868-.67 15.836-.055.513.326.758 6.136.9 21.35.174 18.566.316 21.17 1.27 23.293 1.425 3.174 3.715 5.483 6.336 6.39 2.75.95 12.316.861 13.506-.126.755-.627.884-4.38.884-25.69 0-22.207.104-24.998.945-25.32 1.23-.472 13.61-.472 14.84 0 .845.324.945 3.644.945 31.344v30.982l-2.24.598c-8.507 2.27-10.564 2.552-20.166 2.766-7.122.16-11.338-.019-14.111-.597zM156.034 153.63c-.985-.174-1.715-.774-1.934-1.59-.56-2.085-.423-8.556.215-10.234.569-1.497.716-1.533 6.252-1.533 5.163 0 5.73.113 6.347 1.265.7 1.309.594 10.851-.129 11.573-.496.497-8.657.89-10.751.52zM71.878 121.154V72.758h2.987v96.792h-2.987zM286.738 154.16c-6.177-1.17-11.254-3.674-15.399-7.594-6.63-6.271-9.143-13.283-9.132-25.485.016-16.166 7.797-28.25 20.77-32.258 5.34-1.65 14.132-1.649 19.474.001 8.002 2.472 14.498 9.225 17.195 17.875 1.382 4.434 2.118 12.803 1.492 16.975l-.417 2.785H278.838l.403 2.24c1.065 5.904 4.778 9.908 10.774 11.618 4.81 1.372 12.744.789 23.368-1.717 1.097-.26 1.412.214 2.53 3.79.701 2.246 1.347 5.154 1.435 6.461l.16 2.377-4.78 1.436c-4.054 1.218-6.276 1.462-14.638 1.608-5.422.094-10.53.044-11.352-.112zm18.27-41.443l-.685-3.55c-.452-2.348-3.421-6.363-5.475-7.402-2.698-1.366-6-1.708-9.496-.982-5.396 1.12-8.929 5.161-10.041 11.486l-.395 2.24h26.439zM242.712 153.56c-1.079-.238-1.376-.851-1.711-3.534-.47-3.754.133-8.73 1.134-9.368.83-.53 10.06-.606 11.394-.095.773.297.945 1.432.945 6.239 0 3.897-.24 6.023-.71 6.315-.845.521-9.18.856-11.052.443zM10.554 30.469c-1.232-.511-2.24-1.102-2.238-1.314.002-.21 2.153-5.482 4.78-11.714 2.628-6.231 4.777-11.407 4.777-11.501 0-.094-2.957-.172-6.572-.172H4.729V.988h10.52c9.769 0 10.491.075 10.129 1.046-1.983 5.31-12.054 29.402-12.285 29.385-.164-.011-1.307-.439-2.539-.95zM37.663 30.852c-2.627-.608-4.86-2.308-6.347-4.832-1.783-3.028-1.675-11.647.198-15.77C33.972 4.84 38.45 1.34 43.861.596L46.552.23V2.36c0 1.702-.271 2.207-1.344 2.506-4.84 1.345-7.943 4.049-9.092 7.922-.487 1.64-.054 1.7 1.54.216 4.155-3.871 12.32-.349 13.352 5.76.747 4.421-1.455 9.366-4.957 11.13-2.164 1.09-5.947 1.522-8.388.957zm5.895-5.241c1.984-1.607 2.314-5.895.619-8.042-1.81-2.293-5.365-2.327-7.141-.07-3.878 4.93 1.773 11.957 6.522 8.112zM97.752 62.11c-.81-.21-1.034-.753-.897-2.17l.184-1.892h4.75c4.556 0 4.789-.068 5.676-1.638 1.273-2.252.491-3.337-3.982-5.532-5.361-2.63-6.145-3.521-6.145-6.985 0-4.463 1.585-6.2 6.66-7.302 1.395-.303 7.539.504 8.098 1.064.117.116-.049.897-.367 1.735-.554 1.456-.737 1.508-4.189 1.195-4-.362-5.423.295-5.423 2.506 0 1.632 1.277 2.749 4.78 4.18 4.187 1.71 5.975 3.93 5.975 7.42 0 3.402-1.523 5.744-4.562 7.014-1.858.776-8.189 1.02-10.558.405zM120.818 61.59c-2.608-1.33-3.8-3.357-4.19-7.129-.4-3.877 1.256-7.836 3.941-9.422 2.542-1.501 7.248-1.369 9.323.263 1.984 1.561 3.294 4.483 3.294 7.35v2.11h-5.975c-5.553 0-5.974.083-5.974 1.18 0 2.059 2.555 3.177 6.592 2.885 3.382-.245 3.618-.176 3.952 1.151.194.776.169 1.596-.057 1.822-.226.226-2.342.49-4.702.588-3.076.127-4.833-.099-6.204-.798zm7.757-11.627c-.375-1.432-2.386-2.969-3.886-2.969-1.294 0-3.452 2.055-3.452 3.286 0 .704.823.897 3.827.897 3.553 0 3.805-.087 3.51-1.214zM138.563 55.06c0-7.07-.063-7.468-1.194-7.468-.93 0-1.195-.399-1.195-1.793v-1.792H143.343v18.522h-4.78zM142.862 38.33c.013-.985.146-1.316.298-.735.151.582.141 1.388-.022 1.793-.164.404-.288-.071-.276-1.057zM148.72 53.268v-9.261h1.849c1.346 0 1.933.325 2.16 1.195.388 1.48.515 1.48 2.104 0 1.87-1.743 5.874-1.62 8.044.247 1.654 1.422 1.68 1.546 1.886 9.26l.21 7.82h-4.9v-6.14c0-4.592-.235-6.477-.93-7.47-1.155-1.648-2.88-1.7-4.448-.132-1.043 1.043-1.195 1.991-1.195 7.468v6.274h-4.78zM139.012 40.606c-.74-.192-1.046-.87-1.046-2.319 0-1.99.067-2.047 2.39-2.047 2.333 0 2.39.05 2.39 2.09 0 1.151-.247 2.092-.549 2.092-.302 0-.906.103-1.344.228-.438.125-1.266.105-1.841-.044zM175.358 62.566c-3.012-.764-5.286-2.865-6.09-5.63-.718-2.473-.447-6.61.561-8.554 1.637-3.155 4.078-4.613 7.74-4.624 2.979-.009 5.023.97 6.45 3.088 1.226 1.821 1.572 3.095 1.574 5.793l.002 2.166h-5.975c-5.824 0-5.975.015-5.975.612 0 2.858 4.054 4.353 8.553 3.155l1.533-.408.33 1.084c.688 2.266.619 2.505-.856 2.95-1.72.52-6.386.738-7.847.368zm5.755-11.639c0-.16-.218-.838-.485-1.505-1.094-2.735-5.229-2.854-6.495-.187-.934 1.97-.91 1.985 3.246 1.985 2.24 0 3.734-.117 3.734-.293zM189.387 53.76a7.847 7.847 0 010-2.092l.17-1.046h8.856l.196 1.046c.108.575.108 1.516 0 2.091l-.196 1.046h-8.857zM203.125 59.51c.077-1.684.304-7.366.504-12.626s.468-9.73.593-9.933c.25-.405 4.276-.522 4.863-.14.186.12 1.662 3.493 3.28 7.495 1.988 4.915 3.026 7.145 3.198 6.871.14-.223 1.556-3.564 3.147-7.425l2.892-7.02 2.207-.09c1.214-.048 2.313.019 2.443.15.13.13.443 4.674.695 10.096.253 5.422.544 11.17.647 12.771l.187 2.913h-4.768l-.185-4.108c-.101-2.259-.271-6.229-.377-8.822-.106-2.593-.26-4.647-.34-4.566-.082.082-1.31 2.808-2.728 6.059l-2.579 5.91H213l-2.458-6.224c-2.752-6.967-2.829-7.008-2.836-1.516-.002 1.822-.092 5.553-.2 8.29l-.196 4.977h-4.323zM236.098 62.415c-3.225-.908-4.707-2.99-4.438-6.237.162-1.95 1.184-3.47 2.931-4.362 1.39-.71 4.82-1.246 6.361-.996.99.16 1.104.112 1.104-.472 0-2.557-2.564-3.559-6.65-2.597l-1.72.404-.478-1.641c-.398-1.372-.41-1.684-.071-1.896.89-.557 3.803-.926 6.406-.812 2.411.105 2.926.229 4.183 1.006 1.012.626 1.659 1.323 2.197 2.37.75 1.457.764 1.593.764 8.042v6.56l-1.494.399c-2.412.645-7.197.767-9.095.232zm5.958-5.94V53.96l-1.161-.196c-1.089-.184-3.058.161-3.798.666-1.159.79-1.307 2.798-.282 3.823.649.649.992.733 2.987.733h2.254zM251.616 53.335v-9.237l.87-.192c.48-.105 1.355-.1 1.946.01.84.158 1.11.372 1.247.99.42 1.897.393 1.881 1.345.797 1.014-1.154 3.05-2.047 4.332-1.9.856.097.866.12.953 2.264l.088 2.166h-1.522c-2.041 0-3.202.65-3.899 2.185-.49 1.08-.568 1.993-.574 6.702l-.007 5.452h-4.78zM266.851 55.104v-7.469H264.462V44.05H271.63v18.522h-4.78zM266.143 40.092c-.23-.863-.23-2.573 0-3.436.17-.629.34-.672 2.685-.672h2.504v4.78h-2.504c-2.345 0-2.516-.043-2.685-.672zM281.082 62.134c-1.532-.546-2.716-1.725-3.134-3.122-.2-.663-.342-3.282-.342-6.258v-5.119h-1.177c-.648 0-1.24-.1-1.316-.224-.195-.315 6.3-8.567 6.836-8.685.358-.08.437.388.437 2.6v2.698l2.166.088 2.166.088.09 1.717.089 1.718h-4.551l.094 4.899c.115 5.927.224 6.154 2.945 6.154 1.899 0 2.067.197 2.075 2.43.003.875-.126 1.12-.668 1.266-1.192.32-4.522.174-5.71-.25zM290.9 39.57c-.111-.658-.111-1.734 0-2.39l.202-1.196h5.026v4.78h-5.026zM291.876 55.19l-.08-7.406-1.27-.091-1.27-.092V44.05h7.478l-.08 9.186-.078 9.187-2.31.087-2.31.087zM301.804 53.325v-9.248l1.045-.196c.575-.108 1.505-.11 2.067-.004.91.17 1.042.32 1.221 1.377.11.652.264 1.186.343 1.186.078 0 .468-.387.866-.86 1.03-1.224 2.5-1.828 4.446-1.828 2.147 0 3.415.537 4.569 1.937l.92 1.116 1.077-1.193c1.443-1.597 2.415-1.953 4.94-1.81 2.528.142 3.438.71 4.496 2.803.726 1.436.75 1.684.845 8.735l.098 7.257-2.488-.087-2.488-.087-.15-6.617c-.134-5.964-.205-6.678-.718-7.244-.358-.395-.932-.628-1.549-.628-1.663 0-2.496.498-3.117 1.865-.505 1.114-.578 1.985-.583 7.022l-.007 5.751h-4.78l-.007-5.75c-.01-7.96-.296-8.888-2.734-8.888-.815 0-1.39.23-2.048.821-1.167 1.048-1.47 2.947-1.479 9.261l-.006 4.556h-4.78zM339.19 62.57c-1.487-.316-3.473-1.407-4.436-2.438-.361-.387-.966-1.375-1.344-2.194-.58-1.26-.686-1.976-.68-4.627.008-3.51.47-4.965 2.204-6.94 2.281-2.599 6.754-3.447 10.059-1.908 3.146 1.465 4.532 4.4 4.352 9.222l-.042 1.12h-5.975c-5.491 0-5.974.042-5.973.523.002.769 1.05 2.357 1.944 2.942 1.066.699 4.627.876 6.645.331l1.57-.423.446 1.504c.246.828.447 1.666.447 1.863 0 .857-6.564 1.587-9.217 1.024zm5.632-11.808c0-.854-.83-2.45-1.528-2.938-1.03-.722-3.28-.638-4.293.16-.755.593-1.647 2.18-1.647 2.928 0 .195 1.366.308 3.734.308 3.155 0 3.734-.071 3.734-.458zM101.93 192.134c-3.553-1.006-5.384-3.816-5.416-8.311-.045-6.211 3.777-9.695 9.66-8.806 1.843.279 2.132.514 1.778 1.446-.279.733-.352.755-1.58.474-1.521-.35-3.485-.14-4.73.503-2.089 1.08-3.196 4.471-2.63 8.056.355 2.247 1.079 3.427 2.64 4.305 1.074.603 1.552.677 3.79.586 2.438-.1 2.573-.072 2.813.578.213.575.127.73-.553.988-1.319.501-4.31.595-5.773.181zM114.376 192.263c-.864-.283-1.23-.505-1.977-1.192-2.407-2.22-2.45-7.408-.082-9.776 2.277-2.277 6.635-1.938 8.42.655 1.307 1.9 1.536 5.23.515 7.477-.48 1.055-1.438 2.051-2.447 2.545-.72.353-1.053.417-2.336.45-.933.023-1.72-.037-2.093-.159zm2.618-1.607c.968-.208 1.645-.792 2.102-1.814.306-.682.352-1.022.355-2.578.004-2.153-.246-3.04-1.082-3.836-1.154-1.099-2.983-1.164-4.145-.15-1.004.878-1.525 3.393-1.125 5.429.338 1.72.988 2.573 2.206 2.9.905.244.793.24 1.69.049zM125.205 186.205c0-6.72-.062-6.29.919-6.29.788 0 .974.206 1.087 1.202l.103.912.608-.69c.334-.38.952-.871 1.373-1.092.655-.344.948-.402 2.038-.404 1.696-.003 2.546.403 3.231 1.544.682 1.134.798 2.124.798 6.794v4.133h-2.216l-.05-4.295c-.046-4.024-.07-4.338-.371-4.991-.177-.383-.502-.815-.721-.958-.566-.371-1.922-.347-2.691.047-.712.365-.969.639-1.439 1.533-.342.65-.355.8-.4 4.668l-.046 3.996h-2.223zM139.279 192.254c-.434-.11-.834-.243-.889-.298-.11-.111.21-1.442.391-1.626.064-.064.511-.014.994.112 1.292.336 2.815.3 3.614-.087.817-.396 1.123-.853 1.111-1.664-.012-.888-.613-1.402-2.382-2.034-1.596-.57-2.644-1.222-3.13-1.946-.265-.396-.34-.717-.34-1.462 0-2.11 1.345-3.282 3.947-3.445 1.183-.073 3.424.253 3.713.542.139.139-.158 1.474-.355 1.596-.07.043-.478-.025-.905-.152-.91-.27-2.406-.301-3.128-.065-.713.233-1.03.653-1.03 1.359 0 .863.518 1.268 2.538 1.984 2.569.91 3.335 1.738 3.318 3.585-.013 1.478-.882 2.74-2.33 3.383-.632.28-1.072.346-2.556.378-1.122.024-2.087-.036-2.581-.16zM153.287 192.25c-1.097-.306-1.86-.771-2.586-1.58-.943-1.049-1.32-2.105-1.41-3.96-.159-3.246.912-5.391 3.231-6.473.728-.34 1.037-.392 2.333-.394 1.757-.002 2.591.297 3.61 1.295.986.964 1.432 2.134 1.514 3.969l.069 1.53h-8.404v.496c0 1.365.71 2.53 1.942 3.185.694.37 3.624.375 4.591.009.598-.227.642-.225.78.033.08.15.164.567.188.926l.042.654-.971.25c-1.165.302-3.937.335-4.93.059zm4.48-7.836c0-.918-.692-2.09-1.481-2.508-.758-.4-1.979-.465-2.745-.145-.693.29-1.4 1.165-1.667 2.064-.374 1.26-.59 1.17 2.832 1.17h3.062zM164.041 187.092v-5.234H162.398V180.065h3.887l-.039 6.087-.039 6.087-1.083.044-1.083.044zM163.444 176.032v-1.195h2.54v2.39h-2.54zM172.705 192.317c-1.244-.174-1.973-.769-2.367-1.93-.121-.357-.173-2.761-.173-8.103v-7.596h2.241v7.431c.001 7.028.016 7.456.284 7.895.313.513.943.72 1.739.57l.474-.088.104.781c.057.43.05.83-.016.89-.185.166-1.536.255-2.286.15zM186.447 192.25c-1.636-.456-2.78-1.41-3.483-2.907-.373-.794-.46-1.195-.518-2.39-.04-.822.007-1.803.109-2.29.75-3.619 3.885-5.47 7.887-4.659l.486.099v-5.415H193.17l-.039 8.626-.038 8.626-1.195.249c-1.43.298-4.478.331-5.452.06zm3.92-1.675l.56-.093v-8.452l-.54-.178c-.808-.267-2.564-.23-3.268.067-1.444.61-2.182 1.924-2.284 4.062-.151 3.16 1.125 4.652 4.002 4.677.534.005 1.223-.032 1.53-.083zM196.457 180.259c.009-.48 1.347-5.034 1.51-5.137.25-.159 1.633-.174 1.866-.02.118.076-.042.867-.534 2.648l-.702 2.54-1.071.043c-.59.024-1.07-.009-1.07-.074zM205.162 192.21c-.951-.28-1.933-1.093-2.302-1.905-.433-.953-.378-2.377.13-3.378.82-1.617 2.343-2.304 5.078-2.292l1.68.008v-.758c-.001-.957-.412-1.662-1.16-1.99-.692-.301-2.627-.328-3.744-.05-.966.24-1.087.153-1.184-.86l-.071-.741.876-.198c.483-.108 1.684-.197 2.67-.198 1.552-.002 1.894.044 2.556.342.901.405 1.581 1.064 1.954 1.892.237.526.275 1.154.316 5.24l.047 4.641-1.4.25c-1.746.312-4.382.31-5.446-.003zm4.25-1.634c.327-.087.336-.143.336-2.073 0-1.67-.037-1.997-.236-2.074-.386-.148-2.482-.101-3.095.07a3.106 3.106 0 00-1.035.574c-.405.362-.475.537-.532 1.334-.076 1.05.13 1.495.91 1.971.386.235.752.291 1.897.29.78 0 1.57-.042 1.755-.092zM215.723 186.205c0-6.687-.055-6.292.871-6.287.939.005 1.043.108 1.153 1.139l.103.962.508-.593c.68-.795 1.376-1.202 2.307-1.35 1.324-.209 1.598.034 1.415 1.254l-.096.637-.934.075c-1.16.093-1.773.401-2.332 1.173-.641.885-.754 1.725-.754 5.596v3.503h-2.24zM227.344 192.182c-2.406-.79-3.72-2.906-3.721-5.993-.001-2.999 1.115-4.9 3.527-6.004.64-.293.993-.342 2.464-.343.994 0 2.007.083 2.403.199l.686.199-.12.759c-.066.417-.176.814-.244.882-.067.068-.355.055-.64-.03-.813-.239-2.976-.214-3.578.041-1.127.479-1.833 1.564-2.11 3.239-.205 1.242-.008 2.816.469 3.751.761 1.492 2.804 2.125 5.109 1.583l.854-.201.14.465c.37 1.221.365 1.257-.242 1.448-.308.097-1.367.2-2.353.23-1.455.045-1.953.002-2.644-.225zM235.739 183.5v-8.812h2.24v7.238l.635-.687c.996-1.078 1.732-1.394 3.253-1.396 1.075-.002 1.389.058 2.015.38.431.222.912.628 1.15.97.756 1.092.864 1.934.864 6.746v4.375h-2.224l-.046-4.37c-.042-4.02-.07-4.415-.344-4.956-.448-.882-.948-1.18-1.974-1.179-1.404.002-2.38.65-3 1.99-.2.43-.252 1.233-.296 4.519l-.055 3.996H235.738zM249.78 176.026v-1.2l1.232.043 1.232.043.043 1.158.044 1.157h-2.552zM250.377 187.086v-5.228H248.734V180.065h3.734V192.314h-2.091zM259.29 192.258c-.942-.265-1.435-.643-1.893-1.451-.37-.653-.374-.702-.423-4.804l-.05-4.145h-.875c-.481 0-.912-.06-.957-.134-.046-.074.84-1.16 1.97-2.416l2.053-2.282.042 1.52.043 1.52h1.547c1.535 0 1.548.002 1.643.382.053.21.053.613 0 .896l-.097.514H259.19v3.353c0 5.057.129 5.392 2.07 5.375.652-.006 1.188.058 1.25.15.153.22.143 1.393-.011 1.489-.327.201-2.531.224-3.21.033zM268.417 192.242c-1.604-.442-2.985-1.677-3.567-3.193-.23-.6-.344-1.296-.394-2.411-.14-3.143.872-5.226 3.064-6.305.928-.457 1.105-.492 2.496-.492 1.76 0 2.595.3 3.613 1.297.985.964 1.431 2.134 1.514 3.969l.068 1.53h-8.404v.496c0 1.365.71 2.53 1.942 3.185.695.37 3.625.375 4.592.009.609-.23.64-.229.794.06.088.165.173.582.188.927l.028.626-.971.25c-1.178.306-3.937.334-4.963.052zm4.515-7.828c0-.918-.694-2.09-1.482-2.508-.758-.4-1.979-.465-2.745-.145-.693.29-1.4 1.165-1.667 2.064-.374 1.26-.591 1.17 2.831 1.17h3.063zM281.74 192.258c-.986-.286-1.584-.633-2.263-1.311-1.295-1.296-1.961-3.707-1.634-5.915.338-2.278 1.423-3.841 3.277-4.72.939-.445 1.089-.47 2.712-.465.944.003 2.003.09 2.352.192.552.163.635.242.635.607 0 .722-.301 1.392-.578 1.285-.547-.212-2.52-.342-3.213-.211-1.477.278-2.281 1.115-2.72 2.826-.494 1.936-.015 4.265 1.076 5.223.944.83 2.75 1.116 4.372.695l.795-.206.209.5c.348.834.275 1.202-.277 1.41-.71.269-3.92.33-4.742.09zM292.943 192.323c-1.172-.237-2.097-1.039-2.383-2.068-.088-.317-.155-2.24-.155-4.476l-.001-3.921h-.97c-.596 0-.972-.063-.972-.161 0-.166 3.832-4.504 4.058-4.594.068-.028.125.628.125 1.456v1.506h3.136V181.858h-3.136v3.547c.001 4.976.094 5.202 2.102 5.175l1.172-.016.097.649c.054.357.062.74.02.852-.129.333-1.963.486-3.093.258zM301.63 192.228c-1.469-.395-2.457-1.39-2.958-2.976-.181-.577-.253-1.71-.312-4.955l-.077-4.208.677-.101c.373-.056.878-.058 1.122-.004l.445.097.075 4.063c.052 2.83.135 4.24.275 4.65.466 1.37 1.746 1.992 3.776 1.834 1.757-.137 1.584.452 1.584-5.408v-5.12l.336-.09c.43-.115 1.138-.115 1.569 0l.336.09v11.754l-.56.145c-1.952.508-4.86.614-6.288.23zM312.361 186.205c0-6.72-.063-6.29.919-6.29.677 0 1.023.249 1.023.734 0 .234.04.626.09.872l.09.447.611-.664c.337-.365.818-.772 1.068-.903.55-.29 1.675-.49 2.137-.382.305.072.336.166.336 1.033v.955H318c-1.403.003-2.384.559-2.994 1.7-.312.583-.332.824-.376 4.611l-.046 3.996h-2.223zM323.937 192.162c-2.309-.774-3.57-2.556-3.765-5.32-.249-3.526 1.335-6.154 4.136-6.865 2.592-.658 5.084.396 6.08 2.572.383.835.622 2.425.523 3.467l-.06.622h-8.333v.42c0 .695.43 1.925.844 2.417.762.905 1.416 1.122 3.339 1.106 1.111-.01 1.967-.096 2.425-.246l.708-.232.16.594c.088.327.14.734.114.904-.077.517-1.01.748-3.258.808-1.718.046-2.149.01-2.913-.247zm4.851-7.354c-.01-.539-.353-1.597-.676-2.088-.72-1.097-2.394-1.488-3.744-.875-.927.421-1.42 1.187-1.764 2.739l-.091.41h3.14c2.413 0 3.138-.043 3.135-.186zM332.73 194.748c.045-.148.354-1.301.687-2.564.334-1.262.643-2.354.688-2.427.045-.073.554-.132 1.13-.132h1.05l-.095.41c-.052.227-.378 1.42-.725 2.652l-.63 2.24-1.092.045c-.991.04-1.085.02-1.012-.224zM348.21 192.224c-.978-.262-2.216-1.046-2.746-1.741-1.338-1.754-1.602-4.578-.665-7.09.453-1.215 1.948-2.703 3.187-3.171.973-.368 2.645-.477 4.07-.264l.784.118v-5.401l1.083.044 1.083.044V191.94l-1.195.248c-1.526.318-4.473.336-5.601.035zm4.457-1.762c.125-.078.173-1.268.173-4.276v-4.167l-.634-.172c-.35-.094-1.117-.171-1.705-.171-.894 0-1.198.07-1.856.427-1.367.742-1.974 2.04-1.981 4.236-.008 2.35.762 3.602 2.583 4.2.44.144 3.16.083 3.42-.077zM358.76 178.46c.282-1.048.589-2.219.68-2.603.184-.763.35-.866 1.392-.866 1.078 0 1.077-.01.314 2.74-.378 1.367-.688 2.518-.688 2.559 0 .04-.498.074-1.106.074h-1.106zM368.247 192.228c-1.27-.341-2.17-1.123-2.715-2.355-.425-.96-.584-2.747-.589-6.624l-.004-3.165.659-.1c.362-.053.858-.054 1.102 0l.443.097.078 4.063c.054 2.796.14 4.246.276 4.651.461 1.368 1.744 1.991 3.774 1.833 1.757-.136 1.585.453 1.585-5.408v-5.12l.336-.09c.43-.115 1.138-.115 1.568 0l.336.09v11.754l-.56.146c-1.952.508-4.858.613-6.289.228zM378.98 186.205c0-6.72-.063-6.29.918-6.29.678 0 1.024.249 1.024.734 0 .234.04.626.09.872l.089.447.612-.664c.337-.365.817-.772 1.068-.903.55-.29 1.674-.49 2.136-.382.306.072.336.166.336 1.033v.955h-.634c-1.404.003-2.384.559-2.994 1.7-.313.583-.332.824-.376 4.611l-.046 3.996h-2.223zM389.51 192.302a24.08 24.08 0 01-1.157-.29l-.56-.159v-17.165h2.24v6.912l.731-.684c.91-.851 2.027-1.22 3.366-1.113 2.685.215 4.285 2.083 4.519 5.276.274 3.739-1.363 6.335-4.513 7.155-.961.25-3.616.29-4.626.068zm4.44-2.049c.85-.38 1.422-.976 1.894-1.972.345-.73.388-1.005.388-2.465 0-1.461-.043-1.736-.391-2.478-.513-1.094-1.114-1.52-2.256-1.603-1.698-.123-3.058.822-3.386 2.353-.091.425-.166 2.01-.166 3.525 0 2.734.002 2.754.336 2.825.185.04.47.104.635.144.593.144 2.32-.049 2.945-.329zM404.181 192.3c-1.69-.398-2.705-1.49-2.897-3.117-.146-1.228.183-2.184 1.056-3.074 1.138-1.16 2.049-1.464 4.403-1.47l1.847-.005-.082-.802c-.219-2.117-1.828-2.666-5.506-1.88-.361.078-.415.03-.559-.49-.312-1.124-.272-1.191.847-1.417.554-.112 1.749-.204 2.654-.204 1.557 0 1.7.027 2.614.483 1.06.528 1.64 1.196 1.92 2.206.105.375.167 2.24.167 5.017l.001 4.42-1.39.248c-1.476.263-4.128.308-5.075.085zm3.907-1.723l.467-.093v-3.982l-.532-.1c-1.03-.193-2.956.002-3.534.36-1.29.796-1.34 2.843-.088 3.606.4.244.754.301 1.858.302.75 0 1.573-.042 1.83-.093zM414.38 186.196v-6.117l.512-.096c.28-.053.71-.052.953 0 .473.105.627.478.627 1.52 0 .61.133.635.503.093 1.436-2.106 5.044-2.447 6.578-.623.886 1.052.898 1.133.953 6.448l.05 4.892h-2.259v-4.116c0-2.527-.064-4.371-.166-4.776-.328-1.302-1.354-1.864-2.824-1.55-.984.212-1.78.907-2.252 1.967-.33.74-.352.99-.406 4.629l-.057 3.846h-2.212zM428.468 176.991c-.116-.302-.114-1.38.003-1.818.083-.312.173-.336 1.252-.336h1.161l.057.598c.032.328.032.866 0 1.195l-.057.597h-1.163c-.923 0-1.182-.049-1.254-.236zM428.975 187.086v-5.228h-.731c-.79 0-.913-.12-.913-.896 0-.889.019-.897 2.033-.897h1.851V192.314h-2.24zM435.43 192.254c-.434-.11-.833-.243-.888-.298-.111-.111.209-1.442.39-1.626.064-.064.511-.014.994.112 1.227.32 2.827.292 3.605-.061 1.516-.688 1.599-2.403.151-3.13-.344-.173-1.182-.522-1.863-.775-2.319-.865-3.07-1.735-2.985-3.454.04-.82.13-1.119.493-1.643.958-1.385 3.243-1.936 5.817-1.403.655.135 1.248.303 1.318.372.156.157-.012 1.11-.255 1.442-.166.227-.241.228-.982.008-1.547-.46-3.662-.19-4.04.516-.2.373-.173 1.212.047 1.497.317.41.888.707 2.423 1.26 1.803.65 2.447 1.07 2.916 1.905.276.49.355.853.352 1.604-.006 1.565-.823 2.757-2.372 3.46-.622.282-1.048.345-2.54.375-1.117.023-2.09-.037-2.58-.16zM446.152 186.205c0-6.687-.055-6.292.871-6.287.93.005 1.032.105 1.142 1.137l.103.963.435-.6c.829-1.145 2.158-1.74 3.596-1.61 1.206.11 1.894.5 2.505 1.418l.512.769.419-.57c.751-1.022 2.002-1.658 3.258-1.658 1.106 0 2.107.368 2.726 1.003 1.067 1.095 1.082 1.184 1.134 6.652l.047 4.892h-2.26v-4.117c0-4.368-.093-5.178-.672-5.803-.749-.808-2.244-.804-3.21.008-.944.795-.964.905-1.046 5.58l-.075 4.257-1.071.044-1.071.043-.05-4.375c-.046-4.113-.068-4.417-.372-5.074-.41-.89-1.012-1.229-2.01-1.133-.968.093-1.703.674-2.203 1.74-.389.83-.393.877-.439 4.834l-.046 3.996H446.153zM469.739 192.188c-2.304-.76-3.585-2.514-3.81-5.215-.176-2.108.45-4.346 1.54-5.507 1.608-1.71 4.368-2.182 6.533-1.117 1.504.74 2.332 2.003 2.612 3.982.08.563.105 1.311.057 1.665l-.088.642h-8.362l.103.784c.314 2.37 1.768 3.391 4.56 3.202.701-.047 1.593-.184 1.983-.303l.707-.218.16.594c.088.327.14.734.114.904-.077.517-1.01.748-3.258.809-1.66.044-2.163.005-2.851-.222zm4.715-7.828c-.22-1.34-.667-2.044-1.596-2.518-1.042-.532-2.87-.246-3.585.56-.318.358-.799 1.462-.918 2.107l-.089.485h6.292zM174.372 221.096c-1.505-.436-2.712-1.297-3.356-2.396-.782-1.336-1.044-3.862-.596-5.76.618-2.622 2.415-4.165 5.027-4.316 1.451-.084 2.37.138 3.361.813 1.412.96 2.136 2.584 2.136 4.786v1.243h-8.407l.083.802c.206 1.998 1.37 3.024 3.61 3.184.947.068 2.613-.164 3.387-.471.19-.076.278.05.41.576.258 1.02.231 1.087-.54 1.362-.945.338-4.174.45-5.115.177zm4.3-7.983c-.16-1.664-1.058-2.602-2.586-2.699-1.21-.077-1.868.15-2.518.869-.462.512-.989 1.76-.989 2.343 0 .156.63.197 3.081.197h3.081zM184.415 221.021c-.148-.096-.18-1.431-.15-6.163l.04-6.04.805-.045c.443-.025.863.011.933.081.07.07.17.542.223 1.05l.097.921.689-.732c.9-.958 2.048-1.495 3.199-1.497 1.877-.003 3.047.667 3.704 2.12.353.782.358.85.358 5.571v4.78l-.737.047c-.406.025-.889.009-1.073-.038l-.336-.084-.048-4.369c-.042-3.88-.078-4.43-.321-4.92-.4-.805-.905-1.083-1.967-1.087-1.477-.006-2.586.833-3.096 2.342-.093.277-.203 2.156-.252 4.3l-.087 3.809-.896.039c-.493.02-.981-.017-1.085-.085zM201.234 220.955c-.287-.233-4.798-11.872-4.677-12.068.103-.166 2.008-.19 2.252-.029.091.06.893 2.345 1.783 5.077.89 2.731 1.666 4.966 1.727 4.966.06 0 .858-2.246 1.773-4.99 1.055-3.166 1.747-5.024 1.892-5.08.323-.123 1.74-.104 1.938.027.206.137-4.315 11.82-4.682 12.097-.135.103-.59.187-1.011.187-.42 0-.868-.084-.995-.187zM210.818 204.86v-1.194h1.179c1.337 0 1.36.02 1.36 1.195 0 1.174-.023 1.195-1.36 1.195h-1.18zM211.488 220.962c-.04-.106-.09-2.479-.11-5.272l-.038-5.079-.766-.044c-.7-.04-.774-.08-.847-.448a2.54 2.54 0 010-.815l.08-.41H213.51l-.04 6.086-.038 6.087-.936.045c-.663.031-.956-.012-1.008-.15zM217.724 221.018c-.147-.094-.18-1.427-.149-6.16l.04-6.04.582-.047c1.101-.09 1.243.016 1.359 1.018.057.493.131.897.164.897.034 0 .308-.274.61-.608.711-.787 1.472-1.166 2.574-1.281l.888-.093.102.543c.056.298.057.778.004 1.066-.097.517-.106.522-.876.526-1.35.006-2.353.652-2.897 1.866-.227.509-.273 1.145-.317 4.402-.036 2.699-.102 3.84-.226 3.919-.234.149-1.62.143-1.857-.008zM229.088 221.023a7.753 7.753 0 01-1.382-.679c-1.708-1.13-2.65-3.917-2.253-6.67.31-2.166 1.428-3.817 3.118-4.609.753-.353 1.02-.395 2.486-.394 1.505 0 1.712.036 2.465.42 2.06 1.053 3.137 3.045 3.137 5.801 0 2.923-1.16 5.057-3.248 5.974-1.03.453-3.27.534-4.323.157zm3.288-1.728c.567-.237 1.206-.947 1.544-1.719.15-.34.265-1.157.311-2.197.113-2.558-.423-3.985-1.75-4.656-1.7-.858-3.66-.1-4.32 1.673-.94 2.528-.275 5.914 1.33 6.763.75.396 2.109.46 2.885.136zM240.13 221.018c-.148-.094-.18-1.427-.15-6.16l.04-6.04.746-.038c.411-.021.83.016.933.083.102.067.23.543.284 1.057l.097.934.64-.731c.433-.495.94-.866 1.568-1.148.82-.368 1.058-.408 2.064-.348 1.767.105 2.66.677 3.332 2.136.331.719.345.908.39 5.435.038 3.753.008 4.715-.149 4.815-.245.155-1.628.164-1.866.012-.127-.08-.19-1.324-.224-4.441-.046-4.14-.063-4.357-.38-4.95-.833-1.558-3.441-1.36-4.521.343-.64 1.01-.749 1.816-.749 5.571 0 2.974-.03 3.424-.236 3.503-.34.13-1.597.108-1.82-.033zM253.904 220.955c-.04-.103-.054-2.876-.032-6.162l.039-5.974.583-.048c1.117-.091 1.248.011 1.361 1.067l.101.944.846-.845c1.076-1.076 1.972-1.41 3.514-1.31 2.033.132 3.08 1.05 3.51 3.075.101.48.167 2.466.167 5.038v4.247l-.346.087c-.19.047-.677.065-1.083.04l-.737-.047-.074-4.331c-.068-3.95-.101-4.384-.374-4.92-.45-.886-.98-1.206-1.99-1.2-1.029.006-2.014.495-2.524 1.252-.684 1.015-.788 1.753-.788 5.55 0 4.007.097 3.724-1.287 3.724-.514 0-.84-.069-.886-.187zM271.256 221.135c-2.801-.704-4.275-2.822-4.275-6.145 0-3.819 1.987-6.19 5.335-6.367 3.365-.178 5.42 1.946 5.42 5.6v1.243h-8.407l.082.802c.207 1.998 1.37 3.024 3.61 3.184.948.068 2.613-.164 3.387-.471.19-.076.279.05.411.576.257 1.02.23 1.087-.54 1.362-.84.3-4.126.44-5.023.216zm4.208-8.022c-.092-.956-.5-1.763-1.134-2.247-.433-.33-.712-.41-1.585-.451-1.466-.07-2.238.336-2.809 1.477-.223.446-.449 1.063-.502 1.37l-.097.56h6.196zM281.206 221.021c-.147-.096-.18-1.431-.15-6.163l.04-6.04.583-.047c1.11-.09 1.258.02 1.37 1.02.057.492.144.89.195.886.05-.005.295-.287.541-.627.658-.907 1.793-1.455 3.009-1.455 1.493 0 2.281.415 3.043 1.604l.406.634.405-.584c.754-1.089 1.847-1.655 3.191-1.653 1.7.002 2.694.529 3.389 1.796l.448.817v9.859l-.737.046c-.405.025-.893.008-1.083-.04l-.346-.087v-4.142c-.002-4.476-.077-5.065-.738-5.725-1.182-1.182-3.534-.33-4.03 1.46-.094.335-.16 2.187-.16 4.489l-.001 3.918-.346.087c-.19.047-.678.065-1.083.04l-.737-.047-.076-4.406c-.083-4.819-.139-5.144-.989-5.815-.359-.284-.566-.329-1.273-.278-1.278.091-2.048.775-2.56 2.275-.086.251-.196 2.205-.243 4.34l-.087 3.884-.896.039c-.493.021-.981-.017-1.085-.085zM304.955 221.068c-1.97-.551-3.194-1.674-3.752-3.439-.85-2.69-.353-5.684 1.222-7.349 1.015-1.073 2.064-1.551 3.616-1.648 2.096-.13 3.62.555 4.658 2.099.575.854.978 2.52.914 3.771l-.046.89-4.228.039-4.229.04.094.707c.052.389.274 1.07.494 1.512.326.654.555.893 1.222 1.27.772.436.913.464 2.316.456.884-.005 1.84-.104 2.346-.245l.852-.238.143.47c.387 1.279.394 1.255-.465 1.527-1.103.348-4.119.43-5.157.138zm4.446-7.592c0-.73-.448-1.835-.929-2.29-.71-.673-1.035-.799-2.056-.799-1.747 0-2.843.98-3.087 2.763l-.092.673h6.164z" fill="#2e3192"/><path d="M304.602 220.917c-.879-.282-2.004-1.043-2.546-1.722-1.396-1.748-1.563-5.775-.327-7.885.508-.867 1.412-1.726 2.232-2.123 1.345-.651 3.71-.65 4.99.004.803.41 1.88 1.671 2.169 2.541.321.968.522 2.424.42 3.05l-.08.5-4.166.11-4.166.109v.36c0 .61.573 2.026 1.007 2.489 1.118 1.191 2.798 1.414 5.815.769.451-.097.482-.074.634.475.247.89.204 1.054-.324 1.253-.768.29-4.815.34-5.658.07zm4.796-7.58c-.007-.967-.816-2.296-1.67-2.74-.956-.497-2.898-.122-3.661.708-.39.425-.79 1.48-.79 2.088v.43h6.124zM314.996 220.955c-.039-.103-.054-2.876-.032-6.162l.039-5.974.721-.046c.837-.054 1.146.14 1.146.718 0 .226.04.61.089.854l.088.443.75-.794c1.023-1.08 2.001-1.453 3.586-1.364 1.494.083 2.391.591 2.984 1.69.593 1.1.716 2.247.717 6.674l.001 3.993-.346.087c-.19.047-.677.065-1.083.04l-.737-.047-.087-4.257c-.09-4.427-.164-4.957-.783-5.641-.838-.926-2.669-.76-3.77.34-1.006 1.007-1.11 1.555-1.11 5.835 0 4.09.099 3.798-1.287 3.798-.514 0-.84-.069-.886-.187zM332.009 221.132c-.992-.133-1.923-.662-2.338-1.329-.316-.507-.33-.699-.375-4.823l-.045-4.294h-.963c-.718 0-.962-.052-.962-.206 0-.113.89-1.198 1.979-2.411l1.98-2.205.074 1.477.075 1.478 1.568.075 1.568.074V210.611l-1.624.043-1.623.043.067 3.691c.09 4.95.114 5.003 2.284 5.025l1.046.011.078.784c.079.779.077.784-.373.851-1.004.15-1.685.17-2.416.073zM100.3 221.096c-2.78-.805-4.186-2.864-4.18-6.123.008-3.743 2-6.16 5.231-6.348 1.42-.082 2.359.13 3.325.747 1.412.902 2.197 2.63 2.197 4.837v1.257h-8.365v.42c0 .703.432 1.927.858 2.433.85 1.01 2.877 1.418 4.893.983.575-.124 1.154-.269 1.287-.321.19-.076.278.05.41.576.258 1.02.231 1.087-.54 1.362-.945.338-4.174.45-5.115.177zm4.359-7.945c-.067-.846-.565-1.808-1.18-2.276-.613-.468-2.048-.638-2.93-.346-.73.24-1.529 1.176-1.808 2.117-.38 1.278-.606 1.188 2.866 1.142l3.1-.04zM112.91 213.673c0-1.684.022-2.373.049-1.53.027.841.027 2.22 0 3.061-.027.843-.048.154-.048-1.53z" fill="#2e3192"/><path d="M113.297 221.115c-1.042-.166-1.845-.696-2.275-1.504-.324-.608-.34-.811-.389-4.78l-.05-4.145h-.876c-.481 0-.915-.066-.965-.146-.05-.081.837-1.177 1.97-2.435l2.06-2.289.043 1.539.043 1.539h1.547c1.535 0 1.548.003 1.643.382.053.21.053.614 0 .896l-.097.514H112.848v3.353c0 3.666.139 4.756.648 5.075.461.289 1.27.39 1.991.25.702-.135.79-.017.794 1.066.002.459-.057.569-.334.625-.774.156-1.882.181-2.65.06zM127.95 221.065c-2.39-.672-3.642-2.114-4.065-4.677-.137-.827-.138-1.367-.006-2.303.333-2.358 1.493-4.03 3.427-4.937.899-.422 1.145-.47 2.42-.474.78-.002 1.705.052 2.054.12l.635.126v-5.404h2.093l-.038 8.623-.039 8.622-.822.198c-1.307.314-4.695.378-5.66.106zm4.204-1.79c.24-.098.261-.445.261-4.262v-4.154l-.485-.156c-1.522-.487-3.087-.319-4.14.444-1.414 1.025-1.995 3.704-1.308 6.037.242.819 1.247 1.793 2.15 2.082.73.234 2.954.24 3.522.008zM142.086 221.13c-.772-.183-1.939-.793-2.563-1.342-.639-.56-1.352-1.948-1.59-3.094-.216-1.035-.103-3.235.22-4.298.514-1.685 1.95-3.105 3.64-3.596 1.102-.32 2.985-.224 3.938.202.927.413 1.863 1.377 2.34 2.409.327.703.401 1.11.45 2.45l.059 1.605h-8.44l.089.747c.207 1.744 1.142 2.81 2.765 3.147.976.203 2.59.104 3.68-.225.575-.173.767-.183.855-.042.195.312.315 1.467.168 1.614-.461.461-4.238.746-5.611.422zm4.279-7.942c-.316-2.126-1.74-3.135-3.864-2.737-1.043.196-1.981 1.377-2.234 2.812l-.098.56h6.29zM158.989 220.795a2.493 2.493 0 01-1.032-1.008l-.373-.662-.043-7.804-.042-7.805h2.251v7.297c0 4.942.053 7.45.165 7.77.212.61.524.766 1.529.766h.817l.102.74c.056.407.058.81.005.897-.056.09-.657.156-1.409.156-1.084 0-1.427-.06-1.97-.347zM164.081 209.02c0-.34 1.24-4.835 1.384-5.018.143-.182 1.914-.275 2.08-.11.041.042-.181.987-.495 2.1a361.607 361.607 0 00-.73 2.61l-.16.59h-1.039c-.688 0-1.04-.058-1.04-.173z" fill="#2e3192"/></svg>