<svg xmlns="http://www.w3.org/2000/svg" width="24.078" height="30.571" viewBox="0 0 6.371 8.089"><path d="M6.274 2.513l.09-.072-.045-.011-.062.07zm-2.64-.396H6.35V0H4.113c.02.014.04.031.053.053.01.015.025.043.015.063-.01.024-.015.062-.039.072a.181.181 0 01-.101.01.231.231 0 01-.058-.01.39.39 0 01.188.13c.005.01.024.015.044.015.004 0 .004.01.004.014-.01.01-.019.015-.014.029h.014c.024-.01.02-.058.053-.043a.054.054 0 01.02.072.543.543 0 01-.058.048.043.043 0 000 .034.16.16 0 01.024.058c.014.033.02.072.033.106.02.072.04.144.034.217 0 .038-.02.072-.005.11.01.039.034.068.053.102.02.028.039.048.053.077.03.048.082.096.058.154-.014.034-.067.029-.1.048-.03.024-.006.062.009.087.024.043-.03.072-.063.087.01.014.029.01.034.019.005.024.029.039.014.062-.02.03-.077.044-.048.087.02.034.007.072-.005.106-.014.044-.053.063-.086.072a.19.19 0 01-.092.005.065.065 0 00-.03-.01c-.08-.01-.163-.033-.245-.033a.31.31 0 00-.067.019.503.503 0 00-.17.257m.52-1.235c.02.005.048.005.048.014-.01.039-.067.048-.096.087h-.015c-.014.01-.01.034-.024.034-.014-.005-.029 0-.043.005.019.019.043.033.072.028.005 0 .015.01.015.02 0 0 .004 0 .01-.005.004 0 .009 0 .009.005v.019c-.014.02-.039.01-.058.014.039.01.077.01.111 0 .029-.01 0-.058.02-.082-.01 0 0-.014-.01-.014.01-.01.019-.024.028-.029.01 0 .024-.005.03-.014 0-.01-.02-.015-.015-.024.029-.02.053-.049.043-.077-.004-.015-.043-.015-.067-.025-.024-.01-.053 0-.082.005-.024 0-.048.014-.073.02a.306.306 0 00-.091.048c.034-.015.068-.02.106-.03.03 0 .053-.006.082 0M3.52 2.514l.09-.072-.045-.01-.062.07zm.007.031c-.065 0-.122.073-.122.156 0 .034.018.053.049.053.026 0 .054-.01.091-.034L3.54 2.7c-.03.02-.05.028-.066.028-.018 0-.027-.014-.027-.04 0-.008 0-.015.002-.024h.015c.064 0 .114-.034.114-.08 0-.026-.019-.04-.05-.04m-.013.02c.014 0 .026.01.026.025 0 .032-.036.057-.083.057h-.005c.013-.05.039-.082.063-.082M3.37 2.55h-.042l.012-.06-.024.006c-.01.03-.02.057-.056.063l-.003.016h.027l-.016.074-.012.052a.153.153 0 00-.006.037c0 .01.007.015.017.015a.22.22 0 00.068-.018l-.001-.015-.005.001a.1.1 0 01-.023.006c-.007 0-.01-.004-.01-.01 0-.005 0-.012.005-.04l.022-.103.042.001zm-.174-.087c0-.015-.01-.024-.025-.024a.03.03 0 00-.031.03c0 .015.01.025.026.025a.03.03 0 00.03-.031m-.076.107c.006 0 .009.004.009.01a.266.266 0 01-.01.051l-.021.083a.128.128 0 00-.004.023c0 .01.006.015.016.015a.225.225 0 00.07-.018V2.72a.101.101 0 01-.029.007c-.007 0-.011-.005-.011-.012a.39.39 0 01.016-.075l.007-.03a.304.304 0 00.012-.057c0-.006-.003-.008-.01-.008a.226.226 0 00-.07.017l.002.014H3.1c.011-.004.015-.006.02-.006m-.08-.114a.239.239 0 00.01-.043c0-.006-.004-.008-.012-.008a.266.266 0 00-.068.016l.001.015a.077.077 0 01.022-.005c.006 0 .009.003.009.01a5.766 5.766 0 01-.056.249.224.224 0 00-.009.048c0 .01.006.015.015.015a.238.238 0 00.071-.018l-.001-.014a.119.119 0 01-.028.006c-.007 0-.01-.004-.01-.011 0-.008.002-.023.007-.046.016-.072.033-.147.05-.214m-.167-.538c.015-.015.032-.029.048-.043l-.006-.006-.052.031-.003-.006.053-.048c-.058-.012-.094.012-.129.038-.013.01-.027.03-.039.028-.044-.004-.075.021-.104.045-.056.046-.122.065-.187.087-.017.005-.035.006-.052.008l-.251.024a.463.463 0 01-.048.042h.576c.021-.019.041-.046.054-.06.045-.048.093-.094.14-.14M2.753.097C2.79.049 2.849.025 2.902 0H.042v2.117h1.445c.043-.06.129-.057.196-.088.024-.01.053.005.077 0 .015 0 .03 0 .044.01-.046.025-.088.053-.13.079h.25l.087-.045a.34.34 0 00-.092.043c-.005 0-.019.005-.019-.005.005-.01.019-.015.029-.024.004 0 .01 0 .01.005.154-.12.366-.091.544-.154l.043-.03c.024-.01.044-.033.072-.047a.211.211 0 00.082-.111c0-.005-.004-.01-.004-.01a.74.74 0 01-.212.159c-.102.053-.212.043-.319.057.005-.009.015-.009.025-.009 0-.014.01-.02.02-.029h.014c.004 0 .004-.01.009-.01.01 0 .024-.005.02-.005-.015-.02-.044.015-.068 0 .01-.01.005-.024.014-.029h.02c0-.01.01-.019.01-.019.072-.043.139-.077.206-.116-.014 0-.024.015-.038.005.01 0 0-.014.01-.014.052-.014.096-.043.149-.063-.02 0-.034.015-.053 0 .01-.005.015-.014.029-.014v-.015c0-.005.005-.005.01-.005-.005 0-.01-.005-.01-.005.005-.01.019-.005.029-.014-.005 0-.015 0-.015-.005.015-.02.039-.024.063-.029-.005-.01-.02 0-.02-.01 0-.005.005-.005.01-.005h-.01c-.009-.005-.004-.014-.004-.019.029-.034.029-.077.043-.116-.005 0-.01 0-.01-.005-.048.053-.125.072-.197.092h-.024a.094.094 0 01-.082-.005c-.02-.01-.029-.024-.048-.039a.526.526 0 00-.12-.058 1.092 1.092 0 00-.372-.053c.053-.029.112-.03.17-.048.08-.024.158-.053.245-.048-.015-.005-.034 0-.049 0-.067-.005-.134.015-.207.029-.048.01-.091.029-.14.038-.028.01-.043.039-.077.034v-.014c.049-.058.107-.116.184-.12.086-.015.168 0 .255.01.062.004.12.019.183.033.024 0 .029.039.048.044.03.01.058 0 .087.019 0-.01-.005-.02 0-.03.02-.019.044.006.063-.004.038-.024-.034-.068-.053-.102 0-.005.005-.01.005-.01.038.034.067.073.115.096.024.01.082.025.073-.005-.025-.052-.073-.096-.112-.144v-.02c-.009 0-.009-.004-.014-.01v-.019c-.02-.01-.014-.029-.024-.043-.014-.024-.005-.058-.014-.087a.532.532 0 01-.02-.082C2.46.798 2.44.725 2.43.648c-.01-.091.053-.164.096-.246a.414.414 0 01.135-.154.421.421 0 01.092-.154M1.418 1.891c.005-.014.024-.019.034-.033 0-.005 0-.01-.005-.01.038-.053.092-.082.14-.126v-.014c.014-.02.038-.029.048-.053.005-.015.024-.034.048-.043-.005-.005-.014-.005-.014-.015-.02 0-.039.01-.058-.005a.075.075 0 01.04-.02c-.009.001-.016.002-.02-.005-.006-.009.009-.02.023-.023.02-.005.043-.005.058-.02-.034-.005-.072.01-.106-.01a.256.256 0 01.12-.144c.005 0 .015 0 .015.005a.047.047 0 01-.039.048c.039.01.077.01.116.029-.005.01-.014.005-.02.005.025.014.054.005.078.024-.014.014-.029 0-.044 0 .15.043.309.077.434.173a1.329 1.329 0 01-.333.101c-.014 0-.023 0-.038-.005 0 .005 0 .015-.005.015-.019 0-.033 0-.048.01-.019.01-.048.015-.063 0-.004-.005.015 0 .02-.01h-.04c-.004 0-.004-.005-.004-.01l-.077.019c-.033.01-.062.034-.1.044-.054.019-.098.062-.155.081-.005 0-.005-.005-.005-.01m.11-.443a.036.036 0 01-.018.02c-.005 0-.01 0-.01-.006.005-.019.02-.038.039-.043.004 0 .004.005.004.01-.004.01-.01.01-.014.02m.323-.3c-.014.02-.039.015-.058.03-.005 0-.01 0-.015-.005.005-.005.005-.01.005-.014-.048.052-.115.076-.154.14-.029.047-.048.11-.11.124-.02.005.004-.014-.006-.01a1.63 1.63 0 00-.37.332s-.005-.005-.005-.01c.062-.081.11-.158.154-.245a.678.678 0 00.164-.135.936.936 0 01.27-.212.183.183 0 01.125.005M.054 2.663a.13.13 0 01-.02.053c-.008.01-.017.014-.032.015L0 2.742h.007L.07 2.74h.049l.073.002c.018 0 .026-.002.03-.008a.35.35 0 00.03-.067L.24 2.663c-.02.041-.04.053-.097.053C.11 2.716.1 2.71.1 2.69c0-.003 0-.01.002-.016.002-.018.005-.032.013-.074l.007-.034c.018-.097.025-.119.038-.135.008-.01.016-.014.032-.015l.002-.011H.065l-.002.01c.022.003.03.012.03.035a.465.465 0 01-.011.076l-.008.04-.02.097m.292-.198c0 .014.01.024.027.024s.03-.013.03-.031c0-.015-.01-.024-.025-.024a.03.03 0 00-.032.03m-.019.101c.005 0 .009.004.009.01a.284.284 0 01-.01.052 5.084 5.084 0 00-.025.106c0 .009.006.014.016.014a.228.228 0 00.07-.018l-.001-.014a.103.103 0 01-.028.007.012.012 0 01-.012-.012c0-.008.004-.025.016-.074l.008-.03a.325.325 0 00.011-.058c0-.006-.002-.008-.01-.008a.228.228 0 00-.069.017l.002.015.003-.001c.01-.003.015-.005.02-.005m.287-.026a.165.165 0 00-.086.027l.009-.037.015-.066a.377.377 0 00.011-.056c0-.006-.004-.008-.01-.008a.245.245 0 00-.062.014l-.006.002.001.015a.163.163 0 01.022-.005c.006 0 .009.004.009.01s-.002.02-.007.044l-.025.108-.026.114a.159.159 0 00-.005.03c0 .01.023.017.063.017.036 0 .06-.007.079-.024a.197.197 0 00.063-.136c0-.032-.015-.048-.046-.048m.004.052a.214.214 0 01-.035.107.062.062 0 01-.051.028c-.02 0-.032-.005-.032-.015 0-.007.004-.027.011-.058a.16.16 0 01.02-.058.083.083 0 01.03-.023.083.083 0 01.035-.011c.015 0 .022.01.022.03m.136.093c0-.008 0-.015.002-.024h.014c.065 0 .115-.034.115-.081 0-.025-.019-.04-.05-.04-.066 0-.123.072-.123.156 0 .034.017.052.049.052.026 0 .054-.01.091-.034l-.005-.017c-.03.019-.05.028-.066.028-.018 0-.027-.014-.027-.04m.006-.042c.013-.05.038-.083.062-.083.014 0 .025.012.025.026 0 .032-.035.057-.082.057zm.204-.076c.006 0 .009.006.009.018 0 .01-.003.03-.011.062l-.011.047-.013.052.044-.004.01-.05c.01-.055.019-.09.038-.111a.027.027 0 01.021-.012c.013 0 .021.006.021.016l-.001.019.016.001a.317.317 0 01.019-.052.067.067 0 00-.034-.014c-.014 0-.034.011-.057.03a.145.145 0 00-.003-.022c-.001-.005-.004-.007-.01-.007a.234.234 0 00-.065.018l.002.015.012-.004c.005 0 .01-.003.013-.003m.3-.021H1.22l.012-.059-.024.005c-.01.03-.021.057-.056.063l-.003.016h.026l-.015.074a.82.82 0 01-.012.052.15.15 0 00-.006.037c0 .01.006.015.017.015a.222.222 0 00.068-.018l-.002-.015-.004.001a.106.106 0 01-.024.006c-.006 0-.01-.004-.01-.01 0-.004 0-.012.006-.039l.022-.104.041.001zm.195-.12l-.062.07.017.013.09-.072zm-.118.26c0-.008 0-.016.002-.025l.015.001c.064 0 .114-.035.114-.081 0-.026-.02-.04-.05-.04-.066 0-.123.072-.123.155 0 .034.017.053.049.053.026 0 .054-.01.091-.034l-.005-.017c-.03.018-.05.027-.066.027-.018 0-.027-.014-.027-.04m.006-.042c.012-.049.039-.082.063-.082.013 0 .024.011.024.025 0 .032-.035.057-.082.057zm.453.012a.061.061 0 100-.122.061.061 0 100 .122m.466-.296l.016.013.091-.072-.046-.01zm.126.047h-.23l-.002.01c.022.003.03.012.03.035a.409.409 0 01-.011.076l-.008.04-.02.097a.136.136 0 01-.02.052.04.04 0 01-.032.016l-.002.01h.07l.07.001.054.001c.022 0 .028 0 .033-.007a.268.268 0 00.03-.069l-.012-.005c-.02.044-.04.054-.103.054-.034 0-.043-.004-.043-.022 0-.01.002-.027.008-.056l.011-.059a.523.523 0 01.043-.001c.042 0 .055.007.055.029v.009h.013a.813.813 0 01.02-.098H2.33c-.005.02-.016.031-.035.035-.012.002-.025.002-.058.002H2.22c.008-.045.015-.082.026-.124h.05c.05 0 .068.01.068.037l-.001.01h.015a.852.852 0 01.014-.073m.051.22c0 .02.008.034.024.045-.03.017-.045.03-.045.042 0 .008.005.013.03.021-.041.01-.066.03-.066.07 0 .042.034.068.09.068.067 0 .12-.041.12-.095 0-.03-.02-.041-.06-.054l-.04-.013c-.023-.007-.028-.01-.028-.015 0-.005.004-.008.016-.016a.09.09 0 00.028.004c.05 0 .09-.036.09-.082a.056.056 0 00-.009-.03h.034l.006-.025h-.067a.092.092 0 00-.034-.005c-.05 0-.089.036-.089.084m.039-.002c0-.034.021-.063.049-.063.02 0 .032.016.032.04 0 .036-.021.063-.048.063-.02 0-.033-.016-.033-.04m-.003.122a.868.868 0 01.06.02c.018.007.025.015.025.027 0 .032-.04.062-.084.062-.037 0-.06-.018-.06-.045 0-.03.025-.055.06-.064m.368-.021c-.006 0-.01-.007-.01-.022 0-.021.014-.085.032-.144l.002-.008a.24.24 0 00-.065-.01c-.051 0-.085.027-.112.07a.196.196 0 00-.034.096c0 .027.018.043.048.043a.19.19 0 00.091-.03c.005.024.008.03.017.03a.293.293 0 00.06-.018l-.002-.015a.093.093 0 01-.027.007m-.024-.154a.64.64 0 01-.02.093c-.005.019-.009.03-.016.036a.12.12 0 01-.064.03c-.013 0-.02-.01-.02-.025 0-.026.013-.068.033-.098.017-.029.037-.044.057-.044.009 0 .02.002.03.008m1.081.085a.062.062 0 00.062-.061.061.061 0 00-.123 0 .06.06 0 00.061.061m.39-.204a.454.454 0 01-.01.077l-.009.04c-.01.053-.013.068-.02.096a.135.135 0 01-.02.053c-.007.01-.016.014-.031.016l-.003.01h.127l.002-.01c-.021-.002-.03-.012-.03-.033a.49.49 0 01.013-.086l.007-.033.033-.001c.031 0 .041.002.05.008a.029.029 0 01.009.02l-.001.01h.014a.854.854 0 01.02-.099H4.43c-.011.033-.022.038-.078.038h-.029c.01-.043.017-.083.026-.125h.038c.038 0 .056.002.066.012a.032.032 0 01.009.024v.012h.013a1.5 1.5 0 01.015-.074h-.224l-.003.012c.022.002.03.011.03.033m.232.117c.006 0 .009.006.009.018a.34.34 0 01-.011.063l-.012.047-.012.051.044-.004.01-.049c.01-.056.018-.09.037-.112.007-.008.014-.012.022-.012.013 0 .02.006.02.016v.02h.016a.319.319 0 01.018-.052.066.066 0 00-.033-.014c-.014 0-.035.011-.057.03a.146.146 0 00-.004-.022c0-.005-.003-.007-.008-.007a.239.239 0 00-.066.018l.001.015.013-.004c.005 0 .01-.003.012-.003m.354.157c-.007 0-.01-.007-.01-.022 0-.021.013-.085.032-.143l.002-.008a.24.24 0 00-.065-.01c-.051 0-.085.026-.112.069a.199.199 0 00-.034.096c0 .028.018.043.048.043a.2.2 0 00.092-.03c.004.024.008.03.016.03a.296.296 0 00.06-.018l-.002-.015a.093.093 0 01-.027.007m-.024-.154a.758.758 0 01-.02.093c-.005.019-.009.03-.016.036a.12.12 0 01-.064.03c-.013 0-.02-.01-.02-.025 0-.026.013-.068.032-.098.018-.029.038-.044.058-.044.008 0 .02.002.03.008m.24-.023h-.043l.013-.06-.024.006c-.01.03-.022.057-.056.063l-.003.016.026-.001-.015.075-.012.052a.154.154 0 00-.006.037c0 .01.006.015.017.015a.22.22 0 00.068-.018l-.001-.015-.006.001a.1.1 0 01-.023.006c-.006 0-.01-.004-.01-.01 0-.005 0-.012.006-.04l.021-.103.042.001zm.077.14c0-.009 0-.016.002-.025h.014c.065 0 .114-.034.114-.08 0-.026-.018-.04-.05-.04-.065 0-.122.072-.122.155 0 .034.017.053.049.053a.178.178 0 00.091-.034l-.005-.018c-.03.019-.05.028-.066.028-.018 0-.027-.014-.027-.04m.006-.042c.013-.05.038-.082.062-.082.014 0 .025.01.025.025 0 .032-.035.057-.082.057zm.204-.076c.006 0 .009.006.009.018 0 .011-.004.03-.011.063l-.01.046-.014.052.044-.004.01-.05c.01-.055.019-.09.038-.11.006-.009.014-.013.021-.013.013 0 .021.006.021.016l-.001.02h.016a.317.317 0 01.019-.052.067.067 0 00-.034-.014c-.014 0-.034.011-.057.03a.113.113 0 00-.003-.022c-.001-.005-.004-.007-.01-.007a.234.234 0 00-.065.018l.002.015.012-.004c.005 0 .01-.003.013-.003m.366.156c-.007 0-.011-.004-.011-.011l.004-.03a.824.824 0 01.014-.059.302.302 0 00.013-.068c0-.01-.006-.014-.023-.014a.24.24 0 00-.105.034v-.004c0-.024-.003-.03-.014-.03a.221.221 0 00-.063.016v.014a.106.106 0 01.026-.006c.007 0 .01.006.01.018a2.287 2.287 0 01-.036.164l.045-.006a1.659 1.659 0 01.031-.133.108.108 0 01.035-.029.087.087 0 01.038-.014c.007 0 .01.004.01.012s-.003.03-.018.092l-.005.022a.243.243 0 00-.008.042c0 .01.006.015.016.015a.295.295 0 00.069-.017l-.002-.015a.084.084 0 01-.026.007m.146-.257c0 .014.01.024.025.024.018 0 .03-.013.03-.031 0-.015-.009-.024-.024-.024a.03.03 0 00-.031.03m-.02.101c.006 0 .009.004.009.01a.266.266 0 01-.01.051l-.021.083a.128.128 0 00-.004.024c0 .009.006.014.016.014a.224.224 0 00.07-.018v-.014a.101.101 0 01-.029.007c-.007 0-.011-.005-.011-.012 0-.008.003-.025.016-.074l.007-.03a.304.304 0 00.012-.058c0-.006-.004-.008-.01-.008a.226.226 0 00-.07.017l.002.014h.003a.058.058 0 01.02-.006m.25-.02l-.043.001.013-.06-.024.005c-.01.03-.021.057-.056.063l-.003.016h.027l-.016.075-.012.052a.166.166 0 00-.006.036c0 .01.006.015.017.015a.22.22 0 00.068-.017l-.001-.015h-.006a.104.104 0 01-.022.007c-.007 0-.01-.004-.01-.011 0-.004 0-.012.005-.039l.021-.103h.042zm.077.14c0-.008 0-.015.002-.024h.015c.064 0 .114-.034.114-.081 0-.025-.02-.04-.05-.04-.066 0-.122.072-.122.156 0 .034.017.052.048.052.026 0 .054-.01.091-.034l-.005-.017c-.03.019-.05.028-.066.028-.018 0-.027-.014-.027-.04m.006-.042c.012-.05.038-.083.063-.083.013 0 .024.012.024.026 0 .032-.035.057-.082.057zm.148.317H.032v.02h6.323zm-6.02.555A.912.912 0 00.27 3.42c.058-.02.091-.063.091-.114a.103.103 0 00-.04-.083c-.02-.015-.046-.021-.089-.021l-.068.002c-.04.002-.05.002-.082.002H.044v.017c.022.002.035.01.04.026a.477.477 0 01.006.114v.105c0 .062 0 .073-.002.092a.06.06 0 01-.013.034.04.04 0 01-.03.013v.017H.21v-.017c-.02-.002-.032-.01-.038-.026a.197.197 0 01-.006-.062l-.001-.051v-.033h.027c.023.033.047.073.068.11a.252.252 0 00.055.073c.013.009.026.011.05.011.02 0 .035 0 .052-.005v-.017A.046.046 0 01.39 3.59a.488.488 0 01-.055-.075m-.143-.116l-.027-.002V3.24a.17.17 0 01.038-.005c.044 0 .076.035.076.082 0 .05-.035.081-.087.081m.355-.17l.024.015.087-.08-.06-.01zm.001.327v-.098h.028c.053 0 .068.007.069.036h.019a.7.7 0 010-.101h-.02c-.002.027-.019.036-.073.036l-.023-.001v-.06l.001-.057a.74.74 0 01.04-.001c.061 0 .078.01.082.05H.69l-.001-.037v-.045H.448v.014c.017.002.027.008.032.022a.15.15 0 01.005.051v.147l-.001.06c-.003.022-.013.035-.036.038v.014l.075-.002.074.002.053.002c.028 0 .033-.002.038-.01a.348.348 0 00.021-.077l-.02-.004c-.012.043-.032.056-.087.056a.157.157 0 01-.036-.003c-.013-.003-.017-.01-.017-.033m.253-.19v.13c0 .05 0 .06-.002.076-.002.022-.012.036-.036.038v.014h.139v-.014C.884 3.606.875 3.6.87 3.586a.288.288 0 01-.005-.093v-.187c.009-.002.014-.002.02-.002.04 0 .068.03.068.07 0 .04-.026.064-.075.067l.01.027h.016c.068 0 .119-.041.119-.098 0-.06-.045-.096-.118-.096-.027 0-.054 0-.08.002H.763v.014c.018.002.027.008.032.022a.144.144 0 01.006.051m.525.03v.051a.295.295 0 01-.008.097c-.01.035-.045.052-.08.052a.079.079 0 01-.058-.024c-.016-.019-.018-.036-.018-.125l.001-.097c.001-.023.003-.034.008-.041.005-.01.013-.013.029-.016v-.014h-.012l-.058.001h-.057l-.012-.001v.014c.022.002.031.01.035.029.004.026.003.053.003.08 0 .018-.002.042-.002.099 0 .055.015.085.05.109a.138.138 0 00.082.021c.052 0 .091-.017.115-.052a.126.126 0 00.02-.08v-.083c0-.033 0-.05.002-.072.001-.02.003-.031.01-.039.005-.007.012-.01.024-.011v-.015l-.055.001-.054-.001v.015a.033.033 0 01.027.015c.006.01.008.028.008.087m.32.039c.048-.013.073-.04.073-.08 0-.054-.043-.077-.091-.077l-.106.002h-.07v.014c.017.002.027.008.032.022a.27.27 0 01.005.082v.098c0 .052 0 .061-.002.077-.002.024-.011.036-.035.038v.014h.053l.084.001c.053 0 .08-.006.105-.025a.084.084 0 00.035-.072c0-.051-.029-.083-.084-.094m-.071-.013l-.023-.001.002-.114h.028c.046 0 .073.02.073.057 0 .037-.03.058-.08.058m.089.108c0 .044-.025.068-.07.068-.021 0-.033-.006-.038-.02a.192.192 0 01-.004-.054V3.45l.032-.002c.048 0 .08.03.08.079m.227-.035v-.086l.001-.076c.004-.025.015-.04.041-.04v-.014H1.92l-.06.001h-.058l-.014-.001v.014c.018.002.028.008.033.022.005.014.005.024.005.094v.129c0 .038-.003.051-.012.062-.005.007-.012.01-.026.01v.015a.935.935 0 01.061-.002l.097.002.04.001c.025 0 .031-.002.036-.009a.361.361 0 00.021-.076l-.02-.005c-.005.022-.015.037-.03.045a.113.113 0 01-.057.01c-.022 0-.033-.002-.039-.007-.007-.007-.007-.017-.007-.089m.288 0v-.086l.001-.077c.002-.023.014-.037.036-.039v-.014h-.138v.014c.017.002.027.008.032.022a.14.14 0 01.005.051v.13l-.001.076c-.003.024-.012.036-.036.038v.015h.012l.057-.001h.069v-.014c-.017-.002-.027-.008-.032-.022-.005-.013-.005-.025-.005-.092m.412.146a.692.692 0 00-.055-.03.186.186 0 00.096-.168c0-.103-.07-.172-.178-.172-.11 0-.185.077-.185.187 0 .103.07.172.174.172a.22.22 0 00.041-.003c.024.02.057.042.08.055a.257.257 0 00.125.035.156.156 0 00.092-.027l-.007-.018a.123.123 0 01-.06.015c-.034 0-.07-.013-.123-.045m-.134-.047c-.068 0-.122-.07-.122-.16 0-.075.046-.128.109-.128.069 0 .122.07.122.16 0 .074-.045.128-.11.128m.486-.2v.051c0 .059 0 .075-.008.097-.01.035-.044.052-.079.052a.077.077 0 01-.058-.024c-.016-.019-.018-.036-.018-.125l.001-.098c0-.022.003-.033.007-.04.006-.01.013-.014.03-.016v-.014h-.14v.014c.022.002.032.01.035.029.005.026.003.053.003.08v.098c0 .055.013.086.05.11a.139.139 0 00.08.021c.052 0 .092-.017.116-.052a.126.126 0 00.02-.08v-.084l.001-.071c.002-.02.004-.032.01-.039.006-.007.013-.01.024-.012v-.014h-.108v.014a.032.032 0 01.027.016c.005.01.007.027.007.087m.228.16v-.097h.027c.054 0 .068.007.07.036h.018v-.101h-.019c-.003.028-.02.036-.073.036l-.024-.001v-.06c0-.03.001-.037.002-.057a.746.746 0 01.039-.001c.062 0 .079.01.082.05h.019v-.082h-.243v.014c.018.002.027.008.032.022a.144.144 0 01.006.051v.147c0 .027 0 .044-.002.06-.002.022-.013.036-.036.038v.014a1.849 1.849 0 01.15 0l.052.002c.028 0 .034-.002.038-.01a.363.363 0 00.022-.076l-.02-.004c-.013.042-.032.055-.088.055a.155.155 0 01-.036-.003c-.012-.003-.016-.01-.016-.032m.642-.25L3.81 3.26v-.059h-.288v.018c.021.002.033.01.038.027a.173.173 0 01.007.061v.157c0 .062 0 .074-.002.092-.002.028-.015.044-.043.047v.018l.015-.001h.152v-.017c-.04-.002-.043-.033-.044-.067v-.115c.012-.002.016-.002.027-.002.066 0 .08.008.085.046h.022v-.124h-.022c-.003.034-.021.044-.08.044l-.033-.001c0-.068 0-.099.002-.142l.043-.002c.072 0 .098.017.098.063zm.3.228c-.019-.029-.035-.054-.055-.078.048-.018.076-.053.076-.095A.084.084 0 004.1 3.29c-.018-.013-.04-.018-.075-.018l-.056.001-.068.001h-.03v.014c.017.002.028.008.032.022a.45.45 0 01.005.094v.087c0 .051 0 .06-.002.076a.051.051 0 01-.01.028c-.006.007-.013.01-.026.01v.015h.137v-.015c-.017-.002-.026-.008-.031-.021a.148.148 0 01-.005-.051l-.001-.042v-.028h.022c.019.028.039.06.056.091.01.018.029.049.046.06a.07.07 0 00.041.01c.016 0 .03 0 .043-.004v-.014a.033.033 0 01-.021-.013.345.345 0 01-.047-.062m-.117-.097H3.97v-.13a.114.114 0 01.032-.004c.036 0 .062.029.062.068 0 .041-.028.067-.071.067m.298.172c-.017-.001-.024-.008-.024-.023 0-.01.004-.026.012-.05l.01-.03h.1l.017.05a.106.106 0 01.007.028c0 .015-.01.024-.027.025v.014h.012l.056-.001h.068v-.014c-.013-.003-.02-.009-.027-.021a.412.412 0 01-.028-.063l-.073-.187c-.007-.019-.018-.044-.023-.06h-.035a2.09 2.09 0 01-.048.132l-.05.126a.185.185 0 01-.035.066c-.005.005-.008.006-.016.007v.014h.104zm.01-.134c.008-.026.027-.071.04-.107l.037.107zm.533-.078v.113c-.042-.054-.088-.106-.14-.168-.035-.043-.045-.054-.051-.065h-.09v.014c.016.001.022.005.028.013.007.012.01.022.01.065v.11c0 .033 0 .051-.002.073 0 .027-.002.056-.036.057v.014l.056-.001.054.001v-.014c-.014-.001-.022-.005-.027-.016a.095.095 0 01-.009-.042 3.231 3.231 0 01-.002-.116v-.071l.106.13.104.13h.035v-.117l.001-.154c.001-.027.002-.036.008-.045.007-.012.015-.015.029-.016v-.014a.917.917 0 01-.055 0h-.055v.014c.02.002.03.011.033.028a.397.397 0 01.003.078m.189.036c0-.08.045-.13.118-.13.047 0 .077.02.085.057h.02v-.074a.323.323 0 00-.1-.016c-.12 0-.191.068-.191.18a.18.18 0 00.049.13.16.16 0 00.107.048l-.01.042.01.003a.024.024 0 01.012-.004c.008 0 .013.006.013.017 0 .013-.01.02-.024.02-.006 0-.012-.002-.019-.004l-.007.02c.011.005.02.008.031.008.035 0 .058-.02.058-.048 0-.017-.013-.031-.033-.031h-.01l.005-.021c.04 0 .07-.005.104-.019a.538.538 0 01.011-.075l-.02-.004c-.011.042-.04.064-.084.064-.073 0-.125-.068-.125-.162m.36.175c-.018 0-.024-.008-.024-.023 0-.009.004-.025.012-.05l.01-.03h.1l.016.051a.091.091 0 01.007.028c0 .014-.01.023-.026.024v.015h.012l.056-.001h.068v-.014c-.013-.003-.02-.009-.027-.022a.427.427 0 01-.028-.062l-.074-.187-.023-.06h-.035a1.9 1.9 0 01-.048.132l-.049.125c-.015.04-.025.058-.035.067a.024.024 0 01-.016.007v.014h.103zm.01-.133c.008-.026.026-.072.04-.107l.037.107zm.353.019v-.088l.001-.076c.002-.023.014-.037.036-.039v-.014h-.138v.014c.017.002.027.008.032.022a.14.14 0 01.005.05v.131c0 .051 0 .06-.002.076-.002.024-.01.036-.035.038v.015h.012l.057-.001h.069v-.014c-.018-.002-.027-.008-.031-.022-.006-.013-.006-.025-.006-.093m.154-.142c0-.03.023-.05.056-.05.035 0 .059.022.066.059h.02l-.001-.038v-.033a.178.178 0 00-.084-.019c-.07 0-.113.037-.113.096 0 .045.022.07.059.094l.054.035c.024.015.04.03.04.054 0 .029-.025.048-.062.048-.04 0-.067-.022-.08-.064l-.02.003a.875.875 0 01.01.075.22.22 0 00.087.017c.073 0 .122-.038.122-.094 0-.042-.024-.069-.066-.096l-.043-.029c-.028-.017-.045-.034-.045-.059m.45 1.246H.043v1.648l.017-.001c.42 0 .654.208.689.56H.322C.31 6.66.22 6.577.08 6.577a.401.401 0 00-.036.002v.767a.413.413 0 00.052.004c.145 0 .214-.101.23-.233h.433c-.04.355-.293.568-.656.568l-.059-.002v.405H6.35v-.406a.76.76 0 01-.04 0c-.32 0-.568-.183-.568-.518 0-.327.247-.537.567-.537l.04.001zm-5.172.839h-.03v-.276l-.102.276h-.028l-.101-.276H.916v.276h-.03v-.31h.045l.102.273.1-.273h.045zm.095-.271h-.028v-.039h.028zm-.001.27h-.026v-.222h.026zm.242 0h-.026V5.29c0-.04-.016-.06-.057-.06a.065.065 0 00-.062.044.111.111 0 00-.006.042v.12h-.026v-.223h.026v.031c.02-.022.041-.037.072-.037.027 0 .052.008.068.032a.09.09 0 01.011.05zm.093-.27H1.58v-.039h.028zm-.001.27H1.58v-.222h.026zm.087-.167c0 .061.143.023.143.109 0 .042-.038.065-.09.065-.053 0-.083-.034-.086-.076h.027c.008.038.027.052.066.052.038 0 .055-.02.055-.041 0-.064-.142-.019-.142-.107 0-.036.028-.063.078-.063.048 0 .08.02.086.07h-.026c-.005-.034-.028-.047-.06-.047-.033 0-.05.015-.05.038m.27.168c-.005.001-.016.005-.03.005-.024 0-.039-.011-.039-.044v-.163h-.03v-.021h.03V5.15h.026v.062h.042v.021H1.92v.153c0 .022.001.031.022.031a.075.075 0 00.022-.003zm.03 1.218l-.002.999h-.368l.001-.147c-.1.137-.196.175-.36.175-.218 0-.358-.134-.358-.42v-.607h.397v.539c0 .137.047.181.142.181.114 0 .15-.086.15-.24l.001-.48zm.13-1.465h-.022l-.06-.06h.034zm.07.141h-.172c0 .048.025.088.075.088.033 0 .06-.018.067-.051h.029c-.013.042-.04.074-.096.074-.072 0-.103-.05-.103-.116 0-.065.039-.118.103-.118.06 0 .098.043.098.123m.15-.095c-.058-.001-.073.042-.073.091v.11h-.026v-.223h.026v.041c.015-.035.036-.047.073-.047zm.232.095h-.173c0 .048.025.088.075.088.033 0 .06-.019.067-.051h.029c-.013.042-.04.074-.096.074-.072 0-.103-.05-.103-.116 0-.065.039-.118.103-.118.06 0 .098.043.098.123m.024.952v1.371h-.397l.001-1.372zm.875.374l-.001.228h-.19v.362c0 .091.012.123.123.123l.063.001v.284c-.52.028-.584-.008-.583-.354v-.417h-.14v-.228h.146v-.31h.391v.31zm1.268 0v.999h-.369v-.147c-.098.137-.196.175-.36.175-.217 0-.358-.133-.357-.42v-.607h.396v.54c0 .137.047.18.143.18.114 0 .15-.085.15-.24l.001-.48zm.915-.022v.396c-.027-.004-.056-.01-.082-.01-.162-.001-.245.075-.245.29v.345h-.396v-.998h.36v.202H5.3c.055-.156.153-.23.307-.23.017 0 .034.003.052.005M2.404 5.307h.145c0-.043-.024-.078-.07-.078-.046 0-.07.036-.075.078m-.382 0h.145c0-.043-.024-.078-.07-.078-.046 0-.07.036-.075.078M6.35 7.245h-.212c0 .118.092.196.196.196l.016-.001zm-.212-.202h.212v-.17l-.026-.003c-.119-.001-.185.066-.186.173m.073-3.49v-.098h.027c.054 0 .068.007.07.036h.018a.694.694 0 010-.101h-.019c-.003.028-.02.036-.073.036H6.21v-.06c0-.031 0-.038.002-.058a.74.74 0 01.039 0c.062 0 .078.01.082.05h.02c-.002-.013-.002-.024-.002-.037l.001-.046H6.11v.015c.018.002.027.008.032.022a.14.14 0 01.005.05v.147l-.001.06c-.003.023-.013.036-.036.038v.015l.075-.002c.025 0 .05 0 .075.002l.052.002c.028 0 .034-.002.038-.01a.363.363 0 00.022-.077l-.02-.004c-.012.043-.032.055-.088.055a.157.157 0 01-.036-.003c-.013-.003-.016-.01-.016-.032" fill="#2e3192"/></svg>