<svg xmlns="http://www.w3.org/2000/svg" width="35.935" height="17.176" viewBox="0 0 9.508 4.544"><path d="M9.508.156V.131c0-.06-.032-.111-.118-.111h-.824a.083.083 0 00-.079.079v.317c0 .05.038.076.08.076a.073.073 0 00.075-.076V.178h.694l-.605 1.95c-.003.006-.003.015-.003.025 0 .047.041.073.08.073.034 0 .06-.02.072-.054l.621-1.99c.004-.01.007-.016.007-.026M8.35 3.413l.065-.043-.172-.13-.109.044-.15-.151-.216.108-.022.194.022.108.064.065.022.13-.065.129.108.043-.086.151.043.065h.194l.022.086.13.086.02.065-.064.065.022.065.15-.043.022-.065.281-.087.216.065.065-.086-.043-.065.086-.043.022-.108.043-.043-.065-.13.194-.064.086-.281h.087l-.065-.237-.367-.087-.086.151-.13.022-.086.065-.021.086zm-.42-1.282c0-.038-.026-.076-.08-.076h-.802L7.825.812a.517.517 0 00.082-.304V.483A.489.489 0 007.41 0h-.032a.484.484 0 00-.485.482v.034c0 .054.038.08.08.08.037 0 .075-.026.075-.08V.483a.33.33 0 01.33-.327h.032a.33.33 0 01.339.327v.025a.382.382 0 01-.06.225l-.812 1.315a.104.104 0 00-.013.054c0 .051.026.108.111.108h.875c.054 0 .08-.038.08-.079M6.843 3.907a.242.242 0 00-.127-.212.241.241 0 00-.3-.3.242.242 0 00-.423 0 .243.243 0 00-.3.3.243.243 0 00-.126.211c0 .092.052.17.126.212a.243.243 0 00.06.24.243.243 0 00.24.06.242.242 0 00.424 0 .242.242 0 00.3-.3.241.241 0 00.126-.211m-.413.232a.324.324 0 11-.459-.458.324.324 0 01.459.458m-.942-2.23v-.675h.551c.102 0 .152-.076.152-.152s-.05-.15-.152-.15H5.49v-.61h.81a.145.145 0 00.152-.149c0-.076-.05-.152-.152-.152h-.963a.158.158 0 00-.153.152v1.886c0 .08.073.152.153.152H6.3a.146.146 0 00.152-.149c0-.076-.05-.152-.152-.152zm-.786-.298V.153c0-.101-.076-.152-.152-.152-.077 0-.152.05-.152.152v1.458a.32.32 0 01-.314.314h-.029a.32.32 0 01-.317-.314V.153c0-.101-.076-.152-.152-.152s-.152.05-.152.152v1.458c0 .342.279.615.618.615h.032a.614.614 0 00.618-.615m-1.591.472c0-.01-.004-.025-.007-.047L2.503.12C2.478.035 2.405 0 2.329 0a.18.18 0 00-.175.12l-.602 1.915c-.003.022-.006.038-.006.05 0 .08.063.14.155.14a.15.15 0 00.149-.108l.127-.418h.703l.13.418a.148.148 0 00.146.108c.092 0 .155-.057.155-.143M2.586 1.4h-.514l.257-.84zm-1.227.3v-.01c0-.097-.054-.164-.156-.164-.085 0-.126.05-.149.13-.028.155-.145.273-.31.273H.715a.303.303 0 01-.314-.305V.603C.401.428.538.3.715.3h.029c.165 0 .282.118.31.273.023.08.064.13.15.13.1 0 .155-.066.155-.165V.53C1.359.222 1.05 0 .744 0H.715a.606.606 0 00-.618.605V1.62c0 .345.276.605.618.605h.029c.307 0 .615-.216.615-.526M.004 3.729c0 .137.06.26.157.355L0 4.42l.26-.259a.635.635 0 00.33.092c.325 0 .589-.235.589-.525 0-.29-.264-.525-.588-.525-.325 0-.587.235-.587.525m2.93-.44H2.27v1.17h2.275V3.42H3.75v.464h-.133v-.718h-.552v.52h-.132zm1.254.903h.192v.081h-.192zm0-.16h.192v.081h-.192zm0-.16h.192v.081h-.192zm0-.16h.192v.08h-.192zm0-.16h.192v.081h-.192zm-.297.64h.192v.081H3.89zm0-.16h.192v.081H3.89zm0-.16h.192v.081H3.89zm0-.16h.192v.08H3.89zm0-.16h.192v.081H3.89zm-.702.364h.192v.081H3.19zm0-.16h.192v.081H3.19zm0-.16h.192v.08H3.19zm0-.16h.192v.08H3.19zm0-.16h.192v.08H3.19zm-.542.236h-.233v-.098h.233zm0 .194h-.233v-.098h.233zm0 .194h-.233V3.8h.233zm0 .194h-.233v-.099h.233zm0 .194h-.233v-.099h.233z" fill="#2e3192"/></svg>