<svg xmlns="http://www.w3.org/2000/svg" data-name="Calque 1" viewBox="0 0 510.24 481.89"><defs><clipPath id="a"><path fill="none" d="M-132.24-56.69h841.89v595.28h-841.89z"/></clipPath></defs><g clip-path="url(#a)"><path d="M97.29 260.79l-4.64 4.64 198.16 198.15L489 265.43l-4.64-4.64L290.81 454.3zM421 244.55v11c0 5.902-4.788 10.686-10.69 10.68h-.94c-5.898 0-10.68-4.782-10.68-10.68v-30.41c.038-5.868 4.812-10.601 10.68-10.59h.94c6.1 0 9.66 4 10.69 9.19a3.49 3.49 0 003.56 3 3.42 3.42 0 003.56-3.47v-.57c-1.239-8.853-8.871-15.402-17.81-15.28h-.94c-9.854-.033-17.849 7.966-17.81 17.82v30.28c0 9.836 7.974 17.81 17.81 17.81h.94c9.838.006 17.816-7.972 17.81-17.81V241a3.69 3.69 0 00-3.56-3.57h-13.4c-5.012-.266-5.012 7.396 0 7.13zm-49.26-83.79V156h8.07v-2.8h-8.07v-4h9.17v-2.85h-12.33v17.28h12.31v-2.85zm-12.36-6.51h-4.19v-5.17h4.14a2.65 2.65 0 012.86 2.61c0 1.63-1 2.56-2.81 2.56m5.95 9.36l-3.17-7.07a5 5 0 003.17-4.85c0-2.78-1.88-5.36-6-5.36H352v17.28h3.16v-6.53H359l2.88 6.53zm-2 16.83c0 2.19.27 6-2.88 6s-2.87-3.78-2.87-6-.27-6 2.87-6 2.88 3.78 2.88 6m3.1 0c0-2.78-.27-5.61-2-7.29a5.92 5.92 0 00-7.9 0c-1.75 1.68-2 4.51-2 7.29 0 2.78.27 5.61 2 7.29a5.92 5.92 0 007.9 0c1.76-1.68 2-4.51 2-7.29m-2.8 69.73H345l9.28-30zm13.22 18.57l-18.28-58.69a4.3 4.3 0 00-4.31-2.63 4.26 4.26 0 00-4.22 2.63l-18.28 58.69a4.86 4.86 0 00-.19 1.12 3.51 3.51 0 003.66 3.47 3.32 3.32 0 003.28-2.53l4.22-13.5h23.15l4.12 13.5a3.42 3.42 0 003.37 2.53 3.51 3.51 0 003.66-3.47 4.377 4.377 0 00-.19-1.12m-25.39-82.57h-6.78l4.68-5.61a6.93 6.93 0 001.86-4.14c0-3-2.32-4.78-5.22-4.78-3.49 0-5.39 2.15-5.41 5.12h3.12a2.25 2.25 0 012.26-2.44 2 2 0 012.15 2.12 3.41 3.41 0 01-.88 2.17l-6.6 7.87v2.44h10.82zm-6-27.65c0 1.75-1.59 2.29-3 2.29h-3.88V156h4c1.65 0 2.95.65 2.95 2.51m-.37-7.29c0 1.63-1.19 2.14-2.61 2.14h-3.95V149h3.88c1.41 0 2.68.54 2.68 2.2m1.07 3.46a3.92 3.92 0 002.12-3.66 4.5 4.5 0 00-2-3.75 7.28 7.28 0 00-4-.95h-6.88v17.3h6.88a7.17 7.17 0 004.6-1.17 4.63 4.63 0 001.76-3.87 4.21 4.21 0 00-2.49-3.9M323 186.04v-4.73h8v-2.83h-8.06v-4h9.16v-2.85h-12.36v17.28h12.31v-2.85zm-22.07-25.31V156h8.06v-2.8h-8.06v-4H310v-2.85h-12.33v17.28H310v-2.85zm-45.66 0V156h8.07v-2.8h-8.07v-4h9.17v-2.85H252v17.28h12.31v-2.85zm-16.72-9.61a2 2 0 01.59-1.46 3.88 3.88 0 012.8-.95 4 4 0 012.63.93 2.8 2.8 0 01.76 1.7h3.21a5.25 5.25 0 00-1.75-3.68 7.16 7.16 0 00-4.83-1.68 7.41 7.41 0 00-5.07 1.83 4.78 4.78 0 00-1.51 3.41c0 2.88 2 4.44 4.39 4.83 1.14.19 2.66.24 3.83.46 1.17.22 2 .78 2 2.05a2.16 2.16 0 01-.68 1.66 4.19 4.19 0 01-3 .92 4.11 4.11 0 01-2.9-.92 3.06 3.06 0 01-.9-2.12h-3.22a5.51 5.51 0 001.81 4 8.66 8.66 0 0010.62-.08 4.82 4.82 0 001.44-3.6c0-2.95-2.17-4.63-4.75-5-1.12-.15-2.66-.27-3.75-.44a1.83 1.83 0 01-1.76-1.88m-27.8 28.95a3.83 3.83 0 002.44-3.63c0-2.93-2.34-4.83-5.41-4.83-3.07 0-5.63 1.78-5.68 5h3.07c0-1.53 1.1-2.29 2.61-2.29a2.23 2.23 0 012.31 2.22c0 1.58-.95 2.27-2.61 2.27h-1.26v2.65h1.26c1.59 0 3 .81 3 2.56a2.47 2.47 0 01-2.68 2.54 2.56 2.56 0 01-2.73-2.54h-3.05c.1 3.17 2.63 5.22 5.75 5.22s5.78-1.78 5.78-5.17a4 4 0 00-2.78-4m1.45-19.24h-6.77l4.68-5.61a7 7 0 001.85-4.14c0-3-2.32-4.78-5.22-4.78-3.48 0-5.39 2.14-5.41 5.12h3.12a2.25 2.25 0 012.27-2.44 2 2 0 012.14 2.12 3.43 3.43 0 01-.88 2.17l-6.6 7.87v2.44h10.82zM193.84 304v-4.2h3.42c1.382.143 1.382-2.013 0-1.87h-3.42v-3.8h5a.9.9 0 00.94-.92.91.91 0 00-.94-.95h-6a1 1 0 00-.94.95V305a1 1 0 00.94.95h6c1.382.143 1.382-2.013 0-1.87zm-38.73-88.92h22.22L150.8 266c-1.5 2.81 0 6.75 3.56 6.75h28.22c4.508-.239 4.508-6.891 0-7.13H159l26.63-51.09c1.68-3.19-.19-6.56-3.66-6.56h-26.86c-4.747 0-4.747 7.12 0 7.12m33.61 77.18h-6a1 1 0 00-.94.95v11.83c-.144 1.396 2.034 1.396 1.89 0v-5.24h3.43c1.382.143 1.382-2.013 0-1.87h-3.43v-3.8h5a.9.9 0 00.94-.92.91.91 0 00-.94-.95m-.88 32.36v-4.19h3.43a.9.9 0 00.94-.95.89.89 0 00-.94-.92h-3.43v-3.8h5c1.382.143 1.382-2.013 0-1.87h-6a1 1 0 00-1 .94v11.72a1 1 0 001 .94h6c1.382.143 1.382-2.013 0-1.87zM193.46 172l-4.17 3v3.31l3.73-2.7v13.33h3V172zM202 312.92h-5.63c-1.382-.143-1.382 2.013 0 1.87h1.87v10.9c-.144 1.396 2.034 1.396 1.89 0v-10.9H202c1.382.143 1.382-2.013 0-1.87m5.65-39.59a3.44 3.44 0 003.56-3.56V211c.266-5.012-7.396-5.012-7.13 0v58.78a3.45 3.45 0 003.57 3.56m4.23 41.46H214a2 2 0 011.95 2v5.92a2 2 0 01-1.95 2h-2.15zm-1.89-.93v11.72a1 1 0 001 .94H214a3.72 3.72 0 003.84-3.84v-5.92a3.72 3.72 0 00-3.84-3.84h-3.1a1 1 0 00-1 .94M204 296v-.4a1.72 1.72 0 011.85-1.51h.15c1 0 1.63.21 1.83 1.28a1 1 0 001 .86.85.85 0 00.91-.88v-.12c-.14-2-1.85-3-3.72-3h-.18a3.64 3.64 0 00-3.74 3.48v.29c0 3.59 5.94 3.59 5.94 6.34a1.81 1.81 0 01-2 1.8h-.2a1.85 1.85 0 01-1.95-2c.144-1.396-2.034-1.396-1.89 0a3.7 3.7 0 003.84 3.84h.2a3.66 3.66 0 003.91-3.67c0-4.07-5.94-4.5-5.94-6.39m14.41-3.67h-5.63a.92.92 0 00-1 .95.91.91 0 001 .92h1.87v10.91c-.144 1.396 2.034 1.396 1.89 0v-10.87h1.87a.9.9 0 00.94-.92.91.91 0 00-.94-.95M227 146.67h-11.72v2.73h8.41l-6.63 14.21h3.29l6.61-14.5zm22.29 174.81l1.59-5.22 1.6 5.22zm-.59 1.87h4.3l.81 2.6a.94.94 0 00.9.69.91.91 0 001-.91 1.755 1.755 0 000-.29l-3.74-11.89a1.08 1.08 0 00-1.09-.75 1.12 1.12 0 00-1.08.75l-3.8 11.89a1.783 1.783 0 000 .31.9.9 0 001 .89 1 1 0 00.93-.69zm7.1-18.38a.91.91 0 00-.95-.94h-4.35v-10.91a.89.89 0 00-.92-.94.9.9 0 00-.95.94V305a1 1 0 00.95.95h5.27a.91.91 0 00.95-.93m-16.51-4.1l1.59-5.22 1.6 5.22zm-.59 1.87h4.37l.8 2.6a1 1 0 00.91.69.91.91 0 001-.91c.009-.1.009-.2 0-.3L242 292.92a1.05 1.05 0 00-1.08-.74 1.11 1.11 0 00-1.08.74l-3.74 11.89a1.71 1.71 0 000 .32.9.9 0 001 .89 1 1 0 00.93-.69zm-3.54 23.91h.2a3.67 3.67 0 003.92-3.66c0-4.08-6-4.51-6-6.4v-.39a1.72 1.72 0 011.85-1.52h.18c1 0 1.63.22 1.83 1.28a1 1 0 001 .87.86.86 0 00.91-.89v-.12c-.14-2-1.85-3-3.72-3h-.18a3.65 3.65 0 00-3.74 3.48v.36c0 3.58 5.95 3.58 5.95 6.34a1.82 1.82 0 01-2 1.79h-.2a1.85 1.85 0 01-2-2c-.117-1.137-1.773-1.137-1.89 0a3.7 3.7 0 003.84 3.84m-3.1-21.45l2.99-11.87a1.255 1.255 0 000-.26.93.93 0 00-1-.92.89.89 0 00-.89.72L231 302l-2.13-9.06a.88.88 0 00-.88-.72.94.94 0 00-1 .92 1.255 1.255 0 000 .26l2.88 11.83c.305 1.12 1.895 1.12 2.2 0m-9.79 21.33h6c1.382.143 1.382-2.013 0-1.87h-5v-4.19h3.43a.9.9 0 00.94-.95.89.89 0 00-.94-.92h-3.43v-3.8h5c1.382.143 1.382-2.013 0-1.87h-6a1 1 0 00-.95.94v11.72a1 1 0 00.95.94M223 306a.91.91 0 00.94-.95v-11.93c-.117-1.137-1.773-1.137-1.89 0v11.95a.91.91 0 001 .95m3.3-130.7a3.84 3.84 0 015.46 0c1.2 1.24 1.25 3.39 1.25 5 0 1.61-.05 3.71-1.25 5a3.82 3.82 0 01-5.46 0c-1.19-1.24-1.24-3.36-1.24-5 0-1.64 0-3.73 1.24-5m2.73-4a7 7 0 00-5 2c-1.87 1.88-2.19 4.2-2.19 7s.32 5.12 2.19 7a7.32 7.32 0 009.95 0c1.87-1.88 2.19-4.17 2.19-7s-.32-5.14-2.19-7a7 7 0 00-5-2m21.65 2a6.94 6.94 0 00-4.95-2 6.83 6.83 0 00-4.9 2c-1.87 1.88-2.14 4.2-2.14 7s.27 5.15 2.14 7a6.77 6.77 0 004.9 1.93 6.94 6.94 0 004.95-2.05 6.35 6.35 0 001.66-3.78h-3.22a3.41 3.41 0 01-.78 1.91 3.32 3.32 0 01-2.61 1.09 3.67 3.67 0 01-2.66-1.14c-1.19-1.25-1.19-3.39-1.19-5 0-1.61 0-3.73 1.19-5a3.67 3.67 0 012.66-1.14 3.27 3.27 0 012.61 1.07 3.14 3.14 0 01.78 1.83h3.22a6.33 6.33 0 00-1.66-3.76m16.32-1.64h-13.39v2.93h5.12v14.35h3.15v-14.35H267zm1.82 51.06c-1.24-8.857-8.878-15.407-17.82-15.28h-.94c-9.854-.033-17.849 7.966-17.81 17.82v30.28c0 9.836 7.974 17.81 17.81 17.81h.94c9.838.006 17.816-7.972 17.81-17.81V241a3.69 3.69 0 00-3.56-3.57h-13.4c-5.012-.266-5.012 7.396 0 7.13h9.84v11c-.022 5.887-4.803 10.646-10.69 10.64h-.94c-5.898 0-10.68-4.782-10.68-10.68v-30.38c.038-5.868 4.812-10.601 10.68-10.59h.94c6.1 0 9.66 4 10.69 9.19a3.49 3.49 0 003.56 3 3.42 3.42 0 003.56-3.47zm-8.43 92.09h2.32a1.91 1.91 0 011.89 2v.17a1.89 1.89 0 01-1.87 1.95h-2.34zm-.92 11.85a.89.89 0 00.92-.95v-4.94H262l2.54 5.36a.86.86 0 00.8.53 1 1 0 001-.95 1.074 1.074 0 00-.1-.41l-2.25-4.7a3.8 3.8 0 002.5-3.65v-.17a3.83 3.83 0 00-3.83-3.84h-3.21a1 1 0 00-.95.94v11.83a.92.92 0 001 .95m37.74-11.85h2.14a2 2 0 011.95 2v5.92a2 2 0 01-1.95 2h-2.14zm-.95 11.73h3.09a3.72 3.72 0 003.84-3.84v-5.92a3.72 3.72 0 00-3.84-3.84h-3.09a1 1 0 00-.94.94v11.72a1 1 0 00.94.94m38.54-21.45v-10.91h1.87a.91.91 0 001-.92.92.92 0 00-1-.95h-5.63a.92.92 0 00-.95.95.91.91 0 00.95.92H333v10.91c-.144 1.396 2.034 1.396 1.89 0m2.1 21.45h6c1.382.143 1.382-2.013 0-1.87h-5v-4.19h3.43a.9.9 0 00.94-.95.89.89 0 00-.94-.92h-3.43v-3.8h5c1.382.143 1.382-2.013 0-1.87h-6a1 1 0 00-.95.94v11.72a1 1 0 00.95.94m22.01-7.81v-3.92h2.24c2.136.434 2.136 3.486 0 3.92zm0 7v-5.11h2.24c5.107 0 5.107-7.66 0-7.66H358a1 1 0 00-.94.94v11.83c-.144 1.396 2.034 1.396 1.89 0m17.19-32.57v9.06a2 2 0 01-2 1.95H374a2 2 0 01-2-1.95v-9.06c-.117-1.137-1.773-1.137-1.89 0v9.06A3.86 3.86 0 00374 306h.19a3.85 3.85 0 003.84-3.84v-9.06c-.117-1.137-1.773-1.137-1.89 0m-4 28.36H369l1.59-5.22zm3.27 4.25a1.755 1.755 0 000-.29l-3.74-11.89a1.08 1.08 0 00-1.09-.75 1.12 1.12 0 00-1.08.75l-3.74 11.89a1.783 1.783 0 000 .31.9.9 0 001 .89 1 1 0 00.93-.69l.79-2.6h4.37l.81 2.6a.94.94 0 00.9.69.91.91 0 001-.91m-10.61-31.57h1.87a.91.91 0 001-.92.92.92 0 00-1-.95h-5.63a.91.91 0 00-.94.95.9.9 0 00.94.92H363v10.91c-.144 1.396 2.034 1.396 1.89 0zM354.61 306c1.91 0 3.82-1.38 3.82-3.29v-.06a.93.93 0 00-1-1 .9.9 0 00-.92.8 2 2 0 01-1.93 1.7h-.18a1.91 1.91 0 01-1.95-1.89v-6.34a1.89 1.89 0 011.95-1.87h.18a2 2 0 011.93 1.69.91.91 0 00.92.81.93.93 0 001-1v-.06c0-1.91-1.91-3.28-3.82-3.28h-.18a3.76 3.76 0 00-3.84 3.76v6.3a3.78 3.78 0 003.84 3.78zm-4.78 20.62h.2A3.67 3.67 0 00354 323c0-4.08-5.95-4.51-5.95-6.4v-.39a1.72 1.72 0 011.85-1.52h.1c1 0 1.63.22 1.83 1.28a1 1 0 001 .87.86.86 0 00.91-.89v-.12c-.14-2-1.85-3-3.72-3h-.18a3.65 3.65 0 00-3.74 3.48v.36c0 3.58 5.95 3.58 5.95 6.34a1.82 1.82 0 01-2 1.79h-.2a1.85 1.85 0 01-1.95-2c-.117-1.137-1.773-1.137-1.89 0a3.7 3.7 0 003.84 3.84M342.07 304v-4.2h3.42c1.382.143 1.382-2.013 0-1.87h-3.42v-3.8h5a.9.9 0 00.94-.92.91.91 0 00-.94-.95h-6a1 1 0 00-.94.95V305a1 1 0 00.94.95h6c1.382.143 1.382-2.013 0-1.87zm-10.65 9.68v.55a2.11 2.11 0 01-.43 1.49 1.2 1.2 0 00-.18.57c.021.5.45.884.95.85.82 0 1.53-1.32 1.53-3v-.44a.88.88 0 00-.9-.92.91.91 0 00-1 .91m-8.57 12.81h5.27c1.382.143 1.382-2.013 0-1.87h-4.29v-10.89a.89.89 0 00-.92-.94.91.91 0 00-.95.94v11.84a1 1 0 00.95.94m3.61-20.5a.91.91 0 00.95-.95v-11.95c-.117-1.137-1.773-1.137-1.89 0v11.95a.91.91 0 00.94.95m-10.92-6.21h4.09v5.24c-.144 1.396 2.034 1.396 1.89 0v-11.93c-.117-1.137-1.773-1.137-1.89 0V298h-4.09v-4.84c-.117-1.137-1.773-1.137-1.89 0v11.95c-.144 1.396 2.034 1.396 1.89 0zm-26.44-84.72h22.22L284.86 266c-1.5 2.81 0 6.75 3.56 6.75h28.22c4.508-.239 4.508-6.891 0-7.13H293l26.63-51.09c1.68-3.19-.19-6.56-3.66-6.56h-26.8c-4.747 0-4.747 7.12 0 7.12m15.65 87.15v-6.34a1.88 1.88 0 011.95-1.87h.17a1.94 1.94 0 011.93 1.69c.403.882 1.7.731 1.89-.22v-.06c0-1.91-1.91-3.28-3.82-3.28h-.17a3.76 3.76 0 00-3.84 3.76v6.3a3.78 3.78 0 003.84 3.78h.17c1.91 0 3.82-1.38 3.82-3.29v-.06c-.19-.951-1.487-1.102-1.89-.22a1.94 1.94 0 01-1.93 1.7h-.17a1.9 1.9 0 01-1.95-1.89m2.9 24.26h6c1.382.143 1.382-2.013 0-1.87h-5v-4.19h3.42a.91.91 0 00.95-.95.89.89 0 00-.95-.92h-3.42v-3.8h5c1.382.143 1.382-2.013 0-1.87h-6a1 1 0 00-.94.94v11.72a1 1 0 00.94.94M294 298.26v-4.1h2.32a1.92 1.92 0 011.89 2v.18a1.9 1.9 0 01-1.87 1.95zm0 1.87h1.59l2.54 5.35a.88.88 0 00.81.54 1 1 0 001-.95 1.004 1.004 0 00-.1-.41l-2.27-4.66a3.79 3.79 0 002.5-3.64v-.18a3.83 3.83 0 00-3.84-3.84H293a1 1 0 00-.94.95v11.83a.91.91 0 001 .95.9.9 0 00.93-.95zm-8 .73h-3.19l1.59-5.22zm1.39 4.47a1 1 0 00.91.69.91.91 0 001-.91c.008-.1.008-.2 0-.3l-3.74-11.89a1.06 1.06 0 00-1.08-.74 1.11 1.11 0 00-1.08.74l-3.74 11.89a1.71 1.71 0 000 .32.9.9 0 001 .89 1 1 0 00.93-.69l.79-2.6h4.37zm-5.84 21.31h.2a3.66 3.66 0 003.92-3.66c0-4.08-5.95-4.51-5.95-6.4v-.39a1.73 1.73 0 011.85-1.52h.18c1 0 1.64.22 1.83 1.28a1 1 0 001 .87.85.85 0 00.9-.89v-.12c-.14-2-1.85-3-3.72-3h-.18a3.65 3.65 0 00-3.74 3.48v.36c0 3.58 5.95 3.58 5.95 6.34a1.82 1.82 0 01-2 1.79h-.2a1.84 1.84 0 01-1.94-2c-.117-1.137-1.773-1.137-1.89 0a3.7 3.7 0 003.83 3.84M276 293.08v.55a2.07 2.07 0 01-.43 1.5 1.17 1.17 0 00-.18.57.9.9 0 00.95.85c.83 0 1.54-1.32 1.54-3v-.43a.88.88 0 00-.91-.92.91.91 0 00-1 .9m-4.84 32.59c-.144 1.396 2.034 1.396 1.89 0v-10.9h1.87c1.382.143 1.382-2.013 0-1.87h-5.63c-1.382-.143-1.382 2.013 0 1.87h1.87zM269.08 304h-2.14v-9.87h2.14a2 2 0 011.95 2v5.93a2 2 0 01-1.95 2m0 1.87a3.72 3.72 0 003.84-3.84v-5.93a3.72 3.72 0 00-3.84-3.84H266a1 1 0 00-.94.95V305a1 1 0 00.94.95zm5.37-156.82c2.09 0 3 1.15 3 2.81 0 1.66-.95 2.77-3 2.77h-3.54v-5.58zm.12-2.75h-6.78v17.28h3.12v-6.19h3.66c4 0 6.09-2.24 6.09-5.56 0-3.32-2.12-5.53-6.09-5.53m5.2 34c0 1.59-.05 3.71-1.24 5a3.82 3.82 0 01-5.46 0c-1.2-1.24-1.24-3.36-1.24-5 0-1.64 0-3.73 1.24-5a3.84 3.84 0 015.46 0c1.19 1.24 1.24 3.39 1.24 5m1-7a7.31 7.31 0 00-9.94 0c-1.88 1.88-2.2 4.2-2.2 7s.32 5.12 2.2 7a7.31 7.31 0 009.94 0c1.88-1.88 2.19-4.17 2.19-7s-.31-5.14-2.19-7M295 146.33h-13.37v2.92h5.12v14.36h3.15v-14.36h5.1zm1.55 37.5c0 1.75-1.58 2.29-3.05 2.29h-3.87v-4.8h4c1.66 0 2.95.66 2.95 2.51m-.36-7.29c0 1.63-1.2 2.15-2.61 2.15h-3.95v-4.34h3.87c1.42 0 2.69.53 2.69 2.19m1.19-3.95a7.36 7.36 0 00-4-1h-6.87V189h6.87a7.26 7.26 0 004.61-1.17 4.66 4.66 0 001.75-3.88 4.23 4.23 0 00-2.48-3.9 3.93 3.93 0 002.12-3.65 4.49 4.49 0 00-2-3.76m8.95 1.81h4.14a2.64 2.64 0 012.85 2.6c0 1.64-1 2.56-2.8 2.56h-4.19zm4.14-2.76h-7.29v17.28h3.17v-6.53h3.83l2.87 6.53h3.42l-3.17-7.07a5 5 0 003.17-4.85c0-2.78-1.88-5.36-6-5.36m7.23-25.31h-4.24v17.28h3v-12.53l4.51 12.24h2.32l4.48-12.09v12.33h3.05v-17.28h-4l-4.56 12.31zm56.22 42.59h3V172h-2.6l-4.17 3v3.31l3.73-2.7zm7.89 123.88a3.76 3.76 0 00-3.83 3.76v6.3a3.78 3.78 0 003.83 3.78h.16c1.91 0 3.82-1.38 3.82-3.29v-.06c-.196-.948-1.49-1.092-1.89-.21a2 2 0 01-1.93 1.69h-.18a1.9 1.9 0 01-1.94-1.89v-6.34a1.88 1.88 0 011.94-1.87h.18a2 2 0 011.93 1.69c.4.882 1.694.738 1.89-.21v-.06c0-1.91-1.91-3.29-3.82-3.29zm1.9-18.64h2.33a1.93 1.93 0 011.89 2v.18a1.9 1.9 0 01-1.87 1.95h-2.35zm-1.89-.92v11.83a.92.92 0 001 .95.89.89 0 00.92-.95v-4.94h1.6l2.54 5.35a.87.87 0 00.81.54 1 1 0 001-.95 1.004 1.004 0 00-.1-.41l-2.29-4.71a3.8 3.8 0 002.5-3.64v-.18a3.84 3.84 0 00-3.84-3.84h-3.21a1 1 0 00-.95.95m13 10.79v-4.2h3.42c1.382.143 1.382-2.013 0-1.87h-3.42v-3.8h5a.9.9 0 00.94-.92.91.91 0 00-.94-.95h-6a1 1 0 00-.94.95V305a1 1 0 00.94.95h6c1.382.143 1.382-2.013 0-1.87zm-4.17 20.62v-4.19h3.43a.9.9 0 00.94-.95.89.89 0 00-.94-.92h-3.43v-3.8h5c1.382.143 1.382-2.013 0-1.87h-6a1 1 0 00-1 .94v11.72a1 1 0 001 .94h6c1.382.143 1.382-2.013 0-1.87zM388 180.83c-1.88 0-2.78-1.41-2.78-3.17 0-2 .9-3.29 2.73-3.29s2.68 1.44 2.68 3.29-1 3.17-2.63 3.17m-.29 2.49a4.36 4.36 0 003.21-1.25c0 1.49-.24 3-1.17 3.88a2.22 2.22 0 01-1.68.68 2.31 2.31 0 01-1.8-.61 2.1 2.1 0 01-.59-1.29h-3.07a4.5 4.5 0 001.44 3.12 5.46 5.46 0 003.88 1.39 5.26 5.26 0 004.14-1.71c1.73-1.85 1.88-4.9 1.88-7.38a18.119 18.119 0 00-.27-3.17c-.51-3-2.51-5.34-5.73-5.34-3.85 0-5.82 2.58-5.82 5.9 0 3.32 1.92 5.78 5.58 5.78M22.22 228.18l10.44-10.45v-9.27l-15.08 15.08zm17-.4l4.57-4.58v-16.73l-4.57-4.57zm0 17.4l32.09-32.09v-9.27l-36.73 36.72zm38.64-22l4.58-4.58v-16.77l-4.57-4.57zm406.46-2l4.64-4.64L290.81 18.31 92.65 216.46l-19.42 19.45 4.64 4.63 21.64-21.64 191.3-191.31z" fill="#fff"/></g></svg>