<svg xmlns="http://www.w3.org/2000/svg" width="57.348" height="11.339" viewBox="0 0 15.173 3"><path d="M15.173 2.26v-.446a.416.416 0 00-.156-.041c-.146 0-.228.073-.275.204h-.005V1.81h-.332v.05h.123v1.055h-.123v.05h.487v-.05h-.15v-.687c0-.204.09-.373.184-.373.054 0 .077.05.118.171l.08.234zm-1.538.086c0-.023 0-.046.002-.069h.675c0-.322-.166-.504-.425-.504-.268 0-.488.25-.488.613 0 .364.206.614.495.614.232 0 .416-.155.427-.468h-.05c-.023.282-.161.404-.354.404-.173 0-.282-.152-.282-.59m.005-.119c.018-.263.102-.404.243-.404.118 0 .193.088.193.316v.088zm-.768.737h.45v-.05h-.119V2.09c0-.223-.136-.318-.318-.318a.305.305 0 00-.295.182c-.039-.103-.16-.182-.286-.182a.305.305 0 00-.296.182h-.004v-.146h-.3v.05h.095v1.055h-.118v.05h.45v-.05h-.118v-.71c0-.231.095-.35.232-.35.09 0 .15.06.15.223v.837h-.119v.05h.45v-.05h-.118v-.71c0-.231.096-.35.232-.35.09 0 .15.06.15.223v.837h-.118zm-1.955-.618c0-.023 0-.046.003-.069h.674c0-.322-.165-.504-.424-.504-.268 0-.489.25-.489.613 0 .364.207.614.495.614.232 0 .416-.155.428-.468h-.05c-.023.282-.162.404-.355.404-.173 0-.282-.152-.282-.59m.005-.119c.018-.263.102-.404.243-.404.118 0 .193.088.193.316v.088zm-.593.737h.31v-.05h-.11V1.39h-.322v.05h.109v.507h-.005c-.052-.111-.145-.175-.259-.175-.234 0-.427.22-.427.616 0 .395.209.611.423.611.156 0 .236-.073.277-.175h.004zm0-.555c0 .364-.084.54-.236.54-.145 0-.232-.126-.232-.54 0-.461.09-.572.225-.572.15 0 .243.163.243.572m-1.115.555h.336v-.05h-.123V1.809h-.345v.05h.132v.714c0 .236-.112.345-.236.345-.119 0-.164-.057-.164-.21V1.81h-.336v.05H8.6v.811c0 .232.105.33.314.33.14 0 .259-.084.295-.186h.005zm-.665-.057h-.103l-.562-1.733H7.72l-.593 1.733H6.98v.057h.465v-.057H7.2l.222-.654h.54l.21.654h-.19v.057h.568zm-.606-.71h-.504l.256-.75H7.7zm-1.2.109h.311v-.161h-.31zm-.01.203v.182c0 .168-.058.227-.155.227-.086 0-.123-.036-.123-.123V1.86h.264v-.05h-.264v-.272h-.214v.272h-.143v.05h.143v.868c0 .187.091.273.255.273.186 0 .286-.082.286-.323V2.51zM5.795.67V.637h.317c0-.151-.078-.236-.199-.236-.126 0-.229.117-.229.287 0 .17.097.288.232.288.109 0 .195-.073.2-.22h-.023c-.01.132-.076.19-.166.19-.081 0-.132-.072-.132-.277m.002-.055c.008-.124.048-.19.114-.19.055 0 .09.042.09.148v.042zm-.14 1.159a.362.362 0 00-.32.19h-.005V1.81h-.318v.05h.122v1.055h-.122v.05h.468v-.05H5.35V2.2c0-.236.116-.346.241-.346.106 0 .16.057.16.226v.834h-.133v.05h.468v-.05h-.123v-.807c0-.248-.127-.334-.306-.334m-.17-.814h.145V.935h-.051V.222H5.43v.023h.052v.238h-.003A.131.131 0 005.36.4c-.11 0-.2.103-.2.288 0 .186.097.287.197.287.073 0 .11-.034.13-.082h.002zm0-.26c0 .17-.04.253-.11.253-.069 0-.11-.06-.11-.253 0-.216.043-.269.106-.269.07 0 .114.077.114.269M4.96 2.386c0-.363-.213-.613-.495-.613-.282 0-.495.25-.495.613 0 .364.213.614.495.614.282 0 .495-.25.495-.614m-.236 0c0 .441-.088.564-.259.564-.17 0-.259-.123-.259-.564 0-.44.089-.563.26-.563.17 0 .258.123.258.563M4.48.67V.637h.317c0-.151-.078-.236-.2-.236-.125 0-.228.117-.228.287 0 .17.097.288.232.288.109 0 .195-.073.2-.22h-.023c-.01.132-.076.19-.166.19-.082 0-.132-.072-.132-.277m0-.055c.008-.124.047-.19.114-.19.055 0 .09.042.09.148v.042zm-.39.345h.202V.935h-.05V.222H4.09v.023h.051v.69H4.09zm-.032.698c0-.268-.22-.463-.626-.463h-.734v.057h.154v1.656h-.154v.057h.665v-.057h-.235v-.802h.307c.419 0 .623-.18.623-.448m-.29 0c0 .307-.124.391-.4.391h-.24v-.797h.263c.266 0 .376.166.376.406M3.815.96h.203V.935h-.052V.222h-.15v.023h.05v.69h-.05zm-.274 0h.202V.935h-.051V.418H3.54V.44h.05v.494h-.05zm.161-.662a.059.059 0 00-.06-.06.059.059 0 00-.06.06c0 .037.026.061.06.061s.06-.024.06-.06M3.488.181h.065V.147h-.24v.035h.128L3.227.78h-.003l-.21-.598h.124V.147H2.79v.035h.065l.284.783h.066zM2.195 2.21v-.517c-.063-.007-.213.062-.213.236h-.1c-.004-.184-.108-.377-.282-.377-.175 0-.28.193-.283.377h-.1c0-.174-.147-.244-.21-.236v.517c0 .082.032.1.098.1h.375a.13.13 0 01.122.126.13.13 0 01.122-.127h.374c.066 0 .097-.017.097-.1m0-.629V0h-.19l.001.167H1.77V0h-.34v.167h-.238V0h-.185v.363l.001.236v.004l.001.238h-.002v.041C.996.88.999.888.996.898a.389.389 0 00-.008.048s-.001.02.01.036l.009.009v.06l-.033-.04C.97.996.956.977.944.976.93.975.903.976.898.963A.737.737 0 00.79.891C.783.882.762.88.735.887l-.077.01a.021.021 0 00-.016.01l.365.271v.04l-.334.229.314-.233-.35-.004-.286.197.266-.197L0 1.204c-.001.005 0 .012.011.02l.068.046s.022.015.054 0l.054-.02s.016-.012.027-.008c.01.005.026.017.007.026l-.063.027s-.019.011-.005.024a.13.13 0 00.032.02S.2 1.35.22 1.34c.02-.01.116-.03.116-.03s.01-.014.029-.01c.019.001.01.007.01.007s.011.008.004.018c-.01.011-.09.074-.09.074s-.018.033.008.037c.025.004.094-.005.094-.005s.027-.001.045-.012a.491.491 0 00.04-.026s.016-.007.036-.002c.032.007.055.014.055.014s.03.011.046 0c.017-.013.058-.062.058-.062s.018-.02.037-.024l.046-.01a.225.225 0 01-.031.061c-.007.01-.027.013-.036.03l-.022.037s-.011.024.027.024c.033 0 .065.002.065.002a.166.166 0 00.088-.037c.018-.02.08-.055.08-.055s.03.005.047.003a.169.169 0 00.036-.014v.22c.119.017.328-.158.593-.158.265 0 .478.172.596.158M1.659.76c-.015.087-.09.172-.133.177-.043.006-.037-.053.012-.072.049-.018.09-.078.074-.105a.081.081 0 00-.076-.04.244.244 0 00-.126.075c-.02.03-.022.032-.017.01.016-.08.12-.197.167-.203.046-.006.114.072.099.158m.26-.17a.397.397 0 00-.14.187c-.035.094-.023.117-.023.117a.401.401 0 01-.106.132c-.018-.02-.014-.083-.002-.132 0 0 .031-.023.07-.117.037-.087.017-.16-.007-.187a1.14 1.14 0 01.237-.331.713.713 0 01-.03.33m.157.216c-.023.039-.017.02-.015-.01C2.061.767 2.034.726 2 .72c-.026-.004-.072.013-.109.04-.036.028-.043.088-.008.106.034.018-.006.078-.045.072-.039-.006-.047-.09.006-.177.054-.086.182-.164.224-.158.041.006.054.122.007.204m-1.068.39L.642.908a.042.042 0 00-.003.03L.656 1c.002.01.011.018.022.019l.098.073c.02.006.016.021.016.03L.79 1.13s.001.015-.02.003l-.1-.049c-.016-.009-.02-.013-.043-.008-.023.005-.037.009-.057-.01l-.095-.057a.078.078 0 00-.049-.005c-.02.005-.077.006-.09.007-.012 0-.032.01-.019.025l.011.017s.015.038.03.039c.015.002.037.017.042.03l.016.036-.05-.025c-.022-.01-.022-.01-.024-.02-.003-.011-.008-.031-.031-.037l-.106-.018C.19 1.053.18 1.061.183 1.07c.002.009 0 .02 0 .02s.012.021.023.028l.052.04c.007.006.003.008-.014.01a.104.104 0 01-.063-.006s-.034-.008-.05-.015c-.016-.007-.033-.005-.055.008l-.07.04s-.003.003-.004.008l.62-.003-.265-.17.291.17z" fill="#2e3192"/></svg>