<svg xmlns="http://www.w3.org/2000/svg" width="56.833" height="21.732" viewBox="0 0 15.037 5.75"><path d="M15.037 2.902c0-.013-.006-.024-.018-.034a.067.067 0 00-.045-.015c-.031 0-.057.018-.076.052l-.242.352-.245-.356c-.017-.032-.041-.048-.073-.048-.04 0-.06.016-.06.047 0 .01.001.018.005.027a.435.435 0 00.019.029l.288.42v.4a.06.06 0 00.017.045.08.08 0 00.05.016c.044 0 .065-.022.065-.065v-.398l.167-.248.095-.135.022-.031.02-.033a.05.05 0 00.011-.025m-.783.873c0-.037-.021-.056-.064-.056h-.287v-.8c0-.044-.023-.066-.067-.066-.044 0-.066.022-.066.067v.844c0 .043.025.065.075.065h.341c.046 0 .068-.018.068-.054m-.592 0c0-.037-.022-.056-.064-.056h-.288v-.8c0-.044-.022-.066-.067-.066-.044 0-.066.022-.066.067v.844c0 .043.025.065.075.065h.341c.046 0 .068-.018.068-.054m-.66.002v-.859c0-.043-.023-.065-.067-.065-.044 0-.066.022-.066.067v.858c0 .015.006.028.017.042a.07.07 0 00.049.016c.044 0 .067-.02.067-.059m-.245-.815a.198.198 0 00.016-.06.043.043 0 00-.016-.035.064.064 0 00-.042-.014c-.034 0-.06.023-.078.069l-.278.715h-.005l-.275-.712c-.018-.048-.044-.072-.079-.072-.04 0-.06.017-.06.05l.336.86c.01.025.02.043.028.052a.07.07 0 00.055.021.07.07 0 00.048-.017.264.264 0 00.042-.082l.288-.72zm-1.28.757v-.318h.292c.045 0 .067-.018.067-.055 0-.037-.022-.055-.068-.055h-.291v-.32h.321c.025 0 .042-.005.053-.016a.054.054 0 00.014-.039c0-.037-.022-.055-.065-.055h-.382c-.049 0-.073.022-.073.065v.842c0 .02.006.034.018.045.015.01.033.016.053.016h.378c.028 0 .046-.005.057-.014a.053.053 0 00.014-.04c0-.037-.022-.056-.067-.056zm.018-1.251v-.261h.245c.038 0 .057-.015.057-.044 0-.03-.02-.046-.058-.046h-.244v-.26h.27c.02 0 .034-.004.043-.013a.045.045 0 00.012-.032c0-.03-.018-.045-.055-.045h-.319c-.04 0-.06.018-.06.054v.686c0 .016.004.028.015.037a.073.073 0 00.044.013h.315c.024 0 .04-.004.048-.012a.043.043 0 00.012-.032c0-.03-.019-.045-.056-.045zm-.326-.02a.405.405 0 00.104-.29.373.373 0 00-.395-.39h-.227a.086.086 0 00-.03.004c-.02.008-.03.025-.03.05v.68c0 .036.021.055.063.055h.24a.361.361 0 00.275-.11m-.015-.25a.303.303 0 01-.078.193.282.282 0 01-.214.083H10.7V1.85h.15c.102 0 .178.029.228.086a.32.32 0 01.075.22zm-.44 1.537a.279.279 0 01-.184-.072.225.225 0 01-.068-.164v-.58c0-.043-.022-.065-.067-.065-.044 0-.066.022-.066.067v.545c0 .044.007.088.022.131a.32.32 0 00.193.21c.03.01.06.018.094.023a.78.78 0 00.114.007c.152 0 .26-.039.326-.117a.384.384 0 00.09-.255v-.546c0-.043-.023-.065-.067-.065-.044 0-.066.022-.066.067v.572c0 .071-.024.13-.073.175a.247.247 0 01-.09.052.382.382 0 01-.158.016m-.477.064a.057.057 0 00-.022-.043l-.117-.104a.44.44 0 00.081-.173l.012-.056a.293.293 0 00.001-.035v-.042a.514.514 0 00-.124-.343.433.433 0 00-.347-.15.435.435 0 00-.358.154.517.517 0 00-.12.336.498.498 0 00.032.196.435.435 0 00.25.262c.066.027.13.039.195.036l.048-.002.042-.005a.66.66 0 00.084-.023.39.39 0 00.127-.073l.102.09.022.015c.009.006.02.01.033.01.039-.006.058-.022.058-.05m-.185-.453c0 .076-.017.15-.05.223l-.073-.066a.1.1 0 00-.025-.017c-.006-.004-.015-.005-.027-.005a.058.058 0 00-.041.015.049.049 0 00-.017.038l.003.019.01.013.104.093a.31.31 0 01-.219.078.296.296 0 01-.245-.108.44.44 0 01-.087-.283c0-.108.028-.199.081-.271.058-.078.143-.116.257-.116a.43.43 0 01.082.008.258.258 0 01.173.12c.05.079.074.165.074.26m-.277-.879v-.26h.246c.037 0 .056-.015.056-.045s-.019-.045-.057-.045h-.245v-.26h.27c.02 0 .035-.005.043-.014a.045.045 0 00.013-.031c0-.03-.019-.045-.055-.045h-.32c-.04 0-.06.017-.06.053v.687c0 .015.005.027.015.036a.073.073 0 00.044.013h.316c.023 0 .039-.004.047-.012a.043.043 0 00.013-.031c0-.03-.02-.046-.057-.046zm-.2.046c0-.03-.018-.046-.054-.046h-.24v-.654c0-.036-.02-.054-.056-.054-.037 0-.055.018-.055.055v.69c0 .035.021.052.063.052h.285c.038 0 .057-.014.057-.043m-.495 0c0-.03-.018-.046-.054-.046h-.241v-.654c0-.036-.018-.054-.056-.054-.036 0-.054.018-.054.055v.69c0 .035.021.052.062.052h.286c.038 0 .057-.014.057-.043m-.354.826a.496.496 0 00-.124-.338.441.441 0 00-.35-.14h-.27a.093.093 0 00-.036.005c-.024.01-.036.03-.036.06v.834c0 .046.025.069.076.069h.286a.428.428 0 00.33-.135.503.503 0 00.124-.355m-.142 0c0 .018 0 .034-.002.047a.376.376 0 01-.092.237.334.334 0 01-.256.101H8.04v-.76h.18c.122 0 .213.035.273.105a.4.4 0 01.09.27m-.058-.825v-.701c0-.036-.018-.054-.055-.054-.037 0-.055.018-.055.055v.7a.05.05 0 00.014.034c.01.01.023.014.04.014.038 0 .056-.016.056-.048m-.204-.665a.167.167 0 00.014-.049.037.037 0 00-.014-.03.056.056 0 00-.036-.01c-.028 0-.05.019-.065.056l-.231.584h-.006l-.231-.58c-.015-.04-.037-.06-.065-.06-.032 0-.049.013-.049.04l.28.702c.008.02.017.035.024.042.01.012.026.018.046.018a.06.06 0 00.04-.014.22.22 0 00.035-.066l.24-.588zm-.665 1.004c-.043 0-.065.022-.065.066v.7l-.003.001-.545-.7a.274.274 0 00-.048-.052.085.085 0 00-.05-.015c-.04 0-.06.022-.06.068v.855a.06.06 0 00.017.044c.015.01.031.016.05.016.043 0 .065-.02.065-.06V3.07h.003l.555.714a.168.168 0 00.041.043.1.1 0 00.048.01.06.06 0 00.044-.016c.006-.007.01-.012.01-.016l.005-.886c0-.044-.022-.066-.067-.066m-.895.97c.012-.01.018-.022.018-.033a.455.455 0 00-.029-.085l-.322-.774c-.022-.052-.055-.078-.1-.078a.1.1 0 00-.05.014.103.103 0 00-.04.05l-.28.661-.061.15-.014.041a.063.063 0 00-.004.021c0 .015.006.026.018.035.014.008.03.012.045.012a.07.07 0 00.06-.032l.074-.186h.505l.07.18a.053.053 0 00.028.03c.01.005.023.007.038.007a.071.071 0 00.044-.013m-.221-.309h-.421l.208-.524h.005zm-.741.22l-.342-.336c.01 0 .024 0 .042-.002h.043l.04-.006.031-.007a.262.262 0 00.12-.06.227.227 0 00.053-.076.348.348 0 00.019-.051.35.35 0 00.006-.071.224.224 0 00-.107-.197.396.396 0 00-.225-.068h-.245c-.049 0-.073.021-.073.064v.849c0 .018.005.034.016.045a.07.07 0 00.05.018c.044 0 .066-.02.066-.062v-.37l.417.41a.06.06 0 00.03.016c.01.004.02.005.03.005a.09.09 0 00.04-.01.038.038 0 00.02-.035c0-.018-.01-.038-.031-.058m-.506-.424v-.344h.179c.065 0 .117.017.154.052a.155.155 0 01.053.117c0 .057-.014.1-.042.128-.031.031-.084.047-.158.047zm-.384.075v.053a.295.295 0 01-.183.277.354.354 0 01-.13.022c-.126 0-.218-.044-.275-.132a.464.464 0 01-.075-.258c0-.103.028-.193.084-.268.06-.08.147-.12.262-.12.076 0 .143.017.202.052l.06.037c.019.01.036.016.053.016a.064.064 0 00.044-.016.049.049 0 00.019-.038c0-.031-.036-.064-.107-.1a.579.579 0 00-.262-.056.708.708 0 00-.12.01.432.432 0 00-.312.222.528.528 0 00-.065.261c0 .128.04.24.118.336a.39.39 0 00.151.115c.06.026.13.04.21.04a.59.59 0 00.22-.037.362.362 0 00.216-.25.522.522 0 00.022-.172V3.36l-.003-.025a.189.189 0 00-.013-.032c-.012-.02-.038-.029-.077-.029H4.72c-.044 0-.065.019-.065.056 0 .017.005.03.016.04.013.009.03.014.047.014zm.354-.836h.482A2.955 2.955 0 004.79.73 2.86 2.86 0 002.881 0C1.293 0 0 1.275 0 2.84c0 .806.338 1.59.927 2.154a2.637 2.637 0 001.949.753c1.045-.047 1.702-.51 2.07-.89a2.73 2.73 0 00.545-.803H3.006v-.23a.95.95 0 10-.315.002v.228h-.636v.487l2.5-.003-.027.026c-.006.006-.67.64-1.647.644h-.008a2.42 2.42 0 01-1.69-.713A2.327 2.327 0 01.48 2.841C.48 1.536 1.558.474 2.88.474a2.42 2.42 0 011.6.595c.434.38.712.905.782 1.478" fill="#2e3192"/></svg>