<svg xmlns="http://www.w3.org/2000/svg" width="29.997" height="31.916" viewBox="0 0 7.937 8.444"><path d="M7.936 7.618v-.132c0-.027-.009-.036-.035-.036H7.73c-.036 0-.036 0-.036-.035v-.281c0-.036 0-.036.036-.036h.17c.027 0 .036-.009.036-.036v-.131c0-.027-.009-.036-.035-.036H7.73c-.036 0-.036 0-.036-.035v-.214c0-.035 0-.035.036-.035h.17c.027 0 .036-.01.036-.036v-.132c0-.026-.009-.035-.035-.035h-.385c-.026 0-.035.009-.035.035v1.175c0 .035.017.035.035.035h.385c.026 0 .035-.009.035-.035m-.571 0V6.443c0-.026-.009-.035-.036-.035h-.124c-.02 0-.029.004-.034.018l-.157.47c-.002.006-.012.006-.014 0l-.156-.467c-.005-.016-.013-.021-.034-.021h-.125c-.026 0-.035.009-.035.035v1.175c0 .027.009.035.035.035h.143c.026 0 .035-.009.035-.035v-.491c0-.01.009-.01.01-.002l.058.164c.007.025.021.025.039.025h.07c.022 0 .037 0 .044-.025l.057-.164c.002-.007.01-.007.01.002v.49c0 .028.015.036.036.036h.142c.025 0 .036-.009.036-.035m-.62-4.84A2.778 2.778 0 002.23.612h1.46c.087 0 .116.03.116.117v.355a.83.83 0 01-.017.128l-.739 3.36c-.023.11-.07.116-.128.116H2.44c-.059 0-.11-.023-.088-.116l.745-3.226c.012-.052-.012-.07-.047-.07H1.902c-.087 0-.056-.029-.056-.116V.986a2.778 2.778 0 002.84 4.475c-.523 0-.907-.291-.907-1.112V2.52c0-.88.32-1.164.901-1.164.623 0 .896.419.896 1.048 0 .087-.03.145-.116.145H5c-.087 0-.116-.029-.116-.116 0-.227 0-.414-.204-.414-.203 0-.203.187-.203.414v.454a1.12 1.12 0 01.203-.017c.524 0 .902.302.902 1.112v.367c0 .39-.086.66-.232.838a2.775 2.775 0 001.396-2.41M1.094 7.619v-.132c0-.026-.009-.035-.035-.035h-.17c-.036 0-.036 0-.036-.036v-.28c0-.037 0-.037.035-.037h.17c.027 0 .036-.009.036-.035V6.93c0-.026-.009-.035-.035-.035h-.17c-.036 0-.036 0-.036-.036v-.213c0-.036 0-.036.035-.036h.17c.027 0 .036-.009.036-.036v-.131c0-.027-.009-.036-.035-.036H.674c-.026 0-.035.01-.035.036v1.174c0 .036.018.036.035.036h.385c.026 0 .035-.01.035-.036m-.448.486v.252c0 .054-.005.058-.058.062v.018h.285c.006-.02.02-.08.023-.1l-.019-.003a.19.19 0 01-.032.061c-.015.017-.036.02-.07.02a.14.14 0 01-.061-.008C.703 8.4.699 8.387.699 8.353v-.249c0-.054.006-.057.056-.06v-.018H.59v.017c.052.004.056.007.056.061M.363 6.976c-.094-.11-.15-.183-.15-.251 0-.066 0-.123.063-.123.062 0 .062.073.062.127 0 .026.01.035.036.035h.14c.027 0 .036-.017.036-.044 0-.193-.093-.32-.283-.32-.178 0-.267.119-.267.279 0 .14.018.206.188.407.095.11.148.183.148.251 0 .066 0 .123-.062.123s-.062-.073-.062-.126c0-.027-.01-.036-.036-.036h-.14c-.027 0-.036.018-.036.044 0 .193.093.32.283.32.178 0 .267-.118.267-.279 0-.14-.016-.206-.187-.407M.01 8.206L0 8.24h.144l.01-.035zm1.03.212v.018h.304c.006-.02.018-.08.022-.1l-.019-.002a.182.182 0 01-.03.06c-.014.016-.032.02-.08.02-.032 0-.054 0-.066-.007-.01-.008-.015-.022-.015-.051v-.12h.06c.055 0 .06.004.068.05H1.3v-.121h-.018c-.008.042-.012.047-.069.047h-.059v-.143c0-.02.001-.02.021-.02h.048c.045 0 .062.004.071.017a.163.163 0 01.02.055l.019-.003-.005-.091h-.281v.017c.049.005.054.006.054.063v.251c0 .051-.005.056-.063.06m.207-.763h.142c.018 0 .036 0 .036-.036V6.445c0-.027-.01-.036-.036-.036h-.142c-.027 0-.036.009-.036.036v1.174c0 .036.018.036.036.036m.294-1.21v1.174c0 .027.009.036.035.036h.143c.026 0 .035-.01.035-.036v-.491c0-.009.01-.012.014 0l.173.505c.007.018.02.022.035.022H2.1c.027 0 .035-.01.035-.036V6.445c0-.027-.009-.036-.035-.036h-.142c-.027 0-.036.009-.036.036v.498c0 .009-.01.01-.014 0l-.173-.51c-.007-.02-.016-.024-.035-.024h-.125c-.027 0-.035.009-.035.036m.237 1.974v.017h.149c.078 0 .14-.016.187-.052a.2.2 0 00.078-.169.185.185 0 00-.053-.135c-.04-.037-.099-.054-.179-.054h-.177v.019c.049.004.054.006.054.06v.253c0 .054-.005.058-.06.061m.114-.328c0-.024.002-.031.008-.036.006-.004.022-.007.049-.007a.19.19 0 01.107.026c.05.03.074.086.074.15 0 .102-.054.19-.172.19-.046 0-.067-.012-.067-.06zm.361-1.646v1.174c0 .036.018.036.036.036h.384c.027 0 .035-.01.035-.036v-.132c0-.026-.009-.035-.035-.035H2.5c-.036 0-.036 0-.036-.036v-.28c0-.037 0-.037.035-.037h.17c.028 0 .036-.009.036-.035v-.132c0-.026-.009-.035-.035-.035H2.5c-.036 0-.036 0-.036-.036v-.213c0-.036 0-.036.035-.036h.17c.028 0 .036-.009.036-.036v-.131c0-.027-.009-.036-.035-.036h-.384c-.027 0-.036.01-.036.036m.233 1.56l.117-.04V7.96c-.001-.009-.019-.034-.027-.035-.028.02-.064.043-.098.065zm-.136.414v.018h.304c.006-.02.018-.08.022-.1l-.019-.002a.174.174 0 01-.03.06c-.015.016-.032.02-.08.02-.032 0-.053 0-.065-.007-.012-.008-.016-.022-.016-.052v-.119h.06c.055 0 .06.004.068.05h.018v-.121h-.018c-.008.042-.012.047-.068.047h-.06V8.07c0-.02.001-.02.021-.02h.048c.045 0 .062.004.071.017a.163.163 0 01.02.054l.018-.003-.005-.09h-.28v.017c.049.005.054.006.054.063v.251c0 .051-.005.056-.063.06m.474-1.3v.131c0 .027.009.036.036.036h.182c.026 0 .035-.01.035-.036v-.132c0-.026-.009-.035-.035-.035h-.182c-.027 0-.036.009-.036.035M2.83 8.42v.018H3V8.42c-.056-.004-.062-.007-.062-.06v-.1l.047.012h.028c.061-.008.123-.048.123-.13a.106.106 0 00-.04-.088.178.178 0 00-.107-.027h-.155v.018c.046.003.051.006.051.061v.252c0 .053-.005.058-.055.061m.108-.334c0-.018.002-.026.007-.03.004-.005.018-.008.036-.008.051 0 .095.03.095.098 0 .08-.05.102-.092.102-.02 0-.038-.005-.046-.007zm.253-1.64V7.62c0 .027.009.036.036.036h.142c.027 0 .035-.01.035-.036v-.491c0-.01.01-.01.011-.002l.057.164c.007.025.022.025.04.025h.069c.023 0 .037 0 .044-.025l.057-.164c.002-.007.01-.007.01.002v.49c0 .028.015.037.036.037h.143c.024 0 .035-.01.035-.036V6.446c0-.027-.009-.036-.035-.036h-.125c-.02 0-.028.004-.034.018l-.156.47c-.002.006-.013.006-.014 0l-.157-.467c-.005-.016-.012-.021-.034-.021h-.124c-.027 0-.036.009-.036.036m.044 1.973v.018h.137V8.42c-.047-.004-.053-.01-.039-.05l.028-.081h.134l.035.097c.008.024.002.03-.037.034v.018h.154V8.42c-.041-.004-.05-.009-.07-.063l-.121-.338-.02.006-.13.331c-.022.056-.031.059-.07.065m.134-.16c.02-.05.04-.106.06-.16l.056.16zm.428.16v.018h.166V8.42c-.05-.004-.056-.007-.056-.061v-.1h.02c.033 0 .044.007.055.025.018.03.04.07.063.1a.114.114 0 00.102.058h.022l.002-.016a.092.092 0 01-.045-.03.543.543 0 01-.051-.065 1.205 1.205 0 01-.056-.091c.046-.02.08-.054.08-.108a.095.095 0 00-.042-.083c-.024-.016-.055-.021-.1-.021H3.8v.017c.05.005.054.006.054.06v.254c0 .053-.006.057-.057.06m.11-.336c0-.017.002-.025.007-.028.005-.004.016-.006.034-.006.048 0 .093.025.093.093 0 .034-.01.06-.035.078-.016.013-.036.018-.069.018h-.03zm.119-.427h.147c.024 0 .034 0 .04-.027l.021-.14c.007-.036.007-.036.04-.036h.067c.032 0 .032 0 .039.036l.021.14c.005.027.016.027.04.027h.147c.018 0 .036 0 .03-.03l-.206-1.184c-.005-.026-.01-.032-.04-.032h-.13c-.03 0-.035.005-.04.032l-.206 1.184c-.005.03.012.03.03.03m.238-.415l.036-.236c.002-.01.012-.01.014 0l.036.236c.005.036.005.036-.03.036h-.026c-.035 0-.035 0-.03-.036m.023.771c0 .035-.005.076-.008.113h.018a.192.192 0 01.02-.056c.008-.014.021-.02.073-.02h.04v.311c0 .05-.005.056-.063.06v.018h.181V8.42c-.06-.004-.065-.01-.065-.06v-.31h.045c.047 0 .058.004.068.02.007.01.013.025.02.055l.019-.002a1.606 1.606 0 01-.006-.111h-.014c-.01.012-.015.015-.032.015h-.248c-.018 0-.027 0-.035-.015zm.392-3.184c.204 0 .204-.186.204-.477v-.367c0-.337 0-.478-.204-.478-.169 0-.198.094-.204.32v.525c0 .291 0 .477.204.477m.03 1.618V7.62c0 .027.01.036.036.036h.142c.027 0 .036-.01.036-.036v-.393c0-.035 0-.035.035-.035h.016l.077.437c.005.027.016.027.039.027h.144c.014 0 .03-.01.025-.038L5.17 7.12c.057-.055.09-.146.09-.284v-.07c0-.267-.124-.356-.301-.356h-.214c-.027 0-.036.01-.036.036m.214.194c0-.036 0-.036.035-.036.09 0 .09.09.09.182v.03c0 .09 0 .182-.09.182-.035 0-.035 0-.035-.036zm-.137 1.78v.018h.304c.006-.02.018-.08.022-.1l-.02-.002a.182.182 0 01-.03.06c-.014.016-.031.02-.08.02-.031 0-.053 0-.065-.007-.011-.008-.015-.022-.015-.052v-.119h.06c.054 0 .06.004.067.05h.018v-.121H5.03c-.008.042-.011.047-.068.047h-.06V8.07c0-.02.002-.02.022-.02h.048c.045 0 .062.003.07.017a.163.163 0 01.021.054l.018-.003-.005-.09h-.28v.017c.048.005.053.006.053.063v.251c0 .051-.005.056-.062.06m.769-.763c.018 0 .035 0 .035-.036V6.447c0-.027-.009-.036-.035-.036h-.142c-.027 0-.036.009-.036.036V7.62c0 .036.018.036.036.036zm-.296.763v.018h.147V8.42c-.042-.004-.057-.008-.058-.038 0-.026 0-.053.002-.105l.01-.18h.001l.141.337h.012l.154-.346h.002l.002.258c0 .066-.002.07-.053.074v.018h.166V8.42c-.055-.005-.057-.008-.059-.074l-.006-.229c-.002-.065.002-.066.058-.071v-.018h-.107l-.145.316-.144-.316h-.104v.018c.058.006.06.008.055.09l-.009.131c-.005.066-.009.094-.012.116-.005.026-.017.033-.053.037m.464-1.815h.091c.034 0 .034 0 .034.035v.98c0 .036.018.036.035.036h.143c.018 0 .036 0 .036-.035v-.98c0-.036 0-.036.035-.036h.089c.027 0 .036-.01.036-.036v-.123c0-.026-.01-.035-.036-.035h-.463c-.035 0-.035.018-.035.035v.123c0 .018 0 .036.035.036M5.94 8.42v.018h.303c.006-.02.019-.079.023-.1l-.02-.002a.182.182 0 01-.03.06c-.014.016-.032.021-.08.021-.031 0-.053 0-.065-.008-.011-.008-.015-.021-.015-.051v-.12h.06c.054 0 .059.005.067.05h.018v-.12h-.018c-.008.041-.011.046-.068.046h-.06v-.143c0-.019.002-.02.021-.02h.048c.046 0 .063.004.072.018a.163.163 0 01.02.054l.018-.003-.005-.091h-.28v.018c.048.005.053.006.053.063v.25c0 .052-.005.057-.062.06m.38-1.973v1.174c0 .036.019.036.036.036H6.5c.017 0 .035 0 .035-.036V6.447c0-.026-.009-.036-.035-.036h-.143c-.027 0-.035.01-.035.036m.182 1.582H6.41v.018c.03.002.044.008.056.023.012.015.013.018.013.064v.138c0 .058-.002.089-.004.108-.003.031-.019.04-.055.04v.019h.149V8.42c-.043-.002-.057-.01-.06-.042a1.005 1.005 0 01-.005-.107v-.158h.001l.269.33h.02V8.19c0-.058 0-.087.003-.106.002-.027.018-.035.053-.037v-.018H6.7v.018c.044.002.059.01.062.039a.856.856 0 01.005.104v.155h-.002zm.504-.016c0 .035-.005.076-.008.114h.018a.192.192 0 01.02-.056c.009-.015.021-.02.074-.02h.039v.31c0 .05-.005.056-.063.06v.018h.181V8.42c-.06-.004-.065-.01-.065-.06v-.31h.045c.048 0 .058.004.068.02.007.01.013.025.02.056l.019-.002a1.606 1.606 0 01-.006-.112h-.014c-.01.012-.014.016-.032.016h-.249c-.017 0-.026-.001-.034-.016zm.785.196l-.009.034h.144l.01-.034z" fill="#2e3192"/></svg>