<svg xmlns="http://www.w3.org/2000/svg" width="12.6" height="30.596" viewBox="0 0 3.334 8.095"><path d="M3.334 7.69V3.74a5.727 5.727 0 01-.629-.009 1.629 1.629 0 00-.361.035c-.011.22.05.527.064.607.015.08.047.227.09.316.042.09.014.185-.014.213-.029.028-.029.099-.01.174 0 0-.113.085-.184.118-.07.033-.07.024-.085-.023a.423.423 0 01.044-.266c.01-.007-.02.196.02.171.037-.024.078-.046.087-.06a.679.679 0 00.05-.228c0-.066-.066-.335-.08-.354a.617.617 0 01-.09-.297c0-.141-.066-.514-.066-.514.202-.068.713.024 1.164-.054V2.16c-.359.028-.756.067-.85.112a.82.82 0 00-.34.274c-.085.12-.566.677-.45.686.116.01.18.035.025.072l-.308.076c-.02.005-.008-.016.006-.035.273-.383.579-.76.847-1.148.127-.152.363-.507.365-.504a.694.694 0 00-.192.044s.774-1.024.897-1.22V0H0v8.095zm-1.95-2.04l.21-.03v.325c0 .154.025.18.084.18.056 0 .122-.12.122-.195v-.153c0-.084-.042-.09-.082-.09h-.004V5.65l.206-.03h.005v.446c0 .085.043.092.082.092h.005v.035H1.8v-.12c-.024.048-.075.133-.173.133-.138 0-.157-.08-.157-.165v-.265c0-.084-.043-.09-.082-.09h-.005zm-.287.557c-.169 0-.251-.096-.251-.293 0-.197.082-.292.25-.292.17 0 .252.095.252.292 0 .197-.082.293-.251.293m-.634-.821c.094 0 .312.02.312.206 0 .156-.066.191-.182.213.018.016.12.247.12.247s.117.274.285.274h.005l.008.025s-.034.032-.114.032c-.057 0-.178-.039-.265-.193-.086-.152-.155-.35-.183-.367H.392v.225c0 .091.014.107.097.107h.005v.04H.148v-.04h.005c.083 0 .097-.016.097-.107v-.516c0-.091-.014-.107-.097-.107H.148v-.04h.005zm.672-3.855c-.003-.011-.004-.028.005-.033a.013.013 0 01.017.002c.127.186.27.343.477.4.242.037.34-.123.365-.2.034-.124-.086-.223-.086-.34.014-.17-.017-.344-.157-.438-.063-.052-.515-.208-.684.235-.118-.111-.288-.03-.327.005.03.067.094.192.235.183v.017c-.355.58-.182 1.544.36 1.867a3.373 3.373 0 01-.144.195l-.17.054c-.062.018-.105.079-.122.112-.016.03-.143.34-.143.34-.075 0-.01-.165-.004-.184.004-.018.06-.163.092-.246.033-.084.098-.095.121-.102l.21-.054C.588 2.838.655 1.817.812 1.427a.41.41 0 01-.187-.295c.094-.15.3-.138.365-.116.2-.337.778-.29.914-.082.067.055.16.048.237.076.046.04 0 .172-.131.234-.018.122.056.264.08.325a.327.327 0 01-.17.376c-.092.044-.182.001-.151.05.098.15.398.112.416.113-.01.017-.037.054-.062.087-.312.021-.825-.196-.988-.664m.12-.317a.313.313 0 01.308.168c.003.035-.04.027-.063.033-.106-.016-.232-.057-.266-.175-.005-.012.012-.025.022-.026m.53 2.532a.28.28 0 01-.04.002 2.43 2.43 0 01-.466-.063s-.132.184-.15.213a.16.16 0 00-.018.142c.018.04.157.311.207.343-.013.079-.143.228-.223.278a.994.994 0 00-.128-.328C.94 4.299.954 4.267.964 4.25c.004-.005.158.265.162.26a.962.962 0 01.074-.08c.029-.028.005-.056-.01-.084-.013-.028-.143-.197-.209-.287 0 0-.243.288-.333.382 0 0-.02-.057.033-.122l.42-.557c.024-.033-.014-.038-.042-.029 0 0-.095.104-.114.128-.019.024-.028-.024-.037-.057 0 0 .07-.144.117-.174a.62.62 0 01.23-.048c.056-.002.44.008.657-.015.217-.024.261-.173.364-.348-.03.302-.202.436-.346.492.042.114.181.49.305.873-.103-.12-.372-.674-.45-.837m.717 2.143v.004h-.326c0 .097.056.25.205.25a.28.28 0 00.104-.02l.007-.002v.053l-.004.001a.445.445 0 01-.16.032c-.182 0-.287-.114-.287-.312 0-.179.085-.274.246-.274.154 0 .223.084.215.268m.698.306h-.298V6.16h.005c.065 0 .082-.02.082-.1v-.176c0-.154-.02-.179-.07-.179-.061 0-.135.12-.135.194v.161c0 .08.016.1.081.1h.005v.036h-.298V6.16h.004c.066 0 .082-.02.082-.1v-.282c0-.084-.042-.09-.082-.09h-.004V5.65l.206-.03h.006v.133c.026-.047.08-.133.186-.133.127 0 .144.08.144.165v.273c0 .08.017.1.082.1H3.2zm-1.024-.36h.2c0-.088-.004-.163-.094-.163-.099 0-.106.102-.106.163M.63 5.607C.63 5.5.577 5.45.464 5.45c-.065 0-.071.015-.071.082v.226H.46c.113 0 .169-.05.169-.15m.352.306c0 .165.037.243.116.243.08 0 .116-.078.116-.243 0-.165-.036-.242-.116-.242-.08 0-.116.077-.116.242m2.04-3.84c.034 0 .154-.004.313-.01v-.378c-.18-.047-.373-.08-.589-.016-.028.038-.176.243-.33.444l.04-.002c.176 0 .438-.034.567-.037m.312-.495V.841a.251.251 0 00-.1.016l-.052.081c.086-.023.117.04.117.04l-.081.151s-.1-.003-.146 0c-.073.01-.14.143-.14.143s.13-.03.153.035c-.002 0-.081.137-.081.137s-.192-.006-.231.025l-.098.104c.26-.07.46-.039.659.007" fill="#2e3192"/></svg>