<svg xmlns="http://www.w3.org/2000/svg" width="16.82" height="22.224" viewBox="0 0 4.45 5.88"><path d="M4.428 2.364l.021.051v-.06zm-.031-1.337a.486.486 0 00.052-.008V.806l-.06-.17c-.004 0-.005-.002-.009-.003L4.372.63l.008.002.008.002v.001a.168.168 0 01.061.025V.427L4.442.425 4.361.198a.15.15 0 01.088.039V.014A.489.489 0 004.33 0a.393.393 0 00-.157.033L4.168.02H4.13l.01.027a.329.329 0 00-.075.056L4.036.02h-.037l.04.112a.295.295 0 00-.054.114V.244l-.08-.223h-.037l.107.299h.001a.27.27 0 00.062.174l.065.18-.087.021L4.014.69l-.21-.587V.021h-.627v.988l.046.127h.036l-.045-.127h.092l.046.127h.036l-.045-.127h.094l.046.127h.036l-.045-.127h.094l.045.127h.037l-.045-.127h.094l.045.127h.037l-.046-.127h.07V.94l.07.197h.037l-.107-.3V.8h-.013L3.723.61h.043V.466l.24.67h.037L3.717.23h.087V.205l.178.498-.042.011a.342.342 0 00.13.232h-.001l.068.19h.037L4.117.977a.4.4 0 00.109.04l.042.119h.037l-.04-.111a.574.574 0 00.096.005l.038.106h.036zM3.66.8L3.593.61h.094l.068.19zm-.13 0L3.462.61h.094l.068.19zM3.398.61h.027l.068.19h-.095zm.021-.38l.068.188h-.089V.229zm.131 0l.068.188h-.094L3.456.229zm.131 0l.068.188h-.095L3.587.229zm.525.37l.083.23a.176.176 0 01-.147-.164l-.005.001-.002-.003-.042-.118L4.09.543c.033.025.117.056.116.056m.006-.352l.051.142C4.215.373 4.193.342 4.193.3c0-.019.007-.037.02-.054m.09.151L4.239.221a.158.158 0 01.085-.026l.079.222zm.145.409zm-.027.015L4.425.82l-.004.002m-.074.013h-.02l-.08-.227h-.002l.117.022-.014-.003.07.196a.198.198 0 01-.071.012m-1.17.03V.81a.027.027 0 00-.027.027c0 .015.012.027.027.027m0-.088V.721A.027.027 0 003.15.75c0 .015.012.027.027.027m0-.088V.634A.027.027 0 003.15.66c0 .015.012.027.027.027m0-.088V.546a.027.027 0 00-.027.027c0 .015.012.027.027.027m0-.088V.458a.027.027 0 00-.027.027c0 .015.012.027.027.027m0-.088V.37a.027.027 0 00-.027.027c0 .015.012.027.027.027m-.09.44a.028.028 0 00.028-.027.027.027 0 00-.028-.027.027.027 0 00-.027.027c0 .015.012.027.027.027m0-.088A.027.027 0 003.115.75a.028.028 0 00-.028-.03.027.027 0 00-.027.03c0 .015.012.027.027.027m0-.088a.028.028 0 00.028-.027.027.027 0 00-.028-.027.027.027 0 00-.027.027c0 .015.012.027.027.027m0-.088a.027.027 0 00.028-.027.027.027 0 00-.028-.027.027.027 0 00-.027.027c0 .015.012.027.027.027m0-.088a.027.027 0 00.028-.027.028.028 0 00-.028-.027.027.027 0 00-.027.027c0 .015.012.027.027.027m0-.088a.028.028 0 00.028-.027.027.027 0 00-.028-.027.027.027 0 00-.027.027c0 .015.012.027.027.027m-.073.434a.027.027 0 000-.042zM2.997.81c.007 0 .013.002.017.006V.799h-.426V.02h-.22v.35a.027.027 0 010 .054v.034c.015 0 .027.012.027.027a.027.027 0 01-.027.027v.034a.027.027 0 010 .054v.034a.027.027 0 010 .054v.033c.015 0 .027.013.027.028a.027.027 0 01-.027.027V.81a.027.027 0 010 .054v.145h.646V.858a.027.027 0 01-.017.006.027.027 0 010-.055M2.485.398a.027.027 0 01-.027.027.028.028 0 01-.028-.027c0-.015.013-.027.028-.027.015 0 .027.012.027.027m0 .088a.027.027 0 01-.055 0c0-.015.013-.028.028-.028.015 0 .027.013.027.028m0 .088A.027.027 0 012.458.6.027.027 0 012.43.573c0-.015.013-.027.028-.027.015 0 .027.012.027.027m0 .088a.027.027 0 01-.027.027.028.028 0 01-.028-.027c0-.015.013-.028.028-.028.015 0 .027.013.027.028m0 .088a.027.027 0 01-.027.027.027.027 0 01-.028-.027c0-.015.013-.028.028-.028.015 0 .027.013.027.028m0 .088a.027.027 0 01-.027.027.028.028 0 01-.028-.027c0-.015.013-.028.028-.028.015 0 .027.013.027.028m.09-.44a.027.027 0 01-.027.027.028.028 0 01-.028-.027c0-.015.013-.027.028-.027.015 0 .027.012.027.027m0 .088a.027.027 0 01-.055 0c0-.015.013-.028.028-.028.015 0 .027.013.027.028m0 .088A.027.027 0 012.548.6.027.027 0 012.52.573c0-.015.013-.027.028-.027.015 0 .027.012.027.027m0 .088a.027.027 0 01-.027.027.028.028 0 01-.028-.027c0-.015.013-.028.028-.028.015 0 .027.013.027.028m0 .088a.027.027 0 01-.027.027.027.027 0 01-.028-.027c0-.015.013-.028.028-.028.015 0 .027.013.027.028m0 .088a.027.027 0 01-.027.027.028.028 0 01-.028-.027c0-.015.013-.028.028-.028.015 0 .027.013.027.028m.09 0a.028.028 0 01-.028.027.027.027 0 11.028-.028m.09 0a.028.028 0 01-.028.028.027.027 0 11.028-.028m.09 0a.028.028 0 01-.028.028.027.027 0 11.028-.028m.09 0a.028.028 0 01-.028.028.027.027 0 11.028-.028m-.567.028V.81a.027.027 0 00-.028.028c0 .015.013.027.028.027m0-.088V.721A.028.028 0 002.34.75c0 .015.013.027.028.027m0-.088V.633a.027.027 0 00-.028.028c0 .015.013.027.028.027m0-.088V.546a.027.027 0 00-.028.027c0 .015.013.027.028.027m0-.088V.457a.028.028 0 00-.028.028c0 .015.013.027.028.027m0-.088V.37a.027.027 0 00-.028.027c0 .015.013.027.028.027m.63.352a.027.027 0 00.027-.027.028.028 0 00-.028-.028.027.027 0 00-.027.028c0 .015.012.027.027.027m0-.088a.028.028 0 00.028-.027.027.027 0 10-.028.028m0-.09a.027.027 0 00.028-.026.027.027 0 00-.028-.027.027.027 0 000 .054m0-.088a.027.027 0 00.028-.027.028.028 0 00-.028-.028.027.027 0 000 .055m0-.088a.028.028 0 00.028-.027.027.027 0 10-.028.028m-.09.351a.027.027 0 00.028-.027.028.028 0 00-.028-.028.027.027 0 00-.027.028c0 .015.012.027.027.027m0-.088a.028.028 0 00.028-.027.027.027 0 10-.028.028m0-.09a.027.027 0 00.028-.026.027.027 0 00-.028-.027.027.027 0 000 .054m0-.088a.027.027 0 00.028-.027.028.028 0 00-.028-.028.027.027 0 000 .055m0-.088a.028.028 0 00.028-.027.027.027 0 10-.028.028m-.09.351a.027.027 0 00.028-.027.028.028 0 00-.028-.028.027.027 0 00-.027.028c0 .015.012.027.027.027m0-.088a.028.028 0 00.028-.027.027.027 0 10-.028.028m0-.089a.027.027 0 00.028-.027.027.027 0 00-.028-.027.027.027 0 000 .054m0-.088a.027.027 0 00.028-.027.028.028 0 00-.028-.028.027.027 0 000 .055m0-.088a.028.028 0 00.028-.027.027.027 0 10-.028.028m-.09.351a.027.027 0 00.028-.027.028.028 0 00-.028-.028A.027.027 0 002.7.75c0 .015.013.027.027.027m0-.088a.028.028 0 00.028-.027.027.027 0 10-.028.028m0-.089a.027.027 0 00.028-.027.027.027 0 00-.028-.027.027.027 0 000 .054m0-.088a.027.027 0 00.028-.027.028.028 0 00-.028-.028.027.027 0 000 .055m0-.088a.028.028 0 00.028-.027.027.027 0 10-.028.028m-.09.351A.027.027 0 002.665.75a.028.028 0 00-.028-.028.027.027 0 00-.027.028c0 .015.013.027.027.027m0-.088a.028.028 0 00.028-.027.027.027 0 10-.028.028m0-.089a.027.027 0 00.028-.027.027.027 0 00-.028-.027.027.027 0 000 .054m0-.088a.027.027 0 00.028-.027.028.028 0 00-.028-.028.027.027 0 000 .055m0-.088a.028.028 0 00.028-.027.027.027 0 10-.028.028m-.265.816h-.059V1.3h.06zM2.278.864A.027.027 0 102.25.836c0 .016.013.028.028.028m0-.088a.027.027 0 00.027-.027.027.027 0 00-.027-.028.028.028 0 00-.028.028c0 .015.013.027.028.027m0-.088A.027.027 0 102.25.66c0 .016.013.028.028.028m0-.088a.027.027 0 000-.054.027.027 0 00-.028.027c0 .015.013.027.028.027m0-.088a.027.027 0 000-.055.028.028 0 00-.028.028c0 .015.013.027.028.027m0-.088A.027.027 0 102.25.396c0 .016.013.028.028.028m-.09.352a.027.027 0 00.027-.027.027.027 0 00-.027-.028.028.028 0 00-.028.028c0 .015.013.027.028.027m0-.088a.027.027 0 00.027-.027.027.027 0 00-.027-.027.027.027 0 00-.028.027c0 .015.013.027.028.027m0-.088a.027.027 0 00.027-.027.027.027 0 00-.027-.027.027.027 0 00-.028.027c0 .015.013.027.028.027m0-.088a.027.027 0 00.027-.027.027.027 0 00-.027-.028.028.028 0 00-.028.028c0 .015.013.027.028.027m0-.088a.027.027 0 00.027-.027.027.027 0 00-.027-.027.027.027 0 00-.028.027c0 .015.013.027.028.027m-.09.352a.027.027 0 00.027-.027.027.027 0 00-.027-.028.028.028 0 00-.028.028c0 .015.013.027.028.027m0-.088a.027.027 0 00.027-.027.027.027 0 00-.027-.027.027.027 0 00-.028.027c0 .015.013.027.028.027m0-.088a.027.027 0 00.027-.027.027.027 0 00-.027-.027.027.027 0 00-.028.027c0 .015.013.027.028.027m0-.088a.027.027 0 00.027-.027.027.027 0 00-.027-.028.028.028 0 00-.028.028c0 .015.013.027.028.027m0-.088a.027.027 0 00.027-.027.027.027 0 00-.027-.027.027.027 0 00-.028.027c0 .015.013.027.028.027m-.09.352A.027.027 0 002.035.75a.027.027 0 00-.027-.03.028.028 0 00-.028.03c0 .015.013.027.028.027m0-.088a.027.027 0 00.027-.027.027.027 0 00-.027-.027.027.027 0 00-.028.027c0 .015.013.027.028.027m0-.088a.027.027 0 00.027-.027.027.027 0 00-.027-.027.027.027 0 00-.028.027c0 .015.013.027.028.027m0-.088a.027.027 0 00.027-.027.027.027 0 00-.027-.027.028.028 0 00-.028.027c0 .015.013.027.028.027m0-.088a.027.027 0 00.027-.027.027.027 0 00-.027-.027.027.027 0 00-.028.027c0 .015.013.027.028.027m-.09.352A.027.027 0 001.945.75a.027.027 0 00-.027-.03.027.027 0 00-.027.028c0 .015.012.027.027.027m0-.088A.027.027 0 001.945.66a.027.027 0 00-.054 0c0 .015.012.027.027.027m0-.088a.027.027 0 00.027-.027.027.027 0 00-.027-.027.027.027 0 00-.027.027c0 .015.012.027.027.027m0-.088a.027.027 0 00.027-.027.027.027 0 00-.027-.027.027.027 0 00-.027.027c0 .015.012.027.027.027m0-.088a.027.027 0 00.027-.027.027.027 0 00-.054 0c0 .015.012.027.027.027m-.09.352A.027.027 0 001.855.75a.027.027 0 00-.027-.03.027.027 0 00-.027.028c0 .015.012.027.027.027m0-.088A.027.027 0 001.855.66a.027.027 0 00-.054 0c0 .015.012.027.027.027m0-.088a.027.027 0 00.027-.027.027.027 0 00-.027-.027.027.027 0 00-.027.027c0 .015.012.027.027.027m0-.088a.027.027 0 00.027-.027.027.027 0 00-.027-.027.027.027 0 00-.027.027c0 .015.012.027.027.027m0-.088a.027.027 0 00.027-.027.027.027 0 00-.054 0c0 .015.012.027.027.027M2.205.8h-.427V.02h-.22v.35a.027.027 0 00-.027.027c0 .015.012.027.027.027v.034a.028.028 0 00-.027.027c0 .015.012.027.027.027v.034a.027.027 0 000 .054v.034a.027.027 0 000 .054v.033A.028.028 0 001.53.75c0 .015.012.027.027.027V.81a.027.027 0 00-.027.027c0 .015.012.027.027.027v.145h.647zm-.737.065A.027.027 0 101.44.836c0 .016.013.028.028.028m0-.088A.027.027 0 001.495.75a.027.027 0 00-.027-.03.028.028 0 00-.028.03c0 .015.013.027.028.027m0-.088A.027.027 0 101.44.66c0 .016.013.028.028.028m0-.088a.027.027 0 000-.054.027.027 0 00-.028.027c0 .015.013.027.028.027m0-.088a.027.027 0 000-.054.028.028 0 00-.028.027c0 .015.013.027.028.027m0-.088A.027.027 0 101.44.396c0 .016.013.028.028.028m-.004.585h-.055l-.618.632h.054zM1.378.864A.027.027 0 101.35.836c0 .016.013.028.028.028m0-.088A.027.027 0 001.405.75a.027.027 0 00-.027-.03.028.028 0 00-.028.03c0 .015.013.027.028.027m0-.088A.027.027 0 101.35.66c0 .016.013.028.028.028m0-.088a.027.027 0 000-.054.027.027 0 00-.028.027c0 .015.013.027.028.027m0-.088a.027.027 0 000-.054.028.028 0 00-.028.027c0 .015.013.027.028.027m0-.088A.027.027 0 101.35.396c0 .016.013.028.028.028M.715 1.641l.619-.632h-.01V.021H1.1v.988h.045l-.619.632h.055l.619-.632h.079l-.574.586-.264.27-.132-.14.032-.024a.469.469 0 00.067-.06h.043l.619-.632h-.055l-.57.582A.228.228 0 00.48 1.48c0-.003.46-.47.46-.47H.887l-.41.418a.25.25 0 00-.019-.062l.35-.357H.754l-.316.322a.24.24 0 00-.035-.04l.275-.282H.624l-.253.258a.268.268 0 00-.05-.026L.55 1.01h.04L.951.021H.717L.482.717.243.02H0l.363.988H.361l-.209.213a.3.3 0 00-.119.045l.253-.258H.23L0 1.245v.424l.021.024.014.015L0 1.734v.471a.335.335 0 00.172.044c.104 0 .19-.046.26-.116l.088.096h.268l-.222-.234.14-.14V1.64zm-.567.202l.007-.005.153.164c-.04.042-.082.066-.13.066a.103.103 0 01-.107-.102c0-.055.031-.09.077-.123m.08-.276l-.04.028-.023-.025a1.033 1.033 0 01-.017-.019l.123-.125a.083.083 0 01.014.047c0 .031-.017.065-.057.094m-.03-.178c.016 0 .031.004.044.01l-.116.119a.095.095 0 01-.011-.044c0-.059.041-.085.083-.085m.082-.16a.343.343 0 00-.07-.01l.205-.21h.08zm-.178-.22L0 1.113v.056l.156-.16zm.062 2.672H0a.533.533 0 01.267.07zm-.115.214l.167.114a.243.243 0 00-.167-.114m.188.16L0 3.894v.076l.255.174a.33.33 0 00-.018-.089m.02.12L0 4.003v.076l.25.17a.407.407 0 00.007-.072m-.013.1L0 4.11v.076l.22.15a.275.275 0 00.024-.06m-.038.081L0 4.217v.077l.162.11a.222.222 0 00.044-.047M.14 4.42L0 4.325v.077l.07.048a.245.245 0 00.07-.03m-.105.037L0 4.433v.028a.283.283 0 00.035-.004m1.868.678l.036.035.035-.035-.035-.036zm.036.263l-.036.035.007.007a.238.238 0 00.038-.033zm-.036-.114l.036.035.035-.035-.035-.036zM0 4.669v.243a.547.547 0 01.21-.041.5.5 0 01.513.516.496.496 0 01-.362.493h.525v-.988h.223v.207l-.035.036.035.035v.079l-.035.035.035.035v.079l-.035.035.035.035v.079l-.035.035.035.035v.079l-.035.035.035.035v.079l-.035.035h.035v-.035l.035.035h.137l.035-.035v-.079l-.035-.035.035-.035v-.079l-.035-.035.035-.035v-.079l-.035-.035.035-.035v-.08l-.035-.034.035-.035V5.17l-.035-.035.035-.036v-.207h.39c.19 0 .315.127.321.296l.015-.014.035.035-.035.035-.015-.015a.29.29 0 01-.079.178l.026.026-.035.035-.028-.028a.277.277 0 01-.07.037l.03.03-.016.017-.023-.045.008-.002-.004-.005-.036.035.036.036.018-.02.088.176-.003-.003-.036.035.036.035.025-.024.069.138h.075l.035-.035v-.079l-.035-.035.035-.035v-.079l-.035-.035.035-.035v-.079l-.035-.035.035-.035v-.08l-.035-.034.035-.035v.07l.035-.035-.035-.036V5.17l-.035-.035.035-.036v.071l.035-.035-.035-.036v-.235l.088-.196h.011l-.1.224h.04l.098-.224h.012l-.098.224h.038l.097-.224h.012l-.098.224h.038l.097-.224h.012l-.097.224h.037l.098-.224h.012l-.098.224h.038l.097-.224h.012l-.098.224h.038l.098-.224h.005a.348.348 0 01-.254-.295l.202-.049c.009.09.07.17.205.17.086 0 .14-.042.14-.103 0-.05-.04-.087-.106-.1l-.136-.024c-.13-.025-.22-.098-.254-.198h-.073a.033.033 0 00-.033-.032.033.033 0 00-.034.032h-.046v.6H1.92v-.656l-.174-.12v.077l.144.099h-.047l-.097-.067v.667h-.222v-.394H1.13v.393H.91v-.047l-.44-.3a.5.5 0 01-.02.062v.002l.42.283H.823L.441 4.41a.512.512 0 01-.03.055v.001l.3.203H.662l-.268-.182a.381.381 0 01-.041.048l.197.135H.508l-.173-.12a.457.457 0 01-.054.039l.115.079h-.05l-.09-.062H.253a.52.52 0 01-.067.03l.047.032H.188l-.032-.022A.589.589 0 010 4.668m2.143.082l.038-.083h.012l-.05.11zm-.136 1.055l.035-.036.035.036-.035.035zm0-.15l.035-.035.035.035-.035.036zm0-.149l.035-.035.035.035-.035.036zm-.033.075l-.036.035-.035-.035.035-.035zm0 .149l-.01.01-.021-.041zm.103-.373l-.035.036-.035-.036.035-.035zm-.9.448l.036-.036.035.036-.035.035zm0-.15l.036-.035.035.035-.035.036zm0-.149l.036-.035.035.035-.035.036zm0-.149l.036-.035.035.035-.035.036zm0-.149l.036-.035.035.035-.035.035zm-.068.487l.035.035-.035.035zm0-.15l.035.036-.035.035zm0-.148l.035.035-.035.035zm0-.15l.035.036-.035.035zm0-.149l.035.036-.035.035zm1.034.299v.07l.035-.035-.035-.035zm0 .149v.07l.035-.035zm0 .149v.07l.035-.035-.035-.035zm0 .149v.035h.035zM2.028 5.2v-.013l-.021.021.02.02a.241.241 0 000-.028m-.711-.102v.071l.035-.035zm0 .15v.07l.035-.035-.035-.036zm0 .149v.07l.035-.035zm0 .149v.07l.035-.035zm0 .149v.07l.035-.035zm0 .149v.035h.035l-.027-.027zM.21 5.085a.289.289 0 00-.21.088v.423a.289.289 0 00.21.087c.137 0 .284-.092.284-.298 0-.207-.147-.3-.284-.3m1.22.089l-.036.035.035.035.035-.035zm0 .15l-.036.034.035.036.035-.036zm0 .148l-.036.035.035.036.035-.036zm0 .15l-.036.034.035.036.035-.036zm0 .148l-.036.036.035.035.035-.035zm.102-.6v.078l.036.036-.036.035v.003h.131a.182.182 0 00.062-.01l-.028-.028.035-.036.03.03c.022-.02.04-.043.04-.076 0-.047-.026-.077-.064-.097l.03.03-.036.035-.035-.035.032-.032c-.02-.009-.037-.02-.066-.02h-.13v.016l.035.036zm.062.04l.035-.036.035.035-.035.035zm-.062-.04V5.1l-.035.035zm.197-.067l.01.002-.007-.006zm.034.176c-.006.006-.004.016-.01.02l.015-.015zm-.01.02a.145.145 0 01-.028.013l.008.007zm-.22.02v-.07l-.036.035zm0 .079l-.036.035.035.035.036-.035zm.096-.004l.035-.036-.035-.035-.035.035zm.103.074l.036-.035-.036-.035-.035.035zm.036.114l-.036-.035-.035.035.035.035zm-.232.035v.079l.035.035-.035.035v.079l.035.035h.126l.036-.035.034.035h.024l-.056-.116-.003.002-.035-.035.015-.015-.084-.174h.001l.035-.035-.035-.035-.035.035.004.005h-.062v.035l.035.035zm.058.189l.035-.036.035.036-.035.035zm0-.15l.035-.035.035.035-.035.036zm-.058-.039v-.07l-.036.035zm.176.1l.023.047.033-.033-.036-.035zm-.176.163v-.035L1.5 5.88zm0-.114v-.07L1.5 5.73zm.267-.557l.035.035.035-.035-.035-.035zm.033.185l.035-.036-.035-.035-.036.035zm0 .227l-.036.035.036.036.035-.036zm0 .15l-.036.035.036.035.035-.035zm.103.074l-.035.035h.07zm.323-.671l-.035.035.035.035.035-.035zm0 .15l-.035.034.035.036.035-.036zm0 .148l-.035.035.035.036.035-.036zm0 .15l-.035.034.035.036.035-.036zm0 .148l-.035.036.035.035.035-.035zm.104-.075l-.035.036.035.035.036-.035zm0 .15l-.034.035h.07zm.1-.075l-.035.036.035.035.035-.035zm.103-.074l-.035.035.035.035.035-.035zm0 .149l-.035.035h.07zm.1-.075l-.036.036.036.035.035-.035zm.035-.412l-.035-.035-.036.035.036.036zm-.135.04l-.035.035.035.035.035-.035zm-.068-.04l-.035-.035-.035.035.035.036zm-.134.04l-.035.035.035.035.035-.035zm.413-.717l-.093.21h.038l.097-.221a.41.41 0 01-.042.01m-.053.008l-.09.204h.038l.092-.209a.648.648 0 01-.04.005m-.05.002l-.089.202h.038l.089-.203-.03.001h-.008m-.048-.003l-.09.205h.038l.088-.202a.558.558 0 01-.036-.003m-.15.205l.093-.213a.479.479 0 01-.034-.009l-.098.222zm.103-.211l-.092.21h.037l.09-.205a.533.533 0 01-.035-.005m.19 1.164l-.035.035h.035v-.035l.035.035h.128l.035-.035.035.035h.136l.035-.035.035.035h.136l.035-.035.035.035h.137l.034-.035.036.035h.136l.035-.035.035.035h.136L4 5.845l.035.035h.136l.035-.035.036.035h.135l.036-.035.035.035v-.447l-.035.035-.036-.035.036-.035.035.035v-.15l-.035.036-.036-.035.036-.036.035.036v-.15l-.035.036-.036-.035.036-.036.035.036v-.102l-.029.066h-.012l.041-.093v-.085l-.078.178h-.012l.09-.205v-.086l-.128.291h-.01l.14-.317v-.086l-.178.403h-.011l.18-.412a.408.408 0 01-.035-.005l-.183.417H4.21l.184-.42a.479.479 0 01-.034-.007l-.188.427h-.011l.188-.43-.018-.005a.489.489 0 01-.341-.41l-.001-.01a.597.597 0 01.005-.175h-.362v.6h-.01l-.19.43h-.01l.188-.43h-.037l-.19.43h-.011l.189-.43h-.038l-.189.43h-.011l.189-.43h-.038l-.189.43h-.012l.19-.43h-.039l-.188.43h-.012l.189-.43h-.001v-.6H3.09a.034.034 0 00-.033-.032.033.033 0 00-.033.032h-.1a.034.034 0 00-.034-.032.033.033 0 00-.033.032h-.1a.034.034 0 00-.067-.003l.013.003.059.01c.188.036.285.157.285.298a.31.31 0 01-.227.291h.014l-.098.224h.036v.007l.1-.23h.011l-.111.256v.086l.149-.343h.012l-.161.37v.061h-.405l.035.036-.035.035v.082l.035.035h.132l.035-.035.035.035h.129v.194h-.064l.035.035-.035.036-.036-.036.036-.035h-.203l.035.035-.035.036-.035-.036.035-.035h-.1v.066l.036.035-.035.036v.053h.078l-.014-.015.035-.035.035.035-.014.015h.16l-.014-.015.036-.035.035.035-.014.015h.082v.025l-.035.035.035.035zm-.168-.263l-.035.035-.035-.035.035-.035zm-.103-.373l-.035.035-.035-.035.035-.035zm.103-.074l-.035.035-.035-.035.035-.036zm.1.074l-.035.035-.036-.035.036-.035zm1.674.522l.036-.035.035.035-.035.035zm0-.149l.036-.035.035.035-.035.035zm-.103.224l.036-.036.035.036-.035.035zm0-.15l.036-.035.035.035-.035.036zm0-.149l.036-.035.035.035-.035.036zm0-.149l.036-.035.035.035-.035.036zm0-.149l.036-.035.035.035-.035.035zm-.103.522l.035-.035.036.035-.036.035zm0-.149l.035-.035.036.035-.036.035zm0-.15l.035-.034.036.035-.036.035zm0-.148l.035-.036.036.036-.036.035zm0-.15l.035-.035.036.036-.036.035zm-.5-.466l-.189.431h-.011l.188-.43zm.099 0l-.19.431h-.01l.188-.43zm.098 0l-.188.431h-.012l.189-.43zm.099 0l-.19.431h-.01l.188-.43zm.05 0l-.19.431h-.011l.188-.43zm.048 0l-.188.431h-.012l.189-.43zm.05 0l-.19.431h-.01l.188-.43zm.098 0l-.188.431h-.012l.189-.43zm-.09.431h-.012l.19-.43h.011zm-.055.707l.035-.036.035.036-.035.035zm0-.15l.035-.035.035.035-.035.036zm0-.149l.035-.035.035.035-.035.036zm0-.149l.035-.035.035.035-.035.036zm0-.149l.035-.035.035.035-.035.035zm-.006-.11l.19-.43h.01l-.188.43zm-.097.632l.035-.035.036.035L4 5.766zm0-.149l.035-.035.036.035L4 5.617zm0-.15l.035-.034.036.035L4 5.468zm0-.148l.035-.036.036.036L4 5.319zm0-.15l.035-.035.036.036L4 5.17zM3.965 5.1l.188-.43h.012l-.189.43zm-.102.707l.035-.036.036.036-.036.035zm0-.15l.035-.035.036.035-.036.036zm0-.149l.035-.035.036.035-.036.036zm0-.149l.035-.035.036.035-.036.036zm0-.149l.035-.035.036.035-.036.035zm-.103.522l.035-.035.035.035-.035.035zm0-.149l.035-.035.035.035-.035.035zm0-.15l.035-.034.035.035-.035.035zm0-.148l.035-.036.035.036-.035.035zm0-.15l.035-.035.035.036-.035.035zM3.73 5.1h-.012l.19-.43h.01zm-.073.707l.035-.036.035.036-.035.035zm0-.15l.035-.035.035.035-.035.036zm0-.149l.035-.035.035.035-.035.036zm0-.149l.035-.035.035.035-.035.036zm0-.149l.035-.035.035.035-.035.035zM3.63 5.1h-.01l.188-.43h.012zm-.078.632l.035-.035.036.035-.036.035zm0-.149l.035-.035.036.035-.036.035zm0-.15l.035-.034.036.035-.036.035zm0-.148l.035-.036.036.036-.036.035zm0-.15l.035-.035.036.036-.036.035zm-.02-.035H3.52l.189-.43h.011zm-.083.707l.035-.036.036.036-.036.035zm0-.15l.035-.035.036.035-.036.036zm0-.149l.035-.035.036.035-.036.036zm0-.149l.035-.035.036.035-.036.036zm0-.149l.035-.035.036.035-.036.035zm-.103.522l.035-.035.036.035-.036.035zm0-.149l.035-.035.036.035-.036.035zm0-.15l.035-.034.036.035-.036.035zm0-.148l.035-.036.036.036-.036.035zm0-.15l.035-.035.036.036-.036.035zm-.103.672l.035-.036.036.036-.036.035zm0-.15l.035-.035.036.035-.036.036zm0-.149l.035-.035.036.035-.036.036zm0-.149l.035-.035.036.035-.036.036zm0-.149l.035-.035.036.035-.036.035zm-.507.075l.035-.036.035.036-.035.035zm.035.114l.035.035-.035.035-.035-.035zm0-.299l.035.036-.035.035-.035-.035zm.21-.43l-.189.43H2.78l.19-.43zm.098 0l-.188.43H2.88l.189-.43zm.1 0l-.19.43H2.98l.188-.43zm.098 0l-.189.43h-.012l.19-.43zm-.09.43h-.012l.188-.43h.012zm-.047.632l.035-.035.035.035-.035.035zm0-.149l.035-.035.035.035-.035.035zm0-.15l.035-.034.035.035-.035.035zm0-.148l.035-.036.035.036-.035.035zm0-.15l.035-.035.035.036-.035.035zM3.126 5.1l.19-.43h.011l-.189.43zm-.088.707l.035-.036.035.036-.035.035zm0-.15l.035-.035.035.035-.035.036zm0-.149l.035-.035.035.035-.035.036zm0-.149l.035-.035.035.035-.035.036zm0-.149l.035-.035.035.035-.035.035zm-.01-.11l.189-.43h.011l-.188.43zm-.094.632l.036-.035.035.035-.035.035zm0-.149l.036-.035.035.035-.035.035zm0-.15l.036-.034.035.035-.035.035zm0-.148l.036-.036.035.036-.035.035zm0-.15L2.97 5.1l.035.036-.035.035zM2.93 5.1l.19-.43h.01l-.188.43zm-.098.707l.036-.036.035.036-.035.035zm0-.15l.036-.035.035.035-.035.036zm0-.149l.036-.035.035.035-.035.036zm0-.149l.036-.035.035.035-.035.036zm0-.149l.036-.035.035.035-.035.035zm0-.11l.188-.43h.012l-.189.43zm-.059.597l.035.035-.035.035zm0-.079l-.036-.035.036-.035.035.035zm-.082.054h-.042l.02.02zm-.203 0h-.042l.02.02zm-.12-.053v-.071l-.035.035zm.237-.33h-.07l.035.034zm-.237 0v-.036l-.035.035.035.035.035-.035zm0-.118V5.1l-.035.035zm.857-1.133a.034.034 0 00-.033.032h.067a.033.033 0 00-.034-.032M4.413 2.78l.036-.015-.032-.08-.037.014zm.036-.138v-.064l-.022.01zm.001-.1l-.032-.081-.037.014.033.08zm-.001-.516a.166.166 0 01-.102.029c-.096 0-.154-.04-.183-.095h.054V1.9h-.059v.05a.206.206 0 01-.017-.065l-.155.037v-.021h-.059v.059h.016c.025.134.144.29.4.29a.465.465 0 00.105-.012zm0-.125H4.39v.059h.059zm-.116 0h-.059v.059h.06zm-.23-.129l-.005-.003h-.054v.059h.059zm-.116-.399h-.059v.059h.06zm0-.132h-.059V1.3h.06zm-.059.455h.06v-.06h-.06zm.06.073h-.06v.059h.06zm-.073.58l-.037.015.033.08.036-.015zM3.064 1.9h-.059v.059h.059zm0-.132h-.059v.059h.059zm0-.132h-.059v.059h.059zm-.059-.205h.059v-.059h-.059zm.059.073h-.059v.059h.059zm-1.38 1.273l.036.036.035-.036-.035-.035zm0 .15l.036.035.035-.036-.035-.035zm0 .149l.036.035.035-.035-.035-.036zm0 .149l.036.035.035-.035-.035-.036zm0 .149l.036.035.035-.035-.035-.036zm.062.38l.174.118v-.076l-.173-.117h.012a.034.034 0 00-.067 0h.054zm0 .107l.174.12v-.077l-.174-.12zm.174-.182h.006a.034.034 0 00-.034-.034.034.034 0 00-.033.034h-.065l.126.085zm-.11-.083a.034.034 0 000 .068.034.034 0 00.033-.034.034.034 0 00-.034-.034M1.736 1.96h.059V1.9h-.059zm.074.389l-.037.015.033.08.037-.015zm.041-.39h.06v-.058h-.06zm.083.47l-.032-.08-.037.015.033.08zm.06-.08l-.037.015.032.08.037-.015zm.032-.448h-.06v.059h.06zm.022.463l.032.08.037-.015-.032-.08zm.092 0l.032.08.037-.015-.033-.08zm.123.08L2.3 2.43l-.032-.08-.037.015zm.092 0l.037-.015-.033-.08-.036.015zm.085.593l.035-.035-.035-.035-.035.035zm.035.114l-.035-.035-.035.035.035.035zm.067-.802l-.037.015.033.08.037-.015zm-.095.095l.036-.015-.032-.08-.037.015zm.049.017l-.037.014.033.08.036-.014zm.101-.097l.033.08.036-.015-.032-.08zm.092 0l.032.08.037-.015-.033-.08zm.091 0l.033.08.036-.015-.032-.08zm.092 0l.032.08.037-.015-.033-.08zm.091 0l.032.08.037-.015L3 2.35zm.22-.015l-.037.015.033.08.036-.015zM3.179 1.9H3.12v.059h.06zm0-.132H3.12v.059h.06zm-.055.66l-.033-.08-.036.015.032.08zm.055-.792H3.12v.059h.06zm.128.792l-.033-.08-.036.015.032.08zm-.071-.601h.059v-.06h-.06zm.059.073h-.06v.059h.06zm.067.543l.036-.015-.032-.08-.037.015zm-.264.48l.033.08.036-.015-.032-.08zm.009.707c0 .019.015.034.033.034a.034.034 0 000-.068.034.034 0 00-.033.034m.033.357a.034.034 0 00-.033.034c0 .018.015.033.033.033a.034.034 0 00.034-.033.034.034 0 00-.034-.034m-.033-.064c0 .019.015.033.033.033a.034.034 0 00.034-.033.034.034 0 00-.034-.034.034.034 0 00-.033.034m.025-1.144l.036-.015-.032-.08-.037.014zm.045.112l.036-.015-.032-.08-.037.014zm.046-.112l.037-.015-.033-.08-.036.014zm.046.112l.036-.015-.033-.08-.036.014zm.005.739a.034.034 0 10.067 0 .034.034 0 00-.033-.034.034.034 0 00-.034.034m.034.357a.034.034 0 00-.034.034c0 .018.015.033.034.033a.033.033 0 00.033-.033.034.034 0 00-.033-.034m-.034-.064c0 .019.015.033.034.033a.033.033 0 00.033-.033.034.034 0 00-.033-.034.034.034 0 00-.034.034m.04-.92l.036-.015-.032-.08-.037.015zm0-.224l.037-.015-.032-.08-.037.014zm.013.031l.033.08.037-.014-.033-.08zm.078.193l.037-.015-.033-.08-.036.015zm.07.66a.034.034 0 100-.067.034.034 0 000 .068m.022-.661l.036-.015-.032-.08-.037.015zm.024.676h.067a.034.034 0 00-.033-.034.034.034 0 00-.034.034m.067-.676l.037-.015-.033-.08-.036.015zm.016.627a.034.034 0 10.034-.034.034.034 0 00-.034.034m.034.357h-.005v.067h.005a.034.034 0 00.034-.033.034.034 0 00-.034-.034m-.005-.03h.005a.034.034 0 00.034-.034.034.034 0 00-.034-.034h-.005zm.047-.954l.036-.015-.032-.08-.037.015zm.008.676h.067a.034.034 0 00-.067 0m.034.228a.033.033 0 00.03-.018h-.06a.033.033 0 00.03.018m.017-.984l.032.08.037-.015-.032-.08zM3.872 1.9h-.059v.059h.059zm0-.132h-.059v.059h.059zm0-.132h-.059v.059h.059zm0-.132h-.059v.059h.059zm-.048.844l-.037.015.032.08.037-.015zm-.047.112l-.036.014.032.08.037-.014zm-.091 0l-.037.014.033.08.036-.014zm-.013-.032l-.033-.08-.036.015.032.08zM3.641 1.9h-.059v.059h.06zm-.047.56l-.036.014.032.08.037-.014zm-.045-.112l-.037.015.033.08.037-.015zm-.046.112l-.037.014.033.08.036-.014zm-.082-.097l.033.08.036-.015-.033-.08zm.036.209l-.037.015.032.08.037-.015zm-.05.207l.036-.015-.033-.08-.036.014zm.044.112l.037-.015-.032-.08-.037.014zm.047-.112l.036-.015-.032-.08-.037.014zm.045.112l.036-.015-.032-.08-.036.014zm0-.224l.038-.015-.033-.08-.037.015zm.046.112l.037-.015-.033-.08-.036.014zm.045.112l.037-.015-.032-.08-.037.014zm.002-.224l.036-.015-.033-.08-.036.015zm.045.112l.036-.015-.032-.08-.037.014zm.045.112l.037-.015-.033-.08-.036.014zm.001-.224l.037-.015-.033-.08-.036.015zm.095.129l-.037.014.033.08.036-.014zm-.05-.017l.037-.015-.033-.08-.036.014zm-.007-.35l-.033-.081-.036.015.032.08zm-.008-.53h-.06v.06h.06zm-.06-.204h.06v-.06h-.06zm.06.073h-.06v.059h.06zm.213.595l.032.08.037-.015-.032-.08zm.183 0l.033.08.036-.015-.033-.08zm.124.08l.037-.015-.033-.08-.037.015zm.06-.08l.032.08.036-.015-.032-.08zm-.017.64l.037-.015-.032-.08-.037.015zm.107-.193l.022.057v-.066zm-.235.869c0 .018.015.033.033.033a.034.034 0 00.034-.033.034.034 0 00-.067 0m.15.342a.034.034 0 00-.033-.034.034.034 0 00-.034.034c0 .018.015.033.034.033a.033.033 0 00.034-.033m-.034-.357a.034.034 0 00.034-.034.034.034 0 00-.034-.034.034.034 0 000 .068m.034.259l-.001-.006a.285.285 0 00-.046.037.031.031 0 00.013.003.033.033 0 00.034-.034m.106.145h-.22v.002a.262.262 0 00-.012.057l-.001.015a.402.402 0 00.001.078c.015.115.082.19.164.226h.002l.004.002c.02.008.041.014.062.018zm-.057-.032a.034.034 0 00-.033.032h.067a.034.034 0 00-.034-.032m.034-.065a.034.034 0 00-.034-.033.033.033 0 00-.033.033c0 .02.015.034.033.034a.034.034 0 00.034-.034m-.067-.295a.54.54 0 01.063-.013.034.034 0 00-.063.013m.066.206a.289.289 0 00-.053.019.034.034 0 00.053-.02m-.32-.251a.034.034 0 10.068 0 .034.034 0 00-.068 0m.034.161a.034.034 0 00-.033.041.46.46 0 01.039-.04h-.006m-.034-.064a.034.034 0 10.068 0 .034.034 0 00-.068 0m-.083-.05c0 .02.015.034.033.034a.034.034 0 00.034-.033.034.034 0 00-.034-.034.034.034 0 00-.033.034m.033.161a.034.034 0 00-.033.034c0 .018.014.032.031.033a.517.517 0 01.032-.049.034.034 0 00-.03-.018m-.033-.064a.034.034 0 10.067 0 .034.034 0 00-.067 0m-.084-.146c0 .019.015.034.034.034a.034.034 0 00.034-.034.034.034 0 00-.034-.034.034.034 0 00-.034.034m0 .098a.034.034 0 00.034.033.034.034 0 00.034-.033.034.034 0 00-.034-.034.034.034 0 00-.034.033m0 .098v.001a.035.035 0 00.034.033.034.034 0 00.034-.034.034.034 0 00-.034-.034.034.034 0 00-.034.034m.034.162a.034.034 0 00-.034.034c0 .018.015.033.034.033a.034.034 0 00.03-.018.034.034 0 00-.03-.049m-.034-.064c0 .019.015.034.034.034a.033.033 0 00.034-.034.034.034 0 00-.034-.034.034.034 0 00-.034.034m-.083-.244h.067a.034.034 0 00-.033-.034.034.034 0 00-.034.034m.034.229a.033.033 0 00.03-.02h-.06a.033.033 0 00.03.02m0 .128a.034.034 0 00-.034.032h.067a.033.033 0 00-.033-.032m-.034-.065c0 .02.015.034.034.034a.034.034 0 00.033-.034.034.034 0 00-.067 0m-.098-.775c0 .136.11.272.306.272.104 0 .19-.046.26-.116l.088.096h.038v-.483l-.007.007-.026-.064-.037.015.033.08.005-.006-.084.086-.084-.088.016-.007-.028-.071-.002.001a.44.44 0 00.039-.031l.001.004.037-.015-.008-.02a.265.265 0 00.031-.042l.031.077.037-.015-.032-.08-.032.013a.23.23 0 00.032-.144l.033-.013-.032-.08-.024.01a.259.259 0 00-.018-.03l.029-.012-.033-.08-.036.015.021.052a.286.286 0 00-.205-.089l.024-.01-.032-.08-.037.015.03.075H4.09a.298.298 0 00-.2.074l-.02-.052-.037.015.028.07a.273.273 0 00-.03.048h.001l-.009-.021-.036.015.027.066a.278.278 0 00-.004.047c0 .089.056.16.103.212l.014.015a.804.804 0 00-.04.031l-.02-.05-.036.015.025.061.002-.001a.272.272 0 00-.1.213m.419-.505c0 .015-.004.03-.012.046l-.022-.053-.036.015.03.073a.34.34 0 01-.017.014l-.04.028-.023-.025-.009-.01.036-.015-.032-.08-.037.015.031.077c-.02-.023-.04-.05-.04-.083a.1.1 0 01.005-.03l.028-.011-.009-.02a.082.082 0 01.04-.022l.024.057.036-.015-.016-.041c.037.01.063.041.063.08m-.214.494c0-.055.031-.09.077-.123l.007-.005.153.164c-.04.042-.082.066-.13.066a.103.103 0 01-.107-.102m-.19.445c0 .019.014.034.033.034a.034.034 0 00.034-.034.034.034 0 00-.034-.034.034.034 0 00-.034.034m.034.357a.034.034 0 00-.034.034c0 .019.015.033.034.033a.033.033 0 00.034-.033.034.034 0 00-.034-.034m-.034-.064c0 .019.015.034.034.034a.033.033 0 00.034-.034.034.034 0 00-.034-.034.034.034 0 00-.034.034m-.05.113a.034.034 0 00-.033.032h.067a.034.034 0 00-.034-.032m-.033-.065a.034.034 0 00.067 0 .034.034 0 00-.034-.033.034.034 0 00-.033.033m-.33-.292h.067a.034.034 0 00-.034-.034.034.034 0 00-.034.034m.034.229a.034.034 0 00.022-.009v-.01H3.36a.033.033 0 00.03.019m0 .128a.034.034 0 00-.034.032h.056v-.024a.034.034 0 00-.022-.008m-.034-.065c0 .02.016.034.034.034a.034.034 0 00.022-.008v-.05a.032.032 0 00-.022-.009.034.034 0 00-.034.034m-.168-1.05l.033.08.037-.014-.033-.08zm.001.757h.068a.034.034 0 00-.068 0m.034.229a.033.033 0 00.03-.02h-.06a.033.033 0 00.03.02m.034.063a.034.034 0 00-.034-.033.034.034 0 00-.034.033.034.034 0 00.068 0m-.235-.292c0 .018.016.033.034.033a.034.034 0 00.034-.033.034.034 0 00-.068 0m0 .097c0 .019.016.034.034.034a.034.034 0 00.034-.034.034.034 0 00-.068 0m.034.162a.034.034 0 00-.034.033.034.034 0 00.068 0 .034.034 0 00-.034-.033m-.034-.064a.034.034 0 00.068 0 .034.034 0 00-.034-.034.034.034 0 00-.034.034M2.94 3.63a.034.034 0 10.034-.034.034.034 0 00-.034.034m0 .098a.034.034 0 10.034-.034.034.034 0 00-.034.034m.067.293a.034.034 0 00-.033-.034.034.034 0 00-.034.034c0 .019.015.033.034.033a.034.034 0 00.033-.033m0-.094l-.06.017a.034.034 0 00.027.013.034.034 0 00.033-.03m0-.102a.034.034 0 00-.032-.033.322.322 0 01.029.049.033.033 0 00.003-.016m-.09.127l-.06.018v.002c0 .018.015.033.033.033a.034.034 0 00.028-.053m-.061-.273c0 .007.002.014.006.02a.26.26 0 01.025.013h.002a.033.033 0 00.034-.033.034.034 0 00-.034-.034.034.034 0 00-.033.034m-.25-.049c0 .013.007.024.018.03a.478.478 0 01.034-.002.034.034 0 10-.053-.028m.034.357a.034.034 0 00-.034.034c0 .019.016.033.034.033a.034.034 0 00.034-.033.034.034 0 00-.034-.034m-.034-.064c0 .019.016.034.034.034a.034.034 0 00.034-.034.034.034 0 00-.068 0M2.69 3.3l-.035-.036-.036.036.036.035zm0-.15l-.035-.035-.036.035.036.036zm-.035-.263l.035-.035-.035-.035-.036.035zm.035.114l-.035-.035-.036.035.036.036zm-.07.447h.07l-.035-.035zm.104.49a.034.034 0 00-.034.034.034.034 0 00.067 0 .034.034 0 00-.033-.034m-.034-.064a.034.034 0 10.067 0v-.001a.175.175 0 00-.061-.018.032.032 0 00-.006.019m.103-.649l-.035-.036-.036.036.036.035zm0-.15l-.035-.034-.036.035.036.035zm-.07.57a.033.033 0 00-.026.014c.02 0 .04.002.057.005a.034.034 0 00-.03-.02m.034-.831l.035-.035-.035-.036-.036.036zm.035.114l-.035-.036-.036.036.036.035zm-.035.482l.035-.035-.035-.035-.036.035zm.016.221c0 .019.014.034.033.034a.034.034 0 000-.068.034.034 0 00-.033.034m.033.357a.034.034 0 00-.033.034c0 .019.014.033.033.033a.034.034 0 00.034-.033.034.034 0 00-.034-.034m-.033-.064c0 .019.014.034.033.034a.035.035 0 00.018-.005.142.142 0 00-.036-.057.034.034 0 00-.015.028m-.27-1.336l.033.08.02-.008v.009h.304l-.035.035.035.036v.078l-.035.035.035.035v.08l-.035.034.035.036v.078l-.035.035.035.036v.078l-.035.036.035.035v.078l-.035.035h.255v-.566l.004.009.037-.015-.033-.08-.007.003v-.131h.305v-.162l.02.05.037-.016-.033-.08-.024.01v-.01h-.829v.152l-.017-.04zm.186.116l-.035-.035-.036.035.036.036zm-.175.075l.035.035.036-.035-.036-.036zm0 .149l.035.035.036-.035-.036-.036zm0 .149l.035.035.036-.035-.036-.035zm0 .149l.035.035.036-.035-.036-.036zm0 .149l.035.035.036-.035-.036-.035zm.009.31a.4.4 0 01.064-.018.035.035 0 00-.031-.021.034.034 0 00-.034.034v.006m.034.223a.034.034 0 00.034-.034v-.003a.117.117 0 00-.042.036.03.03 0 00.008 0m.034.065a.034.034 0 00-.059-.023v.01c0 .016.003.03.01.043.004.002.01.003.015.003a.034.034 0 00.034-.033m-.118-.278a.034.034 0 00-.034.034v.003a.345.345 0 01.052-.032.033.033 0 00-.018-.005M2.44 3.63c0 .019.016.034.034.034a.034.034 0 00.034-.034.034.034 0 00-.034-.034.034.034 0 00-.034.034m-.05.112a.034.034 0 00-.033.034c0 .01.005.02.013.026a.334.334 0 01.045-.05.034.034 0 00-.024-.01m-.034-.063c0 .018.015.033.034.033a.034.034 0 00.034-.033.034.034 0 00-.034-.034.034.034 0 00-.034.034m-.083-.05c0 .02.015.035.033.035a.034.034 0 00.034-.034.034.034 0 00-.034-.034.034.034 0 00-.033.034m0 .098c0 .018.015.033.033.033a.034.034 0 00.034-.033.034.034 0 00-.034-.034.034.034 0 00-.033.034m0 .097c0 .019.015.034.033.034a.034.034 0 00.034-.034.034.034 0 00-.034-.034.034.034 0 00-.033.034m.033.162a.034.034 0 00-.033.034.034.034 0 00.05.028.288.288 0 01-.008-.061.03.03 0 00-.009-.001m-.033-.064a.034.034 0 00.042.032.284.284 0 01.01-.06.034.034 0 00-.053.028m-.083-.245c0 .02.015.034.034.034a.034.034 0 00.034-.034.034.034 0 00-.068 0m0 .098c0 .019.015.034.034.034a.034.034 0 00.034-.034.034.034 0 00-.068 0m.034.162a.034.034 0 00-.034.033.034.034 0 00.068 0 .034.034 0 00-.034-.033m-.034-.064a.034.034 0 00.068 0 .034.034 0 00-.034-.034.034.034 0 00-.034.034m-.085-.5l.035.035.036-.035-.036-.036zm.039.29a.034.034 0 100-.068.034.034 0 000 .068m0 .097a.034.034 0 000-.067zm0 .098a.034.034 0 000-.068zm.034.162a.034.034 0 00-.034-.034v.067a.034.034 0 00.034-.033m-.034-.065a.034.034 0 00.034-.033.034.034 0 00-.034-.034zm-.278-.508h.129V3.08h.078l.057.12.01-.01.036.035-.023.022.082.17.005-.004.035.035h.139l.036-.035.035.035h.007l-.062-.125-.024-.024.008-.008-.107-.213.033.033.035-.035-.035-.036-.035.035-.013-.027a.274.274 0 00.164-.176l-.015.015-.035-.035.035-.035.024.024c.006-.025.022-.044.022-.072 0-.023-.007-.044-.011-.066l-.035.035-.035-.035.035-.036.035.035c-.003-.014-.003-.03-.008-.044l.015-.006-.032-.08-.023.01a.442.442 0 00-.024-.028l.034-.014-.032-.08-.037.015.03.073a.276.276 0 00-.07-.05l-.015-.038-.037.015.001.001a.377.377 0 00-.112-.016h-.392v.988h.021l.036-.035zm0-.745l-.035.035-.036-.035.036-.036zm0 .149l-.035.035-.036-.035.036-.035zm0 .15l-.035.034-.036-.035.036-.035zm0 .148l-.035.035-.036-.035.036-.035zm0 .15l-.035.035-.036-.036.036-.035zm.438-.374l.036-.035.035.035-.035.036zm0-.149l.036-.035.035.035-.035.036zm0 .597l.036-.036.035.036-.035.035zm0-.15l.036-.035.035.036-.035.035zm-.1.075l.036-.035.035.035-.035.036zm0-.149l.036-.035.035.035-.035.035zm0-.149l.036-.035.035.035-.035.035zm-.1.075l.036-.036.036.036-.036.035zm0-.15l.036-.035.036.035-.036.036zm-.102.075l.035-.035.035.035-.035.035zm-.007-.35h.13c.043 0 .077.01.101.03l.014-.014.035.036-.02.02a.133.133 0 01-.004.105l.024.024-.035.035-.022-.022a.158.158 0 01-.094.026h-.129zm-.096.723l.035-.036.035.036-.035.035zm0-.15l.035-.035.035.036-.035.035zm0-.148l.035-.036.035.036-.035.035zm0-.15l.035-.035.035.035-.035.036zm0-.148l.035-.036.035.036-.035.035zm.241-.036l-.035.036.035.035.036-.035zm-.103.145l.035-.035-.035-.035L2 2.853zm0-.149l.035-.035-.035-.036L2 2.704zm.167.114l.013.013a.102.102 0 00.034-.037l-.011-.011zm.036-.114l.015-.016a.097.097 0 00-.029-.04l-.022.021zm.236-.036v.001zm-.01.139a.41.41 0 01-.01.031l.02-.02zm-.052.45l.016.032.01.012.036-.036-.035-.035zm-.164.157l-.015-.03-.03.03zm-.097-.201L2.129 3.2l-.025.026.035.035zm-.176.417a.034.034 0 100-.068.034.034 0 000 .068m.06-.479l.035-.035-.035-.035L2 3.15zm.035.114l-.035-.035L2 3.3l.035.036zm.022.38a.034.034 0 00-.034-.034.034.034 0 00-.033.034zm-.092-.23h.07l-.035-.036zm-.462-2.44l-.62.631h.055l.583-.596V1.01zm-.122 1.73l.035-.036-.035-.036-.035.036zm.103.074l.036-.036-.036-.035-.035.035zm.036.113l-.036-.035-.035.035.035.036zm.12.704a.034.034 0 00-.034-.034.034.034 0 00-.034.034.034.034 0 10.067 0M1.68 1.9h-.06v.059h.06zm-.095.803l.035.035.035-.035-.035-.036zm0 .149l.035.035.035-.035-.035-.035zm.035.263l-.035.035.035.035.035-.035zm-.035-.114l.035.035.035-.035-.035-.035zm-.455.765l.395.268v-.076L1.13 3.69zm.429-.121a.034.034 0 00-.034.033h.067a.034.034 0 00-.033-.033m-.034.033h-.046l.046.032zm0 .172l-.25-.17h-.112l.362.246zm-.09-.17h-.113l.203.138v-.076zm-.305.194l.285.193h.11v-.002l-.395-.268zm0 .193h.08l-.08-.054zm0-.085l.127.085h.112l-.239-.162zM.624 3.68H.527l.048.032a.116.116 0 01.05-.032m-.074.124a.104.104 0 01.009-.07L.48 3.68H.369zm-.34-.124l.42.285a.127.127 0 00.045-.045l-.354-.24zm.23.265l.129.087v-.046a.14.14 0 00.033-.008L.311 3.78c.056.043.1.099.13.166zm.47.241L.69 4.04a.256.256 0 01-.066.032l.285.193zm0-.107l-.156-.105a.238.238 0 01-.042.047l.197.134zm0-.108l-.121-.08a.236.236 0 01-.022.061l.142.097zm0-.107l-.055-.037-.06-.04.002.027a.409.409 0 01-.003.048l.115.078zM.91 3.833v-.076L.799 3.68H.712a.122.122 0 01.072.066zm0-.152H.845l.065.044zm-.452.308c.01.028.017.059.021.09l.431.293v-.076zm.452.523l-.425-.289a.617.617 0 01-.01.07l.435.295zm-.426-.398a.58.58 0 01.003.062v.016l.423.288v-.076zm.213-1.66a.138.138 0 00-.048.008H.002v.207a.279.279 0 01.144.05H0v.027h.184c.015.016.025.039.037.06H0v.027h.237c.006.016.006.04.01.06H0v.026h.25c.002.013.007.022.007.037 0 .189-.114.278-.257.285v.208c.293-.005.487-.192.487-.493l-.001-.037H.86l-.2.53h.232l.071-.2h.382l.071.2h.24l-.046-.124.01.01.035-.035-.035-.035-.024.024-.068-.184.028-.028-.036-.036-.011.012-.07-.186.013-.014-.03-.03-.134-.362H.743a.132.132 0 00-.046-.007m.338.594l.122-.342.118.342zM1 2.548H.82a.137.137 0 00-.035-.06h.237zm-.176.085a.432.432 0 00.001-.058H.99l-.022.058zm.111.087H.802a.276.276 0 00.019-.06h.136zm-.032.086H.737a.23.23 0 00.051-.06h.137zm-.428.027h.123v.03a.263.263 0 00.1-.03h.195l-.023.06H.484a.752.752 0 00-.009-.06M.45 2.746h.209a.158.158 0 01-.061.022v.038h-.13a.513.513 0 00-.018-.06m-.122-.172h.25c.002.023.01.044.025.06H.385a.412.412 0 00-.058-.06m.28-.086s-.027.036-.03.06H.294a.449.449 0 00-.121-.06zm.077.18c.015 0 .031-.006.031-.008a.101.101 0 01-.025.06H.438a.438.438 0 00-.033-.06h.237a.129.129 0 00.043.007M1.967 1.3h.059v-.06h-.06zm-.057-.02v-.04h-.059v.015a.406.406 0 00-.112-.015h-.236l.055-.056v-.056l-.11.112h-.081v.083l-.31.317h.054l.256-.261v.077l-.18.184h.054l.126-.129v.077l-.05.052h.05v.588h.22v-.355h.152a.36.36 0 00.228-.074v.028h.059v-.06H2a.308.308 0 00.078-.21.301.301 0 00-.168-.279m-.052.28a.117.117 0 01-.063.107v-.03h-.059v.047a.171.171 0 01-.019.001H1.68v-.047h-.06v.047h-.03v-.252h.128c.084 0 .14.047.14.127m-.121.005h.059v-.06h-.059zm-.115 0h.059v-.06h-.06zm.52.337h-.059v.059h.059zm0-.132h-.059v.059h.059zm0-.132h-.059v.059h.059zm0-.132h-.059v.059h.059zm-.06-.204h.059v-.06h-.059zm.059.073h-.059v.059h.059zm.116.264h-.059v.059h.06zm0-.132h-.059v.059h.06zM2.198 1.3h.06v-.06h-.06zm.06.073h-.06v.059h.06zm.055.059h.06v-.059h-.06zm.461-.132h.06v-.06h-.06zm.06.073h-.06v.059h.06zm.113.264H2.89v.059h.058zm0-.132H2.89v.059h.058zM2.89 1.3h.058v-.06H2.89zm.058.073H2.89v.059h.058zm.123.856l-.15-.401H2.89v-.06h.01l-.077-.204h-.048v-.06H2.8l-.083-.222V1.3H2.66v-.06h-.057v.06h-.059v-.06h-.056v.06H2.43v-.01l-.082.215h.025v.059h-.046l-.078.205h.01v.059h-.032l-.027.073h.058v.059h-.059v-.058l-.123.327h.231l.071-.2h.382l.071.2zm-.698-.533h-.059v-.06h.06zm0 .132h-.059v-.06h.06zm0 .132h-.059V1.9h.06zm.171-.06h.06v.06h-.06zm-.114 0h.058v.06H2.43zm.058-.468H2.43v-.059h.058zm0 .132H2.43v-.06h.058zm0 .132H2.43v-.06h.058zm.115-.264h-.059v-.059h.06zm.115 0H2.66v-.059h.058zm0 .132H2.66v-.06h.058zm0 .132H2.66v-.06h.058zm0 .132H2.69l-.022-.06h-.01v.06h-.056v-.06h-.059v.06h-.056v-.06h-.015l-.022.06h-.021v-.06h.043l.077-.204h-.006v-.06h.06v.06h-.01l.075.205h.05zm0 .132H2.66V1.9h.058zm.116-.264h-.059v-.06h.06zm0 .132h-.059v-.06h.06zm0 .132h-.059V1.9h.06zm.114 0H2.89V1.9h.058zm-.404-.264h.06v-.06h-.06zm.006-.132h.044l-.022-.06zm-.35.338V1.9zm.027-.074l.022-.06h-.05v.06zm.1-.264l.021-.06h-.034v.06zm.103-.323v.05l.018-.05zm.273 0l.015.041v-.041zm.098.264l.022.059h.011v-.06zm.099.264l.022.059h.026v-.06zm.452-.47h.059v-.058H3.35zm.115 0h.06v-.058h-.06zm.06.074h-.06v.059h.06zm.056-.073h.042l-.114.205h-.044v.059h.01l-.024.044-.097-.176h.055v-.059H3.35v.051L3.283 1.3h.012v-.06h-.303l.013.022V1.3h.022l.122.205H3.12v.059h.059v-.009l.057.095v.046h.027l.072.12v.413h.22v-.412l.027-.044v.055h.059v-.06h-.057l.124-.204h.048v-.059h-.013l.07-.115v.042h.059v-.059h-.049l.08-.132h-.246l-.016.029v-.029h-.059zm.462 0h.049l.01-.008v-.051h-.06zm.23.264h.06v-.06h-.06zm.116 0h.059v-.06h-.06zm.059.083a.269.269 0 00-.026-.006l-.132-.025c-.045-.008-.074-.027-.087-.052h.014v-.059h-.023c.01-.048.06-.09.134-.09a.17.17 0 01.12.041v-.222a.484.484 0 00-.119-.014.397.397 0 00-.128.021H4.16v.017l.003-.001a.312.312 0 00-.184.248h-.05v.059h.05a.28.28 0 00.18.238v.026h.06v-.006l.027.006.135.025a.169.169 0 01.069.028z" fill="#2e3192"/></svg>