<svg xmlns="http://www.w3.org/2000/svg" width="53.18" height="13.228" viewBox="0 0 14.07 3.5"><path d="M13.977 2.197c-.065-.104-.14-.216-.25-.277-.212-.118-.445.112-.43.323.01.128.111.258.182.357.068.096.155.171.242.249a.297.297 0 010 .102c-.007.056-.048.104-.088.14a.18.18 0 01-.08.04c-.02-.04-.053-.081-.063-.097-.005-.007-.116-.153-.125-.137-.046.085-.005.17.04.247.057.102.134.23.244.283.09.044.187-.019.24-.089.07-.093.047-.223.003-.322a1.388 1.388 0 00-.241-.363c-.04-.044-.085-.082-.129-.12a.805.805 0 01-.017-.016.208.208 0 010-.047c.007-.11.112-.22.207-.259a.252.252 0 01.149-.008l-.002.017c-.009.055.08.157.11.197.006.008.093.122.098.087.017-.112-.032-.213-.09-.307M13.6 1.62h.133v-.569L11.953 0l-1.779 1.051v.562h.133v-.486l1.647-.972 1.646.972zm-3.236.351a5.52 5.52 0 01-.345.943l-.05.011c-.052.013-.129.054-.115.12.007.031.032.05.06.06a2.327 2.327 0 01-.272.37c-.027.03.1.015.104.014.053-.011.118-.029.155-.07.095-.105.177-.217.25-.335a.86.86 0 01.516.118l.007.039c.007.041.273-.02.263-.078a9.216 9.216 0 00-.312-1.26c-.016-.048-.248.024-.26.068m-.103.917a3.98 3.98 0 00.217-.516c.052.189.098.379.138.57a1.189 1.189 0 00-.355-.054M9.17 2.615a.063.063 0 01-.025-.053c0-.018.006-.033.017-.046a.053.053 0 01.04-.02.05.05 0 01.04.02.068.068 0 01.018.046h.114c0-.054-.017-.1-.05-.14a.156.156 0 00-.243 0 .204.204 0 00-.05.14c0 .036.007.066.023.09a.226.226 0 00.107.09l.03.012c.007.003.02.01.04.017.019.008.029.026.029.054a.068.068 0 01-.017.046.052.052 0 01-.081 0 .067.067 0 01-.017-.046h-.114c0 .054.016.1.05.14a.156.156 0 00.243 0 .205.205 0 00.05-.14.159.159 0 00-.024-.09.216.216 0 00-.11-.086l-.032-.012a.16.16 0 01-.038-.022m-.42.407h.23V2.89h-.23v-.13h.172v-.132H8.75v-.132h.23v-.13h-.344v.656zm-.237-.096a.34.34 0 00.084-.232.342.342 0 00-.084-.232.26.26 0 00-.202-.097h-.115v.657h.115a.26.26 0 00.202-.096m-.03-.232c0 .054-.017.1-.051.139a.155.155 0 01-.121.057v-.394c.047 0 .087.02.12.059a.198.198 0 01.051.139m-1.648-.076l.968.882V1.887H7.48v.882l-.968-.882V3.5h.323zm-.654.645a.775.775 0 00.237-.57.775.775 0 00-.237-.569.775.775 0 00-.57-.237.774.774 0 00-.569.237.775.775 0 00-.237.57c0 .222.08.412.237.57a.775.775 0 00.57.236.776.776 0 00.569-.237m-.085-.57a.464.464 0 01-.143.342.468.468 0 01-.341.142.467.467 0 01-.342-.142.467.467 0 01-.141-.342c0-.132.047-.246.141-.341a.464.464 0 01.342-.143c.133 0 .247.048.341.143a.465.465 0 01.143.341M4.028 2.37c0-.044.016-.082.047-.113a.156.156 0 01.114-.048c.044 0 .082.016.113.048.032.032.048.07.048.113h.322a.466.466 0 00-.142-.34.467.467 0 00-.34-.143.466.466 0 00-.343.142.465.465 0 00-.142.341c0 .089.021.162.065.221a.584.584 0 00.147.143.687.687 0 00.153.079l.088.03.11.04c.055.02.082.065.082.133a.155.155 0 01-.048.114.155.155 0 01-.113.047.155.155 0 01-.114-.047.155.155 0 01-.047-.114h-.323c0 .133.047.247.142.342a.465.465 0 00.342.142.465.465 0 00.341-.142.466.466 0 00.142-.342.35.35 0 00-.067-.222.568.568 0 00-.15-.138.681.681 0 00-.16-.073 2.505 2.505 0 01-.092-.027.46.46 0 01-.105-.055.145.145 0 01-.07-.13M3.212 3.5h.323V1.887h-.323zm-.133 0h.068l-.691-1.537-.035-.076-.034.075-.69 1.538h.343l.104-.23.005-.012h.544l.005.01.103.232h.069zm-.53-.564h-.254l.127-.282zm-1.3.564h.324V1.887L.786 2.936 0 1.887V3.5h.323v-.645l.463.619.464-.62zm9.861-1.41l-.061 1.339c-.005.109.165.082.18-.01l.1-.57a.177.177 0 00.124-.012c.132.15.25.31.356.48.051.083.214.002.158-.087a3.75 3.75 0 00-.373-.5 1.276 1.276 0 00.222-.434c.028-.096.078-.264-.016-.342-.112-.092-.247-.006-.337.075a.743.743 0 00-.182.27l.01-.218c.005-.105-.176-.088-.18.009m.282.427a.969.969 0 01.122-.3.511.511 0 01.072-.087c.022-.021.073-.081.085-.036.019.076-.033.188-.059.258-.032.09-.078.175-.13.255h-.001l-.09-.09m.84-.22c.052-.01.103-.018.155-.023l.054-.003c.002.063-.003.128-.002.188l.008.69a.399.399 0 00.105.228c.02.025.104.1.103.018l-.006-.508c-.003-.157.004-.317-.01-.473a.755.755 0 00-.047-.199c.19-.012.382.024.574.094.063.023.006-.137.001-.148-.029-.064-.075-.15-.146-.175-.322-.118-.646-.137-.968-.006-.073.029.087.337.18.319" fill="#2e3192"/></svg>