<svg xmlns="http://www.w3.org/2000/svg" width="20.992" height="19.359" viewBox="0 0 5.554 5.122"><path d="M5.554 3.735h-.06v.342h.06zm0-.179v-.055c-.03.002-.046-.01-.046-.044v-.083h.043V3.32h-.043v-.06h-.06v.06h-.029v.054h.029v.083c0 .065.037.107.106.1m0-1.325v-.345c-.19.012-.285-.066-.285-.273v-.48h.268V.797h-.268V.464h-.38v.333H4.71v.337h.179v.477c0 .405.23.667.665.621M3.2.335h2.355V0H3.2zm-.02 1.163c0 .428.342.772.76.772.367 0 .629-.203.715-.505H4.25a.344.344 0 01-.314.172.376.376 0 01-.37-.292h1.118c.054-.586-.308-.925-.745-.925-.417 0-.76.35-.76.778m.392-.163a.379.379 0 01.365-.282c.181 0 .325.11.371.282zm-.43 2.104a.121.121 0 00-.119-.125.12.12 0 00-.12.125c0 .07.054.123.12.123a.12.12 0 00.12-.123m-.062 0c0 .04-.026.068-.058.068s-.058-.028-.058-.068c0-.041.026-.07.058-.07s.058.029.058.07m-.006-1.278V.736h-.362v.18a.62.62 0 00-.454-.19c-.386 0-.705.333-.705.772 0 .437.32.77.705.77a.622.622 0 00.436-.172v.071c0 .264-.12.44-.388.44-.103 0-.253-.046-.302-.164h-.416c.057.313.365.516.718.516.475 0 .768-.306.768-.798m-.38-.66c0 .23-.17.416-.379.416-.21 0-.38-.18-.38-.416 0-.241.17-.425.38-.425s.38.19.38.425m-2.31 0c0-.238.17-.433.38-.433.139 0 .257.086.308.186h.406C1.39.921 1.12.72.764.72A.758.758 0 000 1.498c0 .428.319.772.764.772.36 0 .63-.198.717-.533h-.406a.35.35 0 01-.31.19c-.21 0-.38-.193-.38-.426M2.55 4.998c0 .07.05.124.112.124a.1.1 0 00.073-.03v.025h.058v-.343h-.06v.128a.101.101 0 00-.07-.027c-.062 0-.113.053-.113.123m.06 0c0-.038.028-.067.062-.067.033 0 .06.03.06.068 0 .037-.027.067-.06.067-.034 0-.061-.03-.061-.067m.118-1.437a.147.147 0 00.145-.106H2.81a.089.089 0 01-.08.051c-.052 0-.094-.05-.094-.111 0-.06.042-.111.094-.111a.09.09 0 01.08.05h.066a.145.145 0 00-.146-.106c-.087 0-.154.073-.154.167 0 .093.067.166.154.166M2.836 5c0 .068.055.123.122.123.059 0 .1-.032.115-.08h-.065a.056.056 0 01-.05.027.06.06 0 01-.06-.047h.18c.008-.094-.05-.148-.12-.148A.124.124 0 002.836 5m.063-.027a.06.06 0 01.058-.045.06.06 0 01.06.045zm.266.067h-.061c.007.051.052.083.112.083.06 0 .104-.033.104-.08 0-.051-.042-.064-.101-.074-.03-.005-.047-.009-.047-.021 0-.009.011-.02.04-.02.022 0 .035.01.039.02h.063c-.008-.044-.048-.073-.103-.073-.068 0-.1.038-.1.075 0 .053.056.065.098.071.041.006.05.012.05.026 0 .013-.019.02-.043.02-.018 0-.042-.006-.05-.027m.123-1.668c.04 0 .044.034.044.047v.139h.062v-.139c0-.026.018-.047.046-.047.04 0 .044.034.044.047v.139h.06v-.139c0-.062-.036-.104-.1-.104a.09.09 0 00-.072.033.087.087 0 00-.071-.033.076.076 0 00-.061.029V3.32h-.059v.237h.062v-.139c0-.026.018-.047.045-.047m.22 1.509H3.48v.054h.029v.083c0 .064.036.106.106.099V5.06c-.03.002-.046-.01-.046-.044v-.083h.043V4.88H3.57v-.06h-.06zm.134.118c0 .069.054.124.121.124.06 0 .101-.033.115-.08h-.065a.056.056 0 01-.05.027.06.06 0 01-.06-.047h.18c.008-.094-.05-.148-.12-.148a.124.124 0 00-.121.124m.062-.026a.06.06 0 01.059-.045.06.06 0 01.06.045zm.153-1.601c.04 0 .044.034.044.047v.139h.06v-.139c0-.062-.036-.104-.1-.104a.091.091 0 00-.072.033.087.087 0 00-.071-.033.076.076 0 00-.061.029V3.32h-.059v.237h.062v-.139c0-.026.018-.047.045-.047.04 0 .044.034.044.047v.139h.062v-.139c0-.026.018-.047.046-.047m.126 1.508h-.058v.238h.06V5c0-.019.003-.038.016-.051.014-.015.034-.018.058-.015v-.059a.078.078 0 00-.076.028zm.054-.476c.032-.003.056-.025.056-.064v-.062h-.062v.058h.032v.005c0 .02-.008.033-.026.037zm.114.476h-.058v.238h.06V5c0-.019.003-.038.016-.051.014-.015.034-.018.058-.015v-.059a.078.078 0 00-.076.028zm.172-.082h-.061v.057h.06zm0 .082h-.061v.237h.06zm-.16-.377h.18c.008-.094-.05-.148-.12-.148a.123.123 0 00-.121.124c0 .069.054.124.121.124.059 0 .101-.033.115-.081h-.065a.055.055 0 01-.05.028.06.06 0 01-.06-.047m.001-.05a.06.06 0 01.059-.045.06.06 0 01.06.045zm.22.428h-.029v.054h.029v.083c0 .064.037.106.107.099V5.06c-.031.002-.046-.01-.046-.044v-.083h.043V4.88h-.043v-.06h-.061zm.108-.168c.076 0 .123-.049.123-.128V4.36h-.058v.025a.1.1 0 00-.073-.03c-.062 0-.113.053-.113.123s.051.124.113.124a.1.1 0 00.07-.028v.011c0 .043-.02.07-.062.07-.017 0-.04-.006-.048-.025h-.067c.009.05.058.082.115.082m.062-.233c0 .036-.027.066-.061.066-.033 0-.06-.028-.06-.066 0-.04.027-.068.06-.068.034 0 .061.03.061.068m-.036.519c0 .07.053.124.12.124a.12.12 0 00.12-.124.121.121 0 00-.12-.125.12.12 0 00-.12.125m.06 0c0-.04.027-.069.06-.069.032 0 .058.029.058.07 0 .04-.026.067-.059.067-.032 0-.058-.027-.058-.067m.282-.202h-.06v.057h.06zm0 .082h-.06v.237h.06zm-.032-.282h.055a.144.144 0 01-.006-.04v-.122c0-.02-.008-.081-.104-.081-.062 0-.106.033-.112.078h.061c.006-.02.03-.03.052-.03.027 0 .044.01.044.023 0 .02-.029.024-.068.028-.053.005-.097.018-.097.071 0 .052.046.077.096.077.033 0 .057-.01.073-.027a.095.095 0 00.006.023m-.008-.093c0 .03-.03.043-.066.043-.024 0-.04-.009-.04-.022 0-.018.018-.024.048-.028a.136.136 0 00.058-.014zm.072-.422c.059 0 .1-.033.115-.081h-.065a.055.055 0 01-.05.027.06.06 0 01-.06-.046h.18c.008-.094-.05-.149-.12-.149a.124.124 0 00-.122.125c0 .069.055.124.122.124m-.059-.15c.009-.028.03-.045.059-.045a.06.06 0 01.059.045zm.102.664h.061v-.342h-.06zm.04.283h-.058v.237h.06V5c0-.019.003-.038.016-.051.013-.015.034-.018.058-.015v-.059a.078.078 0 00-.076.028zm.137-1.04h-.058v.237h.06V3.96c0-.019.003-.038.016-.051.014-.015.034-.018.058-.015v-.06a.08.08 0 00-.076.03zm.003.438h-.061v.057h.06zm0 .082h-.061v.237h.06zM5.07 5c0 .068.055.123.122.123.059 0 .1-.033.114-.081h-.064a.055.055 0 01-.05.027.06.06 0 01-.06-.046h.179c.009-.094-.05-.149-.12-.149a.124.124 0 00-.12.125m.062-.026a.06.06 0 01.058-.045.06.06 0 01.06.045zm.323-.708l-.043.065h.045l.066-.065zm-.022-.35c0-.018-.007-.08-.104-.08-.062 0-.105.033-.111.078h.06c.006-.02.031-.03.053-.03.027 0 .043.01.043.023 0 .019-.028.024-.067.028-.053.005-.098.018-.098.071 0 .052.046.077.096.077.034 0 .058-.01.073-.027a.082.082 0 00.006.022h.056a.144.144 0 01-.007-.038zm-.057.07c0 .03-.03.043-.066.043-.024 0-.04-.009-.04-.022 0-.018.019-.024.049-.028a.136.136 0 00.057-.014zm-.048-.599c0 .02-.029.024-.068.028-.053.005-.097.018-.097.071 0 .052.046.077.096.077.033 0 .057-.01.073-.027a.082.082 0 00.006.022h.055a.162.162 0 01-.006-.038v-.123c0-.02-.008-.081-.104-.081-.062 0-.106.033-.112.078h.061c.006-.02.03-.03.052-.03.027 0 .044.01.044.023m.002.058v.021c0 .03-.03.043-.066.043-.024 0-.04-.009-.04-.022 0-.018.018-.024.048-.027a.143.143 0 00.058-.016m-.153.857v.06h-.029v.054h.029v.084c0 .065.037.106.107.099V4.54c-.031.002-.046-.01-.046-.044v-.084h.043V4.36h-.043V4.3zm-.057-.98H5.06v.237h.06zm-.062-.025h.061v-.057h-.06zm-.141.515l.066-.065h-.068l-.043.065zm.033-.253V3.44c0-.019.003-.038.015-.051.014-.015.035-.018.059-.015v-.059a.079.079 0 00-.077.028V3.32h-.057v.236zM3.2 2.74h2.355v-.335H3.2zm.819.555h.06v-.057h-.06zm.06.026h-.06v.236h.06zm.154.242c.06 0 .104-.033.104-.08 0-.052-.043-.065-.102-.074-.03-.005-.047-.01-.047-.021 0-.01.012-.02.04-.02.023 0 .036.01.04.02h.063c-.008-.044-.049-.073-.103-.073-.069 0-.101.038-.101.076 0 .052.056.064.098.07.042.006.05.012.05.025 0 .014-.018.022-.042.022-.018 0-.043-.007-.051-.028H4.12c.007.051.052.083.113.083m.016.767l.066-.065h-.068l-.043.065zm.2-.585h-.067l-.043.065h.044zm.026-.182c.06 0 .104-.033.104-.08 0-.052-.042-.065-.101-.074-.03-.005-.047-.01-.047-.021 0-.01.011-.02.04-.02.022 0 .035.01.039.02h.063c-.008-.044-.048-.073-.103-.073-.069 0-.101.038-.101.076 0 .052.057.064.099.07.041.006.05.012.05.025 0 .014-.019.022-.043.022-.018 0-.042-.007-.05-.028H4.36c.008.051.053.083.113.083m.3-.177c0 .02-.028.024-.068.027-.053.005-.097.019-.097.072 0 .052.046.077.096.077.033 0 .057-.01.073-.027a.082.082 0 00.006.022h.056a.144.144 0 01-.007-.038v-.124c0-.018-.008-.08-.104-.08-.062 0-.105.033-.111.078h.06c.006-.02.03-.03.053-.03.027 0 .043.01.043.023m.002.057v.022c0 .03-.03.043-.066.043-.024 0-.04-.009-.04-.022 0-.018.019-.024.048-.027a.147.147 0 00.058-.016m-.195.634v-.138c0-.027.02-.047.046-.047.04 0 .044.033.044.047v.138h.061v-.138c0-.063-.037-.105-.092-.105a.079.079 0 00-.062.03V3.84H4.52v.237zm-.28-.096h.179c.009-.093-.05-.148-.12-.148a.124.124 0 00-.12.125c0 .068.054.124.12.124.06 0 .101-.033.115-.081h-.065a.055.055 0 01-.05.027.06.06 0 01-.06-.047m.002-.05a.059.059 0 01.058-.044.06.06 0 01.06.045zm-.313.323h-.06v.342h.06zm.15-.2v.01c0 .043-.018.071-.061.071-.017 0-.04-.007-.049-.026H3.96c.01.05.06.083.116.083.076 0 .123-.05.123-.128V3.84H4.14v.025a.099.099 0 00-.073-.03c-.062 0-.113.053-.113.124 0 .07.051.123.113.123a.1.1 0 00.07-.027m0-.096c0 .037-.027.067-.061.067s-.06-.029-.06-.067c0-.038.026-.068.06-.068s.06.03.06.068m-.522.306h-.068l.066.064h.045zm.052.16c0 .02-.028.024-.068.028-.053.005-.097.019-.097.072 0 .051.046.077.096.077.033 0 .057-.01.073-.027a.095.095 0 00.006.022h.055a.144.144 0 01-.006-.039v-.123c0-.019-.008-.08-.104-.08-.062 0-.106.033-.112.078h.061c.006-.02.03-.03.052-.03.028 0 .044.01.044.022m.002.058v.022c0 .03-.03.043-.066.043-.024 0-.04-.01-.04-.023 0-.017.018-.023.048-.027a.134.134 0 00.058-.015m1.643-.004c0 .069.055.124.122.124.059 0 .1-.033.114-.081h-.064c-.01.019-.03.027-.05.027a.06.06 0 01-.06-.046h.179c.009-.094-.049-.148-.12-.148a.123.123 0 00-.12.124m.062-.026c.009-.028.03-.045.058-.045a.06.06 0 01.06.045zm.024.587h-.062c.008.05.052.083.113.083.06 0 .104-.034.104-.08 0-.052-.043-.065-.102-.074-.029-.005-.046-.01-.046-.021 0-.01.011-.02.04-.02.022 0 .035.01.039.02h.063c-.008-.044-.048-.074-.103-.074-.068 0-.101.04-.101.076 0 .053.057.065.099.071.041.006.05.012.05.026 0 .013-.019.02-.043.02-.018 0-.043-.006-.05-.027" fill="#2e3192"/></svg>