<svg xmlns="http://www.w3.org/2000/svg" width="14.557" height="26.456" viewBox="0 0 3.852 7"><path d="M3.852.043V.01h-.314v.664h.038V.375h.238V.342h-.238v-.3zm-.267 2.672a.277.277 0 00-.103-.063.4.4 0 00-.147-.026.354.354 0 00-.241.086.281.281 0 00-.099.222c0 .133.084.25.251.353.07.043.12.08.15.109.03.03.045.065.045.106a.113.113 0 01-.035.085.126.126 0 01-.09.034.135.135 0 01-.067-.018.21.21 0 01-.052-.041.367.367 0 01-.066-.11l-.19.076.01.03a.35.35 0 00.037.072c.018.028.04.056.067.084a.38.38 0 00.262.102c.104 0 .189-.03.256-.089a.303.303 0 00.1-.24.311.311 0 00-.071-.203.758.758 0 00-.197-.164.671.671 0 01-.136-.099.139.139 0 01-.041-.099c0-.03.01-.054.032-.073a.117.117 0 01.08-.028c.022 0 .043.005.061.014a.159.159 0 01.075.072.24.24 0 01.016.032l.005.014.19-.075-.008-.027a.491.491 0 00-.094-.136M3.36.194h-.04v.48h.04zm.003-.118a.032.032 0 00.01-.024.032.032 0 00-.01-.023.032.032 0 00-.023-.01.032.032 0 00-.023.01.032.032 0 00-.01.023c0 .009.003.017.01.024.007.006.014.01.023.01a.032.032 0 00.023-.01M3.028.043h.173V.01h-.384v.033h.172v.631h.04zm-.357.586a.213.213 0 00.05-.15V.45h-.036v.024a.188.188 0 01-.04.128.14.14 0 01-.111.045.14.14 0 01-.113-.045.19.19 0 01-.04-.128V.209a.19.19 0 01.04-.128.14.14 0 01.113-.046.14.14 0 01.111.046c.027.03.04.074.04.128v.014h.037v-.02a.212.212 0 00-.05-.15A.179.179 0 002.534 0a.183.183 0 00-.139.054.211.211 0 00-.052.151V.48a.21.21 0 00.05.15c.034.036.08.054.14.054A.18.18 0 002.67.629m-.755.045h.323V.641h-.285v-.3h.242V.31h-.242V.043h.28V.01h-.318zM1.202 2.23h.636v-.2h-.636zm0-.494h.636v-.2h-.636zm0-.462h.636v-.2h-.636zm.297-.6h.303V.641h-.266V.01H1.5zm-.418 0h.304V.641h-.266V.01H1.08zM.915 3.708a.38.38 0 00.109-.284v-.25H.64v.168h.163v.082c0 .06-.015.107-.043.14a.15.15 0 01-.119.05.146.146 0 01-.118-.049c-.028-.032-.042-.08-.042-.14V3.01a.19.19 0 01.041-.13.142.142 0 01.112-.047c.049 0 .087.016.114.047a.188.188 0 01.042.13v.026h.233v-.025a.375.375 0 00-.106-.281.381.381 0 00-.28-.104.387.387 0 00-.28.107.376.376 0 00-.11.283v.413c0 .119.035.213.106.282.071.07.164.105.28.105a.384.384 0 00.28-.108M.34 2.23h.603v-.213h-.37v-.943H.34zM.867.628A.215.215 0 00.92.474V.208A.215.215 0 00.868.055.185.185 0 00.726 0a.187.187 0 00-.144.056A.216.216 0 00.53.21v.266c0 .066.017.117.051.153a.186.186 0 00.143.055.186.186 0 00.143-.056M.881.47A.19.19 0 01.84.6a.144.144 0 01-.115.047A.144.144 0 01.609.6.194.194 0 01.568.47V.214c0-.056.014-.1.041-.131A.144.144 0 01.725.035c.049 0 .087.016.115.048a.193.193 0 01.041.13zM.328.63a.213.213 0 00.05-.151V.45H.342v.024a.188.188 0 01-.04.128.14.14 0 01-.112.045.14.14 0 01-.112-.045.19.19 0 01-.04-.128V.209A.19.19 0 01.078.08.14.14 0 01.19.035a.14.14 0 01.112.046c.027.03.04.074.04.128v.014h.036v-.02a.212.212 0 00-.05-.15A.179.179 0 00.192 0a.183.183 0 00-.14.054A.211.211 0 000 .205V.48a.21.21 0 00.05.15c.034.036.08.054.14.054A.18.18 0 00.327.629M.235 5.828H0v1.156h.603V6.77H.235zm.021-.46h.359a.4.4 0 00.293-.107.4.4 0 00.108-.298v-.355a.392.392 0 00-.106-.292.394.394 0 00-.289-.104H.256zm.235-.95h.12c.055 0 .098.017.127.05.03.033.045.08.045.144v.354c0 .064-.015.113-.045.146a.163.163 0 01-.127.05h-.12zM.753 5.8a.133.133 0 00-.039.099.136.136 0 00.139.135A.133.133 0 00.99 5.9a.133.133 0 00-.137-.137.136.136 0 00-.1.038m.212.33H.74v.854h.226zm.855-.302h-.635v.2h.635zm0 .462h-.635v.2h.635zm0 .494h-.635v.2h.635zm.014-1.616h-.636v.2h.636zm0-.493h-.636v.199h.636zm0-.463h-.636v.2h.636zm0-.613h-.636v.2h.635zm-.636-.757h.635v-.2h-.635zm.635.264h-.635v.2h.635zm.324 1.915l-.19.076.01.03a.35.35 0 00.037.072c.018.028.04.056.067.084a.38.38 0 00.262.102c.104 0 .189-.03.256-.09a.303.303 0 00.1-.24.311.311 0 00-.07-.203.76.76 0 00-.198-.163.667.667 0 01-.135-.099.137.137 0 01-.042-.1.09.09 0 01.032-.072.117.117 0 01.08-.028c.022 0 .043.005.061.014a.159.159 0 01.075.072.245.245 0 01.016.032l.005.014.19-.076-.008-.026a.27.27 0 00-.033-.062.537.537 0 00-.061-.074.282.282 0 00-.103-.063.398.398 0 00-.146-.026.355.355 0 00-.242.086.281.281 0 00-.099.222c0 .133.084.25.251.353.07.043.12.079.15.109s.045.065.045.105a.113.113 0 01-.035.087.127.127 0 01-.09.032.136.136 0 01-.067-.018.203.203 0 01-.052-.04.368.368 0 01-.066-.11m.098.807H2.02v.794c0 .115.035.207.104.276.07.068.16.102.275.102a.375.375 0 00.274-.105.373.373 0 00.107-.278v-.79h-.232v.797a.18.18 0 01-.038.123.135.135 0 01-.108.045.134.134 0 01-.107-.045.182.182 0 01-.039-.123zm.562-3.185h-.213v.705l-.336-.705H2.04V3.8h.215v-.735l.349.735h.213zm-.39-.816c.03.03.044.065.044.106a.113.113 0 01-.034.086.125.125 0 01-.091.033.132.132 0 01-.067-.019.202.202 0 01-.052-.04.367.367 0 01-.066-.11l-.19.076.01.03a.35.35 0 00.037.072.63.63 0 00.067.084.323.323 0 00.109.072.38.38 0 00.153.03c.104 0 .19-.03.257-.089a.303.303 0 00.1-.24.312.312 0 00-.072-.203.76.76 0 00-.197-.163.697.697 0 01-.136-.1.14.14 0 01-.04-.099c0-.03.01-.054.032-.072a.117.117 0 01.08-.029c.022 0 .042.005.06.014a.159.159 0 01.075.072.24.24 0 01.021.047l.19-.076-.008-.027a.268.268 0 00-.033-.062.54.54 0 00-.061-.074.281.281 0 00-.103-.063.398.398 0 00-.146-.025.355.355 0 00-.242.085.281.281 0 00-.099.222c0 .133.084.25.251.353.071.043.121.08.15.109m.764 4.57l-.32.587h.245L3.31 6.6l.193.385h.258l-.32-.6.303-.556H3.5l-.18.355-.175-.355h-.259z" fill="#2e3192"/></svg>