<svg xmlns="http://www.w3.org/2000/svg" width="27.825" height="22.112" viewBox="0 0 7.362 5.85"><path d="M7.362 2.56a.048.048 0 00-.005-.023.018.018 0 00-.017-.011c-.013 0-.02.01-.02.03l.001.03c0 .02-.015.029-.044.028l-.143-.006a.64.64 0 00-.057.001v-.02a.036.036 0 00.008-.022.022.022 0 00-.009-.019.032.032 0 00-.02-.007c-.014 0-.022.013-.023.038l.001.028a.313.313 0 01-.012.002l-.113-.006h-.034a.321.321 0 01.016-.058c-.005-.016-.014-.024-.024-.024s-.017.007-.022.022l-.005.02-.002.02a.183.183 0 01-.002.014.028.028 0 00-.006.017c0 .023.018.034.055.035l.067-.003.23.01.1-.002.027.003c.01.001.019.002.026.001a.024.024 0 00.018-.007.023.023 0 00.007-.017zm-.013-.188a.058.058 0 00.008-.027h-.002a.077.077 0 00-.017-.043.094.094 0 00-.037-.027.24.24 0 00-.2.017 1.468 1.468 0 00-.042.026l-.039.025a.162.162 0 01-.04.02.144.144 0 01-.067.01c-.037-.004-.056-.014-.058-.03a.035.035 0 00.004-.018c-.001-.013-.008-.019-.02-.018-.007 0-.013.005-.018.014a.047.047 0 00-.007.027c.001.024.02.043.054.056a.16.16 0 00.064.008.242.242 0 00.115-.04l.048-.032a.293.293 0 01.051-.027.18.18 0 01.057-.013c.02-.001.042 0 .067.006a.083.083 0 01.034.015.033.033 0 01.015.025l-.003.042.013-.001a.03.03 0 00.02-.015m-.515.443a.107.107 0 00-.03.066c-.001.017.01.028.035.03.047.005.119.01.215.017a5.536 5.536 0 01.258.021c.01 0 .016-.005.017-.012a.021.021 0 00-.007-.016.048.048 0 00-.027-.01 1.379 1.379 0 00-.078-.003 1.163 1.163 0 01-.08-.003.153.153 0 01-.04-.01.14.14 0 00-.031-.009c.009-.003.049-.007.12-.014.025-.002.05-.004.076-.008.059-.008.089-.02.09-.038a.016.016 0 00-.004-.014.02.02 0 00-.014-.006.665.665 0 01-.206.037 2.693 2.693 0 00-.076.008.433.433 0 00-.072-.04.326.326 0 00-.082-.018.072.072 0 00-.064.022m.002.053c.002-.018.012-.03.03-.032a.14.14 0 01.023-.003l.031.002a.232.232 0 01.06.018c.027.01.043.022.048.035a4.475 4.475 0 00-.182-.016zm-.023.161c-.017-.003-.033.028-.046.095v.002c-.006.028-.003.043.009.046.008.001.014 0 .017-.004.004-.003.007-.01.009-.019l.006-.03a.858.858 0 01.083.013l.171.039.165.027.01.004-.004.021c-.001.007 0 .011.004.014a.05.05 0 00.017.006c.01-.003.017-.011.02-.026l.005-.034.005-.029.007-.034c0-.004 0-.008-.004-.013a.021.021 0 00-.014-.009c-.012-.002-.021.007-.025.028l-.007.033a.174.174 0 00-.02-.007l-.023-.004-.166-.027-.146-.034a.593.593 0 00-.067-.01l.008-.04a.056.056 0 00-.014-.008m-.041.279a.09.09 0 00-.042.02.157.157 0 00-.013.02.25.25 0 01-.015.024.05.05 0 00.002.029c.016.038.077.074.183.107l.015.004.046.014a.71.71 0 00.04.01c.138.036.216.027.232-.028.019-.059-.045-.11-.19-.155l-.09-.028a.558.558 0 00-.09-.02.22.22 0 00-.078.003m.005.034a.323.323 0 01.159.026l.077.025c.06.018.108.04.145.063.024.016.035.031.03.046-.003.01-.017.016-.041.016a.504.504 0 01-.08-.01L7.024 3.5a.863.863 0 01-.042-.01l-.033-.01a.247.247 0 01-.022-.006l-.072-.022-.044-.012c-.058-.018-.083-.04-.075-.066V3.37c.005-.017.02-.026.04-.029m-.097.23a.032.032 0 00.002-.019.019.019 0 00-.012-.013c-.011-.005-.02 0-.026.015l-.005.012-.048.096c-.002.005-.003.01-.002.017 0 .007.003.01.008.013.005.002.01 0 .018-.004a.16.16 0 00.03-.049 8.37 8.37 0 00.362.126l.024.012.066.026.007-.016a.023.023 0 000-.019.022.022 0 00-.013-.013 2.792 2.792 0 00-.212-.074 2.982 2.982 0 01-.211-.074l-.007-.004zm-.078.333a.178.178 0 01-.024-.015c-.029-.023-.04-.04-.033-.056a.033.033 0 00.011-.013c.007-.011.004-.02-.006-.025-.007-.003-.014-.003-.024.002a.044.044 0 00-.02.02c-.011.02-.005.047.018.075.012.016.03.03.05.04a.241.241 0 00.12.025l.057-.001a.233.233 0 01.113.022.249.249 0 01.054.04c.01.01.018.02.022.03.004.01.004.02 0 .029l-.026.034.013.006a.027.027 0 00.024-.002.06.06 0 00.021-.019H6.97a.076.076 0 00.007-.046.093.093 0 00-.017-.043.237.237 0 00-.18-.09l-.05.001-.045.001a.185.185 0 01-.084-.015m-.06-1.373c0-1.35-1.1-2.449-2.45-2.449-.929 0-1.766.515-2.186 1.344a.07.07 0 00.123.062A2.302 2.302 0 014.092.221a2.313 2.313 0 012.31 2.311 2.313 2.313 0 01-3.663 1.874.07.07 0 00-.096.015.07.07 0 00.015.097A2.452 2.452 0 006.54 2.533M1.685.8c.168-.26.229-.493.165-.632a.556.556 0 00-.082.097c-.036.049-.07.096-.125.117A.017.017 0 011.627.38.018.018 0 011.62.367.843.843 0 001.521 0a.896.896 0 00-.11.19c-.032.065-.054.112-.086.123a.045.045 0 01-.015.002c-.052 0-.082-.086-.102-.149-.093.101-.13.304-.148.417a.162.162 0 01.122.01c.056-.126.182-.244.298-.234.06.006.16.05.176.28l.022.173L1.685.8m2.116 2.569l.017-.022.043-.054-.031-.006a.857.857 0 01-.158-.04c-.052-.02-.104-.008-.16.04a.92.92 0 01.012.02c.023.04.112.1.192.1A.102.102 0 003.8 3.37M4.065.41c1.165 0 2.112.948 2.112 2.112a2.114 2.114 0 01-3.335 1.723.034.034 0 00-.048.008.034.034 0 00.009.048c.37.263.806.403 1.262.403a2.184 2.184 0 002.181-2.182 2.184 2.184 0 00-2.18-2.18c-.86 0-1.642.506-1.993 1.29a.035.035 0 00.018.047c.017.007.038 0 .045-.018a2.116 2.116 0 011.93-1.25m.287 1.081c-.071-.367-.058-.609.04-.739.11.072.198.154.143.312a.026.026 0 00.016.033.026.026 0 00.033-.016c.077-.22-.092-.327-.183-.385a.026.026 0 00-.033.005c-.123.138-.145.4-.067.8.002.012.013.02.025.02h.006a.026.026 0 00.02-.03m-.228 1.7a.026.026 0 10.041.032c.149-.19.405-.268.488-.216a.026.026 0 00.01.004.32.32 0 00.07.058c.034.19 0 .13-.035.285-.034.156-.008.182.044.207.031.017.105-.072.142-.184-.014.181-.037.33.056.349.13.026.07-.458.009-.553.104.164.207.44.26.423.051-.017.094-.372-.165-.519.155-.034.32-.06.242-.164-.078-.103-.225-.164-.311-.026.12-.198.155-.276.069-.302-.13-.078-.13.026-.182.181.026-.328.009-.415-.077-.415-.113 0-.121.268-.078.38-.164-.276-.277-.397-.242-.276.034.121.181.355.164.45a.104.104 0 000 .039c-.13-.026-.365.068-.505.247m.685-.295c.044-.033.113-.015.154.04.04.055.038.127-.006.16-.044.032-.113.014-.154-.042-.04-.055-.038-.126.006-.158m.034.043c-.023.017-.024.054-.003.083.021.029.057.038.08.021.023-.017.025-.054.003-.082-.02-.03-.057-.039-.08-.022m-.693.947a.603.603 0 01-.081-.475.026.026 0 00-.018-.032.025.025 0 00-.032.018c-.046.164-.017.337.086.515a.025.025 0 00.023.012.026.026 0 00.023-.039m.096-2.313h.001l-.007.014a.31.31 0 01.155.155.21.21 0 00.012.022.035.035 0 01-.03.052.035.035 0 01-.03-.016.812.812 0 01-.013-.026.238.238 0 00-.116-.122.374.374 0 00.004.19c.003.01.007.018.012.026a.63.63 0 00-.068-.025.017.017 0 00-.022.012.018.018 0 00.012.021c.095.029.156.068.172.11a.066.066 0 01-.009.063.017.017 0 00.006.024.018.018 0 00.024-.005.103.103 0 00.011-.094.136.136 0 00-.039-.053c.037.025.074.063.083.099a.056.056 0 01-.007.047.018.018 0 00.006.024.016.016 0 00.008.002.017.017 0 00.015-.008.093.093 0 00.012-.074.22.22 0 00-.082-.108.726.726 0 00.055-.017l.032-.006.016.002c.142.026.276.049.355.128a.017.017 0 00.024 0l.035-.034a.017.017 0 00-.024-.025l-.023.023c-.073-.064-.18-.092-.291-.113a6.54 6.54 0 00.103-.022c.043.016.099.03.153.042.072.017.162.039.178.059a.017.017 0 00.013.006.017.017 0 00.01-.004l.044-.034a.018.018 0 00.003-.024.017.017 0 00-.024-.003l-.032.025a.642.642 0 00-.183-.058l-.094-.023c.046-.01.089-.02.124-.03.04.005.076.006.108.007.062.002.11.004.157.03a.017.017 0 00.022-.004l.077-.095a.017.017 0 00-.027-.022l-.068.084a.38.38 0 00-.16-.027l-.029-.001c.081-.054.08-.2-.006-.33-.036-.058-.102-.082-.17-.087.061.062.153.18.127.326a.034.034 0 01-.04.028.035.035 0 01-.028-.04c.03-.167-.15-.302-.151-.304l-.005-.005c-.07.011-.128.038-.139.064a.065.065 0 01-.014.02.914.914 0 00.055.079c.043.056.083.11.089.192a.035.035 0 01-.032.037h-.003a.034.034 0 01-.034-.032c-.005-.062-.036-.103-.076-.156a.939.939 0 01-.054-.077.912.912 0 01-.165.072.023.023 0 000-.012l-.01-.037c-.048-.166-.147-.51.005-.7a.026.026 0 00-.004-.037.026.026 0 00-.036.004c-.17.211-.065.573-.016.747l.011.037a.026.026 0 00.032.017M1.072.672c-.066.039-.117.172-.073.376a.043.043 0 01-.026.049.043.043 0 01-.053-.017C.805.896.74.884.719.888.693.892.644.926.6 1.108a.043.043 0 01-.044.033.107.107 0 00-.085.03c-.036.036-.055.099-.052.174a.043.043 0 01-.041.045H.377a.04.04 0 01-.018-.005c-.093-.003-.18-.1-.248-.276-.067.136-.087.411.121.68a.017.017 0 010 .021c-.019.028-.012.132-.006.223a.91.91 0 01-.006.276.315.315 0 00.115.183c.016-.135.125-.346.232-.424a.017.017 0 01.02.028.708.708 0 00-.22.421c.039.03.081.056.124.08-.022-.16.145-.461.289-.556a.017.017 0 01.024.004.018.018 0 01-.005.024c-.14.093-.315.42-.267.549v.001l.012.008c.024.013.048.026.07.04.024-.338.322-.598.517-.653a.376.376 0 01.16-.275c.078-.055.247-.128.5.004.022.01.03.037.019.058a.043.043 0 01-.059.018c-.157-.081-.303-.085-.41-.01-.092.065-.132.168-.123.233a.043.043 0 01-.036.05C1 2.117.683 2.4.7 2.735c.017.044.036.086.055.127.026-.346.352-.608.534-.634a.017.017 0 01.02.014.018.018 0 01-.015.02c-.188.027-.52.32-.506.668.163.316.362.498.596.542a.044.044 0 01.043.024c.004.01.024.026.064.04.149.052.517.055.835-.104a.043.043 0 01.039.077c-.201.1-.44.145-.637.145a.834.834 0 01-.265-.036.258.258 0 01-.08-.043c-.144.13-.451.313-.715.313a.553.553 0 01-.053-.003.93.93 0 00.292.274c.103.06.199.036.366-.03a.96.96 0 01.368-.069c.078 0 .162.007.257.022.07.01.166.016.27.016.31 0 .65-.054.715-.175.097-.182.434-.523.516-.598a.395.395 0 00.033-.033.098.098 0 00.007-.007.188.188 0 01.016-.017c.045-.046.13-.113.237-.07.04.017.096.028.147.037.038.008.066.013.086.019l.008.004c.032 0 .063.017.108.069l.062.07c0-.115 0-.206-.038-.27a.018.018 0 010-.018.845.845 0 00.061-.343c-.013-.057-.022-.091-.04-.091a.047.047 0 00-.017.005.017.017 0 01-.018-.003.018.018 0 01-.006-.017c.012-.051.007-.104-.012-.127-.013-.016-.03-.013-.052.006a.017.017 0 01-.026-.006.411.411 0 01-.024-.066c-.01-.03-.024-.078-.039-.078-.004 0-.015.003-.036.027a.017.017 0 01-.018.005.018.018 0 01-.012-.015c0-.01-.004-.025-.017-.025-.026 0-.07.046-.087.147-.008.046-.034.07-.075.07-.068 0-.169-.07-.25-.127a.641.641 0 00-.1-.062 1.554 1.554 0 00-.343-.037.662.662 0 00-.183.02.137.137 0 01-.043.006c-.207 0-.532-.367-.569-.409a1.424 1.424 0 00-.145-.143.641.641 0 01-.204-.27c-.02-.05-.044-.1-.068-.15-.067-.136-.134-.276-.126-.421L1.57.647C1.565.573 1.545.452 1.472.445c-.079-.007-.195.108-.226.225a.044.044 0 01-.071.021C1.15.669 1.115.648 1.072.672M3.66 2.855a2.73 2.73 0 00.075-.018c.11-.026.135.034.15.156-.058-.006-.121.012-.168-.029-.045-.04-.034-.052-.057-.109m-1.246.964a.145.145 0 01-.052.017l-.013.003h-.006a.026.026 0 01-.025-.019.026.026 0 01.02-.031l.013-.003a.132.132 0 00.037-.012.026.026 0 01.035.01.025.025 0 01-.009.035m.147-.283a.152.152 0 00-.054.062.023.023 0 01-.014.013.021.021 0 01-.026-.028.186.186 0 01.068-.08.022.022 0 01.03.003.021.021 0 01-.004.03m.017.186a.026.026 0 01-.008.036l-.026.015-.026.014a.025.025 0 01-.013.004.025.025 0 01-.022-.012.026.026 0 01.008-.036.45.45 0 00.052-.029.026.026 0 01.035.008m.112-.13c-.02.006-.027.014-.044.03a.236.236 0 01-.033.025.028.028 0 01-.013.003.024.024 0 01-.021-.012.024.024 0 01.009-.033l.026-.02a.172.172 0 01.06-.04.025.025 0 01.032.015.025.025 0 01-.016.032m.057.248a.294.294 0 01.084-.084.023.023 0 01.032.007.023.023 0 01-.007.032.25.25 0 00-.07.07.024.024 0 01-.02.011.023.023 0 01-.013-.004.023.023 0 01-.006-.032m-.025-.088a.023.023 0 01-.013.012.024.024 0 01-.022-.001.026.026 0 01-.01-.035.134.134 0 01.061-.055.026.026 0 01.032.018.025.025 0 01-.017.031.105.105 0 00-.03.03m-.125.206c.02-.016.045-.02.065-.024a.115.115 0 00.018-.003.026.026 0 01.033.017.025.025 0 01-.017.032l-.025.006a.104.104 0 00-.042.012.026.026 0 01-.036-.004.026.026 0 01.004-.036m-.071-.061a.025.025 0 01-.02-.01.026.026 0 01.004-.037.128.128 0 01.093-.028.026.026 0 01.023.028.027.027 0 01-.028.023.078.078 0 00-.057.018.027.027 0 01-.015.006m-.132.107a.026.026 0 01.023-.029.171.171 0 00.065-.02.026.026 0 01.026.046.22.22 0 01-.085.026H2.42a.026.026 0 01-.026-.023m-.044-.057a.026.026 0 01-.037-.004.026.026 0 01.004-.035.113.113 0 01.08-.026.026.026 0 01.022.029.026.026 0 01-.028.022.06.06 0 00-.041.014m-.089.06c.02-.01.054-.012.07.005.011.01.01.026 0 .037a.027.027 0 01-.033.002c-.003 0-.009 0-.013.002a.026.026 0 01-.012.003.026.026 0 01-.012-.049m-.113-.047c.022-.022.057-.022.084-.02a.026.026 0 01-.005.053c-.03-.004-.039 0-.042.004a.026.026 0 11-.037-.036m-.104.047c.017-.01.034-.013.048-.007.012.005.02.015.025.028a.026.026 0 01-.019.032h-.006a.025.025 0 01-.02-.01l-.001.001a.026.026 0 11-.027-.044m-.346-.063c.024-.015.054-.012.08.006a.026.026 0 01.006.037.026.026 0 01-.02.01.027.027 0 01-.016-.004c-.007-.005-.016-.009-.023-.005a.026.026 0 11-.027-.044m-.677.064a.107.107 0 00-.028.025l-.013.013a.025.025 0 01-.036-.001.026.026 0 010-.037.172.172 0 00.011-.011.163.163 0 01.041-.034.026.026 0 01.035.01.026.026 0 01-.01.035m.122-.168a.026.026 0 01-.02.03l-.01.002a.026.026 0 01-.024.015h-.004a.026.026 0 01-.02-.004.03.03 0 01-.013-.022.025.025 0 01.015-.027.172.172 0 01.046-.015.026.026 0 01.03.021m.14.145a.026.026 0 01.006.036.172.172 0 00-.02.035.026.026 0 01-.024.016l-.01-.001a.027.027 0 01-.015-.034.247.247 0 01.027-.046.025.025 0 01.036-.006m.059-.183a.099.099 0 00-.027.036.026.026 0 01-.024.015c-.004 0-.007 0-.01-.002a.026.026 0 01-.014-.034.153.153 0 01.042-.055.026.026 0 01.036.003c.01.011.008.027-.003.037m.047.127c.014 0 .026.011.026.025v.046a.026.026 0 01-.052 0v-.046c0-.014.011-.025.026-.025m.07-.083l-.035.035a.027.027 0 01-.037 0 .026.026 0 010-.037l.035-.035c.01-.01.027-.01.037 0 .01.01.01.027 0 .037m.03.115c0-.02.005-.036.017-.052a.026.026 0 01.037-.004.026.026 0 01.004.037.026.026 0 00-.006.017c0 .015-.01.027-.025.027a.026.026 0 01-.027-.025m.1-.167a.025.025 0 01-.022.014.025.025 0 01-.013-.004c-.006-.004-.01-.002-.013 0a.026.026 0 01-.036-.008.026.026 0 01.008-.036.063.063 0 01.067-.001.026.026 0 01.01.035m.107.098a.026.026 0 01-.017.033.18.18 0 01-.05.007h-.01a.026.026 0 01-.024-.028.026.026 0 01.027-.024.154.154 0 00.043-.005.025.025 0 01.032.017m.066-.063a.025.025 0 01-.017.007.025.025 0 01-.019-.008l-.004.002a.026.026 0 11-.012-.051c.022-.005.042 0 .054.014.01.01.009.027-.002.036m.115-.083a.026.026 0 01-.034.013c-.001 0-.007 0-.016.004a.026.026 0 01-.035-.01.026.026 0 01.009-.034c.023-.013.046-.016.064-.007a.026.026 0 01.012.034m.002.145a.026.026 0 01-.033.016.049.049 0 00-.034 0 .026.026 0 01-.019-.048.1.1 0 01.07-.001c.013.004.02.019.016.033m.02.05c.005.006.03.014.052.01a.025.025 0 01.03.022.025.025 0 01-.022.03.112.112 0 01-.02.001.119.119 0 01-.077-.025.026.026 0 010-.037c.01-.01.026-.01.036 0m.088-.134a.026.026 0 01.02.03.026.026 0 01-.03.02c-.016-.003-.024 0-.026.002a.026.026 0 01-.036.006.026.026 0 01-.006-.036c.014-.021.044-.03.078-.022m.071-.073a.026.026 0 01-.029-.003.03.03 0 00-.018.005.025.025 0 01-.018.007.026.026 0 01-.017-.045c.02-.017.046-.02.063-.017.017.002.025.01.029.017a.026.026 0 01-.01.036m.07.162a.026.026 0 11-.026.045c-.015-.008-.03-.01-.036-.008-.002 0-.002.001-.003.003a.026.026 0 01-.023.015.026.026 0 01-.012-.003.025.025 0 01-.012-.035.052.052 0 01.035-.03c.033-.01.067.008.077.013m.058-.112a.026.026 0 01-.028.022c-.02-.002-.032-.001-.036.003a.026.026 0 01-.038-.034c.022-.024.054-.024.08-.02a.026.026 0 01.022.029m.063.079a.547.547 0 01-.048.012h-.006a.026.026 0 01-.005-.051.614.614 0 00.044-.01.026.026 0 01.032.017.025.025 0 01-.017.032m.14-.169c-.01.017-.032.03-.06.044l-.004.002a.026.026 0 01-.012.003.026.026 0 01-.023-.014.026.026 0 01.011-.035l.004-.002a.202.202 0 00.038-.023.025.025 0 01.035-.01c.012.006.017.023.01.036m-.121-.652c-.186.092-.41.126-.576.126a.603.603 0 01-.203-.026c-.023-.01-.036-.021-.041-.035a.017.017 0 01.01-.022.018.018 0 01.023.01c0 .003.006.008.02.015.104.043.477.037.75-.1a.017.017 0 01.024.008.017.017 0 01-.007.024m.051.148c-.184.093-.416.13-.599.13a.803.803 0 01-.244-.031c-.036-.013-.058-.028-.067-.047a.017.017 0 01.032-.015c.001.004.01.016.047.03.131.045.517.052.816-.098.008-.004.019 0 .023.008a.017.017 0 01-.008.023m-.923.194a.018.018 0 01.013-.02.017.017 0 01.02.013c.002.008.013.016.029.024.123.06.572.058.889-.1a.017.017 0 01.023.007.017.017 0 01-.008.023 1.55 1.55 0 01-.653.141.692.692 0 01-.266-.04c-.027-.013-.043-.029-.047-.048m.131-1.125a.017.017 0 01-.012.022.375.375 0 00-.096.05.843.843 0 01-.035.02.017.017 0 01-.015-.008.018.018 0 01.006-.024.471.471 0 00.025-.017.413.413 0 01.105-.054c.01-.003.02.002.022.011m.144.076c0 .01-.007.018-.017.018-.058.004-.208.143-.208.172 0 .01-.008.018-.017.018-.01 0-.017-.006-.018-.015 0-.01.002-.028.034-.066.05-.056.154-.14.207-.143.01 0 .018.006.019.016m.075.092c0 .01-.007.017-.017.018-.055.003-.116.057-.134.104a.018.018 0 01-.023.01.017.017 0 01-.01-.022c.023-.058.094-.123.165-.127.01 0 .018.007.019.017m.073.106c-.006.01-.018.016-.03.022-.011.005-.022.01-.028.019a.018.018 0 01-.014.007.018.018 0 01-.01-.003.017.017 0 01-.005-.024.092.092 0 01.042-.03.055.055 0 00.015-.01.017.017 0 01.024-.005c.009.005.011.015.006.024m1.905.373a.059.059 0 00.117 0 .059.059 0 00-.117 0m.027.001a.03.03 0 01.03-.031c.02 0 .032.012.032.031s-.014.031-.031.031a.031.031 0 01-.031-.03M.896.9c0-.131.043-.226.1-.278a.497.497 0 01-.18-.147 1.09 1.09 0 00-.12.33l.01-.002c.06-.01.122.022.19.098M.65.825A1.856 1.856 0 01.643.42a.756.756 0 00-.15.285.536.536 0 00.04.32C.557.946.592.865.65.825M.488.613L.494.599.488.6zM.458.34c-.083.137-.219.421-.1.854A.238.238 0 01.41 1.11a.19.19 0 01.102-.052.555.555 0 01-.058-.346A5.592 5.592 0 01.46.342M.157 2.396a1.21 1.21 0 00-.152.426c-.017.119-.001.523.208.705.144.125.264.213.328.258a.039.039 0 01.018.002.49.49 0 00.229.002.756.756 0 01-.134-.057c-.21-.112-.437-.33-.46-.416a.017.017 0 01.013-.022.017.017 0 01.02.013c.02.071.23.28.444.394.073.04.137.062.192.069a.75.75 0 00.051-.018c-.22-.057-.48-.33-.527-.427a.017.017 0 01.008-.023c.008-.004.019 0 .023.008.046.096.348.404.557.419a1.28 1.28 0 00.063-.03.585.585 0 01-.04-.01c-.171-.062-.385-.25-.417-.33a.017.017 0 01.01-.023c.01-.003.019.001.022.01.026.065.227.249.397.31.03.01.055.015.079.017l.052-.03C1.005 3.61.85 3.458.793 3.342A.018.018 0 01.8 3.32c.01-.004.02 0 .024.008.054.11.208.256.332.285.01.003.02.004.029.005a1.27 1.27 0 00.108-.078c-.273-.084-.5-.341-.672-.766a1.307 1.307 0 00-.119-.071C.38 2.634.22 2.545.157 2.397m1.035 1.8a.683.683 0 01-.101.028l.147.315h-.066a.052.052 0 00-.051.052c0 .029.023.052.051.052H1.3l.305.28a.052.052 0 00.073-.003.052.052 0 00-.003-.073l-.165-.152.255.067a.052.052 0 00.063-.037.052.052 0 00-.036-.063l-.165-.043.233-.02a.052.052 0 10-.008-.103l-.5.04zm.639.236l.192-.074.235.251c.01.011.024.017.038.017a.052.052 0 00.038-.087l-.119-.127.26.106a.052.052 0 00.067-.028.052.052 0 00-.027-.068l-.201-.082.252-.008a.052.052 0 00.05-.054.05.05 0 00-.054-.05l-.508.017-.16-.13h-.001a1.815 1.815 0 00-.189-.02l.23.186-.14.054a.052.052 0 00.037.097m.38.84a.025.025 0 00-.005.018.022.022 0 00.011.017.043.043 0 00.025.007c.023.015.041.03.054.046a.034.034 0 00.018.003c.006 0 .01-.003.013-.008.009-.012.001-.026-.023-.042l-.028-.017c-.015-.01-.013-.03.007-.06l.07-.104A.136.136 0 012.38 5.1l.1-.16.037-.048a.018.018 0 00.003-.015.022.022 0 00-.009-.013c-.015-.01-.036.006-.063.049a.769.769 0 00-.038.063l-.003.005zm.245.15a.024.024 0 00-.001.02c.001.006.006.01.011.013l.066.035a.047.047 0 00.023.006.018.018 0 00.018-.01c.006-.011 0-.022-.018-.031l-.028-.013c-.017-.009-.019-.026-.005-.052l.07-.125a.62.62 0 00.024-.051l.018.009a.034.034 0 00.016.016.023.023 0 00.02.001.035.035 0 00.016-.015c.007-.013-.001-.025-.024-.037l-.025-.012.004-.012.055-.098.015-.03a.306.306 0 01.046.04c.016.003.027-.001.032-.01.005-.01.001-.02-.01-.03a.407.407 0 00-.032-.024l-.013-.009a.03.03 0 00-.012-.013c-.02-.01-.038.001-.056.034l-.027.061-.112.201-.043.091a.169.169 0 01-.014.022.12.12 0 00-.014.024m.246.116a.027.027 0 00.004.024.061.061 0 00.021.02l.001-.002a.08.08 0 00.046.004.09.09 0 00.04-.021.243.243 0 00.074-.187c0-.016-.002-.032-.004-.05l-.005-.045a.165.165 0 010-.045.14.14 0 01.022-.064c.02-.032.037-.044.053-.038a.035.035 0 00.013.01c.012.005.02.002.025-.01.003-.005.001-.013-.004-.022a.046.046 0 00-.021-.018c-.023-.01-.047-.002-.074.024a.155.155 0 00-.036.053.247.247 0 00-.015.121l.007.057a.317.317 0 010 .058.18.18 0 01-.013.057.274.274 0 01-.035.057.083.083 0 01-.028.024.033.033 0 01-.03.002l-.035-.022zm.478-.007c-.025.097-.024.161.004.192a.135.135 0 00.06.032c.028.008.045.002.05-.019.003-.01-.003-.018-.019-.022a.025.025 0 01-.018.002.064.064 0 01-.04-.028.07.07 0 01-.007-.021.15.15 0 01-.003-.031.29.29 0 01.011-.066l.043-.146.001-.004a.498.498 0 01.044-.11.1.1 0 01.023-.03c.009-.007.018-.01.026-.007l.014.004c.02.005.034.003.041-.008l.001-.003a.018.018 0 00-.003-.016.025.025 0 00-.014-.01.133.133 0 00-.082 0c-.042.018-.083.1-.12.246zm.288.077a.685.685 0 00-.008.087.193.193 0 00.013.078c.005.01.011.02.02.026a.07.07 0 00.036.014c.015.003.03-.002.044-.014a.13.13 0 00.035-.047.523.523 0 00.024-.07c.008-.027.015-.063.023-.107a.612.612 0 01.022-.093l.001-.014.014-.064.017-.077a.143.143 0 00.002-.019.027.027 0 00-.005-.014c-.003-.005-.009-.008-.016-.009-.008-.001-.014 0-.017.002a.018.018 0 00-.006.013l-.002.013a5.01 5.01 0 01-.053.283l-.001.005-.001.003c-.027.127-.051.19-.074.186a.049.049 0 01-.04-.031.11.11 0 01-.007-.058l.058-.377a.054.054 0 00-.006-.034.034.034 0 00-.027-.019l-.003.019a.536.536 0 01-.008.113zm.335.184a.141.141 0 00-.003.026c0 .007.002.013.006.018.005.005.01.008.017.008l.074.004a.053.053 0 00.024-.004.018.018 0 00.011-.017c.001-.012-.008-.02-.029-.02h-.031c-.019-.001-.027-.017-.026-.046l.011-.142a.756.756 0 00.001-.057h.02a.037.037 0 00.021.009c.009 0 .015-.002.02-.008a.032.032 0 00.008-.02c0-.015-.012-.022-.037-.024h-.028a.132.132 0 01-.002-.012l.01-.113v-.034a.312.312 0 01.06.018c.015-.005.023-.013.023-.024 0-.01-.006-.017-.02-.022l-.02-.005a.188.188 0 00-.02-.004.04.04 0 01-.015-.002.028.028 0 00-.017-.006c-.022-.002-.034.017-.036.054v.066l-.017.23-.002.1a.249.249 0 01-.003.027m.244-.454c0 .008.003.014.007.017a.038.038 0 00.021.003h.03a.866.866 0 01.007.083l.002.176.01.167v.01H4.1c-.006.001-.01.003-.012.008a.048.048 0 00-.003.018c.006.009.016.014.03.013l.035-.003.03-.001.033-.001a.017.017 0 00.012-.007.021.021 0 00.006-.015c0-.013-.012-.02-.033-.019l-.034.001a.115.115 0 00.002-.021v-.023l-.011-.168-.001-.15a.657.657 0 00-.005-.068l.04-.001a.039.039 0 00.004-.015c0-.018-.035-.026-.102-.023h-.003c-.028 0-.042.007-.042.019m.283.042a.82.82 0 00.011.073v.006l.035.35a.028.028 0 00.009.017.021.021 0 00.019.006.047.047 0 00.024-.01.224.224 0 01.07 0 .036.036 0 00.016-.008.018.018 0 00.006-.015c-.002-.015-.017-.021-.045-.018l-.032.005c-.018.002-.029-.015-.033-.05l-.012-.125a.135.135 0 010-.043l-.026-.188-.002-.06a.02.02 0 00-.007-.013.02.02 0 00-.015-.004c-.018.002-.024.027-.018.077m.246-.035a.828.828 0 00.017.072l.001.005.065.346a.026.026 0 00.01.016.021.021 0 00.02.004.047.047 0 00.022-.012.221.221 0 01.071-.005.033.033 0 00.015-.01c.004-.005.006-.01.004-.015-.003-.016-.018-.02-.046-.014l-.032.008c-.017.003-.03-.013-.037-.048l-.023-.123a.137.137 0 01-.004-.043l-.04-.185-.008-.06a.017.017 0 00-.009-.012.018.018 0 00-.015-.003c-.018.004-.022.03-.011.079m.234-.073l.023.062.062.222.033.095.005.026.006.026a.026.026 0 00.013.015.024.024 0 00.018.001L5.04 5.7a.048.048 0 00.021-.012.018.018 0 00.005-.02c-.003-.012-.015-.015-.034-.01l-.03.011c-.017.006-.03-.005-.04-.034l-.038-.137a.737.737 0 00-.018-.054l.019-.006a.033.033 0 00.023 0 .022.022 0 00.015-.013.032.032 0 000-.022c-.003-.014-.018-.017-.042-.01l-.026.01-.006-.012-.03-.11a.643.643 0 00-.01-.031.315.315 0 01.06-.003c.014-.01.019-.02.016-.03-.003-.01-.012-.014-.028-.014l-.02.001-.02.004-.014.003a.027.027 0 00-.019 0c-.02.006-.026.027-.015.062m.208-.106a.567.567 0 01.052.1l.075.194a.735.735 0 00.039.079.205.205 0 00.051.06c.01.007.02.011.031.012.012.002.024 0 .038-.006a.056.056 0 00.03-.035.123.123 0 00.006-.059.54.54 0 00-.015-.072 1.35 1.35 0 00-.036-.103.661.661 0 01-.03-.091l-.005-.012-.022-.063-.026-.075a.133.133 0 00-.007-.017.026.026 0 00-.012-.01c-.005-.002-.011-.002-.019.002a.02.02 0 00-.013.01.024.024 0 00.002.014l.005.012c.028.068.062.158.1.27l.002.005.002.003c.042.123.054.189.033.197a.049.049 0 01-.051-.006.11.11 0 01-.036-.045l-.145-.353a.056.056 0 00-.023-.026.037.037 0 00-.033-.002zm.292-.112c.022.042.058.104.107.187a5.032 5.032 0 01.128.225c.007.008.014.01.02.007.005-.003.008-.008.009-.015a.05.05 0 00-.007-.027 1.368 1.368 0 00-.042-.067 1.296 1.296 0 01-.042-.068.169.169 0 01-.014-.038.203.203 0 00-.01-.031c.007.006.033.036.079.091.016.02.032.04.05.059.04.043.067.061.082.053.005-.003.008-.006.009-.012 0-.005 0-.01-.003-.015a.056.056 0 00-.019-.017.673.673 0 01-.129-.131l-.048-.06a.405.405 0 00-.008-.081.316.316 0 00-.032-.078.072.072 0 00-.054-.041.112.112 0 00-.07.014c-.016.008-.018.023-.006.045m.033-.027c.017-.008.032-.006.044.006a.107.107 0 01.015.018l.016.027a.247.247 0 01.02.06c.006.028.005.047-.003.059a3.981 3.981 0 01-.089-.159zm.318.042a.607.607 0 01.1.057.176.176 0 01.04.043.25.25 0 01.027.062.078.078 0 01.005.036.033.033 0 01-.015.025l-.038.018.007.012c.006.006.013.01.023.01s.019-.003.027-.007v-.001a.077.077 0 00.028-.036.093.093 0 00.006-.046.24.24 0 00-.114-.166 14.8 14.8 0 00-.043-.023l-.041-.021a.187.187 0 01-.065-.055.147.147 0 01-.014-.024c-.015-.034-.016-.056-.002-.066a.03.03 0 00.016-.005c.01-.007.013-.015.006-.025-.003-.006-.01-.01-.021-.01-.01 0-.02.002-.027.008-.02.013-.028.038-.022.074a.17.17 0 00.025.06.242.242 0 00.092.08m.401-.636c.006.008.009.023.006.045v.02l.02.019.016-.017c.007-.009.01-.022.009-.039a.152.152 0 00-.039-.087l-.003-.004-.001-.002a.075.075 0 00-.028-.007c-.008 0-.015.004-.022.01a.045.045 0 00-.01.027c-.002.01.002.02.012.028.008.008.022.01.04.007m-.196.268c.028.03.057.06.088.095l.164.187c.046.05.074.072.083.063l.04-.036a.181.181 0 00.01-.077.163.163 0 00-.008-.035.315.315 0 00-.02-.042.535.535 0 00-.065-.084l-.028-.032-.026-.03a.258.258 0 00-.094-.07.145.145 0 00-.1-.008.056.056 0 00-.015.008.093.093 0 01-.016.009.024.024 0 00-.025.003.033.033 0 00-.011.02c0 .008.001.015.006.02.005.005.01.009.017.01m.031-.04c.045-.03.121.013.227.132a.401.401 0 01.064.088c.012.026.02.06.021.104l-.01.01-.013-.015-.239-.253a.451.451 0 01-.05-.066m.306-.33l.143.105.036.03.035.028.093.076c.026.02.048.035.065.044.018.008.03.009.036 0a.018.018 0 00.003-.018.037.037 0 00-.012-.017l-.106-.075-.003-.002-.067-.055.036-.034a.078.078 0 00.01-.015l.007.005.018.014.002.001c.06.048.112.086.155.116.004.003.01.004.015.002a.034.034 0 00.015-.011.025.025 0 00.006-.015.012.012 0 00-.005-.01 6.507 6.507 0 00-.2-.148 5.64 5.64 0 01-.199-.147c-.008-.006-.014-.008-.017-.007a.019.019 0 00-.005.004l-.004.005-.005.008c-.002.002-.003.007-.003.013 0 .005.003.01.008.014.019.015.049.036.088.063.041.027.07.048.09.063l.013.01-.019.024a.163.163 0 01-.029.03L6.25 4.31c-.024-.02-.041-.022-.052-.01a.02.02 0 00-.004.018.026.026 0 00.009.015m.562 0c-.003.005-.003.01-.001.013a.046.046 0 00.013.012c.011.002.02-.004.028-.016l.018-.03.015-.025.018-.03c.003-.003.003-.008.002-.013a.021.021 0 00-.01-.013c-.01-.007-.022-.001-.034.017l-.018.028a.105.105 0 00-.016-.014l-.02-.013-.144-.085-.124-.085a.586.586 0 00-.059-.034l.022-.034a.037.037 0 00-.01-.012c-.015-.01-.04.014-.077.07l-.002.003c-.015.024-.018.04-.008.046.007.005.013.006.018.003a.037.037 0 00.015-.014l.016-.026a.83.83 0 01.073.042l.145.098.144.086.008.007z" fill="#2e3192"/></svg>