<svg xmlns="http://www.w3.org/2000/svg" width="33.541" height="15.117" viewBox="0 0 8.874 4"><path d="M8.874 3.98V.02h-.521v1.61H7.87V.02h-.522v3.96h.522V2.14h.483v1.84zM6.52 4h.55L6.454.016 6.452 0h-.668l-.567 4h.55l.09-.73h.56zm.034-.039l-.101-.73h-.63l-.089.73h-.471L5.818.039h.6l.605 3.922zm-.679-1.173h.516L6.114.538zm.471-.039h-.427L6.116.881zM4.748 3.98l.46-3.96h-.516l-.247 3.063-.33-3.064h-.478l-.291 3.064L3.104.019h-.516l.443 3.961h.6l.248-2.648.269 2.648zm-2.913 0h.482V.02H1.55l-.376 2.63L.746.02H0v3.96h.488V.794L.937 3.98h.443L1.835.794z" fill="#2e3192"/></svg>