<svg xmlns="http://www.w3.org/2000/svg" width="24.08" height="26.81" viewBox="0 0 6.371 7.093"><defs><clipPath clipPathUnits="userSpaceOnUse" id="f"><path d="M0 0h566.929v425.197H0z"/></clipPath><clipPath clipPathUnits="userSpaceOnUse" id="e"><path d="M0 0h566.929v425.197H0z"/></clipPath><clipPath clipPathUnits="userSpaceOnUse" id="d"><path d="M0 0h566.929v425.197H0z"/></clipPath><clipPath clipPathUnits="userSpaceOnUse" id="c"><path d="M0 0h566.929v425.197H0z"/></clipPath><clipPath clipPathUnits="userSpaceOnUse" id="b"><path d="M0 0h566.929v425.197H0z"/></clipPath><clipPath clipPathUnits="userSpaceOnUse" id="a"><path d="M0 0h566.929v425.197H0z"/></clipPath></defs><g clip-path="url(#a)" transform="matrix(.35278 0 0 -.35278 -32.197 103.002)" fill="#2e3192"><path d="M93.11 271.888c.17 0 .298.046.382.138a.441.441 0 01.112.307.456.456 0 01-.063.241.358.358 0 01-.166.15.774.774 0 01-.3.045h-.36v-.024h.035c.033 0 .058-.01.075-.029.012-.014.018-.048.018-.103v-.569c0-.05-.005-.082-.014-.096-.016-.024-.042-.036-.08-.036h-.033v-.024zm-.142.812c.05.013.094.02.133.02a.335.335 0 00.255-.106c.066-.07.1-.166.1-.288a.406.406 0 00-.1-.287.33.33 0 00-.25-.106.68.68 0 00-.138.02zm1.219.021a.314.314 0 00.092-.01.103.103 0 00.049-.04.3.3 0 00.03-.095h.025l-.01.193h-.678v-.024h.03c.037 0 .063-.009.079-.026.01-.013.017-.048.017-.104v-.572a.298.298 0 00-.008-.085.053.053 0 00-.028-.03.12.12 0 00-.06-.016h-.03v-.024h.679l.076.221h-.026a.531.531 0 00-.083-.122.165.165 0 00-.065-.04.45.45 0 00-.108-.01h-.15a.108.108 0 00-.05.007.035.035 0 00-.017.02.247.247 0 00-.005.071v.29h.193a.191.191 0 00.082-.013.079.079 0 00.038-.036.329.329 0 00.018-.082h.024v.306h-.024c-.002-.05-.015-.085-.037-.105-.017-.015-.051-.023-.101-.023h-.193v.35zm1.347-.709a.173.173 0 00-.075-.053.459.459 0 00-.142-.015h-.064a.445.445 0 00-.101.006.048.048 0 00-.024.02.183.183 0 00-.011.075v.553c0 .052.004.085.01.1a.077.077 0 00.039.034.256.256 0 00.099.013v.024h-.4v-.024h.034c.033 0 .058-.01.075-.029.012-.014.019-.048.019-.103v-.568c0-.05-.005-.083-.014-.097-.016-.024-.043-.036-.08-.036h-.033v-.024h.682l.075.24-.021.004a.423.423 0 00-.068-.12m.793.044a.276.276 0 00.026-.09.044.044 0 00-.02-.036c-.011-.01-.035-.016-.07-.018v-.024h.348v.024a.133.133 0 00-.084.03.313.313 0 00-.068.114l-.306.733h-.023l-.31-.725a.405.405 0 00-.073-.127c-.011-.01-.035-.018-.072-.025v-.024h.278v.024c-.043.003-.07.01-.083.02-.013.01-.02.022-.02.035a.22.22 0 00.023.077l.06.14h.34zm-.374.175l.153.356.149-.356zm1.544.558c-.004-.02-.01-.034-.017-.04a.041.041 0 00-.028-.01.17.17 0 00-.051.015.37.37 0 01-.15.035.259.259 0 01-.184-.069.216.216 0 01-.072-.163c0-.036.008-.07.024-.1a.282.282 0 01.073-.083c.03-.025.085-.059.16-.1.076-.043.122-.07.139-.084a.197.197 0 00.055-.062.136.136 0 00.018-.065.136.136 0 00-.047-.102.185.185 0 00-.128-.042c-.047 0-.09.01-.13.031a.225.225 0 00-.087.078.423.423 0 00-.045.142h-.024v-.302h.024c.003.02.008.034.014.04.006.007.015.01.026.01a.366.366 0 00.08-.02.42.42 0 01.155-.029c.082 0 .148.023.2.071a.23.23 0 01.078.173.209.209 0 01-.025.1.25.25 0 01-.07.084c-.03.023-.085.057-.168.101a.746.746 0 00-.191.13.11.11 0 00-.028.074c0 .035.015.066.044.094a.16.16 0 00.112.041c.04 0 .078-.01.115-.03a.207.207 0 00.086-.083.387.387 0 00.042-.14h.024v.305zm.687-.068a.314.314 0 00.092-.01.103.103 0 00.049-.04.3.3 0 00.03-.095h.025l-.01.193h-.678v-.024h.03c.037 0 .063-.009.079-.026.01-.013.017-.048.017-.104v-.572a.298.298 0 00-.008-.085.053.053 0 00-.028-.03.123.123 0 00-.06-.016h-.03v-.024h.678l.076.221h-.026a.502.502 0 00-.082-.122.165.165 0 00-.065-.04.45.45 0 00-.108-.01h-.15a.105.105 0 00-.05.007.035.035 0 00-.017.02.232.232 0 00-.006.071v.29h.194a.191.191 0 00.082-.013.079.079 0 00.038-.036.329.329 0 00.018-.082h.024v.306h-.024c-.002-.05-.015-.085-.037-.105-.017-.015-.051-.023-.101-.023h-.194v.35zm.685-.809a.111.111 0 00-.06.016.052.052 0 00-.026.028.27.27 0 00-.01.088v.57c0 .052.007.085.017.1.017.02.043.031.079.031h.032v.024h-.378v-.024h.032c.02 0 .04-.006.059-.016.014-.008.023-.017.027-.028a.283.283 0 00.008-.088v-.569c0-.053-.005-.086-.015-.1-.017-.02-.043-.032-.08-.032h-.031v-.024h.378v.024zm.06.833a.185.185 0 00.115-.033.355.355 0 00.058-.059v-.612c0-.05-.004-.08-.014-.095-.015-.023-.042-.034-.08-.034h-.03v-.024h.306v.024h-.031c-.034 0-.06.01-.076.027-.012.014-.017.048-.017.102v.542l.58-.709h.024v.742c0 .05.004.081.014.095.015.022.042.034.079.034h.03v.024h-.305v-.024h.03c.035 0 .06-.009.076-.028.012-.013.018-.047.018-.1v-.509l-.538.661h-.24zm1.51-.024a.314.314 0 00.093-.01.103.103 0 00.049-.04.3.3 0 00.03-.095h.025l-.01.193h-.678v-.024h.03c.037 0 .063-.009.079-.026.01-.013.017-.048.017-.104v-.572a.298.298 0 00-.008-.085.053.053 0 00-.028-.03.123.123 0 00-.06-.016h-.03v-.024h.678l.076.221h-.026a.502.502 0 00-.082-.122.165.165 0 00-.065-.04.456.456 0 00-.108-.01h-.15a.105.105 0 00-.05.007.035.035 0 00-.017.02.232.232 0 00-.006.071v.29h.194a.191.191 0 00.082-.013.079.079 0 00.038-.036.329.329 0 00.018-.082h.024v.306h-.024c-.002-.05-.015-.085-.037-.105-.017-.015-.051-.023-.101-.023h-.194v.35zm1.219-.833l.339.741v-.588c0-.05-.004-.08-.014-.095-.015-.023-.041-.034-.08-.034h-.03v-.024h.374v.024h-.031c-.034 0-.06.01-.076.027-.012.014-.018.048-.018.102v.575c0 .05.005.081.014.095.016.022.043.034.08.034h.03v.024h-.25l-.313-.689-.32.69h-.25v-.025a.183.183 0 00.079-.013.067.067 0 00.034-.032.193.193 0 00.013-.084v-.575c0-.05-.005-.08-.014-.095-.016-.023-.042-.034-.08-.034h-.031v-.024h.307v.024h-.031c-.035 0-.06.01-.076.027-.012.014-.018.048-.018.102v.588l.34-.74zm1.292.168a.276.276 0 00.026-.09.044.044 0 00-.02-.036c-.011-.01-.035-.016-.07-.018v-.024h.348v.024a.133.133 0 00-.084.03.328.328 0 00-.068.114l-.306.733h-.023l-.31-.725a.405.405 0 00-.073-.127c-.011-.01-.035-.018-.072-.025v-.024h.278v.024c-.043.003-.07.01-.083.02-.013.01-.02.022-.02.035a.22.22 0 00.023.077l.06.14h.34zm-.374.175l.153.356.149-.356zm1.585-.319a.27.27 0 00-.117.036.443.443 0 00-.107.116l-.182.253a.294.294 0 01.164.084c.035.04.053.087.053.141a.197.197 0 01-.047.131.226.226 0 01-.113.075.738.738 0 01-.206.021h-.321v-.024h.033c.033 0 .058-.01.075-.029.012-.013.018-.048.018-.103v-.569c0-.05-.004-.082-.013-.096-.016-.024-.043-.036-.08-.036h-.033v-.024h.377v.024h-.034c-.033 0-.058.01-.074.03-.013.012-.02.046-.02.102v.256h.022l.018-.002.054.002.298-.412h.235zm-.626.795a.592.592 0 00.102.012.186.186 0 00.137-.05.18.18 0 00.052-.135.175.175 0 00-.064-.139c-.043-.037-.106-.055-.19-.055h-.015l-.022.001zm1.006-.795a.114.114 0 00-.06.016.052.052 0 00-.026.028.27.27 0 00-.01.088v.57c0 .052.007.085.018.1.016.02.042.031.078.031h.032v.024h-.377v-.024h.03a.128.128 0 00.06-.016.058.058 0 00.027-.028.273.273 0 00.009-.088v-.569c0-.053-.006-.086-.016-.1-.016-.02-.043-.032-.08-.032h-.03v-.024h.377v.024zm.128.857l-.01-.207h.025a.19.19 0 00.028.095.123.123 0 00.058.047c.017.006.047.01.088.01h.106v-.673c0-.05-.005-.08-.015-.095-.015-.023-.042-.034-.08-.034h-.03v-.024h.373v.024h-.03c-.034 0-.06.01-.076.027-.012.014-.018.048-.018.102v.673h.124a.183.183 0 00.088-.018.127.127 0 00.054-.056.23.23 0 00.019-.078h.025l-.01.207zm1.154-.857a.114.114 0 00-.06.016.052.052 0 00-.026.028.27.27 0 00-.01.088v.57c0 .052.007.085.018.1.016.02.042.031.078.031h.032v.024h-.377v-.024h.03a.128.128 0 00.06-.016.058.058 0 00.027-.028.273.273 0 00.009-.088v-.569c0-.053-.006-.086-.016-.1-.016-.02-.043-.032-.08-.032h-.03v-.024h.377v.024zm.644-.024l.339.741v-.588c0-.05-.005-.08-.014-.095-.015-.023-.042-.034-.08-.034h-.03v-.024h.374v.024h-.031c-.035 0-.06.01-.076.027-.012.014-.018.048-.018.102v.575c0 .05.005.081.014.095.016.022.042.034.08.034h.03v.024h-.25l-.313-.689-.32.69h-.25v-.025a.183.183 0 00.079-.013.071.071 0 00.034-.032.209.209 0 00.013-.084v-.575c0-.05-.005-.08-.015-.095-.015-.023-.042-.034-.08-.034h-.03v-.024h.306v.024h-.031c-.034 0-.06.01-.076.027-.011.014-.017.048-.017.102v.588l.34-.74zm1.149.833a.309.309 0 00.092-.01.098.098 0 00.049-.04.3.3 0 00.03-.095h.026l-.01.193h-.68v-.024h.032c.037 0 .063-.009.078-.026.01-.013.017-.048.017-.104v-.572a.31.31 0 00-.007-.085.055.055 0 00-.03-.03.12.12 0 00-.058-.016h-.031v-.024h.679l.076.221h-.026a.501.501 0 00-.083-.122.158.158 0 00-.065-.04.444.444 0 00-.108-.01h-.15a.11.11 0 00-.05.007.039.039 0 00-.017.02.294.294 0 00-.005.071v.29h.193a.191.191 0 00.082-.013.08.08 0 00.039-.036.329.329 0 00.018-.082h.024v.306h-.024c-.003-.05-.015-.085-.038-.105-.017-.015-.05-.023-.101-.023h-.193v.35zm-9.386 1.051a.59.59 0 01.07-.005c.085 0 .152.023.2.068a.231.231 0 01.071.175.21.21 0 01-.047.137.257.257 0 01-.115.083.574.574 0 01-.186.024H97.9v-.024h.033c.034 0 .06-.01.076-.029.011-.013.017-.048.017-.103v-.569c0-.05-.004-.082-.013-.095-.016-.025-.043-.037-.08-.037H97.9v-.024h.377v.024h-.033c-.034 0-.059.01-.075.03-.012.012-.018.047-.018.102v.257a.882.882 0 01.08-.014m-.08.417a.39.39 0 00.085.012.194.194 0 00.097-.024.164.164 0 00.067-.073.257.257 0 00.023-.107c0-.055-.016-.1-.049-.135a.155.155 0 00-.117-.052.42.42 0 00-.106.013zm1.38-.792a.27.27 0 00-.118.037.435.435 0 00-.107.115l-.182.253a.294.294 0 01.164.084c.035.04.053.087.053.141a.195.195 0 01-.047.131.222.222 0 01-.113.075.738.738 0 01-.206.021h-.32v-.024h.032c.033 0 .058-.01.075-.029.012-.013.018-.048.018-.103v-.569c0-.05-.004-.082-.013-.095-.016-.025-.043-.037-.08-.037h-.033v-.024h.377v.024h-.034c-.033 0-.058.01-.074.03-.012.012-.019.047-.019.102v.256h.093l.298-.412h.235zm-.627.795a.612.612 0 00.102.013.186.186 0 00.137-.052.18.18 0 00.052-.134.177.177 0 00-.064-.139c-.043-.037-.106-.055-.19-.055l-.015.001h-.022zm1.147.014a.282.282 0 00.092-.01.103.103 0 00.05-.04.3.3 0 00.03-.095h.024l-.009.193h-.679v-.024h.031c.036 0 .062-.009.078-.026.011-.013.017-.048.017-.103v-.573a.303.303 0 00-.008-.085.056.056 0 00-.028-.03.123.123 0 00-.059-.016h-.03v-.024h.678l.076.221h-.026a.5.5 0 00-.083-.12.154.154 0 00-.065-.042.394.394 0 00-.108-.01h-.15a.108.108 0 00-.049.007.035.035 0 00-.018.02.247.247 0 00-.005.071v.29h.193a.191.191 0 00.082-.013.077.077 0 00.038-.035.354.354 0 00.018-.083h.024v.307h-.024c-.002-.05-.015-.086-.037-.106-.017-.015-.05-.022-.1-.022h-.194v.348zm-.11.334l-.069-.224h.022l.192.224zm.883-.334a.283.283 0 00.101-.013.136.136 0 00.056-.042.282.282 0 00.04-.09h.022l-.009.193h-.655v-.024h.031a.117.117 0 00.06-.016.054.054 0 00.026-.028.27.27 0 00.01-.088v-.569c0-.053-.006-.086-.017-.1-.016-.02-.043-.032-.079-.032h-.03v-.024h.377v.024h-.032a.117.117 0 00-.06.016c-.014.008-.023.017-.027.028a.279.279 0 00-.008.088v.277h.16a.141.141 0 00.066-.012.09.09 0 00.036-.036.192.192 0 00.013-.076h.024v.298h-.024c-.006-.048-.017-.08-.034-.096s-.044-.024-.08-.024h-.16v.346zm.806 0a.282.282 0 00.092-.01.103.103 0 00.05-.04.3.3 0 00.03-.095h.024l-.01.193h-.678v-.024h.031c.036 0 .062-.009.078-.026.011-.013.017-.048.017-.103v-.573a.303.303 0 00-.008-.085.056.056 0 00-.028-.03.123.123 0 00-.059-.016h-.03v-.024h.677l.076.221h-.026a.474.474 0 00-.082-.12.154.154 0 00-.065-.042.399.399 0 00-.108-.01h-.15a.105.105 0 00-.049.007.035.035 0 00-.018.02.232.232 0 00-.006.071v.29h.194a.191.191 0 00.082-.013.077.077 0 00.038-.035.354.354 0 00.018-.083h.024v.307h-.024c-.002-.05-.015-.086-.037-.106-.017-.015-.05-.022-.1-.022h-.195v.348zm.357.048l-.01-.207h.024a.19.19 0 00.03.095.12.12 0 00.057.048.292.292 0 00.087.01h.106v-.674c0-.05-.005-.08-.014-.095-.016-.022-.042-.034-.079-.034h-.032v-.024h.374v.024h-.03c-.035 0-.06.01-.077.028-.01.013-.017.047-.017.101v.673h.124a.186.186 0 00.088-.018.13.13 0 00.053-.056.225.225 0 00.02-.078h.025l-.01.207zm-5.821 1.462a.185.185 0 00.115-.033.355.355 0 00.059-.06v-.611c0-.05-.004-.081-.014-.095-.015-.022-.042-.034-.08-.034h-.03v-.024h.306v.024h-.031c-.034 0-.06.009-.076.028-.012.013-.017.047-.017.1v.542l.58-.709h.024v.742c0 .05.004.081.014.095.015.024.042.035.079.035h.03v.024h-.305v-.024h.03c.035 0 .06-.01.076-.027.012-.014.018-.047.018-.102v-.508l-.538.66h-.24zm1.182-.071a.445.445 0 01-.144-.342c0-.137.042-.248.125-.335a.405.405 0 01.304-.13c.12 0 .224.044.308.133a.464.464 0 01.126.333.45.45 0 01-.125.326.421.421 0 01-.594.015m.481-.021c.06-.075.09-.187.09-.338 0-.139-.028-.24-.082-.305a.257.257 0 00-.205-.097c-.077 0-.14.03-.187.09a.525.525 0 00-.091.332c0 .14.03.246.088.319a.235.235 0 00.19.088.24.24 0 00.197-.09m1.202-.74a.283.283 0 00-.118.037.452.452 0 00-.107.115l-.182.253a.3.3 0 01.164.084c.036.04.053.087.053.14a.194.194 0 01-.046.132.24.24 0 01-.113.076.802.802 0 01-.207.02h-.32v-.024h.032c.034 0 .06-.01.076-.03.012-.012.018-.046.018-.102v-.57c0-.05-.005-.082-.014-.095-.016-.025-.043-.037-.08-.037h-.033v-.024h.377v.024h-.034c-.033 0-.058.01-.074.03-.012.013-.018.048-.018.103v.256l.02-.002h.018l.054.001.298-.412h.235zm-.626.795a.52.52 0 00.102.013.186.186 0 00.136-.052.179.179 0 00.052-.134.173.173 0 00-.063-.14.293.293 0 00-.19-.055l-.015.001h-.022zm1.193-.82l.34.742v-.588c0-.05-.006-.081-.015-.095-.015-.022-.042-.034-.079-.034h-.03v-.024h.373v.024h-.03c-.036 0-.06.009-.077.028-.012.013-.018.047-.018.1v.575c0 .05.005.081.014.095.016.024.042.035.08.035h.031v.024h-.25l-.314-.69-.32.69h-.249v-.024a.169.169 0 00.078-.013.074.074 0 00.034-.031.215.215 0 00.014-.085v-.575c0-.05-.006-.081-.016-.095-.014-.022-.041-.034-.078-.034h-.031v-.024h.305v.024h-.03c-.035 0-.06.009-.077.028-.01.013-.016.047-.016.1v.589l.34-.741zm1.292.17a.286.286 0 00.026-.091c0-.014-.007-.026-.019-.036-.012-.01-.036-.016-.07-.018v-.024h.347v.024a.138.138 0 00-.085.03.338.338 0 00-.067.115l-.306.732h-.022l-.31-.725a.397.397 0 00-.074-.126c-.01-.011-.034-.02-.071-.026v-.024h.277v.024c-.042.003-.07.01-.082.02a.044.044 0 00-.02.036c0 .016.008.042.023.076l.059.139h.34zm-.374.174l.153.356.15-.356zm.668.514a.185.185 0 00.115-.033.35.35 0 00.06-.06v-.611c0-.05-.006-.081-.016-.095-.015-.022-.042-.034-.08-.034h-.03v-.024h.306v.024h-.03c-.035 0-.06.009-.077.028-.01.013-.017.047-.017.1v.542l.58-.709h.024v.742c0 .05.005.081.014.095.016.024.042.035.08.035h.031v.024h-.307v-.024h.03c.035 0 .06-.01.076-.027.013-.014.02-.047.02-.102v-.508l-.54.66h-.239zm1.409-.857c.17 0 .297.046.381.138a.443.443 0 01.113.306.46.46 0 01-.064.242.356.356 0 01-.165.15.774.774 0 01-.3.045h-.36v-.024h.035c.033 0 .058-.01.075-.03.012-.012.018-.047.018-.102v-.57c0-.05-.005-.082-.014-.096-.016-.024-.042-.036-.08-.036h-.033v-.024zm-.143.813c.05.011.095.018.134.018a.332.332 0 00.254-.106.402.402 0 00.1-.287.402.402 0 00-.1-.287.326.326 0 00-.25-.105.669.669 0 00-.137.018zm1.079-.79a.124.124 0 00-.06.016.058.058 0 00-.026.028.273.273 0 00-.01.089v.569c0 .053.007.086.018.1.016.02.042.032.078.032h.032v.024h-.378v-.024h.032a.117.117 0 00.06-.016.054.054 0 00.026-.028.27.27 0 00.009-.088v-.57c0-.053-.006-.086-.016-.1-.016-.02-.043-.032-.08-.032h-.03v-.024h.377v.024zm.597.81a.278.278 0 00.091-.01.102.102 0 00.05-.04.318.318 0 00.03-.095h.026l-.01.193h-.68v-.024h.032c.036 0 .062-.01.077-.026.012-.013.018-.047.018-.103v-.572a.32.32 0 00-.008-.086.058.058 0 00-.028-.031.12.12 0 00-.06-.016h-.03v-.024h.678l.077.221h-.027a.493.493 0 00-.082-.12.149.149 0 00-.066-.041.389.389 0 00-.107-.011h-.15a.11.11 0 00-.05.008.038.038 0 00-.017.02.294.294 0 00-.006.07v.29h.194a.191.191 0 00.081-.013.073.073 0 00.038-.034.287.287 0 00.02-.083h.023v.306h-.023c-.004-.05-.016-.086-.039-.105-.016-.016-.05-.023-.1-.023h-.194v.348zm-8.063.652c.171 0 .298.046.382.138a.441.441 0 01.112.307.456.456 0 01-.063.241.358.358 0 01-.166.15.774.774 0 01-.3.045h-.359v-.024h.034c.033 0 .058-.01.075-.029.012-.014.018-.048.018-.103v-.569c0-.05-.005-.082-.014-.096-.016-.024-.042-.036-.079-.036h-.034v-.024zm-.142.812c.05.013.094.02.133.02a.335.335 0 00.255-.106c.066-.07.1-.166.1-.288a.406.406 0 00-.1-.287.33.33 0 00-.25-.106.68.68 0 00-.138.02zm1.22.021a.314.314 0 00.091-.01.103.103 0 00.05-.04.3.3 0 00.03-.095h.024l-.009.193h-.679v-.024h.031c.036 0 .062-.009.078-.026.011-.013.017-.048.017-.104v-.572a.298.298 0 00-.008-.085.053.053 0 00-.028-.03.12.12 0 00-.059-.016h-.03v-.024h.678l.076.221h-.026a.531.531 0 00-.083-.122.165.165 0 00-.065-.04.45.45 0 00-.108-.01h-.15a.108.108 0 00-.049.007.032.032 0 00-.018.02.247.247 0 00-.005.071v.29h.193a.191.191 0 00.082-.013.079.079 0 00.038-.036.329.329 0 00.018-.082h.024v.306h-.024c-.002-.05-.015-.085-.037-.105-.017-.015-.05-.023-.1-.023h-.194v.35zm1.346-.709a.173.173 0 00-.075-.053.459.459 0 00-.142-.015h-.064a.445.445 0 00-.1.006.048.048 0 00-.025.02.183.183 0 00-.01.075v.553c0 .052.003.085.01.1a.077.077 0 00.038.034.256.256 0 00.1.013v.024h-.4v-.024h.033c.033 0 .058-.01.075-.029.012-.014.02-.048.02-.103v-.568c0-.05-.006-.083-.015-.097-.016-.024-.043-.036-.08-.036h-.033v-.024h.682l.075.24-.02.004a.423.423 0 00-.069-.12m.793.044a.276.276 0 00.026-.09.044.044 0 00-.019-.036c-.012-.01-.036-.016-.07-.018v-.024h.347v.024a.133.133 0 00-.084.03.313.313 0 00-.068.114l-.306.733h-.023l-.31-.725a.405.405 0 00-.073-.127c-.01-.01-.035-.018-.072-.025v-.024h.278v.024c-.043.003-.07.01-.083.02-.013.01-.019.022-.019.035 0 .017.007.043.022.077l.06.14h.341zm-.374.175l.153.356.15-.356zm1.857-.319a.27.27 0 00-.117.036.46.46 0 00-.107.116l-.182.253a.294.294 0 01.164.084c.036.04.053.087.053.141a.196.196 0 01-.046.131.238.238 0 01-.113.075.75.75 0 01-.207.021h-.32v-.024h.032c.034 0 .06-.01.076-.029.012-.013.018-.048.018-.103v-.569c0-.05-.005-.082-.014-.096-.016-.024-.043-.036-.08-.036h-.033v-.024h.377v.024h-.034c-.033 0-.058.01-.074.03-.012.012-.018.046-.018.102v.256h.02l.018-.002.054.002.298-.412h.235zm-.625.795a.592.592 0 00.102.012.187.187 0 00.137-.05.183.183 0 00.051-.135.172.172 0 00-.064-.139c-.042-.037-.106-.055-.19-.055h-.015l-.02.001zm1.146.014a.309.309 0 00.092-.01.098.098 0 00.05-.04.3.3 0 00.03-.095h.025l-.01.193h-.679v-.024h.031c.037 0 .063-.009.078-.026.012-.013.017-.048.017-.104v-.572a.31.31 0 00-.007-.085.055.055 0 00-.029-.03.12.12 0 00-.059-.016h-.03v-.024h.678l.076.221h-.026a.501.501 0 00-.083-.122.158.158 0 00-.065-.04.444.444 0 00-.108-.01h-.149a.11.11 0 00-.05.007.04.04 0 00-.018.02.294.294 0 00-.005.071v.29h.193a.188.188 0 00.082-.013.08.08 0 00.04-.036.329.329 0 00.017-.082h.024v.306h-.024c-.003-.05-.015-.085-.038-.105-.017-.015-.05-.023-.1-.023h-.194v.35zm-.11.334l-.069-.224h.022l.192.224zm1.21-.266a.094.094 0 00-.012-.045.026.026 0 00-.02-.01.187.187 0 00-.049.013.46.46 0 01-.199.042.445.445 0 01-.41-.252.475.475 0 01-.057-.222c0-.107.034-.202.1-.283.088-.11.217-.164.388-.164a.618.618 0 01.31.078v.27a.22.22 0 00.012.094c.012.023.035.034.07.034h.015v.025h-.34v-.025a.183.183 0 00.074-.01.067.067 0 00.031-.032.233.233 0 00.01-.087v-.254a.361.361 0 00-.182-.049.31.31 0 00-.162.048.344.344 0 00-.127.153.527.527 0 00-.049.23c0 .103.024.192.073.267a.288.288 0 00.256.133c.082 0 .15-.025.202-.076a.373.373 0 00.09-.156h.022l-.023.278zm.56-.877a.114.114 0 00-.06.016.052.052 0 00-.027.028.27.27 0 00-.009.088v.57c0 .052.006.085.017.1.016.02.042.031.078.031h.032v.024h-.377v-.024h.031a.128.128 0 00.06-.016.058.058 0 00.026-.028.273.273 0 00.01-.088v-.569c0-.053-.006-.086-.017-.1-.016-.02-.043-.032-.079-.032h-.03v-.024h.376v.024zm.267.762a.443.443 0 01-.143-.342c0-.137.041-.249.123-.335a.409.409 0 01.306-.129c.12 0 .222.044.306.132.085.09.127.2.127.334a.45.45 0 01-.126.325.4.4 0 01-.297.13.417.417 0 01-.296-.115m.481-.02c.06-.075.09-.187.09-.338 0-.139-.028-.24-.08-.305a.256.256 0 00-.206-.097.226.226 0 00-.187.088.52.52 0 00-.093.332.5.5 0 00.09.32.234.234 0 00.19.087c.083 0 .15-.029.196-.088m.285.092a.185.185 0 00.115-.033.35.35 0 00.06-.059v-.612c0-.05-.006-.08-.016-.095-.015-.023-.042-.034-.08-.034h-.03v-.024h.306v.024h-.03c-.035 0-.06.01-.077.027-.01.014-.017.047-.017.102v.542l.58-.709h.024v.742c0 .05.005.081.014.095.016.022.042.034.08.034h.031v.024h-.307v-.024h.03c.035 0 .06-.009.076-.028.013-.013.02-.047.02-.1v-.509l-.54.661h-.239zm-5.747 1.027a.59.59 0 01.07-.005c.085 0 .152.023.2.068a.231.231 0 01.071.175.21.21 0 01-.047.137.257.257 0 01-.115.083.574.574 0 01-.186.024H97.9v-.024h.033c.034 0 .06-.01.076-.029.011-.013.017-.048.017-.103v-.569c0-.05-.004-.082-.013-.095-.016-.025-.043-.037-.08-.037H97.9v-.024h.377v.024h-.033c-.034 0-.059.01-.075.03-.012.012-.018.047-.018.102v.257a.882.882 0 01.08-.014m-.08.417a.39.39 0 00.085.012.194.194 0 00.097-.024.164.164 0 00.067-.073.257.257 0 00.023-.107c0-.055-.016-.1-.049-.135a.155.155 0 00-.117-.052.42.42 0 00-.106.013zm1.38-.792a.27.27 0 00-.118.037.435.435 0 00-.107.115l-.182.253a.294.294 0 01.164.084c.035.04.053.087.053.141a.195.195 0 01-.047.131.222.222 0 01-.113.075.738.738 0 01-.206.021h-.32v-.024h.032c.033 0 .058-.01.075-.029.012-.013.018-.048.018-.103v-.569c0-.05-.004-.082-.013-.095-.016-.025-.043-.037-.08-.037h-.033v-.024h.377v.024h-.034c-.033 0-.058.01-.074.03-.012.012-.019.047-.019.102v.256h.093l.298-.412h.235zm-.627.795a.612.612 0 00.102.013.186.186 0 00.137-.052.18.18 0 00.052-.134.177.177 0 00-.064-.139c-.043-.037-.106-.055-.19-.055l-.015.001h-.022zm1.147.014a.282.282 0 00.092-.01.103.103 0 00.05-.04.3.3 0 00.03-.095h.024l-.009.193h-.679v-.024h.031c.036 0 .062-.009.078-.026.011-.013.017-.048.017-.103v-.573a.303.303 0 00-.008-.085.056.056 0 00-.028-.03.123.123 0 00-.059-.016h-.03v-.024h.678l.076.221h-.026a.5.5 0 00-.083-.12.154.154 0 00-.065-.042.394.394 0 00-.108-.01h-.15a.108.108 0 00-.049.007.035.035 0 00-.018.02.247.247 0 00-.005.071v.29h.193a.191.191 0 00.082-.013.077.077 0 00.038-.035.354.354 0 00.018-.083h.024v.307h-.024c-.002-.05-.015-.086-.037-.106-.017-.015-.05-.022-.1-.022h-.194v.348zm-.11.334l-.069-.224h.022l.192.224zm.883-.334a.283.283 0 00.101-.013.136.136 0 00.056-.042.282.282 0 00.04-.09h.022l-.009.193h-.655v-.024h.031a.117.117 0 00.06-.016.054.054 0 00.026-.028.27.27 0 00.01-.088v-.569c0-.053-.006-.086-.017-.1-.016-.02-.043-.032-.079-.032h-.03v-.024h.377v.024h-.032a.117.117 0 00-.06.016c-.014.008-.023.017-.027.028a.279.279 0 00-.008.088v.277h.16a.141.141 0 00.066-.012.09.09 0 00.036-.036.192.192 0 00.013-.076h.024v.298h-.024c-.006-.048-.017-.08-.034-.096s-.044-.024-.08-.024h-.16v.346zm.806 0a.282.282 0 00.092-.01.103.103 0 00.05-.04.3.3 0 00.03-.095h.024l-.01.193h-.678v-.024h.031c.036 0 .062-.009.078-.026.011-.013.017-.048.017-.103v-.573a.303.303 0 00-.008-.085.056.056 0 00-.028-.03.123.123 0 00-.059-.016h-.03v-.024h.677l.076.221h-.026a.474.474 0 00-.082-.12.154.154 0 00-.065-.042.399.399 0 00-.108-.01h-.15a.105.105 0 00-.049.007.035.035 0 00-.018.02.232.232 0 00-.006.071v.29h.194a.191.191 0 00.082-.013.077.077 0 00.038-.035.354.354 0 00.018-.083h.024v.307h-.024c-.002-.05-.015-.086-.037-.106-.017-.015-.05-.022-.1-.022h-.195v.348zm.357.048l-.01-.207h.024a.19.19 0 00.03.095.12.12 0 00.057.048.292.292 0 00.087.01h.106v-.674c0-.05-.005-.08-.014-.095-.016-.022-.042-.034-.079-.034h-.032v-.024h.374v.024h-.03c-.035 0-.06.01-.077.028-.01.013-.017.047-.017.101v.673h.124a.186.186 0 00.088-.018.13.13 0 00.053-.056.225.225 0 00.02-.078h.025l-.01.207zm6.887 2.961l-.001.284.079.002c.152 0 .19-.022.195-.108h.053c-.001.024-.003.07-.003.147 0 .074 0 .124.003.148h-.053c-.008-.08-.055-.104-.208-.104-.027 0-.045 0-.066.002v.174c0 .088 0 .107.004.165.035.002.078.003.11.003.175 0 .224-.032.234-.147h.053c-.003.036-.001.071-.001.107v.132h-.687v-.042c.05-.006.076-.024.089-.064a.39.39 0 00.017-.146v-.426c0-.078 0-.126-.005-.17-.006-.067-.035-.106-.101-.112v-.042c.07.003.14.005.21.005.072 0 .143-.004.213-.005.05-.002.099-.004.149-.004.08 0 .095.004.109.026.016.03.04.116.06.222l-.058.011c-.033-.123-.09-.159-.248-.159a.506.506 0 00-.101.007c-.036.01-.046.031-.046.094m-.754.419c-.079.05-.128.099-.128.17 0 .084.066.142.158.142.101 0 .168-.06.188-.168h.056c-.002.042-.002.057-.002.11 0 .048 0 .06.002.096a.507.507 0 01-.24.054c-.196 0-.32-.108-.32-.277 0-.131.062-.203.167-.273l.155-.101c.066-.042.112-.088.112-.155 0-.084-.07-.14-.176-.14-.113 0-.19.063-.226.185l-.056-.01a2.53 2.53 0 00.026-.216.615.615 0 01.248-.051c.206 0 .346.112.346.275 0 .12-.067.197-.186.276zm-.564-.242v.253c0 .135 0 .177.004.22.006.068.038.108.102.113v.042h-.036c-.036-.003-.09-.003-.16-.003s-.124 0-.162.002l-.035.001v-.042c.05-.006.078-.024.091-.064a.402.402 0 00.015-.146l.001-.123v-.253c0-.149 0-.176-.005-.22-.007-.07-.033-.106-.102-.112v-.042l.035.001c.038.002.091.002.162.002.07 0 .124 0 .16-.002h.036v.041c-.05.005-.076.024-.09.063-.015.04-.016.073-.016.27m-.452-.27a1.52 1.52 0 00-.079.181l-.208.542c-.02.054-.05.128-.065.174h-.1a5.499 5.499 0 00-.135-.383l-.14-.364c-.044-.114-.07-.167-.1-.192-.016-.015-.023-.018-.045-.021v-.042c.056.001.076.003.145.003.071 0 .091-.002.148-.003v.042c-.047.003-.066.023-.066.067 0 .025.012.074.033.142l.03.087h.283l.046-.144a.28.28 0 00.02-.081c0-.042-.028-.068-.076-.071v-.042l.034.001c.037.002.09.002.16.002.066 0 .12 0 .157-.002l.035-.001v.042c-.035.009-.056.027-.077.063m-.548.325c.022.073.074.205.113.308l.104-.308zm-1.049.118c0 .235.127.376.334.376.134 0 .218-.057.242-.164h.057a2.486 2.486 0 000 .216.903.903 0 01-.286.044c-.336 0-.541-.196-.541-.52 0-.15.049-.28.14-.375a.446.446 0 01.303-.14l-.03-.122.033-.009a.05.05 0 00.033.012c.022 0 .036-.018.036-.048 0-.038-.028-.059-.07-.059a.141.141 0 00-.052.013l-.021-.059a.232.232 0 01.088-.02c.1 0 .164.057.164.138 0 .05-.037.09-.092.09-.007 0-.022.002-.03 0l.015.061c.116 0 .2.015.295.054.006.08.02.165.032.216l-.055.013c-.034-.12-.118-.184-.241-.184-.205 0-.354.196-.354.467m-.535.105v-.327c-.122.156-.252.308-.396.487-.101.126-.129.156-.147.19-.048-.005-.066-.005-.126-.005-.062 0-.08 0-.129.004v-.042c.045-.005.064-.014.079-.038.021-.033.028-.063.028-.188v-.316c0-.097-.002-.149-.004-.213-.003-.078-.005-.16-.103-.164v-.04l.158.001c.052 0 .104 0 .156-.002v.041c-.042.003-.065.014-.08.044a.302.302 0 00-.023.123 9.47 9.47 0 00-.006.337v.098c0 .097.002.078.002.11l.3-.378s.199-.248.294-.375h.1c0 .02-.004.074-.004.108v.23c0 .101.001.311.005.446.003.078.006.104.023.131.02.036.042.043.082.045v.042c-.06-.004-.081-.004-.156-.004s-.096 0-.156.004v-.042c.054-.008.083-.032.092-.08a1.12 1.12 0 00.011-.227m-.962-.548a1.656 1.656 0 00-.08.181l-.207.542c-.02.054-.05.128-.065.174h-.1a6.072 6.072 0 00-.135-.383l-.14-.364c-.044-.114-.072-.167-.1-.192a.066.066 0 00-.045-.021v-.042c.055.001.076.003.145.003.071 0 .091-.002.147-.003v.042c-.046.003-.066.023-.066.067a.59.59 0 00.034.142l.03.087h.282c.017-.051.03-.088.047-.144a.28.28 0 00.02-.081c0-.042-.029-.068-.076-.071v-.042l.034.001c.037.002.09.002.16.002.066 0 .12 0 .156-.002l.036-.001v.042c-.036.009-.057.027-.077.063m-.549.325c.023.073.075.205.114.308l.104-.308zm-.411-.35a1.04 1.04 0 00-.13.18c-.053.083-.097.155-.153.227.136.05.215.15.215.275a.25.25 0 01-.093.197c-.05.036-.11.05-.21.05l-.16-.004c-.092-.004-.115-.004-.192-.004-.029 0-.058-.002-.088 0v-.041c.05-.006.081-.022.092-.063a1.2 1.2 0 00.016-.27v-.253c0-.15-.002-.175-.007-.221a.14.14 0 00-.029-.081c-.017-.02-.035-.027-.072-.03v-.042l.035.002h.32l.033-.002v.042c-.048.005-.074.024-.089.063a.437.437 0 00-.015.148l-.002.12v.08h.064a4.69 4.69 0 00.158-.262c.03-.051.081-.141.13-.174.031-.021.062-.028.116-.028a.58.58 0 01.122.01v.043a.11.11 0 00-.06.038m-.465.458a.45.45 0 00-.065.005l.002.374a.392.392 0 00.088.01c.102 0 .177-.081.177-.195 0-.117-.08-.194-.202-.194m-.516.382c-.002.04-.002.051-.002.124 0 .076 0 .134.003.17h-.82v-.052c.06-.007.093-.029.11-.076a.517.517 0 00.019-.179v-.454c0-.18 0-.213-.005-.268-.007-.08-.043-.127-.123-.134v-.05l.042.001.196.001h.194l.043-.003v.051c-.115.007-.122.094-.126.194-.002.048-.002.091-.002.131v.204c.034.002.046.002.079.002.187 0 .227-.022.24-.13h.064l-.003.202c0 .052.003.104.003.155h-.064c-.01-.098-.06-.127-.225-.127l-.094.003c0 .198 0 .286.003.411.045.004.084.005.125.005.202 0 .276-.05.278-.18zm-1.819-.723l-.002.284.08.002c.151 0 .191-.022.195-.108h.053c0 .024-.003.07-.003.147 0 .074 0 .124.003.148h-.053c-.009-.08-.056-.104-.208-.104-.027 0-.045 0-.067.002v.174c0 .088.002.107.005.165.035.002.077.003.11.003.175 0 .224-.032.234-.147h.053c-.003.036-.002.071-.002.107l.002.132h-.689v-.042c.05-.006.077-.024.09-.064a.39.39 0 00.017-.146v-.426c0-.078 0-.126-.005-.17-.006-.067-.036-.106-.102-.112v-.042c.071.003.142.005.212.005.071 0 .142-.004.212-.005.05-.002.098-.004.148-.004.081 0 .096.004.11.026.016.03.04.116.06.222l-.058.011c-.033-.123-.089-.159-.248-.159a.518.518 0 00-.102.007c-.035.01-.045.031-.045.094m-.646.467v-.149c0-.17-.003-.216-.022-.28-.029-.1-.125-.152-.223-.152a.218.218 0 00-.167.07c-.045.054-.05.104-.05.362 0 .095 0 .188.003.283.002.065.007.096.021.12.014.024.036.036.082.042v.042h-.034c-.038-.003-.093-.003-.163-.003s-.125 0-.163.002l-.034.001v-.042c.062-.006.09-.028.098-.083.014-.075.01-.154.01-.23 0-.054-.004-.124-.004-.287 0-.159.04-.247.143-.315a.384.384 0 01.23-.063c.147 0 .258.051.326.152a.37.37 0 01.06.231l-.002.241c0 .094.001.144.004.208.003.06.01.09.027.113.016.02.036.028.07.033v.042c-.06-.003-.08-.003-.156-.003-.074 0-.094 0-.153.003v-.042a.098.098 0 00.077-.046c.016-.026.02-.079.02-.25"/><path d="M99.13 281.334a.351.351 0 00-.169-.043c-.097 0-.2.04-.35.132a2.74 2.74 0 01-.158.088.54.54 0 01.274.487c0 .297-.202.496-.505.496-.312 0-.525-.22-.525-.54 0-.3.197-.498.494-.498a.67.67 0 01.117.008c.067-.057.16-.12.227-.159a.72.72 0 01.353-.1c.1 0 .19.025.261.076zm-.9.222c-.193 0-.345.206-.345.467 0 .215.13.37.308.37.194 0 .346-.204.346-.463 0-.218-.128-.374-.31-.374m-.787.292v.253c0 .135 0 .177.004.22.006.068.038.108.102.113v.042h-.036c-.036-.003-.09-.003-.16-.003-.071 0-.124 0-.162.002l-.035.001v-.042c.05-.006.078-.024.09-.064a.402.402 0 00.016-.146v-.376c0-.149 0-.176-.004-.22-.007-.07-.033-.106-.102-.112v-.042l.035.001c.038.002.09.002.162.002.07 0 .124 0 .16-.002h.036v.041c-.05.005-.076.024-.09.063-.015.04-.016.073-.016.27m-.816.001v.25c0 .171 0 .195.004.22.009.073.04.113.116.113v.043l-.036-.002c-.04-.002-.095-.002-.166-.002-.074 0-.13 0-.168.002l-.038.002v-.043c.05-.006.079-.023.092-.063.015-.04.016-.067.016-.27v-.16l-.001-.213c0-.11-.008-.15-.034-.181-.016-.02-.035-.026-.073-.03v-.042c.048.003.098.005.173.005.1 0 .183-.003.274-.006.036-.001.074-.003.112-.003.073 0 .09.004.104.025.016.026.044.134.06.22l-.056.016c-.015-.063-.045-.108-.087-.131-.036-.021-.081-.03-.162-.03-.062 0-.093.008-.11.025-.02.02-.02.046-.02.255m-.694.175c.14.037.21.114.21.23 0 .156-.123.223-.26.223-.084 0-.212-.005-.297-.005-.095 0-.134 0-.202.003v-.042c.05-.006.077-.024.09-.064.016-.038.017-.098.017-.238v-.284c0-.149-.001-.176-.006-.22-.005-.07-.032-.106-.101-.112v-.042l.018.001c.04.004.1.004.134.004.079 0 .16-.007.239-.007.15 0 .228.018.298.072a.247.247 0 01.098.21c0 .148-.082.24-.238.271m-.261.37c.027 0 .053.003.08.003.129 0 .206-.062.206-.166 0-.108-.083-.169-.227-.169a.525.525 0 00-.064.003l.005.33m.115-.842c-.062 0-.097.018-.11.055a.561.561 0 00-.012.16v.088c0 .07 0 .077.002.117.038.003.064.005.089.005.138 0 .227-.089.227-.229 0-.126-.071-.196-.196-.196m-.761.584v-.149c0-.17-.003-.216-.023-.28-.028-.1-.124-.152-.223-.152a.216.216 0 00-.166.07c-.045.054-.052.104-.052.362 0 .095.002.188.005.283.002.065.007.096.021.12.014.024.036.036.081.042v.042h-.033c-.038-.003-.093-.003-.163-.003s-.126 0-.164.002l-.033.001v-.042c.062-.006.09-.028.098-.083.014-.075.01-.154.01-.23 0-.054-.004-.124-.004-.287 0-.159.04-.247.143-.315a.383.383 0 01.23-.063c.146 0 .258.051.326.152a.377.377 0 01.058.231v.241c0 .094 0 .144.004.208.003.06.01.09.026.113.016.02.037.028.07.033v.042c-.06-.003-.08-.003-.155-.003-.074 0-.094 0-.153.003v-.042a.098.098 0 00.077-.046c.015-.026.02-.079.02-.25m-1.487.086v-.376c0-.15 0-.175-.004-.22-.007-.067-.036-.106-.102-.112v-.042l.036.002h.321l.037-.002v.042c-.05.005-.077.024-.09.063-.016.04-.018.073-.018.269v.263c0 .094.005.186.005.28a.306.306 0 00.056.006c.112 0 .192-.086.192-.206 0-.114-.077-.184-.215-.192l.032-.077c.02-.002.027-.002.042-.002.194 0 .337.12.337.285 0 .174-.125.279-.334.279-.075 0-.15-.005-.225-.007-.047-.002-.082-.002-.108-.002-.063 0-.05 0-.067.002v-.043c.05-.006.076-.024.09-.063a.426.426 0 00.016-.147m-.716-.553v.284l.078.002c.152 0 .191-.022.195-.108h.053c0 .024-.003.07-.003.147 0 .074 0 .124.003.148h-.053c-.008-.08-.055-.104-.208-.104-.027 0-.045 0-.066.002v.174c0 .088.001.107.004.165.035.002.078.003.11.003.175 0 .224-.032.234-.147h.053c-.003.036 0 .071 0 .107v.132h-.688v-.042c.05-.006.076-.024.09-.064a.39.39 0 00.016-.146v-.426c0-.078 0-.126-.005-.17-.006-.067-.035-.106-.1-.112v-.042c.07.003.14.005.21.005.071 0 .142-.004.212-.005.05-.002.1-.004.15-.004.08 0 .095.004.108.026.016.03.04.116.06.222l-.057.011c-.034-.123-.09-.159-.249-.159a.506.506 0 00-.1.007c-.036.01-.047.031-.047.094"/></g><path d="M.547 3.302l.025.015.086-.081-.06-.012z" fill="#2e3192"/><g clip-path="url(#b)" transform="matrix(.35278 0 0 -.35278 -32.197 103.002)"><path d="M92.375 281.57a1.397 1.397 0 00-.158.218c-.063.1-.116.188-.184.275.164.062.26.183.26.332 0 .095-.044.19-.112.238-.06.044-.134.062-.254.062-.043 0-.098 0-.195-.005-.11-.005-.138-.005-.23-.005-.037 0-.072-.002-.108.002v-.05c.061-.009.098-.029.111-.078.012-.05.02-.105.02-.327v-.305c0-.18-.003-.213-.008-.268a.171.171 0 00-.036-.098c-.02-.023-.043-.033-.087-.036v-.05l.043.001h.386l.041-.002v.051c-.058.005-.09.028-.108.076a.533.533 0 00-.018.178l-.002.148v.096l.05-.002c.007 0 .016 0 .027.002.064-.096.131-.21.192-.318.035-.062.098-.17.156-.21.038-.027.075-.036.141-.036.055 0 .102.004.148.015v.051a.13.13 0 00-.075.045m-.56.555a.495.495 0 00-.079.005l.002.453a.458.458 0 00.106.015c.124 0 .215-.1.215-.239 0-.14-.098-.234-.245-.234" fill="#2e3192"/></g><path d="M.032 3.048h6.323v-.021H.032z" fill="#2e3192"/><g clip-path="url(#c)" transform="matrix(.35278 0 0 -.35278 -32.197 103.002)"><path d="M108.892 284.26c.183 0 .324.101.324.235 0 .074-.053.116-.144.116-.184 0-.344-.209-.344-.45 0-.098.048-.152.137-.152.073 0 .153.03.26.098l-.017.05c-.084-.055-.14-.08-.187-.08-.05 0-.076.04-.076.115a.43.43 0 00.005.07c.02-.002.032-.002.042-.002m.148.293c.038 0 .07-.033.07-.074 0-.093-.1-.165-.234-.165h-.014c.036.142.11.24.178.24m-.414.041h-.12l.037.171-.068-.015c-.028-.085-.061-.164-.158-.18l-.01-.048.076.002-.044-.217a3.382 3.382 0 00-.035-.15.506.506 0 01-.017-.107c0-.028.018-.042.048-.042.042 0 .119.02.194.051l-.004.042-.015-.004a.306.306 0 00-.066-.017c-.02 0-.03.012-.03.033a.64.64 0 00.019.11l.06.301.119-.003zm-.707-.058c.016 0 .024-.009.024-.028a.727.727 0 00-.029-.15l-.058-.238a.423.423 0 01-.012-.068c0-.027.019-.043.048-.043.04 0 .121.022.197.053l-.003.04a.284.284 0 00-.078-.02c-.022 0-.033.014-.033.035 0 .024.008.074.044.215l.021.087a.908.908 0 01.033.166c0 .018-.008.025-.03.025a.644.644 0 01-.194-.05l.004-.041.01.003c.03.009.043.014.056.014m.145.38a.086.086 0 01-.09-.089c0-.043.029-.071.074-.071.05 0 .085.038.085.091 0 .042-.026.069-.07.069m-.502-.834c-.02 0-.032.012-.032.034 0 .016.005.042.013.085.006.032.022.103.039.171.03.119.038.166.038.197 0 .03-.019.041-.066.041a.674.674 0 01-.298-.099v.011c0 .069-.01.088-.041.088a.605.605 0 01-.177-.048l.003-.041a.256.256 0 00.069.017c.022 0 .032-.016.032-.049 0-.026-.008-.073-.03-.173a6.404 6.404 0 00-.071-.301c.055.007.069.009.126.013.011.069.025.142.048.249a.528.528 0 00.04.137.292.292 0 00.098.083.234.234 0 00.107.041c.02 0 .03-.011.03-.033 0-.025-.01-.086-.053-.269l-.015-.061a.798.798 0 01-.022-.123c0-.027.017-.044.046-.044.033 0 .119.023.194.051l-.004.042a.259.259 0 00-.074-.019m-1.037.451c.018 0 .026-.017.026-.053a.947.947 0 00-.032-.18l-.031-.136-.036-.149c.056.007.07.01.125.011l.027.142c.032.163.053.262.108.325.018.022.04.035.06.035.037 0 .06-.019.06-.045a.355.355 0 00-.005-.057l.047-.005a.91.91 0 00.053.151.178.178 0 01-.095.04c-.041 0-.098-.032-.162-.085a.347.347 0 01-.008.063c-.003.014-.012.02-.026.02a.65.65 0 01-.186-.053l.004-.043.036.011c.014.004.027.008.035.008m-.549-.274c.184 0 .324.101.324.235 0 .074-.053.116-.144.116-.184 0-.345-.209-.345-.45 0-.098.05-.152.138-.152.074 0 .154.03.26.098l-.017.05c-.084-.055-.14-.08-.187-.08-.05 0-.076.04-.076.115a.43.43 0 00.006.07c.018-.002.031-.002.041-.002m.148.293a.073.073 0 00.07-.074c0-.093-.1-.165-.233-.165h-.014c.036.142.109.24.177.24m-.413.041h-.12l.036.171-.069-.015c-.027-.085-.06-.164-.157-.18l-.01-.048.075.002-.044-.217a2.405 2.405 0 00-.034-.15.46.46 0 01-.018-.107c0-.028.02-.042.05-.042.041 0 .118.02.193.051l-.004.042-.015-.004a.32.32 0 00-.066-.017c-.019 0-.029.012-.029.033a.64.64 0 00.018.11l.06.301.12-.003zm-.535-.492a.344.344 0 00-.078-.022c-.017 0-.026.022-.026.062 0 .063.038.25.089.417l.008.023a.727.727 0 01-.185.028c-.146 0-.242-.077-.32-.2a.585.585 0 01-.094-.279c0-.079.05-.125.136-.125.076 0 .154.028.259.09.013-.072.022-.088.047-.088s.095.021.168.05zm-.201.155c-.014-.055-.025-.085-.046-.105a.346.346 0 00-.181-.085c-.036 0-.058.026-.058.07 0 .078.039.197.093.286.049.082.106.126.164.126a.19.19 0 00.085-.023c-.012-.096-.034-.179-.057-.269m-.877.276c.018 0 .026-.017.026-.053a.947.947 0 00-.032-.18l-.031-.136c-.012-.05-.021-.094-.036-.149.056.007.07.01.124.011l.028.142c.032.163.053.262.107.325.019.022.04.035.062.035.035 0 .059-.019.059-.045a.355.355 0 00-.005-.057l.048-.005c.01.05.028.098.05.151a.176.176 0 01-.093.04c-.041 0-.098-.032-.163-.085a.347.347 0 01-.008.063c-.003.014-.011.02-.025.02a.663.663 0 01-.187-.053l.004-.043.036.011a.171.171 0 00.036.008m-.74.436c.06-.008.085-.035.085-.099a1.34 1.34 0 00-.032-.222l-.023-.115c-.03-.153-.037-.197-.057-.28a.375.375 0 00-.058-.152c-.02-.027-.045-.04-.088-.044l-.006-.031h.024c.019.002.125.002.182.002l.129-.002h.023l.006.03c-.06.007-.085.034-.085.095 0 .04.01.107.037.248l.019.097c.037.002.05.004.096.004.086 0 .114-.005.139-.024a.078.078 0 00.027-.061.129.129 0 00-.003-.025h.04c.013.096.032.19.055.285h-.04c-.03-.095-.061-.11-.22-.11l-.081.002.074.36.107.002c.108 0 .159-.01.186-.036a.098.098 0 00.027-.07.292.292 0 00-.003-.034h.04c.013.07.027.146.042.212h-.636zm-1.022-.69c.096 0 .174.08.174.179a.175.175 0 01-.174.177.175.175 0 01-.173-.177c0-.098.077-.178.173-.178m-2.92-.178a.344.344 0 00-.078-.022c-.016 0-.026.022-.026.062 0 .063.038.25.089.417l.008.023a.727.727 0 01-.185.028c-.146 0-.242-.077-.32-.2a.585.585 0 01-.094-.279c0-.079.05-.125.136-.125.076 0 .154.028.259.09.013-.072.02-.088.048-.088a.7.7 0 01.167.05zm-.201.155c-.014-.055-.025-.085-.046-.105a.346.346 0 00-.181-.085c-.036 0-.058.026-.058.07 0 .078.039.197.093.286.049.082.106.126.163.126a.191.191 0 00.086-.023c-.012-.096-.034-.179-.057-.269m-.484.337h-.19a.243.243 0 01-.096.016.244.244 0 01-.253-.244.15.15 0 01.067-.133c-.086-.048-.128-.088-.128-.12 0-.026.016-.037.087-.063-.117-.03-.188-.085-.188-.199 0-.125.095-.2.253-.2.192 0 .342.121.342.276 0 .085-.056.12-.17.156l-.115.037c-.063.021-.079.028-.079.044 0 .013.012.023.048.045a.239.239 0 01.077-.01c.143 0 .254.102.254.237a.163.163 0 01-.023.088l.097-.002zm-.436-.575c.06-.017.118-.038.167-.057.052-.02.073-.044.073-.079 0-.093-.114-.18-.239-.18-.104 0-.169.053-.169.132 0 .085.068.16.168.184m.1.237c-.056 0-.095.047-.095.116 0 .1.063.182.14.182.056 0 .092-.045.092-.118 0-.1-.06-.18-.137-.18m-.348.745h-.652l-.005-.032c.062-.008.084-.034.084-.098a1.23 1.23 0 00-.032-.223l-.022-.115-.058-.28a.387.387 0 00-.057-.151c-.02-.028-.046-.041-.09-.046l-.004-.031.2.002.199-.003c.05-.002.102-.003.152-.003.06 0 .079.004.093.02a.82.82 0 01.086.199l-.036.015c-.056-.126-.112-.155-.292-.155-.096 0-.122.013-.122.064a.97.97 0 00.022.16c.033.168.025.136.033.172.025 0 .05.003.12.003.119 0 .158-.02.158-.083l-.003-.025h.039c.009.075.034.198.054.283h-.04c-.014-.058-.046-.09-.1-.1a.936.936 0 00-.162-.008h-.053c.024.13.044.236.074.357.048.005.093.005.14.005.144 0 .195-.028.195-.108l-.003-.033h.042c.01.069.024.148.04.214" fill="#2e3192"/></g><path d="M2.265 2.412l.016.014.091-.074-.045-.011z" fill="#2e3192"/><g clip-path="url(#d)" transform="matrix(.35278 0 0 -.35278 -32.197 103.002)"><path d="M96.367 284.28c.096 0 .173.08.173.179a.175.175 0 01-.173.177.175.175 0 01-.174-.177c0-.098.077-.178.174-.178m-1.253-.021c.182 0 .322.101.322.235 0 .074-.052.116-.143.116-.184 0-.345-.209-.345-.45 0-.098.05-.152.139-.152.072 0 .152.03.258.098l-.015.05c-.085-.055-.143-.08-.188-.08-.05 0-.075.04-.075.115a.43.43 0 00.005.07c.018-.002.031-.002.041-.002m.148.293a.073.073 0 00.07-.074c0-.093-.1-.165-.233-.165h-.014c.036.142.109.24.177.24" fill="#2e3192"/></g><path d="M1.397 2.552l.016.014.09-.073-.045-.012z" fill="#2e3192"/><g clip-path="url(#e)" transform="matrix(.35278 0 0 -.35278 -32.197 103.002)"><path d="M94.847 284.595h-.119l.036.171-.069-.015c-.027-.085-.06-.164-.157-.18l-.01-.048.075.002-.044-.217a1.845 1.845 0 00-.035-.15.506.506 0 01-.017-.107c0-.028.02-.042.05-.042.041 0 .118.02.193.051l-.005.042-.014-.004a.32.32 0 00-.066-.017c-.019 0-.029.012-.029.033 0 .011.002.033.017.11l.061.301.118-.003zm-.849-.061c.017 0 .025-.017.025-.053a.917.917 0 00-.031-.18l-.031-.136-.036-.149c.055.007.069.01.124.011l.027.142c.032.163.054.262.108.325.018.022.04.035.061.035.036 0 .06-.019.06-.045 0-.019-.003-.039-.005-.057l.047-.005c.012.05.029.098.052.151a.179.179 0 01-.094.04c-.041 0-.098-.032-.163-.085a.347.347 0 01-.008.063c-.003.014-.012.02-.026.02a.658.658 0 01-.186-.053l.004-.043.036.011c.014.004.027.008.036.008m-.549-.274c.183 0 .323.101.323.235 0 .074-.052.116-.143.116-.184 0-.345-.209-.345-.45 0-.098.049-.152.137-.152.074 0 .154.03.26.098l-.016.05c-.084-.055-.141-.08-.187-.08-.05 0-.076.04-.076.115a.43.43 0 00.005.07c.019-.002.032-.002.042-.002m.147.293a.073.073 0 00.071-.074c0-.093-.1-.165-.234-.165h-.014c.036.142.109.24.177.24m-.589.057a.47.47 0 01-.24-.079c.004.021.008.044.022.107l.043.193c.025.11.032.144.032.161 0 .016-.011.024-.03.024a.64.64 0 01-.172-.04l-.017-.006v-.043a.262.262 0 00.064.015c.015 0 .025-.01.025-.028a.79.79 0 00-.021-.127c-.025-.12-.044-.205-.068-.312l-.075-.33a.41.41 0 01-.015-.089c0-.03.067-.048.179-.048.1 0 .167.02.223.07a.58.58 0 01.18.395c0 .092-.043.137-.13.137m-.09-.46a.172.172 0 00-.145-.083c-.057 0-.088.016-.088.044a1 1 0 00.03.17.471.471 0 00.057.166.24.24 0 00.087.068.21.21 0 00.098.032c.04 0 .062-.03.062-.086a.631.631 0 00-.1-.312m-.723.387c.016 0 .025-.009.025-.028a.808.808 0 00-.03-.15l-.058-.238a.423.423 0 01-.012-.068c0-.027.019-.043.047-.043a.67.67 0 01.199.053l-.003.04a.306.306 0 00-.08-.02c-.021 0-.032.014-.032.035 0 .024.008.074.044.215l.022.087a.956.956 0 01.032.166c0 .018-.008.025-.03.025a.649.649 0 01-.194-.05l.004-.041.01.003c.03.009.043.014.056.014m.145.38a.086.086 0 01-.09-.089c0-.043.03-.071.073-.071.051 0 .086.038.086.091 0 .042-.027.069-.07.069m-.919-.663a.398.398 0 00-.058-.152c-.02-.028-.046-.04-.089-.045l-.005-.03h.02a4.804 4.804 0 00.315 0c.07 0 .14-.005.21-.005.05 0 .072.005.085.023.017.023.05.098.084.195l-.038.014c-.053-.12-.113-.153-.275-.153-.092 0-.12.017-.12.075 0 .008.001.027.004.045.007.054.016.094.038.214l.02.1c.052.281.072.344.108.39.022.03.046.041.09.044l.006.033c-.01-.002-.019-.002-.023-.002h-.319c-.004 0-.012 0-.02.002l-.006-.033c.061-.007.084-.034.084-.098a1.41 1.41 0 00-.03-.222l-.024-.115c-.03-.15-.039-.199-.057-.28m8.466.615a.684.684 0 01.025.125c0 .015-.01.024-.031.024a.71.71 0 01-.193-.047l.003-.044a.208.208 0 00.063.015c.016 0 .024-.01.024-.026 0-.014-.008-.056-.026-.141-.038-.184-.087-.39-.131-.583a.672.672 0 01-.026-.14c0-.027.016-.043.043-.043.039 0 .128.025.2.054l-.002.04a.35.35 0 00-.08-.016c-.021 0-.03.01-.03.032s.007.066.02.133c.047.206.094.422.14.617m.227-.332c.016 0 .025-.009.025-.028a.808.808 0 00-.03-.15l-.058-.238a.39.39 0 01-.011-.068c0-.027.018-.043.047-.043.04 0 .122.022.198.053l-.003.04a.297.297 0 00-.08-.02c-.02 0-.032.014-.032.035 0 .024.009.074.045.215l.02.087a.908.908 0 01.034.166c0 .018-.008.025-.03.025a.656.656 0 01-.195-.05l.004-.041.01.003c.03.009.043.014.056.014m.128.22c.05 0 .087.038.087.091 0 .042-.027.07-.07.07a.086.086 0 01-.09-.09c0-.043.03-.07.074-.07m.579-.163h-.12l.036.171-.069-.015c-.027-.085-.06-.164-.157-.18l-.01-.048.075.002-.044-.217a2.405 2.405 0 00-.034-.15.46.46 0 01-.018-.107c0-.028.02-.042.05-.042.04 0 .118.02.193.051l-.005.042-.014-.004a.32.32 0 00-.066-.017c-.019 0-.029.012-.029.033 0 .011.002.033.017.11l.061.301.12-.003zm.266-.335c.183 0 .323.101.323.235 0 .074-.052.116-.143.116-.184 0-.345-.209-.345-.45 0-.098.049-.152.138-.152.073 0 .153.03.259.098l-.016.05c-.084-.055-.141-.08-.187-.08-.051 0-.076.04-.076.115a.43.43 0 00.005.07c.019-.002.032-.002.042-.002m.147.293a.073.073 0 00.07-.074c0-.093-.1-.165-.233-.165h-.014c.036.142.109.24.177.24" fill="#2e3192"/></g><path d="M3.503 2.552l.017.014.09-.073-.045-.012zm2.754 0l.017.014.09-.073-.045-.012z" fill="#2e3192"/><g clip-path="url(#f)" transform="matrix(.35278 0 0 -.35278 -32.197 103.002)" fill="#2e3192"><path d="M101.572 285.847h7.697v6.128h-6.343a.557.557 0 00.152-.154c.027-.042.068-.125.04-.182-.027-.069-.04-.18-.108-.208a.48.48 0 00-.287-.028.627.627 0 00-.164.028c.205-.084.396-.182.532-.377.014-.028.069-.042.124-.042.013 0 .013-.028.013-.042-.027-.028-.054-.042-.041-.083h.04c.069.027.056.167.15.125.069-.042.097-.14.056-.209a1.347 1.347 0 00-.164-.139.128.128 0 010-.098.426.426 0 00.068-.168c.04-.097.055-.209.096-.306.054-.21.109-.419.096-.628 0-.112-.055-.209-.014-.32.027-.112.096-.196.15-.294.055-.083.109-.139.15-.223.083-.139.233-.279.164-.447-.041-.097-.191-.083-.287-.138-.081-.07-.013-.182.028-.25.068-.127-.082-.21-.178-.253.028-.04.082-.028.096-.055.014-.07.082-.112.04-.18-.054-.085-.217-.127-.136-.252.055-.098.019-.207-.013-.308-.042-.125-.151-.18-.246-.209a.573.573 0 00-.26-.014.187.187 0 01-.082.028c-.232.028-.464.098-.696.098-.068-.014-.137-.028-.192-.056-.241-.178-.397-.469-.481-.744"/><path d="M103.045 289.424c.055-.014.137-.014.137-.042-.028-.111-.19-.14-.274-.251h-.04c-.04-.028-.028-.098-.069-.098-.04.015-.082 0-.123-.013.055-.057.123-.098.205-.085.014 0 .041-.027.041-.055 0 0 .014 0 .028.014.013 0 .027 0 .027-.014v-.055c-.04-.057-.11-.03-.164-.043a.597.597 0 01.314 0c.082.028 0 .168.055.238-.028 0 0 .04-.028.04.028.029.055.07.083.085.026 0 .067.013.081.04 0 .03-.055.044-.04.07.081.057.15.14.122.224-.013.042-.122.042-.19.07-.069.028-.15 0-.233-.014-.069 0-.137-.041-.205-.056-.096-.027-.177-.083-.26-.14.096.043.192.057.301.085.082 0 .152.02.232 0m-7.099-2.008a.052.052 0 00.01.002l-.01-.002"/><path d="M96.039 286.104c.068.028.15-.014.218 0 .042 0 .083 0 .124-.028-.13-.072-.248-.153-.365-.229h.706c.082.04.164.09.246.131a.88.88 0 01-.26-.125c-.013 0-.054-.014-.054.014.014.028.054.042.082.07.013 0 .027 0 .027-.014.437.35 1.038.264 1.544.446l.122.084c.069.027.124.097.205.14.11.083.19.18.232.32 0 .014-.013.028-.013.028a2.118 2.118 0 00-.601-.46c-.287-.154-.601-.126-.902-.168.014.028.04.028.069.028 0 .042.027.056.055.084h.04c.014 0 .014.028.027.028.028 0 .069.014.055.014-.041.056-.122-.042-.191 0 .027.028.014.07.04.083h.055c0 .028.028.056.028.056.205.125.396.223.587.335-.041 0-.068-.042-.11-.014.028 0 0 .041.028.041.15.043.274.126.424.182-.055 0-.096-.042-.15 0 .027.014.04.042.08.042v.042c0 .013.015.013.029.013-.014 0-.028.015-.028.015.014.027.055.013.082.041-.013 0-.041 0-.041.014.04.056.11.07.178.084-.014.028-.054 0-.054.028 0 .014.013.014.027.014h-.027c-.028.014-.014.042-.014.055.082.098.082.224.123.336-.014 0-.028 0-.028.013-.136-.153-.355-.209-.56-.265h-.068a.278.278 0 00-.232.014c-.055.028-.082.07-.137.112-.11.07-.218.126-.341.168-.342.11-.697.166-1.052.153.15.083.316.09.479.14.23.07.45.153.696.138-.041.015-.096 0-.137 0-.191.015-.382-.042-.587-.083-.137-.028-.26-.084-.396-.112-.082-.028-.123-.11-.218-.098v.043c.136.167.3.334.518.348.246.042.478 0 .724-.028.177-.014.342-.055.519-.097.069 0 .082-.112.137-.126.082-.028.163 0 .245-.055 0 .027-.013.055 0 .083.055.056.124-.014.178.014.11.07-.095.195-.15.293 0 .014.014.028.014.028.109-.098.19-.21.327-.279.069-.029.232-.07.206.014-.07.153-.206.278-.315.418v.056c-.027 0-.027.014-.041.027v.056c-.055.03-.041.084-.068.126-.041.07-.014.167-.041.251a1.56 1.56 0 00-.055.237c-.041.237-.096.446-.122.67-.028.264.15.474.272.711.096.167.205.335.383.446.04.167.15.307.259.446.11.137.272.206.423.28h-8.107v-6.129h4.097c.122.176.365.166.555.257m-1.53.81s-.013.013-.013.027c.177.237.314.46.437.711.178.098.325.24.465.39.232.252.477.475.764.614.11.042.246.028.355-.013-.04-.057-.11-.043-.164-.085-.013 0-.027 0-.041.014.014.014.014.028.014.042-.136-.153-.328-.223-.437-.405-.082-.138-.137-.32-.314-.362-.055-.013.014.042-.014.03-.423-.267-.724-.588-1.051-.964m1.133.92c-.013-.028-.028-.03-.041-.056a.107.107 0 00-.054-.055c-.014 0-.028 0-.028.014.014.055.055.111.11.125.013 0 .013-.014.013-.028m-.355-1.338c.014.041.068.055.096.097 0 .014 0 .028-.014.028.109.153.26.237.396.363v.041c.04.056.109.084.137.154.013.042.068.097.136.125-.013.014-.041.014-.041.042-.054 0-.11-.028-.163.014a.212.212 0 00.11.057c-.021-.005-.042-.006-.056.013-.014.028.027.06.068.07.055.014.124.014.164.056-.095.013-.205-.028-.3.027.068.181.177.335.34.42.015 0 .042 0 .042-.016a.135.135 0 00-.11-.139c.11-.028.219-.028.329-.084-.014-.027-.041-.013-.055-.013.069-.042.15-.014.219-.07-.041-.042-.082 0-.124 0 .424-.125.875-.223 1.23-.502-.301-.154-.615-.223-.943-.293a.3.3 0 00-.11.014c0-.014 0-.042-.012-.042-.055 0-.096 0-.137-.028-.054-.028-.137-.042-.178 0-.013.015.04 0 .055.028h-.11c-.013 0-.013.014-.013.028-.068-.014-.15-.04-.218-.056-.096-.028-.178-.098-.287-.126-.15-.055-.274-.18-.437-.236-.014 0-.014.013-.014.028m3.876.025c-.037-.027-.077-.082-.111-.08-.126.012-.214-.061-.296-.13-.157-.132-.345-.187-.531-.251-.046-.016-.098-.017-.147-.022l-.712-.07a1.2 1.2 0 00-.136-.121h1.635c.059.053.116.133.152.173.128.139.264.27.397.405.043.043.09.082.135.123l-.015.019-.147-.09a.153.153 0 01-.011.016c.044.04.088.08.15.139-.162.035-.264-.034-.363-.11"/></g><path d="M0 4.171h6.371" fill="none" stroke="#2e3192" stroke-width=".05"/></svg>