<svg xmlns="http://www.w3.org/2000/svg" width="36.435" height="30.553" viewBox="0 0 9.64 8.084"><path d="M9.02 7.909l-.001-.3.505-.001v-.149l-.506.002v-.33l.59-.001v-.15l-.744.002.003 1.078.773-.003v-.15zm-.607.152h.153l-.003-1.078H8.41zM8.41 5.945C7.33 4.037 7.144 1.857 7.837 0L2.04.58C1.15 2.084.965 3.797 1.467 5.25l6.943.695M4.528 5.05s-.003-.05.014-.083c.027-.053.067-.1.11-.096l.043.004c.018-.025.04-.043.066-.04.034.002.05.008.078.015.035 0 .057-.034.093-.068.02-.018.085-.064.135-.112.039-.043.008-.076-.059-.163-.071-.093-.09-.184-.035-.284.026-.047.14-.067.246-.09a.27.27 0 01.084-.005c.036.009.1.053.165.148.012.017.011.017.021.034-.083.02-.15.06-.15.096 0 .039.085.083.18.103l.033.01c-.078.003-.138.031-.147.075-.01.047.037.096.113.127l-.002.001c-.062-.025-.116-.026-.14 0-.02.021-.016.06.01.102l-.015-.008c-.05-.032-.14.013-.21.099a.119.119 0 00-.028.064c-.012.037-.02.053-.088.072-.074.021-.259.005-.259.005s.013-.153.072-.172a.12.12 0 00-.015-.003c-.068-.005-.131.135-.131.173a.474.474 0 01-.07.001.357.357 0 01.04-.157.272.272 0 00-.097.157.164.164 0 01-.057-.005m1.755-3.327c-.24-.014-.306-.026-.388-.033-.083-.006-.078.003-.078.003s.04.006.108.073c.068.066.125.175.261.212a.747.747 0 00.157.02h.029c.09-.003.225-.07.225-.07l-.002.003c-.034.039-.047.08-.03.11.02.04.084.054.16.04l-.008.004c-.044.015-.073.038-.075.064-.002.036.049.07.124.086h-.008c-.061.004-.104.09-.104.198 0 .07.002.133.007.184-.001.014-.002.03-.006.046-.007.04-.033.159-.11.18-.077.021-.303.005-.303.005s.014-.159.08-.18l-.016-.002c-.077-.005-.147.136-.148.18a.648.648 0 01-.077 0 .351.351 0 01.044-.163.283.283 0 00-.1.163.177.177 0 01-.06-.005s-.002-.052.015-.086c.028-.055.069-.103.114-.1l.045.005c.02-.026.045-.045.075-.043.039.003.056.01.087.017.04 0 .068-.041.085-.075.036-.07 0-.201-.084-.249l-.008-.003c-.025-.003-.337-.028-.437-.06a1.044 1.044 0 01-.235-.106c-.071-.05-.057-.032-.078-.068a.859.859 0 00-.147-.177.23.23 0 00-.07-.037l-.006-.003c-.036-.008-.127.001-.288.039a1.858 1.858 0 00-.3.089c-.23.116-.255.23-.362.3a.34.34 0 01-.13.02h-.036c-.097.01-.172.062-.174.117-.024-.062-.067-.103-.112-.1-.066.004-.113.094-.105.202a.05.05 0 000 .007c-.012-.078-.053-.136-.1-.134-.056 0-.1.082-.097.18v.004c-.01-.061-.041-.105-.078-.107-.05-.002-.092.071-.098.164-.01-.047-.033-.08-.063-.083-.042-.005-.086.047-.105.122-.006-.021-.018-.036-.034-.042-.031-.011-.085.008-.129.049a.188.188 0 00-.053.064c-.025.044-.018.064-.097.087-.078.023-.275.006-.275.006s.013-.165.076-.187a.136.136 0 00-.016-.002c-.073-.006-.14.135-.14.186a.464.464 0 01-.073.002.385.385 0 01.044-.176.324.324 0 00-.113.175.145.145 0 01-.056-.005s-.003-.054.013-.09c.027-.057.065-.106.108-.103.01 0 .04.003.058.006.02-.029.043-.048.071-.045.037.002.054.01.083.016.033 0 .082-.036.118-.051.012-.005.168-.134.317-.25.03-.028.207-.172.233-.198.102-.1.17-.196.192-.257a1.09 1.09 0 01-.213.17c-.048-.025-.131-.018-.211.024l-.006.003c.07-.044.108-.103.086-.142-.025-.046-.122-.047-.217-.003l-.003.002c.055-.036.085-.08.07-.111-.02-.042-.108-.047-.201-.012.041-.029.063-.062.054-.089-.014-.037-.083-.051-.164-.035.017-.014.027-.03.025-.047-.001-.017-.014-.036-.036-.053l-.048-.04c-.067-.059-.138-.043-.188-.092a.205.205 0 01-.044-.068c-.007-.038.014-.071.014-.071l-.036.031a.085.085 0 00-.008-.007c-.022-.017-.09-.016-.09-.016s.092-.067.15-.03l.004.003c.043-.025.107-.053.165-.04-.059-.06-.273.002-.273.002l-.015-.016-.007-.008a.107.107 0 01.016-.067l-.045.036-.007-.006c-.023-.017-.091-.016-.091-.016s.093-.068.15-.031l.007.005a.447.447 0 01.098-.046c-.077-.024-.183.01-.207.015l-.012-.018c-.005-.035.03-.056.03-.056l-.055.02c-.014-.02-.078-.01-.078-.01s.086-.072.134-.037a.123.123 0 01.022.02c.071-.015.17-.028.2.012a.51.51 0 01.031.043c.04-.002.077.01.108.043a.268.268 0 01.037.064c.038.06.148.157.2.2.032.028.23.126.23.126s.27.11.432.1c.028-.032.05-.055.045-.08-.013-.058-.129-.068-.129-.068s.113-.039.125-.107c.01-.053-.117-.083-.117-.083s.112-.027.117-.088a.446.446 0 01.03-.142.168.168 0 01-.016-.025c-.038-.07 0-.141.01-.146a.156.156 0 01.126.048.454.454 0 01.188-.045h.004c.03 0 .108.006.18.041a.156.156 0 01.123-.044c.01.005.047.075.01.146l-.008.013a.552.552 0 01.033.15c.007.068.12.091.12.091s-.12.023-.12.077c.003.064.24.109.33.122.089.014.133.013.266.01.134-.004.32-.025.538 0 .452.054.518.097.83.11.304.013.402-.155.373-.267-.057-.213-.399-.33-.772-.222-.372.108-.596.223-.858.251-.22.024-.427-.02-.459-.2-.016-.088.051-.155.14-.198-.013-.024-.07-.013-.07-.013s.056-.071.14-.025c.008.004.017.003.024.003.01 0 .019-.001.023-.007C4.85.878 4.77.851 4.77.851s.107-.036.175.06c.015.018.036.018.052.012.031-.01.034-.07-.034-.134.125.014.13.082.19.116a.054.054 0 00.02.005.686.686 0 00.317-.074c-.014.028-.134.246-.571.25-.225.001-.173.1-.14.117a.413.413 0 00.242.023c.367-.075.632-.196.84-.25.35-.088.76-.026.917.241.158.27-.108.53-.496.507m-1.6.945a.273.273 0 00-.097.157c-.045.001-.057-.004-.057-.004s-.003-.05.014-.084c.027-.053.066-.099.11-.096l.043.005c.018-.026.04-.043.066-.042.034.003.05.01.077.016.036 0 .058-.034.094-.067.02-.02.085-.065.135-.113.039-.043.008-.076-.059-.162-.071-.093-.09-.185-.035-.284.026-.047.14-.068.246-.09a.245.245 0 01.084-.005c.036.008.1.052.165.147.012.018.011.018.021.035-.084.02-.15.059-.15.095 0 .04.084.083.18.103l.032.01c-.077.003-.137.031-.147.076-.01.046.038.096.114.127h-.002c-.062-.024-.117-.026-.14 0-.021.021-.016.06.009.103a.538.538 0 01-.014-.009c-.05-.032-.14.013-.21.1a.12.12 0 00-.029.064c-.011.036-.02.052-.088.072-.073.02-.258.005-.258.005s.013-.154.072-.173a.12.12 0 00-.015-.002c-.068-.006-.132.134-.132.173-.011 0-.045.002-.068 0a.358.358 0 01.039-.157m1.6 1.283c-.24-.014-.305-.027-.388-.033-.082-.007-.077.003-.077.003s.04.006.108.072c.068.067.125.176.261.213a.771.771 0 00.186.019c.09-.002.225-.07.225-.07l-.002.004c-.034.038-.047.079-.03.11.02.04.084.054.16.04l-.008.004c-.045.015-.073.038-.075.063-.002.036.049.07.124.087h-.009c-.06.003-.103.09-.103.198 0 .07.002.133.007.183l-.006.047c-.008.04-.033.158-.11.18-.077.02-.303.004-.303.004s.014-.158.08-.179a.146.146 0 00-.016-.002c-.077-.005-.147.136-.148.18a.598.598 0 01-.077 0 .352.352 0 01.044-.164.285.285 0 00-.1.164.177.177 0 01-.06-.005s-.003-.052.015-.086c.028-.056.069-.103.114-.1l.045.005c.02-.027.045-.045.075-.043.038.003.056.01.087.017.04 0 .067-.041.085-.075.036-.071-.001-.202-.085-.249l-.007-.003c-.025-.003-.337-.028-.438-.06a1.029 1.029 0 01-.234-.107c-.072-.049-.058-.031-.078-.067a.859.859 0 00-.148-.177v-.001a.229.229 0 00-.069-.036l-.006-.003c-.037-.008-.127 0-.289.039a1.823 1.823 0 00-.3.089c-.229.116-.254.23-.361.3a.339.339 0 01-.13.019.31.31 0 00-.037.001c-.096.01-.171.061-.173.117-.024-.062-.067-.103-.113-.1-.065.004-.112.094-.104.202v.007c-.012-.078-.054-.136-.101-.135-.056.002-.098.083-.096.181v.004c-.01-.062-.041-.105-.078-.107-.05-.002-.092.071-.098.163-.01-.046-.033-.079-.063-.083-.042-.005-.086.048-.105.122-.006-.02-.018-.035-.034-.041-.032-.01-.085.008-.129.049a.187.187 0 00-.053.064c-.025.044-.018.064-.097.087-.078.022-.275.005-.275.005s.013-.164.076-.186a.136.136 0 00-.017-.002c-.072-.006-.14.135-.14.186a.512.512 0 01-.072.002.384.384 0 01.044-.176.323.323 0 00-.114.175c-.043 0-.056-.005-.056-.005s-.002-.054.014-.09c.027-.057.065-.107.108-.103.01 0 .039.003.058.006.019-.029.043-.048.071-.046.037.003.053.01.083.017.033 0 .082-.036.118-.051.012-.005.167-.134.317-.25.03-.029.207-.172.233-.198.102-.1.17-.197.192-.258a.988.988 0 01-.213.17c-.048-.024-.131-.017-.212.025a.093.093 0 01-.005.003c.07-.044.107-.103.086-.142-.025-.046-.122-.047-.217-.003a.022.022 0 01-.004.002c.055-.036.085-.08.071-.112-.02-.041-.109-.046-.201-.011.041-.029.063-.062.054-.089-.014-.038-.083-.051-.164-.035.017-.015.027-.03.025-.047-.001-.017-.015-.036-.036-.053l-.048-.04c-.067-.059-.138-.043-.188-.092a.206.206 0 01-.044-.068c-.007-.038.014-.071.014-.071l-.036.031-.008-.007c-.022-.017-.09-.016-.09-.016s.092-.067.15-.03a.046.046 0 00.004.002c.043-.024.107-.052.164-.04-.058-.06-.273.003-.273.003l-.014-.016-.007-.009c-.005-.036.015-.067.015-.067l-.044.037-.008-.007c-.022-.016-.09-.015-.09-.015s.093-.068.15-.031l.007.005a.463.463 0 01.098-.046c-.077-.024-.183.01-.208.015l-.012-.018c-.004-.035.031-.056.031-.056l-.056.02c-.013-.02-.077-.01-.077-.01s.086-.072.133-.037a.125.125 0 01.022.02c.072-.015.171-.028.201.012a.44.44 0 01.03.042c.04 0 .078.01.109.044a.254.254 0 01.037.064c.037.06.148.157.2.2.032.028.23.126.23.126s.27.11.432.1c.028-.032.05-.055.045-.08-.014-.058-.129-.068-.129-.068s.113-.038.125-.107c.01-.053-.118-.082-.118-.082s.113-.028.118-.09a.444.444 0 01.03-.14.217.217 0 01-.016-.026c-.038-.07 0-.142.01-.146a.155.155 0 01.126.048.454.454 0 01.188-.045h.004c.03.001.108.006.18.041a.155.155 0 01.123-.044c.01.004.047.076.01.146l-.009.013a.558.558 0 01.034.15c.007.068.12.09.12.09s-.12.023-.12.078c.003.064.24.109.33.122.088.014.133.012.266.009.133-.004.32-.024.538.002.451.053.518.096.83.11.304.012.402-.157.372-.268-.056-.213-.398-.33-.77-.222-.373.108-.597.223-.86.25-.22.025-.426-.02-.458-.2-.016-.087.051-.154.14-.197-.013-.025-.07-.013-.07-.013s.056-.071.14-.025c.008.004.017.003.023.003.01 0 .02-.001.023-.007.018-.037-.063-.064-.063-.064s.107-.036.175.06c.015.018.035.018.052.012.031-.01.034-.069-.034-.134.125.014.13.082.19.116a.048.048 0 00.02.005.676.676 0 00.317-.075c-.014.029-.134.247-.572.25-.224.002-.172.101-.138.118a.412.412 0 00.241.023c.367-.075.632-.197.84-.25.35-.088.76-.026.917.241.158.27-.108.53-.496.507m-2.169-.264c.02-.035.036-.098.024-.09-.063.043-.149-.002-.149-.002s-.087.045-.148.002c-.011-.008.005.055.024.09.027.05.04.119.122.12h.004c.085.001.096-.07.123-.12m0-2.228c.02-.036.036-.099.024-.09-.063.043-.149-.003-.149-.003s-.087.046-.148.002c-.011-.008.005.055.024.09.027.05.04.12.122.12h.004c.085.002.096-.07.123-.12M2.05 6.704l-.165-.221c.09-.028.138-.096.138-.2 0-.06-.022-.202-.22-.202H1.56l.001.624h.052v-.208h.168c.016 0 .033 0 .049-.002l.154.21zm-.27-.257h-.166l-.001-.315h.189c.058 0 .102.015.13.045a.154.154 0 01.037.107c0 .135-.102.163-.188.163m-.464.71a.53.53 0 00-.165.385c0 .3.254.542.564.542h.002a.57.57 0 00.397-.16.531.531 0 00.164-.385c0-.3-.253-.542-.562-.542h-.002a.571.571 0 00-.398.16m-.01.384a.401.401 0 01.408-.393h.001c.225 0 .408.175.41.391a.38.38 0 01-.119.276.418.418 0 01-.58.001.379.379 0 01-.12-.275m-.51.54h.108L.902 7.003H.75l.002.786-.641-.784H0l.003 1.078h.153l-.002-.786zm1.598-2.026h.059l.16-.15-.066-.005zm-.123.598v-.228h.311v-.05l-.312.001V6.13h.365v-.05h-.418l.002.624.435-.002v-.05zm1.085-.203v.134a.365.365 0 01-.218.07.27.27 0 01-.275-.263c0-.07.028-.136.08-.186a.277.277 0 01.194-.078.31.31 0 01.21.075l.007.007.035-.038-.008-.007a.352.352 0 00-.243-.089h-.001a.333.333 0 00-.231.093.307.307 0 00-.096.223c0 .173.147.314.327.314h.001c.1 0 .196-.034.266-.091l.004-.004V6.4l-.296.001v.05zm-.403.547l-.426.001.002 1.078h.154l-.001-.336.237-.001c.021 0 .042 0 .063-.002l.25.337h.19l-.28-.376c.131-.057.202-.175.202-.339a.36.36 0 00-.09-.25c-.068-.074-.169-.112-.3-.112zm-.001.15c.083 0 .146.022.185.064a.22.22 0 01.051.15c0 .08-.023.136-.07.174a.319.319 0 01-.201.055h-.236v-.442h.27zm.66-1.07l.002.623h.052l-.002-.623zm.578.625a.32.32 0 00.326-.316.306.306 0 00-.096-.222.332.332 0 00-.23-.091h-.002a.331.331 0 00-.23.092.307.307 0 00-.097.223.323.323 0 00.328.314zm0-.052H4.19a.27.27 0 01-.275-.262.26.26 0 01.08-.186.278.278 0 01.194-.078h.001a.27.27 0 01.274.262.269.269 0 01-.273.264m-.485.346h-.114l.003 1.078h.153l-.002-.727.373.607.368-.609.002.726h.153L4.64 6.993h-.113l-.409.672zm1.043-.923h-.036l.002.624h.052l-.002-.524.426.519.003.003h.035l-.001-.623h-.052l.001.524zm.552.918l-.483 1.08.167-.002.124-.282.491-.002.127.283h.166L5.406 6.99zm-.128.65l.18-.412.184.41zm1.002-.652h-.11l.003 1.078h.153l-.002-.786.643.784h.108l-.003-1.078h-.153l.002.785zm1.443-.004l-.351.001.002 1.078.383-.001h.004a.542.542 0 00.506-.54.542.542 0 00-.543-.538zm-.198.151h.199a.386.386 0 01.388.388c0 .199-.158.37-.361.388l-.224.001z" fill="#2e3192"/></svg>