<svg xmlns="http://www.w3.org/2000/svg" width="42.024" height="16.011" viewBox="0 0 11.119 4.236"><path d="M11.119 3.697V3.57h-.417v.656h.176l-.002-.1v-.18h.117l.098.002v-.121h-.215v-.132h.117l.126.002m-.323-.693h.322a6.413 6.413 0 01-.016-.314c-.003-.103-.006-.21-.006-.352v-.18c0-.415-.177-.592-.605-.592a1.25 1.25 0 00-.489.107l.011.313a.737.737 0 01.434-.152c.216 0 .316.076.316.302h-.201c-.153 0-.333.014-.472.082-.14.068-.24.191-.24.401 0 .268.242.418.49.418.167 0 .35-.088.434-.243h.006c.003.043.003.136.016.21m-.032-.65c0 .11-.017.21-.077.29a.31.31 0 01-.257.125c-.13 0-.231-.052-.231-.171 0-.216.242-.243.406-.243zm-1.39.65h.366V1.599h-.366zm0-1.661h.366v-.35h-.366zm-.027 2.56c0 .209.107.333.291.333a.475.475 0 00.298-.084c-.008-.01-.061-.107-.068-.117a.313.313 0 01-.185.059c-.083 0-.147-.057-.147-.143v-.008l.206-.003.196-.002v-.05c0-.223-.095-.332-.29-.332-.091 0-.3.034-.3.347m.187-.076l.001-.01c.003-.038.017-.126.113-.126.097 0 .103.083.103.127v.009l-.104.002-.113-.002m-.25-.823l-.59-.778.524-.628h-.431l-.437.563h-.005V.957H7.98v2.047h.366v-.682h.005l.47.682zM7.97 4.164c-.078 0-.123-.065-.123-.168V3.57h-.083v.415c0 .065.004.1.027.147.027.054.084.101.18.101.094 0 .152-.047.179-.101a.293.293 0 00.026-.147V3.57h-.083v.427c0 .103-.045.169-.123.169m-.553-1.161h.366V.957h-.366zm.02.559c-.156 0-.247.115-.247.341 0 .203.093.328.239.328.155 0 .246-.114.246-.341 0-.203-.093-.328-.239-.328m0 .067c.111 0 .153.128.153.26 0 .203-.074.275-.16.275-.111 0-.153-.128-.153-.26 0-.203.074-.275.16-.275m-.505-.626h.322a6.413 6.413 0 01-.017-.314c-.002-.104-.005-.21-.005-.352v-.18c0-.415-.177-.592-.606-.592-.155 0-.346.04-.488.106l.01.314a.737.737 0 01.435-.153c.215 0 .316.077.316.303h-.202c-.152 0-.333.013-.472.082-.139.068-.24.19-.24.401 0 .267.243.417.491.417.167 0 .35-.087.434-.242h.005c.003.043.003.136.017.21m-.033-.65c0 .11-.016.21-.076.29a.31.31 0 01-.257.125c-.13 0-.232-.052-.232-.172 0-.215.243-.243.407-.243zm-1.374.65h.355V.956h-.365v.805h-.006a.5.5 0 00-.42-.196c-.431 0-.59.344-.59.73s.159.74.59.74a.522.522 0 00.43-.19h.006zm-.013-.707c0 .2-.08.456-.322.456-.24 0-.308-.262-.308-.456 0-.188.065-.447.302-.447.235 0 .328.25.328.447M4.183 1.88c-.044-.517-.573-.637-1.077-.56-.268.04-.432.126-.533.196-.07.049-.091.082-.106.103-.016.02-.026.066-.018.115.007.048.027.099.069.127.329-.024.9-.045 1.01.232.006.038.015.061.016.07.109-.027.029-.017.19.008a.717.717 0 00.187-.029c.027-.006.042-.031.042-.031s-.005-.027-.003-.04c0 0 .056.003.079-.014.152-.025.072-.097.144-.177M2.545.03c-.02-.049-.111-.026-.149-.016-.028.007-.298.092-.402.103a16.112 16.112 0 01-.131-.036c-.17.022-.267.157-.362.264-.079.09-.186.31-.1.441l-.015.086.193.281c.066.048.075.083.146.13l.045.066c.058.039.23.04.26.014.277.026.246-.535.335-.653a.238.238 0 00-.102-.135c.014-.117-.003-.288.089-.369.027-.125.224-.096.193-.176M.937 1.63c-.18-.023-.381-.363-.435-.508-.021-.058-.012-.038-.041-.083 0-.005-.019.016-.018.01-.053.062-.044.115-.052.264a1.655 1.655 0 01-.07-.005c-.005.054-.01.084-.036.111l-.015.027c-.045-.014-.023.006-.041-.03-.165.008-.153.174-.229.268.003.31.617.693 1.068.576.058-.015.159-.023.211-.05.084-.04.372-.242.28-.406-.028-.345-.445-.053-.622-.174M.493 2.99c-.014.001-.006.01.011.062.016.1.097.337.067.397.02.067.04.043.076.08.025.025.036.09.065.109l.098-.007.019.055.126-.009c.024.005.096.042.117.048l.14-.01c.108.029.202-.016.293-.077.05-.034.106-.03.15-.067.066-.056.154-.165.196-.24.102-.186.067-.628-.025-.738-.036-.039-.079-.04-.158-.03-.03.031-.113.043-.136.08a1.516 1.516 0 01-.18.242c-.204.194-.643.291-.859.105m1.873-.415c-.004 0 .007.014.002.014.045.09.15.127.226.19.024.021.089.133.12.141.034.041.057.155.079.155.024.032-.002.107.021.137.002.135-.017.144-.04.17 0 .01.013.034.013.043.006.006.06.046.084.041.073.002.374.237.398.282.216.017.2-.05.35-.113.04-.017.072 0 .099-.028.027-.028.03-.084.056-.113.004-.531-.72-1.034-1.255-1.053-.076.058-.108.044-.153.134m3.817 1.32c0 .178.088.336.295.336.059 0 .125-.02.163-.034v-.333h-.189v.07h.11v.208a.198.198 0 01-.081.018c-.143 0-.211-.112-.211-.281 0-.16.098-.246.205-.246a.36.36 0 01.153.04v-.082a.357.357 0 00-.154-.029c-.171 0-.29.129-.29.334m.742-.328h-.169v.657h.083v-.297h.038c.062 0 .085.02.105.075l.074.222h.09l-.092-.264c-.014-.037-.032-.056-.072-.064v-.002c.097-.02.13-.087.13-.157a.168.168 0 00-.049-.125c-.03-.028-.068-.045-.138-.045m-.02.068c.073 0 .12.035.12.108 0 .057-.033.116-.122.116H6.84v-.224zm1.545-.068h-.158v.656h.083V3.95h.055c.139 0 .213-.068.213-.196a.183.183 0 00-.051-.135.19.19 0 00-.142-.05m-.028.067c.084 0 .135.035.135.126 0 .073-.037.12-.138.12h-.044v-.246zm.6-.068h-.307v.656h.318v-.071H8.8V3.92h.213v-.072H8.8V3.64h.223zm1.011 0c.002.022 0 .053 0 .1v.456c0 .048.002.086 0 .1h.237c.178 0 .347-.076.347-.335 0-.206-.123-.32-.305-.32zm.173.12h.052c.101 0 .183.05.183.201 0 .178-.082.211-.183.211h-.052z" fill="#2e3192"/></svg>