<svg xmlns="http://www.w3.org/2000/svg" height="21.122" width="87.631" data-name="Calque 1"><defs><clipPath transform="translate(-16.08 -28.18)" id="a"><path fill="none" d="M-321.73-198.43h841.89v595.28h-841.89z"/></clipPath></defs><g transform="translate(-38.939 -115.678)" clip-path="url(#a)"><path d="M114.3 121.57v9.33a5.92 5.92 0 006 5.88h.27a5.9 5.9 0 006-5.91v-4.44a1.78 1.78 0 00-1.74-1.74h-3.91c-2.131.162-2.131 3.288 0 3.45h2.16v2.76a2.47 2.47 0 01-2.55 2.43h-.27a2.47 2.47 0 01-2.52-2.46v-9.3a2.44 2.44 0 012.52-2.43h.27a2.18 2.18 0 012.4 1.56 1.8 1.8 0 001.8 1.5 1.52 1.52 0 001.68-1.44v-.18a5.71 5.71 0 00-5.88-4.89h-.27a5.9 5.9 0 00-6 5.88m-13.11 6.9l1.89-6.33 1.89 6.33zm-5.52 6.06a1.33 1.33 0 00-.09.57 1.74 1.74 0 001.8 1.68 1.65 1.65 0 001.62-1.23l1.11-3.63h5.94l1.11 3.63a1.6 1.6 0 001.59 1.23 1.74 1.74 0 001.8-1.68 1.99 1.99 0 00-.09-.57l-5.46-17.37a1.77 1.77 0 00-1.92-1.47 1.74 1.74 0 00-1.92 1.47zm-14.91-1a1.93 1.93 0 00-.24 1c0 1.23.66 2.1 1.77 2.1h8.52c2.482.19 2.482-3.64 0-3.45h-5.85l7.38-14.22a2.59 2.59 0 00.24-1.08 1.84 1.84 0 00-1.77-2h-8.15c-2.482-.19-2.482 3.64 0 3.45h5.88zm-16.5-11.94v9.33a5.92 5.92 0 006 5.88h.27a5.9 5.9 0 006-5.91v-4.44a1.78 1.78 0 00-1.74-1.74h-3.83c-2.131.162-2.131 3.288 0 3.45h2.16v2.76a2.47 2.47 0 01-2.55 2.43h-.27a2.47 2.47 0 01-2.52-2.46v-9.3a2.44 2.44 0 012.52-2.43h.27a2.18 2.18 0 012.4 1.56 1.8 1.8 0 001.8 1.5 1.52 1.52 0 001.68-1.44v-.18a5.71 5.71 0 00-5.88-4.89h-.27a5.9 5.9 0 00-6 5.88m-8.76-4.14v17.61c0 2.32 3.48 2.32 3.48 0v-17.63c0-2.32-3.48-2.32-3.48 0m-16.32 16.08a1.93 1.93 0 00-.24 1c0 1.23.66 2.1 1.77 2.1h8.52c2.482.19 2.482-3.64 0-3.45h-5.88l7.38-14.22a2.59 2.59 0 00.24-1.08 1.84 1.84 0 00-1.77-2h-8.16c-2.482-.19-2.482 3.64 0 3.45h5.88z" fill="currentColor"/></g></svg>
